%TF.GenerationSoftware,KiCad,Pcbnew,7.0.8*%
%TF.CreationDate,2023-10-15T22:31:51-07:00*%
%TF.ProjectId,DevkitHotswapPicoHub,4465766b-6974-4486-9f74-737761705069,rev?*%
%TF.SameCoordinates,Original*%
%TF.FileFunction,Drillmap*%
%TF.FilePolarity,Positive*%
%FSLAX45Y45*%
G04 Gerber Fmt 4.5, Leading zero omitted, Abs format (unit mm)*
G04 Created by KiCad (PCBNEW 7.0.8) date 2023-10-15 22:31:51*
%MOMM*%
%LPD*%
G01*
G04 APERTURE LIST*
%ADD10C,0.200000*%
G04 APERTURE END LIST*
D10*
X13716000Y-1778000D02*
X13716000Y-11684000D01*
X13208000Y-12192000D01*
X1778000Y-12192000D01*
X1270000Y-11684000D01*
X1270000Y-1778000D01*
X1778000Y-1270000D01*
X13208000Y-1270000D01*
X13716000Y-1778000D01*
X1520777Y-12513484D02*
X1520777Y-12313484D01*
X1520777Y-12313484D02*
X1568396Y-12313484D01*
X1568396Y-12313484D02*
X1596967Y-12323008D01*
X1596967Y-12323008D02*
X1616015Y-12342055D01*
X1616015Y-12342055D02*
X1625539Y-12361103D01*
X1625539Y-12361103D02*
X1635062Y-12399198D01*
X1635062Y-12399198D02*
X1635062Y-12427769D01*
X1635062Y-12427769D02*
X1625539Y-12465865D01*
X1625539Y-12465865D02*
X1616015Y-12484912D01*
X1616015Y-12484912D02*
X1596967Y-12503960D01*
X1596967Y-12503960D02*
X1568396Y-12513484D01*
X1568396Y-12513484D02*
X1520777Y-12513484D01*
X1720777Y-12513484D02*
X1720777Y-12380150D01*
X1720777Y-12418246D02*
X1730301Y-12399198D01*
X1730301Y-12399198D02*
X1739824Y-12389674D01*
X1739824Y-12389674D02*
X1758872Y-12380150D01*
X1758872Y-12380150D02*
X1777920Y-12380150D01*
X1844586Y-12513484D02*
X1844586Y-12380150D01*
X1844586Y-12313484D02*
X1835062Y-12323008D01*
X1835062Y-12323008D02*
X1844586Y-12332531D01*
X1844586Y-12332531D02*
X1854110Y-12323008D01*
X1854110Y-12323008D02*
X1844586Y-12313484D01*
X1844586Y-12313484D02*
X1844586Y-12332531D01*
X1968396Y-12513484D02*
X1949348Y-12503960D01*
X1949348Y-12503960D02*
X1939824Y-12484912D01*
X1939824Y-12484912D02*
X1939824Y-12313484D01*
X2073158Y-12513484D02*
X2054110Y-12503960D01*
X2054110Y-12503960D02*
X2044586Y-12484912D01*
X2044586Y-12484912D02*
X2044586Y-12313484D01*
X2301729Y-12513484D02*
X2301729Y-12313484D01*
X2301729Y-12313484D02*
X2368396Y-12456341D01*
X2368396Y-12456341D02*
X2435063Y-12313484D01*
X2435063Y-12313484D02*
X2435063Y-12513484D01*
X2616015Y-12513484D02*
X2616015Y-12408722D01*
X2616015Y-12408722D02*
X2606491Y-12389674D01*
X2606491Y-12389674D02*
X2587444Y-12380150D01*
X2587444Y-12380150D02*
X2549348Y-12380150D01*
X2549348Y-12380150D02*
X2530301Y-12389674D01*
X2616015Y-12503960D02*
X2596967Y-12513484D01*
X2596967Y-12513484D02*
X2549348Y-12513484D01*
X2549348Y-12513484D02*
X2530301Y-12503960D01*
X2530301Y-12503960D02*
X2520777Y-12484912D01*
X2520777Y-12484912D02*
X2520777Y-12465865D01*
X2520777Y-12465865D02*
X2530301Y-12446817D01*
X2530301Y-12446817D02*
X2549348Y-12437293D01*
X2549348Y-12437293D02*
X2596967Y-12437293D01*
X2596967Y-12437293D02*
X2616015Y-12427769D01*
X2711253Y-12380150D02*
X2711253Y-12580150D01*
X2711253Y-12389674D02*
X2730301Y-12380150D01*
X2730301Y-12380150D02*
X2768396Y-12380150D01*
X2768396Y-12380150D02*
X2787444Y-12389674D01*
X2787444Y-12389674D02*
X2796967Y-12399198D01*
X2796967Y-12399198D02*
X2806491Y-12418246D01*
X2806491Y-12418246D02*
X2806491Y-12475388D01*
X2806491Y-12475388D02*
X2796967Y-12494436D01*
X2796967Y-12494436D02*
X2787444Y-12503960D01*
X2787444Y-12503960D02*
X2768396Y-12513484D01*
X2768396Y-12513484D02*
X2730301Y-12513484D01*
X2730301Y-12513484D02*
X2711253Y-12503960D01*
X2892205Y-12494436D02*
X2901729Y-12503960D01*
X2901729Y-12503960D02*
X2892205Y-12513484D01*
X2892205Y-12513484D02*
X2882682Y-12503960D01*
X2882682Y-12503960D02*
X2892205Y-12494436D01*
X2892205Y-12494436D02*
X2892205Y-12513484D01*
X2892205Y-12389674D02*
X2901729Y-12399198D01*
X2901729Y-12399198D02*
X2892205Y-12408722D01*
X2892205Y-12408722D02*
X2882682Y-12399198D01*
X2882682Y-12399198D02*
X2892205Y-12389674D01*
X2892205Y-12389674D02*
X2892205Y-12408722D01*
M02*
