M48
; DRILL file {KiCad 7.0.8} date Sun Oct 15 22:31:50 2023
; FORMAT={-:-/ absolute / inch / decimal}
; #@! TF.CreationDate,2023-10-15T22:31:50-07:00
; #@! TF.GenerationSoftware,Kicad,Pcbnew,7.0.8
; #@! TF.FileFunction,Plated,1,2,PTH
FMAT,2
INCH
; #@! TA.AperFunction,Plated,PTH,ViaDrill
T1C0.0157
; #@! TA.AperFunction,Plated,PTH,ComponentDrill
T2C0.0300
; #@! TA.AperFunction,Plated,PTH,ComponentDrill
T3C0.0354
; #@! TA.AperFunction,Plated,PTH,ComponentDrill
T4C0.0394
; #@! TA.AperFunction,Plated,PTH,ComponentDrill
T5C0.0512
; #@! TA.AperFunction,Plated,PTH,ComponentDrill
T6C0.1260
%
G90
G05
T1
X0.625Y-1.8
X0.68Y-1.89
X0.725Y-4.325
X0.75Y-3.72
X0.95Y-2.975
X0.975Y-3.1
X1.07Y-3.58
X1.2Y-2.7
X1.26Y-2.1
X1.31Y-3.5827
X1.325Y-3.175
X1.37Y-1.93
X1.575Y-1.7
X1.6Y-1.97
X1.625Y-1.85
X1.6375Y-1.8875
X1.6827Y-1.9423
X1.725Y-1.95
X1.725Y-4.5
X1.75Y-3.025
X1.78Y-2.72
X1.82Y-3.25
X1.86Y-2.54
X1.9Y-3.025
X1.93Y-3.25
X2.03Y-3.25
X2.075Y-1.775
X2.08Y-1.34
X2.15Y-2.675
X2.1778Y-2.6465
X2.2Y-2.9
X2.2044Y-2.7859
X2.2222Y-3.1465
X2.234Y-2.8213
X2.2394Y-2.9
X2.25Y-3.175
X2.275Y-2.625
X2.275Y-2.925
X2.275Y-2.975
X2.2807Y-3.0139
X2.3276Y-2.8273
X2.34Y-2.79
X2.35Y-2.625
X2.387Y-0.9102
X2.3875Y-0.95
X2.3988Y-2.7022
X2.4Y-2.95
X2.4125Y-0.875
X2.42Y-2.12
X2.42Y-2.4
X2.4232Y-1.5264
X2.4278Y-2.9222
X2.45Y-1.36
X2.4589Y-1.9
X2.4625Y-1.525
X2.4875Y-2.125
X2.488Y-2.0852
X2.4982Y-1.9
X2.54Y-0.99
X2.56Y-2.63
X2.5625Y-2.675
X2.57Y-2.79
X2.575Y-1.775
X2.58Y-2.26
X2.58Y-2.38
X2.5992Y-0.8624
X2.66Y-1.01
X2.67Y-2.8321
X2.6824Y-2.525
X2.6824Y-2.7
X2.6838Y-2.5821
X2.6875Y-2.4
X2.6891Y-2.7431
X2.69Y-2.89
X2.6943Y-2.4443
X2.7003Y-2.6628
X2.7155Y-2.85
X2.7172Y-2.6029
X2.72Y-0.84
X2.724Y-2.5321
X2.725Y-1.35
X2.725Y-2.475
X2.73Y-2.3
X2.73Y-2.7726
X2.7375Y-2.64
X2.75Y-1.4965
X2.7625Y-2.0
X2.7625Y-2.0394
X2.791Y-1.275
X2.8125Y-2.325
X2.82Y-0.82
X2.8403Y-2.2958
X2.86Y-0.92
X2.86Y-1.05
X2.8663Y-1.34
X2.8663Y-2.3919
X2.8851Y-0.8428
X2.8957Y-0.8807
X2.9Y-2.54
X2.9Y-2.82
X2.9Y-2.925
X2.9106Y-2.675
X2.9398Y-2.9255
X2.941Y-1.525
X2.9414Y-0.96
X2.9487Y-2.5548
X2.95Y-2.675
X2.9625Y-1.0
X2.975Y-0.55
X2.9804Y-1.525
X2.9875Y-1.1
X2.9875Y-2.4292
X2.9898Y-2.6755
X2.9907Y-2.5571
X2.9971Y-2.375
X2.9972Y-2.25
X3.0Y-1.05
X3.01Y-2.82
X3.03Y-0.86
X3.0352Y-2.2745
X3.05Y-1.6215
X3.0675Y-2.5453
X3.075Y-2.275
X3.08Y-2.34
X3.1Y-2.72
X3.1125Y-2.5649
X3.13Y-0.89
X3.1347Y-2.0778
X3.1375Y-2.8
X3.14Y-2.43
X3.1625Y-2.05
X3.1653Y-2.8278
X3.175Y-2.975
X3.2518Y-1.4654
X3.2829Y-2.1259
X3.3096Y-2.5219
X3.3097Y-2.8222
X3.3125Y-1.45
X3.3125Y-2.1
X3.3125Y-2.4368
X3.3125Y-2.4762
X3.325Y-2.75
X3.331Y-2.5549
X3.3375Y-2.85
X3.3426Y-2.7852
X3.375Y-2.975
X3.3875Y-2.275
X3.4Y-0.925
X3.4153Y-2.2472
X3.42Y-2.36
X3.459Y-2.525
X3.459Y-2.675
X3.4707Y-2.4807
X3.475Y-2.8
X3.4875Y-2.625
X3.7Y-2.425
X3.7Y-4.4
X3.72Y-2.82
X3.7394Y-2.45
X3.76Y-2.6
X3.775Y-0.95
X3.775Y-3.575
X3.8134Y-2.6228
X3.8476Y-2.6421
X3.8669Y-2.6078
X3.87Y-3.01
X3.9353Y-2.6851
X3.95Y-2.475
X3.9505Y-2.6488
X4.0Y-2.475
X4.0Y-3.575
X4.0204Y-2.7311
X4.0323Y-2.502
X4.04Y-2.82
X4.0472Y-2.7023
X4.075Y-0.775
X4.0827Y-2.4327
X4.1Y-2.475
X4.175Y-2.475
X4.21Y-2.4465
X4.27Y-1.25
X4.35Y-1.48
X4.35Y-1.775
X4.425Y-0.775
X4.4847Y-0.6785
X4.5125Y-0.65
X4.6875Y-3.425
X4.725Y-1.425
X4.725Y-3.46
X4.75Y-1.97
X4.7625Y-3.425
X4.825Y-1.35
X5.0014Y-2.8986
X5.0014Y-2.9986
X5.0014Y-3.0986
X5.0014Y-3.3986
X5.0077Y-2.5
X5.025Y-1.5
X5.025Y-2.35
X5.175Y-1.7
T2
X0.8Y-1.725
X0.8Y-1.825
X0.8Y-1.925
X0.8Y-2.025
X0.8Y-2.125
X0.8Y-2.225
X0.8Y-2.325
X0.8Y-2.425
X0.8Y-2.525
X0.8Y-2.625
X0.8Y-2.725
X0.8Y-2.825
X0.8Y-2.925
X0.8Y-3.025
X0.8Y-3.125
X0.8Y-3.225
X0.8Y-3.325
X0.8Y-3.425
X0.8Y-3.525
X0.8Y-3.625
X1.5Y-1.725
X1.5Y-1.825
X1.5Y-1.925
X1.5Y-2.025
X1.5Y-2.125
X1.5Y-2.225
X1.5Y-2.325
X1.5Y-2.425
X1.5Y-2.525
X1.5Y-2.625
X1.5Y-2.725
X1.5Y-2.825
X1.5Y-2.925
X1.5Y-3.025
X1.5Y-3.125
X1.5Y-3.225
X1.5Y-3.325
X1.5Y-3.425
X1.5Y-3.525
X1.5Y-3.625
X4.55Y-1.725
X4.55Y-1.825
X4.55Y-1.925
X4.55Y-2.025
X4.55Y-2.125
X4.55Y-2.225
X4.55Y-2.325
X4.55Y-2.425
X4.55Y-2.525
X4.55Y-2.625
X4.55Y-2.725
X4.55Y-2.825
X4.55Y-2.925
X4.55Y-3.025
X4.55Y-3.125
X4.55Y-3.225
X4.55Y-3.325
X4.55Y-3.425
X4.55Y-3.525
X4.55Y-3.625
X5.25Y-1.725
X5.25Y-1.825
X5.25Y-1.925
X5.25Y-2.025
X5.25Y-2.125
X5.25Y-2.225
X5.25Y-2.325
X5.25Y-2.425
X5.25Y-2.525
X5.25Y-2.625
X5.25Y-2.725
X5.25Y-2.825
X5.25Y-2.925
X5.25Y-3.025
X5.25Y-3.125
X5.25Y-3.225
X5.25Y-3.325
X5.25Y-3.425
X5.25Y-3.525
X5.25Y-3.625
T3
X1.775Y-1.125
X1.875Y-1.125
X2.125Y-1.125
X2.225Y-1.125
X2.475Y-1.125
X2.575Y-1.125
X2.825Y-1.125
X2.925Y-1.125
X3.175Y-1.125
X3.275Y-1.125
X3.525Y-1.125
X3.625Y-1.125
X3.8656Y-1.125
X3.9656Y-1.125
X4.225Y-1.125
X4.325Y-1.125
T4
X1.05Y-3.925
X1.15Y-3.925
X1.25Y-3.925
X1.6996Y-4.625
X1.7996Y-4.625
X1.8996Y-4.625
X1.9996Y-4.625
X2.15Y-4.625
X2.25Y-4.625
X2.35Y-4.625
X2.4375Y-0.65
X2.4375Y-0.75
X2.5375Y-0.65
X2.5375Y-0.75
X2.6375Y-0.65
X2.6375Y-0.75
X2.7375Y-0.65
X2.7375Y-0.75
X2.8375Y-0.65
X2.8375Y-0.75
X2.9375Y-0.65
X2.9375Y-0.75
X3.0375Y-0.65
X3.0375Y-0.75
X3.1375Y-0.65
X3.1375Y-0.75
X3.2375Y-0.65
X3.2375Y-0.75
X3.3375Y-0.65
X3.3375Y-0.75
X3.4375Y-0.65
X3.4375Y-0.75
X3.5375Y-0.65
X3.5375Y-0.75
X3.55Y-4.625
X3.6375Y-0.65
X3.6375Y-0.75
X3.65Y-4.625
X3.75Y-4.625
X3.85Y-4.625
X4.0Y-4.625
X4.1Y-4.625
X4.2Y-4.625
X4.8Y-3.925
X4.9Y-3.925
X5.0Y-3.925
T5
X0.9035Y-4.3516
X0.9035Y-4.5484
X1.3957Y-4.3516
X1.3957Y-4.5484
X4.6543Y-4.3516
X4.6543Y-4.5484
X5.1465Y-4.3516
X5.1465Y-4.5484
T6
X0.8Y-0.8
X1.9Y-4.3
X4.0Y-4.3
X5.14Y-0.77
T0
M30
