%TF.GenerationSoftware,KiCad,Pcbnew,7.0.8*%
%TF.CreationDate,2023-11-22T21:34:50-08:00*%
%TF.ProjectId,DevkitHotswapPicoHub,4465766b-6974-4486-9f74-737761705069,rev?*%
%TF.SameCoordinates,Original*%
%TF.FileFunction,Soldermask,Top*%
%TF.FilePolarity,Negative*%
%FSLAX46Y46*%
G04 Gerber Fmt 4.6, Leading zero omitted, Abs format (unit mm)*
G04 Created by KiCad (PCBNEW 7.0.8) date 2023-11-22 21:34:50*
%MOMM*%
%LPD*%
G01*
G04 APERTURE LIST*
G04 Aperture macros list*
%AMRoundRect*
0 Rectangle with rounded corners*
0 $1 Rounding radius*
0 $2 $3 $4 $5 $6 $7 $8 $9 X,Y pos of 4 corners*
0 Add a 4 corners polygon primitive as box body*
4,1,4,$2,$3,$4,$5,$6,$7,$8,$9,$2,$3,0*
0 Add four circle primitives for the rounded corners*
1,1,$1+$1,$2,$3*
1,1,$1+$1,$4,$5*
1,1,$1+$1,$6,$7*
1,1,$1+$1,$8,$9*
0 Add four rect primitives between the rounded corners*
20,1,$1+$1,$2,$3,$4,$5,0*
20,1,$1+$1,$4,$5,$6,$7,0*
20,1,$1+$1,$6,$7,$8,$9,0*
20,1,$1+$1,$8,$9,$2,$3,0*%
G04 Aperture macros list end*
%ADD10R,1.500000X1.500000*%
%ADD11C,5.600000*%
%ADD12RoundRect,0.250000X-0.450000X0.262500X-0.450000X-0.262500X0.450000X-0.262500X0.450000X0.262500X0*%
%ADD13R,1.700000X1.700000*%
%ADD14O,1.700000X1.700000*%
%ADD15R,1.800000X1.800000*%
%ADD16C,1.800000*%
%ADD17RoundRect,0.075000X-0.662500X-0.075000X0.662500X-0.075000X0.662500X0.075000X-0.662500X0.075000X0*%
%ADD18O,3.048000X1.850000*%
%ADD19RoundRect,0.250000X-0.262500X-0.450000X0.262500X-0.450000X0.262500X0.450000X-0.262500X0.450000X0*%
%ADD20RoundRect,0.250000X0.450000X-0.262500X0.450000X0.262500X-0.450000X0.262500X-0.450000X-0.262500X0*%
%ADD21C,1.524000*%
%ADD22R,1.524000X1.524000*%
%ADD23R,1.050000X1.500000*%
%ADD24O,1.050000X1.500000*%
%ADD25RoundRect,0.075000X0.662500X0.075000X-0.662500X0.075000X-0.662500X-0.075000X0.662500X-0.075000X0*%
%ADD26RoundRect,0.250000X0.262500X0.450000X-0.262500X0.450000X-0.262500X-0.450000X0.262500X-0.450000X0*%
G04 APERTURE END LIST*
%TO.C,G\u002A\u002A\u002A*%
G36*
X70462704Y-99765319D02*
G01*
X70117864Y-99765319D01*
X70117864Y-99420478D01*
X70462704Y-99420478D01*
X70462704Y-99765319D01*
G37*
G36*
X70462704Y-100799842D02*
G01*
X70117864Y-100799842D01*
X70117864Y-100455001D01*
X70462704Y-100455001D01*
X70462704Y-100799842D01*
G37*
G36*
X70462704Y-101489524D02*
G01*
X70117864Y-101489524D01*
X70117864Y-101144683D01*
X70462704Y-101144683D01*
X70462704Y-101489524D01*
G37*
G36*
X70807545Y-101144683D02*
G01*
X70462704Y-101144683D01*
X70462704Y-100799842D01*
X70807545Y-100799842D01*
X70807545Y-101144683D01*
G37*
G36*
X71842068Y-95972068D02*
G01*
X70807545Y-95972068D01*
X70807545Y-94937545D01*
X71842068Y-94937545D01*
X71842068Y-95972068D01*
G37*
G36*
X71842068Y-103558569D02*
G01*
X70807545Y-103558569D01*
X70807545Y-102524047D01*
X71842068Y-102524047D01*
X71842068Y-103558569D01*
G37*
G36*
X72531750Y-100110160D02*
G01*
X71497227Y-100110160D01*
X71497227Y-99765319D01*
X72531750Y-99765319D01*
X72531750Y-100110160D01*
G37*
G36*
X72531750Y-101489524D02*
G01*
X72186909Y-101489524D01*
X72186909Y-101144683D01*
X72531750Y-101144683D01*
X72531750Y-101489524D01*
G37*
G36*
X73221432Y-99075637D02*
G01*
X72876591Y-99075637D01*
X72876591Y-98730796D01*
X73221432Y-98730796D01*
X73221432Y-99075637D01*
G37*
G36*
X73566273Y-94592704D02*
G01*
X73221432Y-94592704D01*
X73221432Y-94247864D01*
X73566273Y-94247864D01*
X73566273Y-94592704D01*
G37*
G36*
X73911114Y-104248251D02*
G01*
X73566273Y-104248251D01*
X73566273Y-103903410D01*
X73911114Y-103903410D01*
X73911114Y-104248251D01*
G37*
G36*
X74255955Y-98385955D02*
G01*
X73911114Y-98385955D01*
X73911114Y-98041114D01*
X74255955Y-98041114D01*
X74255955Y-98385955D01*
G37*
G36*
X74255955Y-100455001D02*
G01*
X73911114Y-100455001D01*
X73911114Y-99765319D01*
X74255955Y-99765319D01*
X74255955Y-100455001D01*
G37*
G36*
X74255955Y-101144683D02*
G01*
X73911114Y-101144683D01*
X73911114Y-100799842D01*
X74255955Y-100799842D01*
X74255955Y-101144683D01*
G37*
G36*
X74255955Y-103903410D02*
G01*
X73911114Y-103903410D01*
X73911114Y-103558569D01*
X74255955Y-103558569D01*
X74255955Y-103903410D01*
G37*
G36*
X74600796Y-104248251D02*
G01*
X74255955Y-104248251D01*
X74255955Y-103903410D01*
X74600796Y-103903410D01*
X74600796Y-104248251D01*
G37*
G36*
X74945637Y-103558569D02*
G01*
X74600796Y-103558569D01*
X74600796Y-103213729D01*
X74945637Y-103213729D01*
X74945637Y-103558569D01*
G37*
G36*
X75635319Y-104248251D02*
G01*
X75290478Y-104248251D01*
X75290478Y-103558569D01*
X75635319Y-103558569D01*
X75635319Y-104248251D01*
G37*
G36*
X75980160Y-100799842D02*
G01*
X75635319Y-100799842D01*
X75635319Y-100455001D01*
X75980160Y-100455001D01*
X75980160Y-100799842D01*
G37*
G36*
X77359524Y-95282386D02*
G01*
X77014683Y-95282386D01*
X77014683Y-94937545D01*
X77359524Y-94937545D01*
X77359524Y-95282386D01*
G37*
G36*
X78049206Y-102179206D02*
G01*
X77704365Y-102179206D01*
X77704365Y-101834365D01*
X78049206Y-101834365D01*
X78049206Y-102179206D01*
G37*
G36*
X79428569Y-95972068D02*
G01*
X78394047Y-95972068D01*
X78394047Y-94937545D01*
X79428569Y-94937545D01*
X79428569Y-95972068D01*
G37*
G36*
X79428569Y-97351432D02*
G01*
X79083729Y-97351432D01*
X79083729Y-97006591D01*
X79428569Y-97006591D01*
X79428569Y-97351432D01*
G37*
G36*
X72876591Y-99765319D02*
G01*
X72531750Y-99765319D01*
X72531750Y-99420478D01*
X71497227Y-99420478D01*
X71497227Y-99075637D01*
X72876591Y-99075637D01*
X72876591Y-99765319D01*
G37*
G36*
X79773410Y-103903410D02*
G01*
X80118251Y-103903410D01*
X80118251Y-104248251D01*
X79428569Y-104248251D01*
X79428569Y-103558569D01*
X79773410Y-103558569D01*
X79773410Y-103903410D01*
G37*
G36*
X80118251Y-102524047D02*
G01*
X79428569Y-102524047D01*
X79428569Y-101834365D01*
X79083729Y-101834365D01*
X79083729Y-101489524D01*
X80118251Y-101489524D01*
X80118251Y-102524047D01*
G37*
G36*
X80118251Y-103558569D02*
G01*
X79773410Y-103558569D01*
X79773410Y-103213729D01*
X79083729Y-103213729D01*
X79083729Y-102868888D01*
X80118251Y-102868888D01*
X80118251Y-103558569D01*
G37*
G36*
X71497227Y-100455001D02*
G01*
X72531750Y-100455001D01*
X72531750Y-100799842D01*
X71497227Y-100799842D01*
X71497227Y-101144683D01*
X71152386Y-101144683D01*
X71152386Y-100455001D01*
X70807545Y-100455001D01*
X70807545Y-100110160D01*
X71497227Y-100110160D01*
X71497227Y-100455001D01*
G37*
G36*
X72531750Y-96661750D02*
G01*
X70117864Y-96661750D01*
X70117864Y-96316909D01*
X70462704Y-96316909D01*
X72186909Y-96316909D01*
X72186909Y-94592704D01*
X70462704Y-94592704D01*
X70462704Y-96316909D01*
X70117864Y-96316909D01*
X70117864Y-94247864D01*
X72531750Y-94247864D01*
X72531750Y-96661750D01*
G37*
G36*
X72531750Y-104248251D02*
G01*
X70117864Y-104248251D01*
X70117864Y-103903410D01*
X70462704Y-103903410D01*
X72186909Y-103903410D01*
X72186909Y-102179206D01*
X70462704Y-102179206D01*
X70462704Y-103903410D01*
X70117864Y-103903410D01*
X70117864Y-101834365D01*
X72531750Y-101834365D01*
X72531750Y-104248251D01*
G37*
G36*
X80118251Y-96661750D02*
G01*
X77704365Y-96661750D01*
X77704365Y-96316909D01*
X78049206Y-96316909D01*
X79773410Y-96316909D01*
X79773410Y-94592704D01*
X78049206Y-94592704D01*
X78049206Y-96316909D01*
X77704365Y-96316909D01*
X77704365Y-94247864D01*
X80118251Y-94247864D01*
X80118251Y-96661750D01*
G37*
G36*
X76325001Y-95972068D02*
G01*
X76325001Y-95627227D01*
X75980160Y-95627227D01*
X75980160Y-95282386D01*
X76669842Y-95282386D01*
X76669842Y-95627227D01*
X77014683Y-95627227D01*
X77014683Y-96316909D01*
X76669842Y-96316909D01*
X76669842Y-96661750D01*
X76325001Y-96661750D01*
X76325001Y-97696273D01*
X75980160Y-97696273D01*
X75980160Y-98041114D01*
X75635319Y-98041114D01*
X75635319Y-98385955D01*
X74945637Y-98385955D01*
X74945637Y-98730796D01*
X74600796Y-98730796D01*
X74600796Y-99075637D01*
X74945637Y-99075637D01*
X74945637Y-99420478D01*
X75290478Y-99420478D01*
X75290478Y-99765319D01*
X75635319Y-99765319D01*
X75635319Y-99420478D01*
X75980160Y-99420478D01*
X75980160Y-99075637D01*
X75290478Y-99075637D01*
X75290478Y-98730796D01*
X75980160Y-98730796D01*
X75980160Y-98041114D01*
X76669842Y-98041114D01*
X76669842Y-98385955D01*
X76325001Y-98385955D01*
X76325001Y-98730796D01*
X77014683Y-98730796D01*
X77014683Y-98385955D01*
X78049206Y-98385955D01*
X78049206Y-98041114D01*
X77014683Y-98041114D01*
X77014683Y-97696273D01*
X77359524Y-97696273D01*
X77704365Y-97696273D01*
X77704365Y-97351432D01*
X77359524Y-97351432D01*
X77359524Y-97696273D01*
X77014683Y-97696273D01*
X77014683Y-97351432D01*
X77359524Y-97351432D01*
X77359524Y-97006591D01*
X78049206Y-97006591D01*
X78049206Y-98041114D01*
X78394047Y-98041114D01*
X78394047Y-97696273D01*
X78738888Y-97696273D01*
X78738888Y-97351432D01*
X79083729Y-97351432D01*
X79083729Y-97696273D01*
X79773410Y-97696273D01*
X79773410Y-97351432D01*
X80118251Y-97351432D01*
X80118251Y-98041114D01*
X79773410Y-98041114D01*
X79773410Y-98385955D01*
X80118251Y-98385955D01*
X80118251Y-99420478D01*
X79773410Y-99420478D01*
X79773410Y-99765319D01*
X80118251Y-99765319D01*
X80118251Y-100799842D01*
X79773410Y-100799842D01*
X79773410Y-101144683D01*
X79428569Y-101144683D01*
X79428569Y-100455001D01*
X79773410Y-100455001D01*
X79773410Y-100110160D01*
X79428569Y-100110160D01*
X79428569Y-100455001D01*
X78738888Y-100455001D01*
X78738888Y-100799842D01*
X79083729Y-100799842D01*
X79083729Y-101144683D01*
X78738888Y-101144683D01*
X78738888Y-101834365D01*
X79083729Y-101834365D01*
X79083729Y-102524047D01*
X78738888Y-102524047D01*
X78738888Y-103213729D01*
X79083729Y-103213729D01*
X79083729Y-103558569D01*
X78738888Y-103558569D01*
X78738888Y-104248251D01*
X78049206Y-104248251D01*
X78049206Y-103903410D01*
X78394047Y-103903410D01*
X78394047Y-103558569D01*
X78049206Y-103558569D01*
X78049206Y-102868888D01*
X77359524Y-102868888D01*
X77359524Y-103213729D01*
X77014683Y-103213729D01*
X77014683Y-103558569D01*
X77704365Y-103558569D01*
X77704365Y-104248251D01*
X76669842Y-104248251D01*
X76669842Y-103903410D01*
X76325001Y-103903410D01*
X76325001Y-104248251D01*
X75980160Y-104248251D01*
X75980160Y-103213729D01*
X76325001Y-103213729D01*
X76325001Y-103558569D01*
X76669842Y-103558569D01*
X76669842Y-103213729D01*
X77014683Y-103213729D01*
X77014683Y-102524047D01*
X77359524Y-102524047D01*
X78394047Y-102524047D01*
X78394047Y-101489524D01*
X77359524Y-101489524D01*
X77359524Y-102524047D01*
X77014683Y-102524047D01*
X77014683Y-102179206D01*
X76325001Y-102179206D01*
X76325001Y-102868888D01*
X75980160Y-102868888D01*
X75980160Y-103213729D01*
X75635319Y-103213729D01*
X75635319Y-102524047D01*
X75290478Y-102524047D01*
X75290478Y-102868888D01*
X74945637Y-102868888D01*
X74945637Y-102524047D01*
X74255955Y-102524047D01*
X74255955Y-103213729D01*
X73911114Y-103213729D01*
X73911114Y-103558569D01*
X73566273Y-103558569D01*
X73566273Y-103903410D01*
X73221432Y-103903410D01*
X73221432Y-104248251D01*
X72876591Y-104248251D01*
X72876591Y-103558569D01*
X73221432Y-103558569D01*
X73566273Y-103558569D01*
X73566273Y-103213729D01*
X73911114Y-103213729D01*
X73911114Y-102868888D01*
X73566273Y-102868888D01*
X73566273Y-103213729D01*
X73221432Y-103213729D01*
X73221432Y-103558569D01*
X72876591Y-103558569D01*
X72876591Y-103213729D01*
X73221432Y-103213729D01*
X73221432Y-102868888D01*
X72876591Y-102868888D01*
X72876591Y-102524047D01*
X73221432Y-102524047D01*
X74255955Y-102524047D01*
X74255955Y-102179206D01*
X73911114Y-102179206D01*
X73911114Y-101834365D01*
X73221432Y-101834365D01*
X73221432Y-102524047D01*
X72876591Y-102524047D01*
X72876591Y-101489524D01*
X73566273Y-101489524D01*
X73566273Y-101144683D01*
X73911114Y-101144683D01*
X73911114Y-101489524D01*
X74255955Y-101489524D01*
X74255955Y-101144683D01*
X74600796Y-101144683D01*
X74600796Y-100799842D01*
X74945637Y-100799842D01*
X74945637Y-101834365D01*
X74600796Y-101834365D01*
X74600796Y-102179206D01*
X75980160Y-102179206D01*
X75980160Y-101834365D01*
X75635319Y-101834365D01*
X75635319Y-101489524D01*
X75980160Y-101489524D01*
X75980160Y-100799842D01*
X76325001Y-100799842D01*
X76325001Y-101489524D01*
X76669842Y-101489524D01*
X76669842Y-100799842D01*
X77359524Y-100799842D01*
X77704365Y-100799842D01*
X78049206Y-100799842D01*
X78049206Y-100455001D01*
X78738888Y-100455001D01*
X78738888Y-99420478D01*
X78394047Y-99420478D01*
X78394047Y-99075637D01*
X78738888Y-99075637D01*
X78738888Y-98385955D01*
X79083729Y-98385955D01*
X79083729Y-100110160D01*
X79428569Y-100110160D01*
X79428569Y-99075637D01*
X79773410Y-99075637D01*
X79773410Y-98730796D01*
X79428569Y-98730796D01*
X79428569Y-98041114D01*
X79083729Y-98041114D01*
X79083729Y-97696273D01*
X78738888Y-97696273D01*
X78738888Y-98385955D01*
X78049206Y-98385955D01*
X78049206Y-99765319D01*
X78394047Y-99765319D01*
X78394047Y-100110160D01*
X78049206Y-100110160D01*
X78049206Y-100455001D01*
X77704365Y-100455001D01*
X77704365Y-100799842D01*
X77359524Y-100799842D01*
X77359524Y-100110160D01*
X77704365Y-100110160D01*
X77704365Y-99765319D01*
X77359524Y-99765319D01*
X77359524Y-100110160D01*
X76669842Y-100110160D01*
X76669842Y-100455001D01*
X75980160Y-100455001D01*
X75980160Y-100110160D01*
X76325001Y-100110160D01*
X76669842Y-100110160D01*
X76669842Y-99765319D01*
X77014683Y-99765319D01*
X77014683Y-99420478D01*
X77704365Y-99420478D01*
X77704365Y-99075637D01*
X76669842Y-99075637D01*
X76669842Y-99765319D01*
X76325001Y-99765319D01*
X76325001Y-100110160D01*
X75980160Y-100110160D01*
X75290478Y-100110160D01*
X75290478Y-99765319D01*
X74945637Y-99765319D01*
X74945637Y-100110160D01*
X74600796Y-100110160D01*
X74600796Y-99765319D01*
X74255955Y-99765319D01*
X74255955Y-99420478D01*
X73911114Y-99420478D01*
X73911114Y-99765319D01*
X73566273Y-99765319D01*
X73566273Y-101144683D01*
X73221432Y-101144683D01*
X73221432Y-100799842D01*
X72876591Y-100799842D01*
X72876591Y-100455001D01*
X73221432Y-100455001D01*
X73221432Y-99765319D01*
X73566273Y-99765319D01*
X73566273Y-99420478D01*
X73911114Y-99420478D01*
X73911114Y-99075637D01*
X73911114Y-98730796D01*
X74255955Y-98730796D01*
X74255955Y-98385955D01*
X74600796Y-98385955D01*
X74600796Y-98041114D01*
X75290478Y-98041114D01*
X75635319Y-98041114D01*
X75635319Y-97696273D01*
X75290478Y-97696273D01*
X75290478Y-98041114D01*
X74600796Y-98041114D01*
X74600796Y-97351432D01*
X74945637Y-97351432D01*
X75290478Y-97351432D01*
X75290478Y-97006591D01*
X75635319Y-97006591D01*
X75980160Y-97006591D01*
X75980160Y-96661750D01*
X76325001Y-96661750D01*
X76325001Y-96316909D01*
X75980160Y-96316909D01*
X75980160Y-96661750D01*
X75635319Y-96661750D01*
X75635319Y-97006591D01*
X75290478Y-97006591D01*
X75290478Y-96661750D01*
X75635319Y-96661750D01*
X75635319Y-96316909D01*
X75290478Y-96316909D01*
X75290478Y-96661750D01*
X74945637Y-96661750D01*
X74945637Y-97351432D01*
X74600796Y-97351432D01*
X74600796Y-97006591D01*
X74255955Y-97006591D01*
X74255955Y-97696273D01*
X73566273Y-97696273D01*
X73566273Y-98041114D01*
X73221432Y-98041114D01*
X73221432Y-97696273D01*
X73566273Y-97696273D01*
X73566273Y-97006591D01*
X73221432Y-97006591D01*
X73221432Y-97696273D01*
X72876591Y-97696273D01*
X72876591Y-98730796D01*
X71497227Y-98730796D01*
X71497227Y-99075637D01*
X71152386Y-99075637D01*
X71152386Y-99420478D01*
X70807545Y-99420478D01*
X70807545Y-99075637D01*
X71152386Y-99075637D01*
X71152386Y-98730796D01*
X70807545Y-98730796D01*
X70807545Y-99075637D01*
X70117864Y-99075637D01*
X70117864Y-98385955D01*
X70462704Y-98385955D01*
X70807545Y-98385955D01*
X71152386Y-98385955D01*
X72531750Y-98385955D01*
X72531750Y-98041114D01*
X72186909Y-98041114D01*
X72186909Y-97696273D01*
X72531750Y-97696273D01*
X72531750Y-97351432D01*
X72186909Y-97351432D01*
X72186909Y-97696273D01*
X71842068Y-97696273D01*
X71842068Y-98041114D01*
X71152386Y-98041114D01*
X71152386Y-98385955D01*
X70807545Y-98385955D01*
X70807545Y-98041114D01*
X71152386Y-98041114D01*
X71152386Y-97696273D01*
X71497227Y-97696273D01*
X71842068Y-97696273D01*
X71842068Y-97351432D01*
X71497227Y-97351432D01*
X71497227Y-97696273D01*
X71152386Y-97696273D01*
X71152386Y-97351432D01*
X70807545Y-97351432D01*
X70807545Y-97696273D01*
X70462704Y-97696273D01*
X70462704Y-98385955D01*
X70117864Y-98385955D01*
X70117864Y-97006591D01*
X71152386Y-97006591D01*
X71152386Y-97351432D01*
X71497227Y-97351432D01*
X71497227Y-97006591D01*
X72876591Y-97006591D01*
X72876591Y-96661750D01*
X73221432Y-96661750D01*
X73566273Y-96661750D01*
X73566273Y-96316909D01*
X73911114Y-96316909D01*
X73911114Y-97006591D01*
X74255955Y-97006591D01*
X74255955Y-96316909D01*
X74600796Y-96316909D01*
X74600796Y-96661750D01*
X74945637Y-96661750D01*
X74945637Y-95972068D01*
X74600796Y-95972068D01*
X74600796Y-95627227D01*
X74945637Y-95627227D01*
X74945637Y-95282386D01*
X75290478Y-95282386D01*
X75290478Y-94937545D01*
X74945637Y-94937545D01*
X74945637Y-94592704D01*
X74600796Y-94592704D01*
X74600796Y-95282386D01*
X74255955Y-95282386D01*
X74255955Y-95627227D01*
X73911114Y-95627227D01*
X73911114Y-95972068D01*
X73566273Y-95972068D01*
X73566273Y-96316909D01*
X73221432Y-96316909D01*
X73221432Y-96661750D01*
X72876591Y-96661750D01*
X72876591Y-96316909D01*
X73221432Y-96316909D01*
X73221432Y-95972068D01*
X73566273Y-95972068D01*
X73566273Y-95627227D01*
X73221432Y-95627227D01*
X73221432Y-95282386D01*
X73911114Y-95282386D01*
X74255955Y-95282386D01*
X74255955Y-94937545D01*
X73911114Y-94937545D01*
X73911114Y-95282386D01*
X73221432Y-95282386D01*
X72876591Y-95282386D01*
X72876591Y-94937545D01*
X73566273Y-94937545D01*
X73566273Y-94592704D01*
X74255955Y-94592704D01*
X74255955Y-94247864D01*
X75290478Y-94247864D01*
X75290478Y-94592704D01*
X76325001Y-94592704D01*
X76325001Y-94247864D01*
X77014683Y-94247864D01*
X77014683Y-94937545D01*
X75980160Y-94937545D01*
X75980160Y-95282386D01*
X75635319Y-95282386D01*
X75635319Y-95627227D01*
X75290478Y-95627227D01*
X75290478Y-95972068D01*
X76325001Y-95972068D01*
G37*
G36*
X77359524Y-96316909D02*
G01*
X77359524Y-97006591D01*
X76669842Y-97006591D01*
X76669842Y-96661750D01*
X77014683Y-96661750D01*
X77014683Y-96316909D01*
X77359524Y-96316909D01*
G37*
%TD*%
D10*
%TO.C,J502.19*%
X118745000Y-15875000D03*
%TD*%
%TO.C,J502.17*%
X122428000Y-15875000D03*
%TD*%
%TO.C,J502.15*%
X122428000Y-19812000D03*
%TD*%
%TO.C,J502.4*%
X118745000Y-19812000D03*
%TD*%
D11*
%TO.C,REF\u002A\u002A*%
X101600000Y-109220000D03*
%TD*%
D12*
%TO.C,R421*%
X89535000Y-35282500D03*
X89535000Y-37107500D03*
%TD*%
D13*
%TO.C,J405*%
X101600000Y-117475000D03*
D14*
X104140000Y-117475000D03*
X106680000Y-117475000D03*
%TD*%
D15*
%TO.C,D411*%
X80645000Y-28575000D03*
D16*
X83185000Y-28575000D03*
%TD*%
D11*
%TO.C,REF\u002A\u002A*%
X130556000Y-19558000D03*
%TD*%
D17*
%TO.C,U501*%
X82647500Y-59925000D03*
X82647500Y-60425000D03*
X82647500Y-60925000D03*
X82647500Y-61425000D03*
X82647500Y-61925000D03*
X82647500Y-62425000D03*
X82647500Y-62925000D03*
X82647500Y-63425000D03*
X82647500Y-63925000D03*
X82647500Y-64425000D03*
X82647500Y-64925000D03*
X82647500Y-65425000D03*
X82647500Y-65925000D03*
X82647500Y-66425000D03*
X82647500Y-66925000D03*
X82647500Y-67425000D03*
X82647500Y-67925000D03*
X82647500Y-68425000D03*
X82647500Y-68925000D03*
X82647500Y-69425000D03*
X82647500Y-69925000D03*
X82647500Y-70425000D03*
X82647500Y-70925000D03*
X82647500Y-71425000D03*
X82647500Y-71925000D03*
X82647500Y-72425000D03*
X82647500Y-72925000D03*
X82647500Y-73425000D03*
X90072500Y-73425000D03*
X90072500Y-72925000D03*
X90072500Y-72425000D03*
X90072500Y-71925000D03*
X90072500Y-71425000D03*
X90072500Y-70925000D03*
X90072500Y-70425000D03*
X90072500Y-69925000D03*
X90072500Y-69425000D03*
X90072500Y-68925000D03*
X90072500Y-68425000D03*
X90072500Y-67925000D03*
X90072500Y-67425000D03*
X90072500Y-66925000D03*
X90072500Y-66425000D03*
X90072500Y-65925000D03*
X90072500Y-65425000D03*
X90072500Y-64925000D03*
X90072500Y-64425000D03*
X90072500Y-63925000D03*
X90072500Y-63425000D03*
X90072500Y-62925000D03*
X90072500Y-62425000D03*
X90072500Y-61925000D03*
X90072500Y-61425000D03*
X90072500Y-60925000D03*
X90072500Y-60425000D03*
X90072500Y-59925000D03*
%TD*%
D12*
%TO.C,R417*%
X53975000Y-35282500D03*
X53975000Y-37107500D03*
%TD*%
D15*
%TO.C,D408*%
X53975000Y-28575000D03*
D16*
X56515000Y-28575000D03*
%TD*%
D11*
%TO.C,REF\u002A\u002A*%
X48260000Y-109220000D03*
%TD*%
%TO.C,REF\u002A\u002A*%
X20320000Y-20320000D03*
%TD*%
D12*
%TO.C,R505*%
X97790000Y-59135000D03*
X97790000Y-60960000D03*
%TD*%
D15*
%TO.C,D412*%
X89535000Y-28575000D03*
D16*
X92075000Y-28575000D03*
%TD*%
D13*
%TO.C,J404*%
X90170000Y-117475000D03*
D14*
X92710000Y-117475000D03*
X95250000Y-117475000D03*
X97790000Y-117475000D03*
%TD*%
D18*
%TO.C,SW403*%
X35450000Y-115530000D03*
X22950000Y-115530000D03*
X35450000Y-110530000D03*
X22950000Y-110530000D03*
%TD*%
D15*
%TO.C,D413*%
X98185000Y-28575000D03*
D16*
X100725000Y-28575000D03*
%TD*%
D12*
%TO.C,R419*%
X74295000Y-35282500D03*
X74295000Y-37107500D03*
%TD*%
D15*
%TO.C,D410*%
X71755000Y-28575000D03*
D16*
X74295000Y-28575000D03*
%TD*%
D19*
%TO.C,R503*%
X81995000Y-57785000D03*
X83820000Y-57785000D03*
%TD*%
D13*
%TO.C,J303*%
X121920000Y-99695000D03*
D14*
X124460000Y-99695000D03*
X127000000Y-99695000D03*
%TD*%
D12*
%TO.C,R418*%
X65405000Y-35282500D03*
X65405000Y-37107500D03*
%TD*%
D20*
%TO.C,R506*%
X93980000Y-51355000D03*
X93980000Y-49530000D03*
%TD*%
D12*
%TO.C,R416*%
X47625000Y-35282500D03*
X47625000Y-37107500D03*
%TD*%
%TO.C,R201*%
X41910000Y-65127500D03*
X41910000Y-66952500D03*
%TD*%
D21*
%TO.C,U200*%
X20320000Y-43815000D03*
X20320000Y-46355000D03*
D22*
X20320000Y-48895000D03*
D21*
X20320000Y-51435000D03*
X20320000Y-53975000D03*
X20320000Y-59055000D03*
X20320000Y-56515000D03*
D22*
X20320000Y-61595000D03*
D21*
X20320000Y-64135000D03*
X20320000Y-66675000D03*
X20320000Y-69215000D03*
X20320000Y-71755000D03*
D22*
X20320000Y-74295000D03*
D21*
X20320000Y-76835000D03*
X20320000Y-79375000D03*
X20320000Y-81915000D03*
X20320000Y-84455000D03*
D22*
X20320000Y-86995000D03*
D21*
X20320000Y-89535000D03*
X20320000Y-92075000D03*
X38100000Y-92075000D03*
X38100000Y-89535000D03*
D22*
X38100000Y-86995000D03*
D21*
X38100000Y-84455000D03*
X38100000Y-81915000D03*
X38100000Y-79375000D03*
X38100000Y-76835000D03*
D22*
X38100000Y-74295000D03*
D21*
X38100000Y-71755000D03*
X38100000Y-69215000D03*
X38100000Y-66675000D03*
X38100000Y-64135000D03*
D22*
X38100000Y-61595000D03*
D21*
X38100000Y-59055000D03*
X38100000Y-56515000D03*
X38100000Y-53975000D03*
X38100000Y-51435000D03*
D22*
X38100000Y-48895000D03*
D21*
X38100000Y-46355000D03*
X38100000Y-43815000D03*
%TD*%
D15*
%TO.C,D414*%
X107315000Y-28575000D03*
D16*
X109855000Y-28575000D03*
%TD*%
D23*
%TO.C,Q507*%
X92716287Y-55358749D03*
D24*
X93986287Y-55358749D03*
X95256287Y-55358749D03*
%TD*%
D13*
%TO.C,J400*%
X50790000Y-117475000D03*
D14*
X48250000Y-117475000D03*
X45710000Y-117475000D03*
X43170000Y-117475000D03*
%TD*%
D12*
%TO.C,R414*%
X107315000Y-35386000D03*
X107315000Y-37211000D03*
%TD*%
D13*
%TO.C,J502*%
X61912500Y-19050000D03*
D14*
X61912500Y-16510000D03*
X64452500Y-19050000D03*
X64452500Y-16510000D03*
X66992500Y-19050000D03*
X66992500Y-16510000D03*
X69532500Y-19050000D03*
X69532500Y-16510000D03*
X72072500Y-19050000D03*
X72072500Y-16510000D03*
X74612500Y-19050000D03*
X74612500Y-16510000D03*
X77152500Y-19050000D03*
X77152500Y-16510000D03*
X79692500Y-19050000D03*
X79692500Y-16510000D03*
X82232500Y-19050000D03*
X82232500Y-16510000D03*
X84772500Y-19050000D03*
X84772500Y-16510000D03*
X87312500Y-19050000D03*
X87312500Y-16510000D03*
X89852500Y-19050000D03*
X89852500Y-16510000D03*
X92392500Y-19050000D03*
X92392500Y-16510000D03*
%TD*%
D12*
%TO.C,R422*%
X100725000Y-35282500D03*
X100725000Y-37107500D03*
%TD*%
D15*
%TO.C,D409*%
X62865000Y-28575000D03*
D16*
X65405000Y-28575000D03*
%TD*%
D15*
%TO.C,D407*%
X45085000Y-28575000D03*
D16*
X47625000Y-28575000D03*
%TD*%
D12*
%TO.C,R420*%
X83185000Y-35282500D03*
X83185000Y-37107500D03*
%TD*%
%TO.C,R504*%
X61595000Y-55602500D03*
X61595000Y-57427500D03*
%TD*%
D18*
%TO.C,SW406*%
X118220000Y-110530000D03*
X130720000Y-110530000D03*
X118220000Y-115530000D03*
X130720000Y-115530000D03*
%TD*%
D21*
%TO.C,U300*%
X115570000Y-43815000D03*
X115570000Y-46355000D03*
D22*
X115570000Y-48895000D03*
D21*
X115570000Y-51435000D03*
X115570000Y-53975000D03*
X115570000Y-59055000D03*
X115570000Y-56515000D03*
D22*
X115570000Y-61595000D03*
D21*
X115570000Y-64135000D03*
X115570000Y-66675000D03*
X115570000Y-69215000D03*
X115570000Y-71755000D03*
D22*
X115570000Y-74295000D03*
D21*
X115570000Y-76835000D03*
X115570000Y-79375000D03*
X115570000Y-81915000D03*
X115570000Y-84455000D03*
D22*
X115570000Y-86995000D03*
D21*
X115570000Y-89535000D03*
X115570000Y-92075000D03*
X133350000Y-92075000D03*
X133350000Y-89535000D03*
D22*
X133350000Y-86995000D03*
D21*
X133350000Y-84455000D03*
X133350000Y-81915000D03*
X133350000Y-79375000D03*
X133350000Y-76835000D03*
D22*
X133350000Y-74295000D03*
D21*
X133350000Y-71755000D03*
X133350000Y-69215000D03*
X133350000Y-66675000D03*
X133350000Y-64135000D03*
D22*
X133350000Y-61595000D03*
D21*
X133350000Y-59055000D03*
X133350000Y-56515000D03*
X133350000Y-53975000D03*
X133350000Y-51435000D03*
D22*
X133350000Y-48895000D03*
D21*
X133350000Y-46355000D03*
X133350000Y-43815000D03*
%TD*%
D13*
%TO.C,J202*%
X26670000Y-99695000D03*
D14*
X29210000Y-99695000D03*
X31750000Y-99695000D03*
%TD*%
D19*
%TO.C,R301*%
X121007500Y-52705000D03*
X122832500Y-52705000D03*
%TD*%
D13*
%TO.C,J401*%
X54610000Y-117475000D03*
D14*
X57150000Y-117475000D03*
X59690000Y-117475000D03*
%TD*%
D25*
%TO.C,U500*%
X71022500Y-73425000D03*
X71022500Y-72925000D03*
X71022500Y-72425000D03*
X71022500Y-71925000D03*
X71022500Y-71425000D03*
X71022500Y-70925000D03*
X71022500Y-70425000D03*
X71022500Y-69925000D03*
X71022500Y-69425000D03*
X71022500Y-68925000D03*
X71022500Y-68425000D03*
X71022500Y-67925000D03*
X71022500Y-67425000D03*
X71022500Y-66925000D03*
X71022500Y-66425000D03*
X71022500Y-65925000D03*
X71022500Y-65425000D03*
X71022500Y-64925000D03*
X71022500Y-64425000D03*
X71022500Y-63925000D03*
X71022500Y-63425000D03*
X71022500Y-62925000D03*
X71022500Y-62425000D03*
X71022500Y-61925000D03*
X71022500Y-61425000D03*
X71022500Y-60925000D03*
X71022500Y-60425000D03*
X71022500Y-59925000D03*
X63597500Y-59925000D03*
X63597500Y-60425000D03*
X63597500Y-60925000D03*
X63597500Y-61425000D03*
X63597500Y-61925000D03*
X63597500Y-62425000D03*
X63597500Y-62925000D03*
X63597500Y-63425000D03*
X63597500Y-63925000D03*
X63597500Y-64425000D03*
X63597500Y-64925000D03*
X63597500Y-65425000D03*
X63597500Y-65925000D03*
X63597500Y-66425000D03*
X63597500Y-66925000D03*
X63597500Y-67425000D03*
X63597500Y-67925000D03*
X63597500Y-68425000D03*
X63597500Y-68925000D03*
X63597500Y-69425000D03*
X63597500Y-69925000D03*
X63597500Y-70425000D03*
X63597500Y-70925000D03*
X63597500Y-71425000D03*
X63597500Y-71925000D03*
X63597500Y-72425000D03*
X63597500Y-72925000D03*
X63597500Y-73425000D03*
%TD*%
D26*
%TO.C,R302*%
X102870000Y-49530000D03*
X101045000Y-49530000D03*
%TD*%
M02*
