%TF.GenerationSoftware,KiCad,Pcbnew,7.0.8*%
%TF.CreationDate,2023-10-15T22:31:51-07:00*%
%TF.ProjectId,DevkitHotswapPicoHub,4465766b-6974-4486-9f74-737761705069,rev?*%
%TF.SameCoordinates,Original*%
%TF.FileFunction,Drillmap*%
%TF.FilePolarity,Positive*%
%FSLAX45Y45*%
G04 Gerber Fmt 4.5, Leading zero omitted, Abs format (unit mm)*
G04 Created by KiCad (PCBNEW 7.0.8) date 2023-10-15 22:31:51*
%MOMM*%
%LPD*%
G01*
G04 APERTURE LIST*
%ADD10C,0.200000*%
%ADD11C,0.040000*%
%ADD12C,0.076200*%
%ADD13C,0.090000*%
%ADD14C,0.100000*%
%ADD15C,0.130000*%
%ADD16C,0.320000*%
G04 APERTURE END LIST*
D10*
X13716000Y-1778000D02*
X13716000Y-11684000D01*
X13208000Y-12192000D01*
X1778000Y-12192000D01*
X1270000Y-11684000D01*
X1270000Y-1778000D01*
X1778000Y-1270000D01*
X13208000Y-1270000D01*
X13716000Y-1778000D01*
D11*
X1567500Y-4552000D02*
X1607500Y-4592000D01*
X1607500Y-4552000D02*
X1567500Y-4592000D01*
X1707200Y-4780600D02*
X1747200Y-4820600D01*
X1747200Y-4780600D02*
X1707200Y-4820600D01*
X1821500Y-10965500D02*
X1861500Y-11005500D01*
X1861500Y-10965500D02*
X1821500Y-11005500D01*
X1885000Y-9428800D02*
X1925000Y-9468800D01*
X1925000Y-9428800D02*
X1885000Y-9468800D01*
X2393000Y-7536500D02*
X2433000Y-7576500D01*
X2433000Y-7536500D02*
X2393000Y-7576500D01*
X2456500Y-7854000D02*
X2496500Y-7894000D01*
X2496500Y-7854000D02*
X2456500Y-7894000D01*
X2697800Y-9073200D02*
X2737800Y-9113200D01*
X2737800Y-9073200D02*
X2697800Y-9113200D01*
X3028000Y-6838000D02*
X3068000Y-6878000D01*
X3068000Y-6838000D02*
X3028000Y-6878000D01*
X3180400Y-5314000D02*
X3220400Y-5354000D01*
X3220400Y-5314000D02*
X3180400Y-5354000D01*
X3307400Y-9079980D02*
X3347400Y-9119980D01*
X3347400Y-9079980D02*
X3307400Y-9119980D01*
X3345500Y-8044500D02*
X3385500Y-8084500D01*
X3385500Y-8044500D02*
X3345500Y-8084500D01*
X3459800Y-4882200D02*
X3499800Y-4922200D01*
X3499800Y-4882200D02*
X3459800Y-4922200D01*
X3980500Y-4298000D02*
X4020500Y-4338000D01*
X4020500Y-4298000D02*
X3980500Y-4338000D01*
X4044000Y-4983800D02*
X4084000Y-5023800D01*
X4084000Y-4983800D02*
X4044000Y-5023800D01*
X4107500Y-4679000D02*
X4147500Y-4719000D01*
X4147500Y-4679000D02*
X4107500Y-4719000D01*
X4139250Y-4774250D02*
X4179250Y-4814250D01*
X4179250Y-4774250D02*
X4139250Y-4814250D01*
X4253980Y-4913520D02*
X4293980Y-4953520D01*
X4293980Y-4913520D02*
X4253980Y-4953520D01*
X4361500Y-4933000D02*
X4401500Y-4973000D01*
X4401500Y-4933000D02*
X4361500Y-4973000D01*
X4361500Y-11410000D02*
X4401500Y-11450000D01*
X4401500Y-11410000D02*
X4361500Y-11450000D01*
X4425000Y-7663500D02*
X4465000Y-7703500D01*
X4465000Y-7663500D02*
X4425000Y-7703500D01*
X4501200Y-6888800D02*
X4541200Y-6928800D01*
X4541200Y-6888800D02*
X4501200Y-6928800D01*
X4602800Y-8235000D02*
X4642800Y-8275000D01*
X4642800Y-8235000D02*
X4602800Y-8275000D01*
X4704400Y-6431600D02*
X4744400Y-6471600D01*
X4744400Y-6431600D02*
X4704400Y-6471600D01*
X4806000Y-7663500D02*
X4846000Y-7703500D01*
X4846000Y-7663500D02*
X4806000Y-7703500D01*
X4882200Y-8235000D02*
X4922200Y-8275000D01*
X4922200Y-8235000D02*
X4882200Y-8275000D01*
X5136200Y-8235000D02*
X5176200Y-8275000D01*
X5176200Y-8235000D02*
X5136200Y-8275000D01*
X5250500Y-4488500D02*
X5290500Y-4528500D01*
X5290500Y-4488500D02*
X5250500Y-4528500D01*
X5263200Y-3383600D02*
X5303200Y-3423600D01*
X5303200Y-3383600D02*
X5263200Y-3423600D01*
X5441000Y-6774500D02*
X5481000Y-6814500D01*
X5481000Y-6774500D02*
X5441000Y-6814500D01*
X5511676Y-6702050D02*
X5551676Y-6742050D01*
X5551676Y-6702050D02*
X5511676Y-6742050D01*
X5568000Y-7346000D02*
X5608000Y-7386000D01*
X5608000Y-7346000D02*
X5568000Y-7386000D01*
X5579255Y-7056205D02*
X5619255Y-7096205D01*
X5619255Y-7056205D02*
X5579255Y-7096205D01*
X5624324Y-7972050D02*
X5664324Y-8012050D01*
X5664324Y-7972050D02*
X5624324Y-8012050D01*
X5654300Y-7146155D02*
X5694300Y-7186155D01*
X5694300Y-7146155D02*
X5654300Y-7186155D01*
X5667950Y-7346000D02*
X5707950Y-7386000D01*
X5707950Y-7346000D02*
X5667950Y-7386000D01*
X5695000Y-8044500D02*
X5735000Y-8084500D01*
X5735000Y-8044500D02*
X5695000Y-8084500D01*
X5758500Y-6647500D02*
X5798500Y-6687500D01*
X5798500Y-6647500D02*
X5758500Y-6687500D01*
X5758500Y-7409500D02*
X5798500Y-7449500D01*
X5798500Y-7409500D02*
X5758500Y-7449500D01*
X5758500Y-7536500D02*
X5798500Y-7576500D01*
X5798500Y-7536500D02*
X5758500Y-7576500D01*
X5773035Y-7635388D02*
X5813035Y-7675388D01*
X5813035Y-7635388D02*
X5773035Y-7675388D01*
X5891993Y-7161421D02*
X5931993Y-7201421D01*
X5931993Y-7161421D02*
X5891993Y-7201421D01*
X5923600Y-7066600D02*
X5963600Y-7106600D01*
X5963600Y-7066600D02*
X5923600Y-7106600D01*
X5949000Y-6647500D02*
X5989000Y-6687500D01*
X5989000Y-6647500D02*
X5949000Y-6687500D01*
X6042995Y-2291795D02*
X6082995Y-2331795D01*
X6082995Y-2291795D02*
X6042995Y-2331795D01*
X6044250Y-2393000D02*
X6084250Y-2433000D01*
X6084250Y-2393000D02*
X6044250Y-2433000D01*
X6073008Y-6843527D02*
X6113008Y-6883527D01*
X6113008Y-6843527D02*
X6073008Y-6883527D01*
X6076000Y-7473000D02*
X6116000Y-7513000D01*
X6116000Y-7473000D02*
X6076000Y-7513000D01*
X6107750Y-2202500D02*
X6147750Y-2242500D01*
X6147750Y-2202500D02*
X6107750Y-2242500D01*
X6126800Y-5364800D02*
X6166800Y-5404800D01*
X6166800Y-5364800D02*
X6126800Y-5404800D01*
X6126800Y-6076000D02*
X6166800Y-6116000D01*
X6166800Y-6076000D02*
X6126800Y-6116000D01*
X6134866Y-3857142D02*
X6174866Y-3897142D01*
X6174866Y-3857142D02*
X6134866Y-3897142D01*
X6146675Y-7402324D02*
X6186675Y-7442324D01*
X6186675Y-7402324D02*
X6146675Y-7442324D01*
X6203000Y-3434400D02*
X6243000Y-3474400D01*
X6243000Y-3434400D02*
X6203000Y-3474400D01*
X6225600Y-4806000D02*
X6265600Y-4846000D01*
X6265600Y-4806000D02*
X6225600Y-4846000D01*
X6234750Y-3853500D02*
X6274750Y-3893500D01*
X6274750Y-3853500D02*
X6234750Y-3893500D01*
X6298250Y-5377500D02*
X6338250Y-5417500D01*
X6338250Y-5377500D02*
X6298250Y-5417500D01*
X6299505Y-5276295D02*
X6339505Y-5316295D01*
X6339505Y-5276295D02*
X6299505Y-5316295D01*
X6325550Y-4806000D02*
X6365550Y-4846000D01*
X6365550Y-4806000D02*
X6325550Y-4846000D01*
X6431600Y-2494600D02*
X6471600Y-2534600D01*
X6471600Y-2494600D02*
X6431600Y-2534600D01*
X6482400Y-6660200D02*
X6522400Y-6700200D01*
X6522400Y-6660200D02*
X6482400Y-6700200D01*
X6488750Y-6774500D02*
X6528750Y-6814500D01*
X6528750Y-6774500D02*
X6488750Y-6814500D01*
X6507800Y-7066600D02*
X6547800Y-7106600D01*
X6547800Y-7066600D02*
X6507800Y-7106600D01*
X6520500Y-4488500D02*
X6560500Y-4528500D01*
X6560500Y-4488500D02*
X6520500Y-4528500D01*
X6533200Y-5720400D02*
X6573200Y-5760400D01*
X6573200Y-5720400D02*
X6533200Y-5760400D01*
X6533200Y-6025200D02*
X6573200Y-6065200D01*
X6573200Y-6025200D02*
X6533200Y-6065200D01*
X6581959Y-2170497D02*
X6621959Y-2210497D01*
X6621959Y-2170497D02*
X6581959Y-2210497D01*
X6736400Y-2545400D02*
X6776400Y-2585400D01*
X6776400Y-2545400D02*
X6736400Y-2585400D01*
X6761800Y-7173450D02*
X6801800Y-7213450D01*
X6801800Y-7173450D02*
X6761800Y-7213450D01*
X6793200Y-6393500D02*
X6833200Y-6433500D01*
X6833200Y-6393500D02*
X6793200Y-6433500D01*
X6793200Y-6838000D02*
X6833200Y-6878000D01*
X6833200Y-6838000D02*
X6793200Y-6878000D01*
X6796975Y-6538450D02*
X6836975Y-6578450D01*
X6836975Y-6538450D02*
X6796975Y-6578450D01*
X6806250Y-6076000D02*
X6846250Y-6116000D01*
X6846250Y-6076000D02*
X6806250Y-6116000D01*
X6810370Y-6947566D02*
X6850370Y-6987566D01*
X6850370Y-6947566D02*
X6810370Y-6987566D01*
X6812600Y-7320600D02*
X6852600Y-7360600D01*
X6852600Y-7320600D02*
X6812600Y-7360600D01*
X6823479Y-6188408D02*
X6863479Y-6228408D01*
X6863479Y-6188408D02*
X6823479Y-6228408D01*
X6838781Y-6743492D02*
X6878781Y-6783492D01*
X6878781Y-6743492D02*
X6838781Y-6783492D01*
X6877342Y-7219000D02*
X6917342Y-7259000D01*
X6917342Y-7219000D02*
X6877342Y-7259000D01*
X6881698Y-6591478D02*
X6921698Y-6631478D01*
X6921698Y-6591478D02*
X6881698Y-6631478D01*
X6888800Y-2113600D02*
X6928800Y-2153600D01*
X6928800Y-2113600D02*
X6888800Y-2153600D01*
X6899032Y-6411450D02*
X6939032Y-6451450D01*
X6939032Y-6411450D02*
X6899032Y-6451450D01*
X6901500Y-3409000D02*
X6941500Y-3449000D01*
X6941500Y-3409000D02*
X6901500Y-3449000D01*
X6901500Y-6266500D02*
X6941500Y-6306500D01*
X6941500Y-6266500D02*
X6901500Y-6306500D01*
X6914200Y-5822000D02*
X6954200Y-5862000D01*
X6954200Y-5822000D02*
X6914200Y-5862000D01*
X6914200Y-7022500D02*
X6954200Y-7062500D01*
X6954200Y-7022500D02*
X6914200Y-7062500D01*
X6933250Y-6685600D02*
X6973250Y-6725600D01*
X6973250Y-6685600D02*
X6933250Y-6725600D01*
X6965000Y-3781050D02*
X7005000Y-3821050D01*
X7005000Y-3781050D02*
X6965000Y-3821050D01*
X6996750Y-5060000D02*
X7036750Y-5100000D01*
X7036750Y-5060000D02*
X6996750Y-5100000D01*
X6996750Y-5159950D02*
X7036750Y-5199950D01*
X7036750Y-5159950D02*
X6996750Y-5199950D01*
X7069200Y-3218500D02*
X7109200Y-3258500D01*
X7109200Y-3218500D02*
X7069200Y-3258500D01*
X7123750Y-5885500D02*
X7163750Y-5925500D01*
X7163750Y-5885500D02*
X7123750Y-5925500D01*
X7142800Y-2062800D02*
X7182800Y-2102800D01*
X7182800Y-2062800D02*
X7142800Y-2102800D01*
X7194425Y-5811225D02*
X7234425Y-5851225D01*
X7234425Y-5811225D02*
X7194425Y-5851225D01*
X7244400Y-2316800D02*
X7284400Y-2356800D01*
X7284400Y-2316800D02*
X7244400Y-2356800D01*
X7244400Y-2647000D02*
X7284400Y-2687000D01*
X7284400Y-2647000D02*
X7244400Y-2687000D01*
X7260300Y-3383625D02*
X7300300Y-3423625D01*
X7300300Y-3383625D02*
X7260300Y-3423625D01*
X7260300Y-6055350D02*
X7300300Y-6095350D01*
X7300300Y-6055350D02*
X7260300Y-6095350D01*
X7308052Y-2120657D02*
X7348052Y-2160657D01*
X7348052Y-2120657D02*
X7308052Y-2160657D01*
X7335113Y-2216875D02*
X7375113Y-2256875D01*
X7375113Y-2216875D02*
X7335113Y-2256875D01*
X7346000Y-6431600D02*
X7386000Y-6471600D01*
X7386000Y-6431600D02*
X7346000Y-6471600D01*
X7346000Y-7142800D02*
X7386000Y-7182800D01*
X7386000Y-7142800D02*
X7346000Y-7182800D01*
X7346000Y-7409500D02*
X7386000Y-7449500D01*
X7386000Y-7409500D02*
X7346000Y-7449500D01*
X7373050Y-6774500D02*
X7413050Y-6814500D01*
X7413050Y-6774500D02*
X7373050Y-6814500D01*
X7447205Y-7410755D02*
X7487205Y-7450755D01*
X7487205Y-7410755D02*
X7447205Y-7450755D01*
X7450200Y-3853500D02*
X7490200Y-3893500D01*
X7490200Y-3853500D02*
X7450200Y-3893500D01*
X7451224Y-2418274D02*
X7491224Y-2458274D01*
X7491224Y-2418274D02*
X7451224Y-2458274D01*
X7469705Y-6469121D02*
X7509705Y-6509121D01*
X7509705Y-6469121D02*
X7469705Y-6509121D01*
X7473000Y-6774500D02*
X7513000Y-6814500D01*
X7513000Y-6774500D02*
X7473000Y-6814500D01*
X7504750Y-2520000D02*
X7544750Y-2560000D01*
X7544750Y-2520000D02*
X7504750Y-2560000D01*
X7536500Y-1377000D02*
X7576500Y-1417000D01*
X7576500Y-1377000D02*
X7536500Y-1417000D01*
X7550150Y-3853500D02*
X7590150Y-3893500D01*
X7590150Y-3853500D02*
X7550150Y-3893500D01*
X7568250Y-2774000D02*
X7608250Y-2814000D01*
X7608250Y-2774000D02*
X7568250Y-2814000D01*
X7568250Y-6150050D02*
X7608250Y-6190050D01*
X7608250Y-6150050D02*
X7568250Y-6190050D01*
X7574205Y-6775755D02*
X7614205Y-6815755D01*
X7614205Y-6775755D02*
X7574205Y-6815755D01*
X7576268Y-6474950D02*
X7616268Y-6514950D01*
X7616268Y-6474950D02*
X7576268Y-6514950D01*
X7592736Y-6012446D02*
X7632736Y-6052446D01*
X7632736Y-6012446D02*
X7592736Y-6052446D01*
X7592774Y-5695000D02*
X7632774Y-5735000D01*
X7632774Y-5695000D02*
X7592774Y-5735000D01*
X7600000Y-2647000D02*
X7640000Y-2687000D01*
X7640000Y-2647000D02*
X7600000Y-2687000D01*
X7625400Y-7142800D02*
X7665400Y-7182800D01*
X7665400Y-7142800D02*
X7625400Y-7182800D01*
X7676200Y-2164400D02*
X7716200Y-2204400D01*
X7716200Y-2164400D02*
X7676200Y-2204400D01*
X7689295Y-5757245D02*
X7729295Y-5797245D01*
X7729295Y-5757245D02*
X7689295Y-5797245D01*
X7727000Y-4098550D02*
X7767000Y-4138550D01*
X7767000Y-4098550D02*
X7727000Y-4138550D01*
X7771375Y-6444950D02*
X7811375Y-6484950D01*
X7811375Y-6444950D02*
X7771375Y-6484950D01*
X7790500Y-5758500D02*
X7830500Y-5798500D01*
X7830500Y-5758500D02*
X7790500Y-5798500D01*
X7803200Y-5923600D02*
X7843200Y-5963600D01*
X7843200Y-5923600D02*
X7803200Y-5963600D01*
X7854000Y-6888800D02*
X7894000Y-6928800D01*
X7894000Y-6888800D02*
X7854000Y-6928800D01*
X7885750Y-6494950D02*
X7925750Y-6534950D01*
X7925750Y-6494950D02*
X7885750Y-6534950D01*
X7930200Y-2240600D02*
X7970200Y-2280600D01*
X7970200Y-2240600D02*
X7930200Y-2280600D01*
X7942074Y-5257676D02*
X7982074Y-5297676D01*
X7982074Y-5257676D02*
X7942074Y-5297676D01*
X7949250Y-7092000D02*
X7989250Y-7132000D01*
X7989250Y-7092000D02*
X7949250Y-7132000D01*
X7955600Y-6152200D02*
X7995600Y-6192200D01*
X7995600Y-6152200D02*
X7955600Y-6192200D01*
X8012750Y-5187000D02*
X8052750Y-5227000D01*
X8052750Y-5187000D02*
X8012750Y-5227000D01*
X8019925Y-7162675D02*
X8059925Y-7202675D01*
X8059925Y-7162675D02*
X8019925Y-7202675D01*
X8044500Y-7536500D02*
X8084500Y-7576500D01*
X8084500Y-7536500D02*
X8044500Y-7576500D01*
X8239450Y-3702050D02*
X8279450Y-3742050D01*
X8279450Y-3702050D02*
X8239450Y-3742050D01*
X8318584Y-5379880D02*
X8358584Y-5419880D01*
X8358584Y-5379880D02*
X8318584Y-5419880D01*
X8386372Y-6385527D02*
X8426372Y-6425527D01*
X8426372Y-6385527D02*
X8386372Y-6425527D01*
X8386574Y-7148324D02*
X8426575Y-7188324D01*
X8426575Y-7148324D02*
X8386574Y-7188324D01*
X8393750Y-3663000D02*
X8433750Y-3703000D01*
X8433750Y-3663000D02*
X8393750Y-3703000D01*
X8393750Y-5314000D02*
X8433750Y-5354000D01*
X8433750Y-5314000D02*
X8393750Y-5354000D01*
X8393750Y-6169475D02*
X8433750Y-6209475D01*
X8433750Y-6169475D02*
X8393750Y-6209475D01*
X8393750Y-6269425D02*
X8433750Y-6309425D01*
X8433750Y-6269425D02*
X8393750Y-6309425D01*
X8425500Y-6965000D02*
X8465500Y-7005000D01*
X8465500Y-6965000D02*
X8425500Y-7005000D01*
X8440850Y-6469326D02*
X8480850Y-6509326D01*
X8480850Y-6469326D02*
X8440850Y-6509326D01*
X8457250Y-7219000D02*
X8497250Y-7259000D01*
X8497250Y-7219000D02*
X8457250Y-7259000D01*
X8470199Y-7054398D02*
X8510199Y-7094398D01*
X8510199Y-7054398D02*
X8470199Y-7094398D01*
X8552500Y-7536500D02*
X8592500Y-7576500D01*
X8592500Y-7536500D02*
X8552500Y-7576500D01*
X8584250Y-5758500D02*
X8624250Y-5798500D01*
X8624250Y-5758500D02*
X8584250Y-5798500D01*
X8616000Y-2329500D02*
X8656000Y-2369500D01*
X8656000Y-2329500D02*
X8616000Y-2369500D01*
X8654926Y-5687824D02*
X8694926Y-5727824D01*
X8694926Y-5687824D02*
X8654926Y-5727824D01*
X8666800Y-5974400D02*
X8706800Y-6014400D01*
X8706800Y-5974400D02*
X8666800Y-6014400D01*
X8765800Y-6393500D02*
X8805800Y-6433500D01*
X8805800Y-6393500D02*
X8765800Y-6433500D01*
X8765800Y-6774500D02*
X8805800Y-6814500D01*
X8805800Y-6774500D02*
X8765800Y-6814500D01*
X8795655Y-6281055D02*
X8835655Y-6321055D01*
X8835655Y-6281055D02*
X8795655Y-6321055D01*
X8806500Y-7092000D02*
X8846500Y-7132000D01*
X8846500Y-7092000D02*
X8806500Y-7132000D01*
X8838250Y-6647500D02*
X8878250Y-6687500D01*
X8878250Y-6647500D02*
X8838250Y-6687500D01*
X9378000Y-6139500D02*
X9418000Y-6179500D01*
X9418000Y-6139500D02*
X9378000Y-6179500D01*
X9378000Y-11156000D02*
X9418000Y-11196000D01*
X9418000Y-11156000D02*
X9378000Y-11196000D01*
X9428800Y-7142800D02*
X9468800Y-7182800D01*
X9468800Y-7142800D02*
X9428800Y-7182800D01*
X9477950Y-6203000D02*
X9517950Y-6243000D01*
X9517950Y-6203000D02*
X9477950Y-6243000D01*
X9530400Y-6584000D02*
X9570400Y-6624000D01*
X9570400Y-6584000D02*
X9530400Y-6624000D01*
X9568500Y-2393000D02*
X9608500Y-2433000D01*
X9608500Y-2393000D02*
X9568500Y-2433000D01*
X9568500Y-9060500D02*
X9608500Y-9100500D01*
X9608500Y-9060500D02*
X9568500Y-9100500D01*
X9665970Y-6641816D02*
X9705970Y-6681816D01*
X9705970Y-6641816D02*
X9665970Y-6681816D01*
X9753000Y-6690967D02*
X9793000Y-6730967D01*
X9793000Y-6690967D02*
X9753000Y-6730967D01*
X9801839Y-6603762D02*
X9841839Y-6643762D01*
X9841839Y-6603762D02*
X9801839Y-6643762D01*
X9809800Y-7625400D02*
X9849800Y-7665400D01*
X9849800Y-7625400D02*
X9809800Y-7665400D01*
X9975540Y-6800050D02*
X10015540Y-6840050D01*
X10015540Y-6800050D02*
X9975540Y-6840050D01*
X10013000Y-6266500D02*
X10053000Y-6306500D01*
X10053000Y-6266500D02*
X10013000Y-6306500D01*
X10014296Y-6707919D02*
X10054296Y-6747919D01*
X10054296Y-6707919D02*
X10014296Y-6747919D01*
X10140000Y-6266500D02*
X10180000Y-6306500D01*
X10180000Y-6266500D02*
X10140000Y-6306500D01*
X10140000Y-9060500D02*
X10180000Y-9100500D01*
X10180000Y-9060500D02*
X10140000Y-9100500D01*
X10191815Y-6916935D02*
X10231815Y-6956935D01*
X10231815Y-6916935D02*
X10191815Y-6956935D01*
X10222120Y-6335000D02*
X10262120Y-6375000D01*
X10262120Y-6335000D02*
X10222120Y-6375000D01*
X10241600Y-7142800D02*
X10281600Y-7182800D01*
X10281600Y-7142800D02*
X10241600Y-7182800D01*
X10259880Y-6843743D02*
X10299880Y-6883743D01*
X10299880Y-6843743D02*
X10259880Y-6883743D01*
X10330500Y-1948500D02*
X10370500Y-1988500D01*
X10370500Y-1948500D02*
X10330500Y-1988500D01*
X10349980Y-6158980D02*
X10389980Y-6198980D01*
X10389980Y-6158980D02*
X10349980Y-6198980D01*
X10394000Y-6266500D02*
X10434000Y-6306500D01*
X10434000Y-6266500D02*
X10394000Y-6306500D01*
X10584500Y-6266500D02*
X10624500Y-6306500D01*
X10624500Y-6266500D02*
X10584500Y-6306500D01*
X10673400Y-6194050D02*
X10713400Y-6234050D01*
X10713400Y-6194050D02*
X10673400Y-6234050D01*
X10825800Y-3155000D02*
X10865800Y-3195000D01*
X10865800Y-3155000D02*
X10825800Y-3195000D01*
X11029000Y-3739200D02*
X11069000Y-3779200D01*
X11069000Y-3739200D02*
X11029000Y-3779200D01*
X11029000Y-4488500D02*
X11069000Y-4528500D01*
X11069000Y-4488500D02*
X11029000Y-4528500D01*
X11219500Y-1948500D02*
X11259500Y-1988500D01*
X11259500Y-1948500D02*
X11219500Y-1988500D01*
X11371074Y-1703450D02*
X11411074Y-1743450D01*
X11411074Y-1703450D02*
X11371074Y-1743450D01*
X11441750Y-1631000D02*
X11481750Y-1671000D01*
X11481750Y-1631000D02*
X11441750Y-1671000D01*
X11886250Y-8679500D02*
X11926250Y-8719500D01*
X11926250Y-8679500D02*
X11886250Y-8719500D01*
X11981500Y-3599500D02*
X12021500Y-3639500D01*
X12021500Y-3599500D02*
X11981500Y-3639500D01*
X11981500Y-8768400D02*
X12021500Y-8808400D01*
X12021500Y-8768400D02*
X11981500Y-8808400D01*
X12045000Y-4983800D02*
X12085000Y-5023800D01*
X12085000Y-4983800D02*
X12045000Y-5023800D01*
X12076750Y-8679500D02*
X12116750Y-8719500D01*
X12116750Y-8679500D02*
X12076750Y-8719500D01*
X12235500Y-3409000D02*
X12275500Y-3449000D01*
X12275500Y-3409000D02*
X12235500Y-3449000D01*
X12683605Y-7342395D02*
X12723605Y-7382395D01*
X12723605Y-7342395D02*
X12683605Y-7382395D01*
X12683605Y-7596395D02*
X12723605Y-7636395D01*
X12723605Y-7596395D02*
X12683605Y-7636395D01*
X12683605Y-7850395D02*
X12723605Y-7890395D01*
X12723605Y-7850395D02*
X12683605Y-7890395D01*
X12683605Y-8612395D02*
X12723605Y-8652395D01*
X12723605Y-8612395D02*
X12683605Y-8652395D01*
X12699480Y-6330000D02*
X12739480Y-6370000D01*
X12739480Y-6330000D02*
X12699480Y-6370000D01*
X12743500Y-3790000D02*
X12783500Y-3830000D01*
X12783500Y-3790000D02*
X12743500Y-3830000D01*
X12743500Y-5949000D02*
X12783500Y-5989000D01*
X12783500Y-5949000D02*
X12743500Y-5989000D01*
X13124500Y-4298000D02*
X13164500Y-4338000D01*
X13164500Y-4298000D02*
X13124500Y-4338000D01*
D12*
X2070100Y-4381500D02*
G75*
G03*
X2070100Y-4381500I-38100J0D01*
G01*
X2070100Y-4635500D02*
G75*
G03*
X2070100Y-4635500I-38100J0D01*
G01*
X2070100Y-4889500D02*
G75*
G03*
X2070100Y-4889500I-38100J0D01*
G01*
X2070100Y-5143500D02*
G75*
G03*
X2070100Y-5143500I-38100J0D01*
G01*
X2070100Y-5397500D02*
G75*
G03*
X2070100Y-5397500I-38100J0D01*
G01*
X2070100Y-5651500D02*
G75*
G03*
X2070100Y-5651500I-38100J0D01*
G01*
X2070100Y-5905500D02*
G75*
G03*
X2070100Y-5905500I-38100J0D01*
G01*
X2070100Y-6159500D02*
G75*
G03*
X2070100Y-6159500I-38100J0D01*
G01*
X2070100Y-6413500D02*
G75*
G03*
X2070100Y-6413500I-38100J0D01*
G01*
X2070100Y-6667500D02*
G75*
G03*
X2070100Y-6667500I-38100J0D01*
G01*
X2070100Y-6921500D02*
G75*
G03*
X2070100Y-6921500I-38100J0D01*
G01*
X2070100Y-7175500D02*
G75*
G03*
X2070100Y-7175500I-38100J0D01*
G01*
X2070100Y-7429500D02*
G75*
G03*
X2070100Y-7429500I-38100J0D01*
G01*
X2070100Y-7683500D02*
G75*
G03*
X2070100Y-7683500I-38100J0D01*
G01*
X2070100Y-7937500D02*
G75*
G03*
X2070100Y-7937500I-38100J0D01*
G01*
X2070100Y-8191500D02*
G75*
G03*
X2070100Y-8191500I-38100J0D01*
G01*
X2070100Y-8445500D02*
G75*
G03*
X2070100Y-8445500I-38100J0D01*
G01*
X2070100Y-8699500D02*
G75*
G03*
X2070100Y-8699500I-38100J0D01*
G01*
X2070100Y-8953500D02*
G75*
G03*
X2070100Y-8953500I-38100J0D01*
G01*
X2070100Y-9207500D02*
G75*
G03*
X2070100Y-9207500I-38100J0D01*
G01*
X3848100Y-4381500D02*
G75*
G03*
X3848100Y-4381500I-38100J0D01*
G01*
X3848100Y-4635500D02*
G75*
G03*
X3848100Y-4635500I-38100J0D01*
G01*
X3848100Y-4889500D02*
G75*
G03*
X3848100Y-4889500I-38100J0D01*
G01*
X3848100Y-5143500D02*
G75*
G03*
X3848100Y-5143500I-38100J0D01*
G01*
X3848100Y-5397500D02*
G75*
G03*
X3848100Y-5397500I-38100J0D01*
G01*
X3848100Y-5651500D02*
G75*
G03*
X3848100Y-5651500I-38100J0D01*
G01*
X3848100Y-5905500D02*
G75*
G03*
X3848100Y-5905500I-38100J0D01*
G01*
X3848100Y-6159500D02*
G75*
G03*
X3848100Y-6159500I-38100J0D01*
G01*
X3848100Y-6413500D02*
G75*
G03*
X3848100Y-6413500I-38100J0D01*
G01*
X3848100Y-6667500D02*
G75*
G03*
X3848100Y-6667500I-38100J0D01*
G01*
X3848100Y-6921500D02*
G75*
G03*
X3848100Y-6921500I-38100J0D01*
G01*
X3848100Y-7175500D02*
G75*
G03*
X3848100Y-7175500I-38100J0D01*
G01*
X3848100Y-7429500D02*
G75*
G03*
X3848100Y-7429500I-38100J0D01*
G01*
X3848100Y-7683500D02*
G75*
G03*
X3848100Y-7683500I-38100J0D01*
G01*
X3848100Y-7937500D02*
G75*
G03*
X3848100Y-7937500I-38100J0D01*
G01*
X3848100Y-8191500D02*
G75*
G03*
X3848100Y-8191500I-38100J0D01*
G01*
X3848100Y-8445500D02*
G75*
G03*
X3848100Y-8445500I-38100J0D01*
G01*
X3848100Y-8699500D02*
G75*
G03*
X3848100Y-8699500I-38100J0D01*
G01*
X3848100Y-8953500D02*
G75*
G03*
X3848100Y-8953500I-38100J0D01*
G01*
X3848100Y-9207500D02*
G75*
G03*
X3848100Y-9207500I-38100J0D01*
G01*
X11595100Y-4381500D02*
G75*
G03*
X11595100Y-4381500I-38100J0D01*
G01*
X11595100Y-4635500D02*
G75*
G03*
X11595100Y-4635500I-38100J0D01*
G01*
X11595100Y-4889500D02*
G75*
G03*
X11595100Y-4889500I-38100J0D01*
G01*
X11595100Y-5143500D02*
G75*
G03*
X11595100Y-5143500I-38100J0D01*
G01*
X11595100Y-5397500D02*
G75*
G03*
X11595100Y-5397500I-38100J0D01*
G01*
X11595100Y-5651500D02*
G75*
G03*
X11595100Y-5651500I-38100J0D01*
G01*
X11595100Y-5905500D02*
G75*
G03*
X11595100Y-5905500I-38100J0D01*
G01*
X11595100Y-6159500D02*
G75*
G03*
X11595100Y-6159500I-38100J0D01*
G01*
X11595100Y-6413500D02*
G75*
G03*
X11595100Y-6413500I-38100J0D01*
G01*
X11595100Y-6667500D02*
G75*
G03*
X11595100Y-6667500I-38100J0D01*
G01*
X11595100Y-6921500D02*
G75*
G03*
X11595100Y-6921500I-38100J0D01*
G01*
X11595100Y-7175500D02*
G75*
G03*
X11595100Y-7175500I-38100J0D01*
G01*
X11595100Y-7429500D02*
G75*
G03*
X11595100Y-7429500I-38100J0D01*
G01*
X11595100Y-7683500D02*
G75*
G03*
X11595100Y-7683500I-38100J0D01*
G01*
X11595100Y-7937500D02*
G75*
G03*
X11595100Y-7937500I-38100J0D01*
G01*
X11595100Y-8191500D02*
G75*
G03*
X11595100Y-8191500I-38100J0D01*
G01*
X11595100Y-8445500D02*
G75*
G03*
X11595100Y-8445500I-38100J0D01*
G01*
X11595100Y-8699500D02*
G75*
G03*
X11595100Y-8699500I-38100J0D01*
G01*
X11595100Y-8953500D02*
G75*
G03*
X11595100Y-8953500I-38100J0D01*
G01*
X11595100Y-9207500D02*
G75*
G03*
X11595100Y-9207500I-38100J0D01*
G01*
X13373100Y-4381500D02*
G75*
G03*
X13373100Y-4381500I-38100J0D01*
G01*
X13373100Y-4635500D02*
G75*
G03*
X13373100Y-4635500I-38100J0D01*
G01*
X13373100Y-4889500D02*
G75*
G03*
X13373100Y-4889500I-38100J0D01*
G01*
X13373100Y-5143500D02*
G75*
G03*
X13373100Y-5143500I-38100J0D01*
G01*
X13373100Y-5397500D02*
G75*
G03*
X13373100Y-5397500I-38100J0D01*
G01*
X13373100Y-5651500D02*
G75*
G03*
X13373100Y-5651500I-38100J0D01*
G01*
X13373100Y-5905500D02*
G75*
G03*
X13373100Y-5905500I-38100J0D01*
G01*
X13373100Y-6159500D02*
G75*
G03*
X13373100Y-6159500I-38100J0D01*
G01*
X13373100Y-6413500D02*
G75*
G03*
X13373100Y-6413500I-38100J0D01*
G01*
X13373100Y-6667500D02*
G75*
G03*
X13373100Y-6667500I-38100J0D01*
G01*
X13373100Y-6921500D02*
G75*
G03*
X13373100Y-6921500I-38100J0D01*
G01*
X13373100Y-7175500D02*
G75*
G03*
X13373100Y-7175500I-38100J0D01*
G01*
X13373100Y-7429500D02*
G75*
G03*
X13373100Y-7429500I-38100J0D01*
G01*
X13373100Y-7683500D02*
G75*
G03*
X13373100Y-7683500I-38100J0D01*
G01*
X13373100Y-7937500D02*
G75*
G03*
X13373100Y-7937500I-38100J0D01*
G01*
X13373100Y-8191500D02*
G75*
G03*
X13373100Y-8191500I-38100J0D01*
G01*
X13373100Y-8445500D02*
G75*
G03*
X13373100Y-8445500I-38100J0D01*
G01*
X13373100Y-8699500D02*
G75*
G03*
X13373100Y-8699500I-38100J0D01*
G01*
X13373100Y-8953500D02*
G75*
G03*
X13373100Y-8953500I-38100J0D01*
G01*
X13373100Y-9207500D02*
G75*
G03*
X13373100Y-9207500I-38100J0D01*
G01*
D13*
X4508500Y-2812500D02*
X4508500Y-2902500D01*
X4463500Y-2857500D02*
X4553500Y-2857500D01*
X4762500Y-2812500D02*
X4762500Y-2902500D01*
X4717500Y-2857500D02*
X4807500Y-2857500D01*
X5397500Y-2812500D02*
X5397500Y-2902500D01*
X5352500Y-2857500D02*
X5442500Y-2857500D01*
X5651500Y-2812500D02*
X5651500Y-2902500D01*
X5606500Y-2857500D02*
X5696500Y-2857500D01*
X6286500Y-2812500D02*
X6286500Y-2902500D01*
X6241500Y-2857500D02*
X6331500Y-2857500D01*
X6540500Y-2812500D02*
X6540500Y-2902500D01*
X6495500Y-2857500D02*
X6585500Y-2857500D01*
X7175500Y-2812500D02*
X7175500Y-2902500D01*
X7130500Y-2857500D02*
X7220500Y-2857500D01*
X7429500Y-2812500D02*
X7429500Y-2902500D01*
X7384500Y-2857500D02*
X7474500Y-2857500D01*
X8064500Y-2812500D02*
X8064500Y-2902500D01*
X8019500Y-2857500D02*
X8109500Y-2857500D01*
X8318500Y-2812500D02*
X8318500Y-2902500D01*
X8273500Y-2857500D02*
X8363500Y-2857500D01*
X8953500Y-2812500D02*
X8953500Y-2902500D01*
X8908500Y-2857500D02*
X8998500Y-2857500D01*
X9207500Y-2812500D02*
X9207500Y-2902500D01*
X9162500Y-2857500D02*
X9252500Y-2857500D01*
X9818500Y-2812500D02*
X9818500Y-2902500D01*
X9773500Y-2857500D02*
X9863500Y-2857500D01*
X10072500Y-2812500D02*
X10072500Y-2902500D01*
X10027500Y-2857500D02*
X10117500Y-2857500D01*
X10731500Y-2812500D02*
X10731500Y-2902500D01*
X10686500Y-2857500D02*
X10776500Y-2857500D01*
X10985500Y-2812500D02*
X10985500Y-2902500D01*
X10940500Y-2857500D02*
X11030500Y-2857500D01*
D14*
X2702356Y-10004856D02*
X2702356Y-9934144D01*
X2631644Y-9934144D01*
X2631644Y-10004856D01*
X2702356Y-10004856D01*
X2956356Y-10004856D02*
X2956356Y-9934144D01*
X2885644Y-9934144D01*
X2885644Y-10004856D01*
X2956356Y-10004856D01*
X3210356Y-10004856D02*
X3210356Y-9934144D01*
X3139644Y-9934144D01*
X3139644Y-10004856D01*
X3210356Y-10004856D01*
X4352356Y-11782856D02*
X4352356Y-11712144D01*
X4281644Y-11712144D01*
X4281644Y-11782856D01*
X4352356Y-11782856D01*
X4606356Y-11782856D02*
X4606356Y-11712144D01*
X4535644Y-11712144D01*
X4535644Y-11782856D01*
X4606356Y-11782856D01*
X4860356Y-11782856D02*
X4860356Y-11712144D01*
X4789644Y-11712144D01*
X4789644Y-11782856D01*
X4860356Y-11782856D01*
X5114356Y-11782856D02*
X5114356Y-11712144D01*
X5043644Y-11712144D01*
X5043644Y-11782856D01*
X5114356Y-11782856D01*
X5496356Y-11782856D02*
X5496356Y-11712144D01*
X5425644Y-11712144D01*
X5425644Y-11782856D01*
X5496356Y-11782856D01*
X5750356Y-11782856D02*
X5750356Y-11712144D01*
X5679644Y-11712144D01*
X5679644Y-11782856D01*
X5750356Y-11782856D01*
X6004356Y-11782856D02*
X6004356Y-11712144D01*
X5933644Y-11712144D01*
X5933644Y-11782856D01*
X6004356Y-11782856D01*
X6226606Y-1686356D02*
X6226606Y-1615644D01*
X6155894Y-1615644D01*
X6155894Y-1686356D01*
X6226606Y-1686356D01*
X6226606Y-1940356D02*
X6226606Y-1869644D01*
X6155894Y-1869644D01*
X6155894Y-1940356D01*
X6226606Y-1940356D01*
X6480606Y-1686356D02*
X6480606Y-1615644D01*
X6409894Y-1615644D01*
X6409894Y-1686356D01*
X6480606Y-1686356D01*
X6480606Y-1940356D02*
X6480606Y-1869644D01*
X6409894Y-1869644D01*
X6409894Y-1940356D01*
X6480606Y-1940356D01*
X6734606Y-1686356D02*
X6734606Y-1615644D01*
X6663894Y-1615644D01*
X6663894Y-1686356D01*
X6734606Y-1686356D01*
X6734606Y-1940356D02*
X6734606Y-1869644D01*
X6663894Y-1869644D01*
X6663894Y-1940356D01*
X6734606Y-1940356D01*
X6988606Y-1686356D02*
X6988606Y-1615644D01*
X6917894Y-1615644D01*
X6917894Y-1686356D01*
X6988606Y-1686356D01*
X6988606Y-1940356D02*
X6988606Y-1869644D01*
X6917894Y-1869644D01*
X6917894Y-1940356D01*
X6988606Y-1940356D01*
X7242606Y-1686356D02*
X7242606Y-1615644D01*
X7171894Y-1615644D01*
X7171894Y-1686356D01*
X7242606Y-1686356D01*
X7242606Y-1940356D02*
X7242606Y-1869644D01*
X7171894Y-1869644D01*
X7171894Y-1940356D01*
X7242606Y-1940356D01*
X7496606Y-1686356D02*
X7496606Y-1615644D01*
X7425894Y-1615644D01*
X7425894Y-1686356D01*
X7496606Y-1686356D01*
X7496606Y-1940356D02*
X7496606Y-1869644D01*
X7425894Y-1869644D01*
X7425894Y-1940356D01*
X7496606Y-1940356D01*
X7750606Y-1686356D02*
X7750606Y-1615644D01*
X7679894Y-1615644D01*
X7679894Y-1686356D01*
X7750606Y-1686356D01*
X7750606Y-1940356D02*
X7750606Y-1869644D01*
X7679894Y-1869644D01*
X7679894Y-1940356D01*
X7750606Y-1940356D01*
X8004606Y-1686356D02*
X8004606Y-1615644D01*
X7933894Y-1615644D01*
X7933894Y-1686356D01*
X8004606Y-1686356D01*
X8004606Y-1940356D02*
X8004606Y-1869644D01*
X7933894Y-1869644D01*
X7933894Y-1940356D01*
X8004606Y-1940356D01*
X8258606Y-1686356D02*
X8258606Y-1615644D01*
X8187894Y-1615644D01*
X8187894Y-1686356D01*
X8258606Y-1686356D01*
X8258606Y-1940356D02*
X8258606Y-1869644D01*
X8187894Y-1869644D01*
X8187894Y-1940356D01*
X8258606Y-1940356D01*
X8512606Y-1686356D02*
X8512606Y-1615644D01*
X8441894Y-1615644D01*
X8441894Y-1686356D01*
X8512606Y-1686356D01*
X8512606Y-1940356D02*
X8512606Y-1869644D01*
X8441894Y-1869644D01*
X8441894Y-1940356D01*
X8512606Y-1940356D01*
X8766606Y-1686356D02*
X8766606Y-1615644D01*
X8695894Y-1615644D01*
X8695894Y-1686356D01*
X8766606Y-1686356D01*
X8766606Y-1940356D02*
X8766606Y-1869644D01*
X8695894Y-1869644D01*
X8695894Y-1940356D01*
X8766606Y-1940356D01*
X9020606Y-1686356D02*
X9020606Y-1615644D01*
X8949894Y-1615644D01*
X8949894Y-1686356D01*
X9020606Y-1686356D01*
X9020606Y-1940356D02*
X9020606Y-1869644D01*
X8949894Y-1869644D01*
X8949894Y-1940356D01*
X9020606Y-1940356D01*
X9052356Y-11782856D02*
X9052356Y-11712144D01*
X8981644Y-11712144D01*
X8981644Y-11782856D01*
X9052356Y-11782856D01*
X9274606Y-1686356D02*
X9274606Y-1615644D01*
X9203894Y-1615644D01*
X9203894Y-1686356D01*
X9274606Y-1686356D01*
X9274606Y-1940356D02*
X9274606Y-1869644D01*
X9203894Y-1869644D01*
X9203894Y-1940356D01*
X9274606Y-1940356D01*
X9306356Y-11782856D02*
X9306356Y-11712144D01*
X9235644Y-11712144D01*
X9235644Y-11782856D01*
X9306356Y-11782856D01*
X9560356Y-11782856D02*
X9560356Y-11712144D01*
X9489644Y-11712144D01*
X9489644Y-11782856D01*
X9560356Y-11782856D01*
X9814356Y-11782856D02*
X9814356Y-11712144D01*
X9743644Y-11712144D01*
X9743644Y-11782856D01*
X9814356Y-11782856D01*
X10195356Y-11782856D02*
X10195356Y-11712144D01*
X10124644Y-11712144D01*
X10124644Y-11782856D01*
X10195356Y-11782856D01*
X10449356Y-11782856D02*
X10449356Y-11712144D01*
X10378644Y-11712144D01*
X10378644Y-11782856D01*
X10449356Y-11782856D01*
X10703356Y-11782856D02*
X10703356Y-11712144D01*
X10632644Y-11712144D01*
X10632644Y-11782856D01*
X10703356Y-11782856D01*
X12227356Y-10004856D02*
X12227356Y-9934144D01*
X12156644Y-9934144D01*
X12156644Y-10004856D01*
X12227356Y-10004856D01*
X12481356Y-10004856D02*
X12481356Y-9934144D01*
X12410644Y-9934144D01*
X12410644Y-10004856D01*
X12481356Y-10004856D01*
X12735356Y-10004856D02*
X12735356Y-9934144D01*
X12664644Y-9934144D01*
X12664644Y-10004856D01*
X12735356Y-10004856D01*
D15*
X2295000Y-11118000D02*
X2360000Y-11053000D01*
X2295000Y-10988000D01*
X2230000Y-11053000D01*
X2295000Y-11118000D01*
X2295000Y-11618000D02*
X2360000Y-11553000D01*
X2295000Y-11488000D01*
X2230000Y-11553000D01*
X2295000Y-11618000D01*
X3545000Y-11118000D02*
X3610000Y-11053000D01*
X3545000Y-10988000D01*
X3480000Y-11053000D01*
X3545000Y-11118000D01*
X3545000Y-11618000D02*
X3610000Y-11553000D01*
X3545000Y-11488000D01*
X3480000Y-11553000D01*
X3545000Y-11618000D01*
X11822000Y-11118000D02*
X11887000Y-11053000D01*
X11822000Y-10988000D01*
X11757000Y-11053000D01*
X11822000Y-11118000D01*
X11822000Y-11618000D02*
X11887000Y-11553000D01*
X11822000Y-11488000D01*
X11757000Y-11553000D01*
X11822000Y-11618000D01*
X13072000Y-11118000D02*
X13137000Y-11053000D01*
X13072000Y-10988000D01*
X13007000Y-11053000D01*
X13072000Y-11118000D01*
X13072000Y-11618000D02*
X13137000Y-11553000D01*
X13072000Y-11488000D01*
X13007000Y-11553000D01*
X13072000Y-11618000D01*
D16*
X1872000Y-1872000D02*
X2192000Y-2192000D01*
X2192000Y-1872000D02*
X1872000Y-2192000D01*
X2192000Y-2032000D02*
G75*
G03*
X2192000Y-2032000I-160000J0D01*
G01*
X4666000Y-10762000D02*
X4986000Y-11082000D01*
X4986000Y-10762000D02*
X4666000Y-11082000D01*
X4986000Y-10922000D02*
G75*
G03*
X4986000Y-10922000I-160000J0D01*
G01*
X10000000Y-10762000D02*
X10320000Y-11082000D01*
X10320000Y-10762000D02*
X10000000Y-11082000D01*
X10320000Y-10922000D02*
G75*
G03*
X10320000Y-10922000I-160000J0D01*
G01*
X12895600Y-1795800D02*
X13215600Y-2115800D01*
X13215600Y-1795800D02*
X12895600Y-2115800D01*
X13215600Y-1955800D02*
G75*
G03*
X13215600Y-1955800I-160000J0D01*
G01*
D10*
X1520777Y-12513484D02*
X1520777Y-12313484D01*
X1520777Y-12313484D02*
X1568396Y-12313484D01*
X1568396Y-12313484D02*
X1596967Y-12323008D01*
X1596967Y-12323008D02*
X1616015Y-12342055D01*
X1616015Y-12342055D02*
X1625539Y-12361103D01*
X1625539Y-12361103D02*
X1635062Y-12399198D01*
X1635062Y-12399198D02*
X1635062Y-12427769D01*
X1635062Y-12427769D02*
X1625539Y-12465865D01*
X1625539Y-12465865D02*
X1616015Y-12484912D01*
X1616015Y-12484912D02*
X1596967Y-12503960D01*
X1596967Y-12503960D02*
X1568396Y-12513484D01*
X1568396Y-12513484D02*
X1520777Y-12513484D01*
X1720777Y-12513484D02*
X1720777Y-12380150D01*
X1720777Y-12418246D02*
X1730301Y-12399198D01*
X1730301Y-12399198D02*
X1739824Y-12389674D01*
X1739824Y-12389674D02*
X1758872Y-12380150D01*
X1758872Y-12380150D02*
X1777920Y-12380150D01*
X1844586Y-12513484D02*
X1844586Y-12380150D01*
X1844586Y-12313484D02*
X1835062Y-12323008D01*
X1835062Y-12323008D02*
X1844586Y-12332531D01*
X1844586Y-12332531D02*
X1854110Y-12323008D01*
X1854110Y-12323008D02*
X1844586Y-12313484D01*
X1844586Y-12313484D02*
X1844586Y-12332531D01*
X1968396Y-12513484D02*
X1949348Y-12503960D01*
X1949348Y-12503960D02*
X1939824Y-12484912D01*
X1939824Y-12484912D02*
X1939824Y-12313484D01*
X2073158Y-12513484D02*
X2054110Y-12503960D01*
X2054110Y-12503960D02*
X2044586Y-12484912D01*
X2044586Y-12484912D02*
X2044586Y-12313484D01*
X2301729Y-12513484D02*
X2301729Y-12313484D01*
X2301729Y-12313484D02*
X2368396Y-12456341D01*
X2368396Y-12456341D02*
X2435063Y-12313484D01*
X2435063Y-12313484D02*
X2435063Y-12513484D01*
X2616015Y-12513484D02*
X2616015Y-12408722D01*
X2616015Y-12408722D02*
X2606491Y-12389674D01*
X2606491Y-12389674D02*
X2587444Y-12380150D01*
X2587444Y-12380150D02*
X2549348Y-12380150D01*
X2549348Y-12380150D02*
X2530301Y-12389674D01*
X2616015Y-12503960D02*
X2596967Y-12513484D01*
X2596967Y-12513484D02*
X2549348Y-12513484D01*
X2549348Y-12513484D02*
X2530301Y-12503960D01*
X2530301Y-12503960D02*
X2520777Y-12484912D01*
X2520777Y-12484912D02*
X2520777Y-12465865D01*
X2520777Y-12465865D02*
X2530301Y-12446817D01*
X2530301Y-12446817D02*
X2549348Y-12437293D01*
X2549348Y-12437293D02*
X2596967Y-12437293D01*
X2596967Y-12437293D02*
X2616015Y-12427769D01*
X2711253Y-12380150D02*
X2711253Y-12580150D01*
X2711253Y-12389674D02*
X2730301Y-12380150D01*
X2730301Y-12380150D02*
X2768396Y-12380150D01*
X2768396Y-12380150D02*
X2787444Y-12389674D01*
X2787444Y-12389674D02*
X2796967Y-12399198D01*
X2796967Y-12399198D02*
X2806491Y-12418246D01*
X2806491Y-12418246D02*
X2806491Y-12475388D01*
X2806491Y-12475388D02*
X2796967Y-12494436D01*
X2796967Y-12494436D02*
X2787444Y-12503960D01*
X2787444Y-12503960D02*
X2768396Y-12513484D01*
X2768396Y-12513484D02*
X2730301Y-12513484D01*
X2730301Y-12513484D02*
X2711253Y-12503960D01*
X2892205Y-12494436D02*
X2901729Y-12503960D01*
X2901729Y-12503960D02*
X2892205Y-12513484D01*
X2892205Y-12513484D02*
X2882682Y-12503960D01*
X2882682Y-12503960D02*
X2892205Y-12494436D01*
X2892205Y-12494436D02*
X2892205Y-12513484D01*
X2892205Y-12389674D02*
X2901729Y-12399198D01*
X2901729Y-12399198D02*
X2892205Y-12408722D01*
X2892205Y-12408722D02*
X2882682Y-12399198D01*
X2882682Y-12399198D02*
X2892205Y-12389674D01*
X2892205Y-12389674D02*
X2892205Y-12408722D01*
D11*
X1220000Y-12822000D02*
X1260000Y-12862000D01*
X1260000Y-12822000D02*
X1220000Y-12862000D01*
D10*
X1558872Y-12733484D02*
X1577920Y-12733484D01*
X1577920Y-12733484D02*
X1596967Y-12743008D01*
X1596967Y-12743008D02*
X1606491Y-12752531D01*
X1606491Y-12752531D02*
X1616015Y-12771579D01*
X1616015Y-12771579D02*
X1625539Y-12809674D01*
X1625539Y-12809674D02*
X1625539Y-12857293D01*
X1625539Y-12857293D02*
X1616015Y-12895388D01*
X1616015Y-12895388D02*
X1606491Y-12914436D01*
X1606491Y-12914436D02*
X1596967Y-12923960D01*
X1596967Y-12923960D02*
X1577920Y-12933484D01*
X1577920Y-12933484D02*
X1558872Y-12933484D01*
X1558872Y-12933484D02*
X1539824Y-12923960D01*
X1539824Y-12923960D02*
X1530301Y-12914436D01*
X1530301Y-12914436D02*
X1520777Y-12895388D01*
X1520777Y-12895388D02*
X1511253Y-12857293D01*
X1511253Y-12857293D02*
X1511253Y-12809674D01*
X1511253Y-12809674D02*
X1520777Y-12771579D01*
X1520777Y-12771579D02*
X1530301Y-12752531D01*
X1530301Y-12752531D02*
X1539824Y-12743008D01*
X1539824Y-12743008D02*
X1558872Y-12733484D01*
X1711253Y-12914436D02*
X1720777Y-12923960D01*
X1720777Y-12923960D02*
X1711253Y-12933484D01*
X1711253Y-12933484D02*
X1701729Y-12923960D01*
X1701729Y-12923960D02*
X1711253Y-12914436D01*
X1711253Y-12914436D02*
X1711253Y-12933484D01*
X1892205Y-12800150D02*
X1892205Y-12933484D01*
X1844586Y-12723960D02*
X1796967Y-12866817D01*
X1796967Y-12866817D02*
X1920777Y-12866817D01*
X2035062Y-12733484D02*
X2054110Y-12733484D01*
X2054110Y-12733484D02*
X2073158Y-12743008D01*
X2073158Y-12743008D02*
X2082682Y-12752531D01*
X2082682Y-12752531D02*
X2092205Y-12771579D01*
X2092205Y-12771579D02*
X2101729Y-12809674D01*
X2101729Y-12809674D02*
X2101729Y-12857293D01*
X2101729Y-12857293D02*
X2092205Y-12895388D01*
X2092205Y-12895388D02*
X2082682Y-12914436D01*
X2082682Y-12914436D02*
X2073158Y-12923960D01*
X2073158Y-12923960D02*
X2054110Y-12933484D01*
X2054110Y-12933484D02*
X2035062Y-12933484D01*
X2035062Y-12933484D02*
X2016015Y-12923960D01*
X2016015Y-12923960D02*
X2006491Y-12914436D01*
X2006491Y-12914436D02*
X1996967Y-12895388D01*
X1996967Y-12895388D02*
X1987443Y-12857293D01*
X1987443Y-12857293D02*
X1987443Y-12809674D01*
X1987443Y-12809674D02*
X1996967Y-12771579D01*
X1996967Y-12771579D02*
X2006491Y-12752531D01*
X2006491Y-12752531D02*
X2016015Y-12743008D01*
X2016015Y-12743008D02*
X2035062Y-12733484D01*
X2225539Y-12733484D02*
X2244586Y-12733484D01*
X2244586Y-12733484D02*
X2263634Y-12743008D01*
X2263634Y-12743008D02*
X2273158Y-12752531D01*
X2273158Y-12752531D02*
X2282682Y-12771579D01*
X2282682Y-12771579D02*
X2292205Y-12809674D01*
X2292205Y-12809674D02*
X2292205Y-12857293D01*
X2292205Y-12857293D02*
X2282682Y-12895388D01*
X2282682Y-12895388D02*
X2273158Y-12914436D01*
X2273158Y-12914436D02*
X2263634Y-12923960D01*
X2263634Y-12923960D02*
X2244586Y-12933484D01*
X2244586Y-12933484D02*
X2225539Y-12933484D01*
X2225539Y-12933484D02*
X2206491Y-12923960D01*
X2206491Y-12923960D02*
X2196967Y-12914436D01*
X2196967Y-12914436D02*
X2187444Y-12895388D01*
X2187444Y-12895388D02*
X2177920Y-12857293D01*
X2177920Y-12857293D02*
X2177920Y-12809674D01*
X2177920Y-12809674D02*
X2187444Y-12771579D01*
X2187444Y-12771579D02*
X2196967Y-12752531D01*
X2196967Y-12752531D02*
X2206491Y-12743008D01*
X2206491Y-12743008D02*
X2225539Y-12733484D01*
X2377920Y-12933484D02*
X2377920Y-12800150D01*
X2377920Y-12819198D02*
X2387444Y-12809674D01*
X2387444Y-12809674D02*
X2406491Y-12800150D01*
X2406491Y-12800150D02*
X2435063Y-12800150D01*
X2435063Y-12800150D02*
X2454110Y-12809674D01*
X2454110Y-12809674D02*
X2463634Y-12828722D01*
X2463634Y-12828722D02*
X2463634Y-12933484D01*
X2463634Y-12828722D02*
X2473158Y-12809674D01*
X2473158Y-12809674D02*
X2492205Y-12800150D01*
X2492205Y-12800150D02*
X2520777Y-12800150D01*
X2520777Y-12800150D02*
X2539825Y-12809674D01*
X2539825Y-12809674D02*
X2549348Y-12828722D01*
X2549348Y-12828722D02*
X2549348Y-12933484D01*
X2644586Y-12933484D02*
X2644586Y-12800150D01*
X2644586Y-12819198D02*
X2654110Y-12809674D01*
X2654110Y-12809674D02*
X2673158Y-12800150D01*
X2673158Y-12800150D02*
X2701729Y-12800150D01*
X2701729Y-12800150D02*
X2720777Y-12809674D01*
X2720777Y-12809674D02*
X2730301Y-12828722D01*
X2730301Y-12828722D02*
X2730301Y-12933484D01*
X2730301Y-12828722D02*
X2739825Y-12809674D01*
X2739825Y-12809674D02*
X2758872Y-12800150D01*
X2758872Y-12800150D02*
X2787444Y-12800150D01*
X2787444Y-12800150D02*
X2806491Y-12809674D01*
X2806491Y-12809674D02*
X2816015Y-12828722D01*
X2816015Y-12828722D02*
X2816015Y-12933484D01*
X3206491Y-12723960D02*
X3035063Y-12981103D01*
X3463634Y-12733484D02*
X3482682Y-12733484D01*
X3482682Y-12733484D02*
X3501729Y-12743008D01*
X3501729Y-12743008D02*
X3511253Y-12752531D01*
X3511253Y-12752531D02*
X3520777Y-12771579D01*
X3520777Y-12771579D02*
X3530301Y-12809674D01*
X3530301Y-12809674D02*
X3530301Y-12857293D01*
X3530301Y-12857293D02*
X3520777Y-12895388D01*
X3520777Y-12895388D02*
X3511253Y-12914436D01*
X3511253Y-12914436D02*
X3501729Y-12923960D01*
X3501729Y-12923960D02*
X3482682Y-12933484D01*
X3482682Y-12933484D02*
X3463634Y-12933484D01*
X3463634Y-12933484D02*
X3444586Y-12923960D01*
X3444586Y-12923960D02*
X3435063Y-12914436D01*
X3435063Y-12914436D02*
X3425539Y-12895388D01*
X3425539Y-12895388D02*
X3416015Y-12857293D01*
X3416015Y-12857293D02*
X3416015Y-12809674D01*
X3416015Y-12809674D02*
X3425539Y-12771579D01*
X3425539Y-12771579D02*
X3435063Y-12752531D01*
X3435063Y-12752531D02*
X3444586Y-12743008D01*
X3444586Y-12743008D02*
X3463634Y-12733484D01*
X3616015Y-12914436D02*
X3625539Y-12923960D01*
X3625539Y-12923960D02*
X3616015Y-12933484D01*
X3616015Y-12933484D02*
X3606491Y-12923960D01*
X3606491Y-12923960D02*
X3616015Y-12914436D01*
X3616015Y-12914436D02*
X3616015Y-12933484D01*
X3749348Y-12733484D02*
X3768396Y-12733484D01*
X3768396Y-12733484D02*
X3787444Y-12743008D01*
X3787444Y-12743008D02*
X3796967Y-12752531D01*
X3796967Y-12752531D02*
X3806491Y-12771579D01*
X3806491Y-12771579D02*
X3816015Y-12809674D01*
X3816015Y-12809674D02*
X3816015Y-12857293D01*
X3816015Y-12857293D02*
X3806491Y-12895388D01*
X3806491Y-12895388D02*
X3796967Y-12914436D01*
X3796967Y-12914436D02*
X3787444Y-12923960D01*
X3787444Y-12923960D02*
X3768396Y-12933484D01*
X3768396Y-12933484D02*
X3749348Y-12933484D01*
X3749348Y-12933484D02*
X3730301Y-12923960D01*
X3730301Y-12923960D02*
X3720777Y-12914436D01*
X3720777Y-12914436D02*
X3711253Y-12895388D01*
X3711253Y-12895388D02*
X3701729Y-12857293D01*
X3701729Y-12857293D02*
X3701729Y-12809674D01*
X3701729Y-12809674D02*
X3711253Y-12771579D01*
X3711253Y-12771579D02*
X3720777Y-12752531D01*
X3720777Y-12752531D02*
X3730301Y-12743008D01*
X3730301Y-12743008D02*
X3749348Y-12733484D01*
X4006491Y-12933484D02*
X3892206Y-12933484D01*
X3949348Y-12933484D02*
X3949348Y-12733484D01*
X3949348Y-12733484D02*
X3930301Y-12762055D01*
X3930301Y-12762055D02*
X3911253Y-12781103D01*
X3911253Y-12781103D02*
X3892206Y-12790627D01*
X4187444Y-12733484D02*
X4092206Y-12733484D01*
X4092206Y-12733484D02*
X4082682Y-12828722D01*
X4082682Y-12828722D02*
X4092206Y-12819198D01*
X4092206Y-12819198D02*
X4111253Y-12809674D01*
X4111253Y-12809674D02*
X4158872Y-12809674D01*
X4158872Y-12809674D02*
X4177920Y-12819198D01*
X4177920Y-12819198D02*
X4187444Y-12828722D01*
X4187444Y-12828722D02*
X4196968Y-12847769D01*
X4196968Y-12847769D02*
X4196968Y-12895388D01*
X4196968Y-12895388D02*
X4187444Y-12914436D01*
X4187444Y-12914436D02*
X4177920Y-12923960D01*
X4177920Y-12923960D02*
X4158872Y-12933484D01*
X4158872Y-12933484D02*
X4111253Y-12933484D01*
X4111253Y-12933484D02*
X4092206Y-12923960D01*
X4092206Y-12923960D02*
X4082682Y-12914436D01*
X4263634Y-12733484D02*
X4396968Y-12733484D01*
X4396968Y-12733484D02*
X4311253Y-12933484D01*
X4463634Y-12733484D02*
X4463634Y-12771579D01*
X4539825Y-12733484D02*
X4539825Y-12771579D01*
X4835063Y-13009674D02*
X4825539Y-13000150D01*
X4825539Y-13000150D02*
X4806491Y-12971579D01*
X4806491Y-12971579D02*
X4796968Y-12952531D01*
X4796968Y-12952531D02*
X4787444Y-12923960D01*
X4787444Y-12923960D02*
X4777920Y-12876341D01*
X4777920Y-12876341D02*
X4777920Y-12838246D01*
X4777920Y-12838246D02*
X4787444Y-12790627D01*
X4787444Y-12790627D02*
X4796968Y-12762055D01*
X4796968Y-12762055D02*
X4806491Y-12743008D01*
X4806491Y-12743008D02*
X4825539Y-12714436D01*
X4825539Y-12714436D02*
X4835063Y-12704912D01*
X4901730Y-12752531D02*
X4911253Y-12743008D01*
X4911253Y-12743008D02*
X4930301Y-12733484D01*
X4930301Y-12733484D02*
X4977920Y-12733484D01*
X4977920Y-12733484D02*
X4996968Y-12743008D01*
X4996968Y-12743008D02*
X5006491Y-12752531D01*
X5006491Y-12752531D02*
X5016015Y-12771579D01*
X5016015Y-12771579D02*
X5016015Y-12790627D01*
X5016015Y-12790627D02*
X5006491Y-12819198D01*
X5006491Y-12819198D02*
X4892206Y-12933484D01*
X4892206Y-12933484D02*
X5016015Y-12933484D01*
X5139825Y-12733484D02*
X5158872Y-12733484D01*
X5158872Y-12733484D02*
X5177920Y-12743008D01*
X5177920Y-12743008D02*
X5187444Y-12752531D01*
X5187444Y-12752531D02*
X5196968Y-12771579D01*
X5196968Y-12771579D02*
X5206491Y-12809674D01*
X5206491Y-12809674D02*
X5206491Y-12857293D01*
X5206491Y-12857293D02*
X5196968Y-12895388D01*
X5196968Y-12895388D02*
X5187444Y-12914436D01*
X5187444Y-12914436D02*
X5177920Y-12923960D01*
X5177920Y-12923960D02*
X5158872Y-12933484D01*
X5158872Y-12933484D02*
X5139825Y-12933484D01*
X5139825Y-12933484D02*
X5120777Y-12923960D01*
X5120777Y-12923960D02*
X5111253Y-12914436D01*
X5111253Y-12914436D02*
X5101730Y-12895388D01*
X5101730Y-12895388D02*
X5092206Y-12857293D01*
X5092206Y-12857293D02*
X5092206Y-12809674D01*
X5092206Y-12809674D02*
X5101730Y-12771579D01*
X5101730Y-12771579D02*
X5111253Y-12752531D01*
X5111253Y-12752531D02*
X5120777Y-12743008D01*
X5120777Y-12743008D02*
X5139825Y-12733484D01*
X5330301Y-12733484D02*
X5349349Y-12733484D01*
X5349349Y-12733484D02*
X5368396Y-12743008D01*
X5368396Y-12743008D02*
X5377920Y-12752531D01*
X5377920Y-12752531D02*
X5387444Y-12771579D01*
X5387444Y-12771579D02*
X5396968Y-12809674D01*
X5396968Y-12809674D02*
X5396968Y-12857293D01*
X5396968Y-12857293D02*
X5387444Y-12895388D01*
X5387444Y-12895388D02*
X5377920Y-12914436D01*
X5377920Y-12914436D02*
X5368396Y-12923960D01*
X5368396Y-12923960D02*
X5349349Y-12933484D01*
X5349349Y-12933484D02*
X5330301Y-12933484D01*
X5330301Y-12933484D02*
X5311253Y-12923960D01*
X5311253Y-12923960D02*
X5301730Y-12914436D01*
X5301730Y-12914436D02*
X5292206Y-12895388D01*
X5292206Y-12895388D02*
X5282682Y-12857293D01*
X5282682Y-12857293D02*
X5282682Y-12809674D01*
X5282682Y-12809674D02*
X5292206Y-12771579D01*
X5292206Y-12771579D02*
X5301730Y-12752531D01*
X5301730Y-12752531D02*
X5311253Y-12743008D01*
X5311253Y-12743008D02*
X5330301Y-12733484D01*
X5635063Y-12933484D02*
X5635063Y-12733484D01*
X5720777Y-12933484D02*
X5720777Y-12828722D01*
X5720777Y-12828722D02*
X5711253Y-12809674D01*
X5711253Y-12809674D02*
X5692206Y-12800150D01*
X5692206Y-12800150D02*
X5663634Y-12800150D01*
X5663634Y-12800150D02*
X5644587Y-12809674D01*
X5644587Y-12809674D02*
X5635063Y-12819198D01*
X5844587Y-12933484D02*
X5825539Y-12923960D01*
X5825539Y-12923960D02*
X5816015Y-12914436D01*
X5816015Y-12914436D02*
X5806491Y-12895388D01*
X5806491Y-12895388D02*
X5806491Y-12838246D01*
X5806491Y-12838246D02*
X5816015Y-12819198D01*
X5816015Y-12819198D02*
X5825539Y-12809674D01*
X5825539Y-12809674D02*
X5844587Y-12800150D01*
X5844587Y-12800150D02*
X5873158Y-12800150D01*
X5873158Y-12800150D02*
X5892206Y-12809674D01*
X5892206Y-12809674D02*
X5901730Y-12819198D01*
X5901730Y-12819198D02*
X5911253Y-12838246D01*
X5911253Y-12838246D02*
X5911253Y-12895388D01*
X5911253Y-12895388D02*
X5901730Y-12914436D01*
X5901730Y-12914436D02*
X5892206Y-12923960D01*
X5892206Y-12923960D02*
X5873158Y-12933484D01*
X5873158Y-12933484D02*
X5844587Y-12933484D01*
X6025539Y-12933484D02*
X6006491Y-12923960D01*
X6006491Y-12923960D02*
X5996968Y-12904912D01*
X5996968Y-12904912D02*
X5996968Y-12733484D01*
X6177920Y-12923960D02*
X6158872Y-12933484D01*
X6158872Y-12933484D02*
X6120777Y-12933484D01*
X6120777Y-12933484D02*
X6101730Y-12923960D01*
X6101730Y-12923960D02*
X6092206Y-12904912D01*
X6092206Y-12904912D02*
X6092206Y-12828722D01*
X6092206Y-12828722D02*
X6101730Y-12809674D01*
X6101730Y-12809674D02*
X6120777Y-12800150D01*
X6120777Y-12800150D02*
X6158872Y-12800150D01*
X6158872Y-12800150D02*
X6177920Y-12809674D01*
X6177920Y-12809674D02*
X6187444Y-12828722D01*
X6187444Y-12828722D02*
X6187444Y-12847769D01*
X6187444Y-12847769D02*
X6092206Y-12866817D01*
X6263634Y-12923960D02*
X6282682Y-12933484D01*
X6282682Y-12933484D02*
X6320777Y-12933484D01*
X6320777Y-12933484D02*
X6339825Y-12923960D01*
X6339825Y-12923960D02*
X6349349Y-12904912D01*
X6349349Y-12904912D02*
X6349349Y-12895388D01*
X6349349Y-12895388D02*
X6339825Y-12876341D01*
X6339825Y-12876341D02*
X6320777Y-12866817D01*
X6320777Y-12866817D02*
X6292206Y-12866817D01*
X6292206Y-12866817D02*
X6273158Y-12857293D01*
X6273158Y-12857293D02*
X6263634Y-12838246D01*
X6263634Y-12838246D02*
X6263634Y-12828722D01*
X6263634Y-12828722D02*
X6273158Y-12809674D01*
X6273158Y-12809674D02*
X6292206Y-12800150D01*
X6292206Y-12800150D02*
X6320777Y-12800150D01*
X6320777Y-12800150D02*
X6339825Y-12809674D01*
X6416015Y-13009674D02*
X6425539Y-13000150D01*
X6425539Y-13000150D02*
X6444587Y-12971579D01*
X6444587Y-12971579D02*
X6454111Y-12952531D01*
X6454111Y-12952531D02*
X6463634Y-12923960D01*
X6463634Y-12923960D02*
X6473158Y-12876341D01*
X6473158Y-12876341D02*
X6473158Y-12838246D01*
X6473158Y-12838246D02*
X6463634Y-12790627D01*
X6463634Y-12790627D02*
X6454111Y-12762055D01*
X6454111Y-12762055D02*
X6444587Y-12743008D01*
X6444587Y-12743008D02*
X6425539Y-12714436D01*
X6425539Y-12714436D02*
X6416015Y-12704912D01*
D12*
X1260000Y-13106000D02*
G75*
G03*
X1260000Y-13106000I-38100J0D01*
G01*
D10*
X1558872Y-12997484D02*
X1577920Y-12997484D01*
X1577920Y-12997484D02*
X1596967Y-13007008D01*
X1596967Y-13007008D02*
X1606491Y-13016531D01*
X1606491Y-13016531D02*
X1616015Y-13035579D01*
X1616015Y-13035579D02*
X1625539Y-13073674D01*
X1625539Y-13073674D02*
X1625539Y-13121293D01*
X1625539Y-13121293D02*
X1616015Y-13159388D01*
X1616015Y-13159388D02*
X1606491Y-13178436D01*
X1606491Y-13178436D02*
X1596967Y-13187960D01*
X1596967Y-13187960D02*
X1577920Y-13197484D01*
X1577920Y-13197484D02*
X1558872Y-13197484D01*
X1558872Y-13197484D02*
X1539824Y-13187960D01*
X1539824Y-13187960D02*
X1530301Y-13178436D01*
X1530301Y-13178436D02*
X1520777Y-13159388D01*
X1520777Y-13159388D02*
X1511253Y-13121293D01*
X1511253Y-13121293D02*
X1511253Y-13073674D01*
X1511253Y-13073674D02*
X1520777Y-13035579D01*
X1520777Y-13035579D02*
X1530301Y-13016531D01*
X1530301Y-13016531D02*
X1539824Y-13007008D01*
X1539824Y-13007008D02*
X1558872Y-12997484D01*
X1711253Y-13178436D02*
X1720777Y-13187960D01*
X1720777Y-13187960D02*
X1711253Y-13197484D01*
X1711253Y-13197484D02*
X1701729Y-13187960D01*
X1701729Y-13187960D02*
X1711253Y-13178436D01*
X1711253Y-13178436D02*
X1711253Y-13197484D01*
X1787443Y-12997484D02*
X1920777Y-12997484D01*
X1920777Y-12997484D02*
X1835062Y-13197484D01*
X2082682Y-12997484D02*
X2044586Y-12997484D01*
X2044586Y-12997484D02*
X2025539Y-13007008D01*
X2025539Y-13007008D02*
X2016015Y-13016531D01*
X2016015Y-13016531D02*
X1996967Y-13045103D01*
X1996967Y-13045103D02*
X1987443Y-13083198D01*
X1987443Y-13083198D02*
X1987443Y-13159388D01*
X1987443Y-13159388D02*
X1996967Y-13178436D01*
X1996967Y-13178436D02*
X2006491Y-13187960D01*
X2006491Y-13187960D02*
X2025539Y-13197484D01*
X2025539Y-13197484D02*
X2063634Y-13197484D01*
X2063634Y-13197484D02*
X2082682Y-13187960D01*
X2082682Y-13187960D02*
X2092205Y-13178436D01*
X2092205Y-13178436D02*
X2101729Y-13159388D01*
X2101729Y-13159388D02*
X2101729Y-13111769D01*
X2101729Y-13111769D02*
X2092205Y-13092722D01*
X2092205Y-13092722D02*
X2082682Y-13083198D01*
X2082682Y-13083198D02*
X2063634Y-13073674D01*
X2063634Y-13073674D02*
X2025539Y-13073674D01*
X2025539Y-13073674D02*
X2006491Y-13083198D01*
X2006491Y-13083198D02*
X1996967Y-13092722D01*
X1996967Y-13092722D02*
X1987443Y-13111769D01*
X2177920Y-13016531D02*
X2187444Y-13007008D01*
X2187444Y-13007008D02*
X2206491Y-12997484D01*
X2206491Y-12997484D02*
X2254110Y-12997484D01*
X2254110Y-12997484D02*
X2273158Y-13007008D01*
X2273158Y-13007008D02*
X2282682Y-13016531D01*
X2282682Y-13016531D02*
X2292205Y-13035579D01*
X2292205Y-13035579D02*
X2292205Y-13054627D01*
X2292205Y-13054627D02*
X2282682Y-13083198D01*
X2282682Y-13083198D02*
X2168396Y-13197484D01*
X2168396Y-13197484D02*
X2292205Y-13197484D01*
X2377920Y-13197484D02*
X2377920Y-13064150D01*
X2377920Y-13083198D02*
X2387444Y-13073674D01*
X2387444Y-13073674D02*
X2406491Y-13064150D01*
X2406491Y-13064150D02*
X2435063Y-13064150D01*
X2435063Y-13064150D02*
X2454110Y-13073674D01*
X2454110Y-13073674D02*
X2463634Y-13092722D01*
X2463634Y-13092722D02*
X2463634Y-13197484D01*
X2463634Y-13092722D02*
X2473158Y-13073674D01*
X2473158Y-13073674D02*
X2492205Y-13064150D01*
X2492205Y-13064150D02*
X2520777Y-13064150D01*
X2520777Y-13064150D02*
X2539825Y-13073674D01*
X2539825Y-13073674D02*
X2549348Y-13092722D01*
X2549348Y-13092722D02*
X2549348Y-13197484D01*
X2644586Y-13197484D02*
X2644586Y-13064150D01*
X2644586Y-13083198D02*
X2654110Y-13073674D01*
X2654110Y-13073674D02*
X2673158Y-13064150D01*
X2673158Y-13064150D02*
X2701729Y-13064150D01*
X2701729Y-13064150D02*
X2720777Y-13073674D01*
X2720777Y-13073674D02*
X2730301Y-13092722D01*
X2730301Y-13092722D02*
X2730301Y-13197484D01*
X2730301Y-13092722D02*
X2739825Y-13073674D01*
X2739825Y-13073674D02*
X2758872Y-13064150D01*
X2758872Y-13064150D02*
X2787444Y-13064150D01*
X2787444Y-13064150D02*
X2806491Y-13073674D01*
X2806491Y-13073674D02*
X2816015Y-13092722D01*
X2816015Y-13092722D02*
X2816015Y-13197484D01*
X3206491Y-12987960D02*
X3035063Y-13245103D01*
X3463634Y-12997484D02*
X3482682Y-12997484D01*
X3482682Y-12997484D02*
X3501729Y-13007008D01*
X3501729Y-13007008D02*
X3511253Y-13016531D01*
X3511253Y-13016531D02*
X3520777Y-13035579D01*
X3520777Y-13035579D02*
X3530301Y-13073674D01*
X3530301Y-13073674D02*
X3530301Y-13121293D01*
X3530301Y-13121293D02*
X3520777Y-13159388D01*
X3520777Y-13159388D02*
X3511253Y-13178436D01*
X3511253Y-13178436D02*
X3501729Y-13187960D01*
X3501729Y-13187960D02*
X3482682Y-13197484D01*
X3482682Y-13197484D02*
X3463634Y-13197484D01*
X3463634Y-13197484D02*
X3444586Y-13187960D01*
X3444586Y-13187960D02*
X3435063Y-13178436D01*
X3435063Y-13178436D02*
X3425539Y-13159388D01*
X3425539Y-13159388D02*
X3416015Y-13121293D01*
X3416015Y-13121293D02*
X3416015Y-13073674D01*
X3416015Y-13073674D02*
X3425539Y-13035579D01*
X3425539Y-13035579D02*
X3435063Y-13016531D01*
X3435063Y-13016531D02*
X3444586Y-13007008D01*
X3444586Y-13007008D02*
X3463634Y-12997484D01*
X3616015Y-13178436D02*
X3625539Y-13187960D01*
X3625539Y-13187960D02*
X3616015Y-13197484D01*
X3616015Y-13197484D02*
X3606491Y-13187960D01*
X3606491Y-13187960D02*
X3616015Y-13178436D01*
X3616015Y-13178436D02*
X3616015Y-13197484D01*
X3749348Y-12997484D02*
X3768396Y-12997484D01*
X3768396Y-12997484D02*
X3787444Y-13007008D01*
X3787444Y-13007008D02*
X3796967Y-13016531D01*
X3796967Y-13016531D02*
X3806491Y-13035579D01*
X3806491Y-13035579D02*
X3816015Y-13073674D01*
X3816015Y-13073674D02*
X3816015Y-13121293D01*
X3816015Y-13121293D02*
X3806491Y-13159388D01*
X3806491Y-13159388D02*
X3796967Y-13178436D01*
X3796967Y-13178436D02*
X3787444Y-13187960D01*
X3787444Y-13187960D02*
X3768396Y-13197484D01*
X3768396Y-13197484D02*
X3749348Y-13197484D01*
X3749348Y-13197484D02*
X3730301Y-13187960D01*
X3730301Y-13187960D02*
X3720777Y-13178436D01*
X3720777Y-13178436D02*
X3711253Y-13159388D01*
X3711253Y-13159388D02*
X3701729Y-13121293D01*
X3701729Y-13121293D02*
X3701729Y-13073674D01*
X3701729Y-13073674D02*
X3711253Y-13035579D01*
X3711253Y-13035579D02*
X3720777Y-13016531D01*
X3720777Y-13016531D02*
X3730301Y-13007008D01*
X3730301Y-13007008D02*
X3749348Y-12997484D01*
X3882682Y-12997484D02*
X4006491Y-12997484D01*
X4006491Y-12997484D02*
X3939825Y-13073674D01*
X3939825Y-13073674D02*
X3968396Y-13073674D01*
X3968396Y-13073674D02*
X3987444Y-13083198D01*
X3987444Y-13083198D02*
X3996967Y-13092722D01*
X3996967Y-13092722D02*
X4006491Y-13111769D01*
X4006491Y-13111769D02*
X4006491Y-13159388D01*
X4006491Y-13159388D02*
X3996967Y-13178436D01*
X3996967Y-13178436D02*
X3987444Y-13187960D01*
X3987444Y-13187960D02*
X3968396Y-13197484D01*
X3968396Y-13197484D02*
X3911253Y-13197484D01*
X3911253Y-13197484D02*
X3892206Y-13187960D01*
X3892206Y-13187960D02*
X3882682Y-13178436D01*
X4130301Y-12997484D02*
X4149348Y-12997484D01*
X4149348Y-12997484D02*
X4168396Y-13007008D01*
X4168396Y-13007008D02*
X4177920Y-13016531D01*
X4177920Y-13016531D02*
X4187444Y-13035579D01*
X4187444Y-13035579D02*
X4196968Y-13073674D01*
X4196968Y-13073674D02*
X4196968Y-13121293D01*
X4196968Y-13121293D02*
X4187444Y-13159388D01*
X4187444Y-13159388D02*
X4177920Y-13178436D01*
X4177920Y-13178436D02*
X4168396Y-13187960D01*
X4168396Y-13187960D02*
X4149348Y-13197484D01*
X4149348Y-13197484D02*
X4130301Y-13197484D01*
X4130301Y-13197484D02*
X4111253Y-13187960D01*
X4111253Y-13187960D02*
X4101729Y-13178436D01*
X4101729Y-13178436D02*
X4092206Y-13159388D01*
X4092206Y-13159388D02*
X4082682Y-13121293D01*
X4082682Y-13121293D02*
X4082682Y-13073674D01*
X4082682Y-13073674D02*
X4092206Y-13035579D01*
X4092206Y-13035579D02*
X4101729Y-13016531D01*
X4101729Y-13016531D02*
X4111253Y-13007008D01*
X4111253Y-13007008D02*
X4130301Y-12997484D01*
X4320777Y-12997484D02*
X4339825Y-12997484D01*
X4339825Y-12997484D02*
X4358872Y-13007008D01*
X4358872Y-13007008D02*
X4368396Y-13016531D01*
X4368396Y-13016531D02*
X4377920Y-13035579D01*
X4377920Y-13035579D02*
X4387444Y-13073674D01*
X4387444Y-13073674D02*
X4387444Y-13121293D01*
X4387444Y-13121293D02*
X4377920Y-13159388D01*
X4377920Y-13159388D02*
X4368396Y-13178436D01*
X4368396Y-13178436D02*
X4358872Y-13187960D01*
X4358872Y-13187960D02*
X4339825Y-13197484D01*
X4339825Y-13197484D02*
X4320777Y-13197484D01*
X4320777Y-13197484D02*
X4301729Y-13187960D01*
X4301729Y-13187960D02*
X4292206Y-13178436D01*
X4292206Y-13178436D02*
X4282682Y-13159388D01*
X4282682Y-13159388D02*
X4273158Y-13121293D01*
X4273158Y-13121293D02*
X4273158Y-13073674D01*
X4273158Y-13073674D02*
X4282682Y-13035579D01*
X4282682Y-13035579D02*
X4292206Y-13016531D01*
X4292206Y-13016531D02*
X4301729Y-13007008D01*
X4301729Y-13007008D02*
X4320777Y-12997484D01*
X4463634Y-12997484D02*
X4463634Y-13035579D01*
X4539825Y-12997484D02*
X4539825Y-13035579D01*
X4835063Y-13273674D02*
X4825539Y-13264150D01*
X4825539Y-13264150D02*
X4806491Y-13235579D01*
X4806491Y-13235579D02*
X4796968Y-13216531D01*
X4796968Y-13216531D02*
X4787444Y-13187960D01*
X4787444Y-13187960D02*
X4777920Y-13140341D01*
X4777920Y-13140341D02*
X4777920Y-13102246D01*
X4777920Y-13102246D02*
X4787444Y-13054627D01*
X4787444Y-13054627D02*
X4796968Y-13026055D01*
X4796968Y-13026055D02*
X4806491Y-13007008D01*
X4806491Y-13007008D02*
X4825539Y-12978436D01*
X4825539Y-12978436D02*
X4835063Y-12968912D01*
X4939825Y-13083198D02*
X4920777Y-13073674D01*
X4920777Y-13073674D02*
X4911253Y-13064150D01*
X4911253Y-13064150D02*
X4901730Y-13045103D01*
X4901730Y-13045103D02*
X4901730Y-13035579D01*
X4901730Y-13035579D02*
X4911253Y-13016531D01*
X4911253Y-13016531D02*
X4920777Y-13007008D01*
X4920777Y-13007008D02*
X4939825Y-12997484D01*
X4939825Y-12997484D02*
X4977920Y-12997484D01*
X4977920Y-12997484D02*
X4996968Y-13007008D01*
X4996968Y-13007008D02*
X5006491Y-13016531D01*
X5006491Y-13016531D02*
X5016015Y-13035579D01*
X5016015Y-13035579D02*
X5016015Y-13045103D01*
X5016015Y-13045103D02*
X5006491Y-13064150D01*
X5006491Y-13064150D02*
X4996968Y-13073674D01*
X4996968Y-13073674D02*
X4977920Y-13083198D01*
X4977920Y-13083198D02*
X4939825Y-13083198D01*
X4939825Y-13083198D02*
X4920777Y-13092722D01*
X4920777Y-13092722D02*
X4911253Y-13102246D01*
X4911253Y-13102246D02*
X4901730Y-13121293D01*
X4901730Y-13121293D02*
X4901730Y-13159388D01*
X4901730Y-13159388D02*
X4911253Y-13178436D01*
X4911253Y-13178436D02*
X4920777Y-13187960D01*
X4920777Y-13187960D02*
X4939825Y-13197484D01*
X4939825Y-13197484D02*
X4977920Y-13197484D01*
X4977920Y-13197484D02*
X4996968Y-13187960D01*
X4996968Y-13187960D02*
X5006491Y-13178436D01*
X5006491Y-13178436D02*
X5016015Y-13159388D01*
X5016015Y-13159388D02*
X5016015Y-13121293D01*
X5016015Y-13121293D02*
X5006491Y-13102246D01*
X5006491Y-13102246D02*
X4996968Y-13092722D01*
X4996968Y-13092722D02*
X4977920Y-13083198D01*
X5139825Y-12997484D02*
X5158872Y-12997484D01*
X5158872Y-12997484D02*
X5177920Y-13007008D01*
X5177920Y-13007008D02*
X5187444Y-13016531D01*
X5187444Y-13016531D02*
X5196968Y-13035579D01*
X5196968Y-13035579D02*
X5206491Y-13073674D01*
X5206491Y-13073674D02*
X5206491Y-13121293D01*
X5206491Y-13121293D02*
X5196968Y-13159388D01*
X5196968Y-13159388D02*
X5187444Y-13178436D01*
X5187444Y-13178436D02*
X5177920Y-13187960D01*
X5177920Y-13187960D02*
X5158872Y-13197484D01*
X5158872Y-13197484D02*
X5139825Y-13197484D01*
X5139825Y-13197484D02*
X5120777Y-13187960D01*
X5120777Y-13187960D02*
X5111253Y-13178436D01*
X5111253Y-13178436D02*
X5101730Y-13159388D01*
X5101730Y-13159388D02*
X5092206Y-13121293D01*
X5092206Y-13121293D02*
X5092206Y-13073674D01*
X5092206Y-13073674D02*
X5101730Y-13035579D01*
X5101730Y-13035579D02*
X5111253Y-13016531D01*
X5111253Y-13016531D02*
X5120777Y-13007008D01*
X5120777Y-13007008D02*
X5139825Y-12997484D01*
X5444587Y-13197484D02*
X5444587Y-12997484D01*
X5530301Y-13197484D02*
X5530301Y-13092722D01*
X5530301Y-13092722D02*
X5520777Y-13073674D01*
X5520777Y-13073674D02*
X5501730Y-13064150D01*
X5501730Y-13064150D02*
X5473158Y-13064150D01*
X5473158Y-13064150D02*
X5454111Y-13073674D01*
X5454111Y-13073674D02*
X5444587Y-13083198D01*
X5654110Y-13197484D02*
X5635063Y-13187960D01*
X5635063Y-13187960D02*
X5625539Y-13178436D01*
X5625539Y-13178436D02*
X5616015Y-13159388D01*
X5616015Y-13159388D02*
X5616015Y-13102246D01*
X5616015Y-13102246D02*
X5625539Y-13083198D01*
X5625539Y-13083198D02*
X5635063Y-13073674D01*
X5635063Y-13073674D02*
X5654110Y-13064150D01*
X5654110Y-13064150D02*
X5682682Y-13064150D01*
X5682682Y-13064150D02*
X5701730Y-13073674D01*
X5701730Y-13073674D02*
X5711253Y-13083198D01*
X5711253Y-13083198D02*
X5720777Y-13102246D01*
X5720777Y-13102246D02*
X5720777Y-13159388D01*
X5720777Y-13159388D02*
X5711253Y-13178436D01*
X5711253Y-13178436D02*
X5701730Y-13187960D01*
X5701730Y-13187960D02*
X5682682Y-13197484D01*
X5682682Y-13197484D02*
X5654110Y-13197484D01*
X5835063Y-13197484D02*
X5816015Y-13187960D01*
X5816015Y-13187960D02*
X5806491Y-13168912D01*
X5806491Y-13168912D02*
X5806491Y-12997484D01*
X5987444Y-13187960D02*
X5968396Y-13197484D01*
X5968396Y-13197484D02*
X5930301Y-13197484D01*
X5930301Y-13197484D02*
X5911253Y-13187960D01*
X5911253Y-13187960D02*
X5901730Y-13168912D01*
X5901730Y-13168912D02*
X5901730Y-13092722D01*
X5901730Y-13092722D02*
X5911253Y-13073674D01*
X5911253Y-13073674D02*
X5930301Y-13064150D01*
X5930301Y-13064150D02*
X5968396Y-13064150D01*
X5968396Y-13064150D02*
X5987444Y-13073674D01*
X5987444Y-13073674D02*
X5996968Y-13092722D01*
X5996968Y-13092722D02*
X5996968Y-13111769D01*
X5996968Y-13111769D02*
X5901730Y-13130817D01*
X6073158Y-13187960D02*
X6092206Y-13197484D01*
X6092206Y-13197484D02*
X6130301Y-13197484D01*
X6130301Y-13197484D02*
X6149349Y-13187960D01*
X6149349Y-13187960D02*
X6158872Y-13168912D01*
X6158872Y-13168912D02*
X6158872Y-13159388D01*
X6158872Y-13159388D02*
X6149349Y-13140341D01*
X6149349Y-13140341D02*
X6130301Y-13130817D01*
X6130301Y-13130817D02*
X6101730Y-13130817D01*
X6101730Y-13130817D02*
X6082682Y-13121293D01*
X6082682Y-13121293D02*
X6073158Y-13102246D01*
X6073158Y-13102246D02*
X6073158Y-13092722D01*
X6073158Y-13092722D02*
X6082682Y-13073674D01*
X6082682Y-13073674D02*
X6101730Y-13064150D01*
X6101730Y-13064150D02*
X6130301Y-13064150D01*
X6130301Y-13064150D02*
X6149349Y-13073674D01*
X6225539Y-13273674D02*
X6235063Y-13264150D01*
X6235063Y-13264150D02*
X6254111Y-13235579D01*
X6254111Y-13235579D02*
X6263634Y-13216531D01*
X6263634Y-13216531D02*
X6273158Y-13187960D01*
X6273158Y-13187960D02*
X6282682Y-13140341D01*
X6282682Y-13140341D02*
X6282682Y-13102246D01*
X6282682Y-13102246D02*
X6273158Y-13054627D01*
X6273158Y-13054627D02*
X6263634Y-13026055D01*
X6263634Y-13026055D02*
X6254111Y-13007008D01*
X6254111Y-13007008D02*
X6235063Y-12978436D01*
X6235063Y-12978436D02*
X6225539Y-12968912D01*
D13*
X1215000Y-13325000D02*
X1215000Y-13415000D01*
X1170000Y-13370000D02*
X1260000Y-13370000D01*
D10*
X1558872Y-13261484D02*
X1577920Y-13261484D01*
X1577920Y-13261484D02*
X1596967Y-13271008D01*
X1596967Y-13271008D02*
X1606491Y-13280531D01*
X1606491Y-13280531D02*
X1616015Y-13299579D01*
X1616015Y-13299579D02*
X1625539Y-13337674D01*
X1625539Y-13337674D02*
X1625539Y-13385293D01*
X1625539Y-13385293D02*
X1616015Y-13423388D01*
X1616015Y-13423388D02*
X1606491Y-13442436D01*
X1606491Y-13442436D02*
X1596967Y-13451960D01*
X1596967Y-13451960D02*
X1577920Y-13461484D01*
X1577920Y-13461484D02*
X1558872Y-13461484D01*
X1558872Y-13461484D02*
X1539824Y-13451960D01*
X1539824Y-13451960D02*
X1530301Y-13442436D01*
X1530301Y-13442436D02*
X1520777Y-13423388D01*
X1520777Y-13423388D02*
X1511253Y-13385293D01*
X1511253Y-13385293D02*
X1511253Y-13337674D01*
X1511253Y-13337674D02*
X1520777Y-13299579D01*
X1520777Y-13299579D02*
X1530301Y-13280531D01*
X1530301Y-13280531D02*
X1539824Y-13271008D01*
X1539824Y-13271008D02*
X1558872Y-13261484D01*
X1711253Y-13442436D02*
X1720777Y-13451960D01*
X1720777Y-13451960D02*
X1711253Y-13461484D01*
X1711253Y-13461484D02*
X1701729Y-13451960D01*
X1701729Y-13451960D02*
X1711253Y-13442436D01*
X1711253Y-13442436D02*
X1711253Y-13461484D01*
X1816015Y-13461484D02*
X1854110Y-13461484D01*
X1854110Y-13461484D02*
X1873158Y-13451960D01*
X1873158Y-13451960D02*
X1882682Y-13442436D01*
X1882682Y-13442436D02*
X1901729Y-13413865D01*
X1901729Y-13413865D02*
X1911253Y-13375769D01*
X1911253Y-13375769D02*
X1911253Y-13299579D01*
X1911253Y-13299579D02*
X1901729Y-13280531D01*
X1901729Y-13280531D02*
X1892205Y-13271008D01*
X1892205Y-13271008D02*
X1873158Y-13261484D01*
X1873158Y-13261484D02*
X1835062Y-13261484D01*
X1835062Y-13261484D02*
X1816015Y-13271008D01*
X1816015Y-13271008D02*
X1806491Y-13280531D01*
X1806491Y-13280531D02*
X1796967Y-13299579D01*
X1796967Y-13299579D02*
X1796967Y-13347198D01*
X1796967Y-13347198D02*
X1806491Y-13366246D01*
X1806491Y-13366246D02*
X1816015Y-13375769D01*
X1816015Y-13375769D02*
X1835062Y-13385293D01*
X1835062Y-13385293D02*
X1873158Y-13385293D01*
X1873158Y-13385293D02*
X1892205Y-13375769D01*
X1892205Y-13375769D02*
X1901729Y-13366246D01*
X1901729Y-13366246D02*
X1911253Y-13347198D01*
X2035062Y-13261484D02*
X2054110Y-13261484D01*
X2054110Y-13261484D02*
X2073158Y-13271008D01*
X2073158Y-13271008D02*
X2082682Y-13280531D01*
X2082682Y-13280531D02*
X2092205Y-13299579D01*
X2092205Y-13299579D02*
X2101729Y-13337674D01*
X2101729Y-13337674D02*
X2101729Y-13385293D01*
X2101729Y-13385293D02*
X2092205Y-13423388D01*
X2092205Y-13423388D02*
X2082682Y-13442436D01*
X2082682Y-13442436D02*
X2073158Y-13451960D01*
X2073158Y-13451960D02*
X2054110Y-13461484D01*
X2054110Y-13461484D02*
X2035062Y-13461484D01*
X2035062Y-13461484D02*
X2016015Y-13451960D01*
X2016015Y-13451960D02*
X2006491Y-13442436D01*
X2006491Y-13442436D02*
X1996967Y-13423388D01*
X1996967Y-13423388D02*
X1987443Y-13385293D01*
X1987443Y-13385293D02*
X1987443Y-13337674D01*
X1987443Y-13337674D02*
X1996967Y-13299579D01*
X1996967Y-13299579D02*
X2006491Y-13280531D01*
X2006491Y-13280531D02*
X2016015Y-13271008D01*
X2016015Y-13271008D02*
X2035062Y-13261484D01*
X2225539Y-13261484D02*
X2244586Y-13261484D01*
X2244586Y-13261484D02*
X2263634Y-13271008D01*
X2263634Y-13271008D02*
X2273158Y-13280531D01*
X2273158Y-13280531D02*
X2282682Y-13299579D01*
X2282682Y-13299579D02*
X2292205Y-13337674D01*
X2292205Y-13337674D02*
X2292205Y-13385293D01*
X2292205Y-13385293D02*
X2282682Y-13423388D01*
X2282682Y-13423388D02*
X2273158Y-13442436D01*
X2273158Y-13442436D02*
X2263634Y-13451960D01*
X2263634Y-13451960D02*
X2244586Y-13461484D01*
X2244586Y-13461484D02*
X2225539Y-13461484D01*
X2225539Y-13461484D02*
X2206491Y-13451960D01*
X2206491Y-13451960D02*
X2196967Y-13442436D01*
X2196967Y-13442436D02*
X2187444Y-13423388D01*
X2187444Y-13423388D02*
X2177920Y-13385293D01*
X2177920Y-13385293D02*
X2177920Y-13337674D01*
X2177920Y-13337674D02*
X2187444Y-13299579D01*
X2187444Y-13299579D02*
X2196967Y-13280531D01*
X2196967Y-13280531D02*
X2206491Y-13271008D01*
X2206491Y-13271008D02*
X2225539Y-13261484D01*
X2377920Y-13461484D02*
X2377920Y-13328150D01*
X2377920Y-13347198D02*
X2387444Y-13337674D01*
X2387444Y-13337674D02*
X2406491Y-13328150D01*
X2406491Y-13328150D02*
X2435063Y-13328150D01*
X2435063Y-13328150D02*
X2454110Y-13337674D01*
X2454110Y-13337674D02*
X2463634Y-13356722D01*
X2463634Y-13356722D02*
X2463634Y-13461484D01*
X2463634Y-13356722D02*
X2473158Y-13337674D01*
X2473158Y-13337674D02*
X2492205Y-13328150D01*
X2492205Y-13328150D02*
X2520777Y-13328150D01*
X2520777Y-13328150D02*
X2539825Y-13337674D01*
X2539825Y-13337674D02*
X2549348Y-13356722D01*
X2549348Y-13356722D02*
X2549348Y-13461484D01*
X2644586Y-13461484D02*
X2644586Y-13328150D01*
X2644586Y-13347198D02*
X2654110Y-13337674D01*
X2654110Y-13337674D02*
X2673158Y-13328150D01*
X2673158Y-13328150D02*
X2701729Y-13328150D01*
X2701729Y-13328150D02*
X2720777Y-13337674D01*
X2720777Y-13337674D02*
X2730301Y-13356722D01*
X2730301Y-13356722D02*
X2730301Y-13461484D01*
X2730301Y-13356722D02*
X2739825Y-13337674D01*
X2739825Y-13337674D02*
X2758872Y-13328150D01*
X2758872Y-13328150D02*
X2787444Y-13328150D01*
X2787444Y-13328150D02*
X2806491Y-13337674D01*
X2806491Y-13337674D02*
X2816015Y-13356722D01*
X2816015Y-13356722D02*
X2816015Y-13461484D01*
X3206491Y-13251960D02*
X3035063Y-13509103D01*
X3463634Y-13261484D02*
X3482682Y-13261484D01*
X3482682Y-13261484D02*
X3501729Y-13271008D01*
X3501729Y-13271008D02*
X3511253Y-13280531D01*
X3511253Y-13280531D02*
X3520777Y-13299579D01*
X3520777Y-13299579D02*
X3530301Y-13337674D01*
X3530301Y-13337674D02*
X3530301Y-13385293D01*
X3530301Y-13385293D02*
X3520777Y-13423388D01*
X3520777Y-13423388D02*
X3511253Y-13442436D01*
X3511253Y-13442436D02*
X3501729Y-13451960D01*
X3501729Y-13451960D02*
X3482682Y-13461484D01*
X3482682Y-13461484D02*
X3463634Y-13461484D01*
X3463634Y-13461484D02*
X3444586Y-13451960D01*
X3444586Y-13451960D02*
X3435063Y-13442436D01*
X3435063Y-13442436D02*
X3425539Y-13423388D01*
X3425539Y-13423388D02*
X3416015Y-13385293D01*
X3416015Y-13385293D02*
X3416015Y-13337674D01*
X3416015Y-13337674D02*
X3425539Y-13299579D01*
X3425539Y-13299579D02*
X3435063Y-13280531D01*
X3435063Y-13280531D02*
X3444586Y-13271008D01*
X3444586Y-13271008D02*
X3463634Y-13261484D01*
X3616015Y-13442436D02*
X3625539Y-13451960D01*
X3625539Y-13451960D02*
X3616015Y-13461484D01*
X3616015Y-13461484D02*
X3606491Y-13451960D01*
X3606491Y-13451960D02*
X3616015Y-13442436D01*
X3616015Y-13442436D02*
X3616015Y-13461484D01*
X3749348Y-13261484D02*
X3768396Y-13261484D01*
X3768396Y-13261484D02*
X3787444Y-13271008D01*
X3787444Y-13271008D02*
X3796967Y-13280531D01*
X3796967Y-13280531D02*
X3806491Y-13299579D01*
X3806491Y-13299579D02*
X3816015Y-13337674D01*
X3816015Y-13337674D02*
X3816015Y-13385293D01*
X3816015Y-13385293D02*
X3806491Y-13423388D01*
X3806491Y-13423388D02*
X3796967Y-13442436D01*
X3796967Y-13442436D02*
X3787444Y-13451960D01*
X3787444Y-13451960D02*
X3768396Y-13461484D01*
X3768396Y-13461484D02*
X3749348Y-13461484D01*
X3749348Y-13461484D02*
X3730301Y-13451960D01*
X3730301Y-13451960D02*
X3720777Y-13442436D01*
X3720777Y-13442436D02*
X3711253Y-13423388D01*
X3711253Y-13423388D02*
X3701729Y-13385293D01*
X3701729Y-13385293D02*
X3701729Y-13337674D01*
X3701729Y-13337674D02*
X3711253Y-13299579D01*
X3711253Y-13299579D02*
X3720777Y-13280531D01*
X3720777Y-13280531D02*
X3730301Y-13271008D01*
X3730301Y-13271008D02*
X3749348Y-13261484D01*
X3882682Y-13261484D02*
X4006491Y-13261484D01*
X4006491Y-13261484D02*
X3939825Y-13337674D01*
X3939825Y-13337674D02*
X3968396Y-13337674D01*
X3968396Y-13337674D02*
X3987444Y-13347198D01*
X3987444Y-13347198D02*
X3996967Y-13356722D01*
X3996967Y-13356722D02*
X4006491Y-13375769D01*
X4006491Y-13375769D02*
X4006491Y-13423388D01*
X4006491Y-13423388D02*
X3996967Y-13442436D01*
X3996967Y-13442436D02*
X3987444Y-13451960D01*
X3987444Y-13451960D02*
X3968396Y-13461484D01*
X3968396Y-13461484D02*
X3911253Y-13461484D01*
X3911253Y-13461484D02*
X3892206Y-13451960D01*
X3892206Y-13451960D02*
X3882682Y-13442436D01*
X4187444Y-13261484D02*
X4092206Y-13261484D01*
X4092206Y-13261484D02*
X4082682Y-13356722D01*
X4082682Y-13356722D02*
X4092206Y-13347198D01*
X4092206Y-13347198D02*
X4111253Y-13337674D01*
X4111253Y-13337674D02*
X4158872Y-13337674D01*
X4158872Y-13337674D02*
X4177920Y-13347198D01*
X4177920Y-13347198D02*
X4187444Y-13356722D01*
X4187444Y-13356722D02*
X4196968Y-13375769D01*
X4196968Y-13375769D02*
X4196968Y-13423388D01*
X4196968Y-13423388D02*
X4187444Y-13442436D01*
X4187444Y-13442436D02*
X4177920Y-13451960D01*
X4177920Y-13451960D02*
X4158872Y-13461484D01*
X4158872Y-13461484D02*
X4111253Y-13461484D01*
X4111253Y-13461484D02*
X4092206Y-13451960D01*
X4092206Y-13451960D02*
X4082682Y-13442436D01*
X4368396Y-13328150D02*
X4368396Y-13461484D01*
X4320777Y-13251960D02*
X4273158Y-13394817D01*
X4273158Y-13394817D02*
X4396968Y-13394817D01*
X4463634Y-13261484D02*
X4463634Y-13299579D01*
X4539825Y-13261484D02*
X4539825Y-13299579D01*
X4835063Y-13537674D02*
X4825539Y-13528150D01*
X4825539Y-13528150D02*
X4806491Y-13499579D01*
X4806491Y-13499579D02*
X4796968Y-13480531D01*
X4796968Y-13480531D02*
X4787444Y-13451960D01*
X4787444Y-13451960D02*
X4777920Y-13404341D01*
X4777920Y-13404341D02*
X4777920Y-13366246D01*
X4777920Y-13366246D02*
X4787444Y-13318627D01*
X4787444Y-13318627D02*
X4796968Y-13290055D01*
X4796968Y-13290055D02*
X4806491Y-13271008D01*
X4806491Y-13271008D02*
X4825539Y-13242436D01*
X4825539Y-13242436D02*
X4835063Y-13232912D01*
X5016015Y-13461484D02*
X4901730Y-13461484D01*
X4958872Y-13461484D02*
X4958872Y-13261484D01*
X4958872Y-13261484D02*
X4939825Y-13290055D01*
X4939825Y-13290055D02*
X4920777Y-13309103D01*
X4920777Y-13309103D02*
X4901730Y-13318627D01*
X5187444Y-13261484D02*
X5149349Y-13261484D01*
X5149349Y-13261484D02*
X5130301Y-13271008D01*
X5130301Y-13271008D02*
X5120777Y-13280531D01*
X5120777Y-13280531D02*
X5101730Y-13309103D01*
X5101730Y-13309103D02*
X5092206Y-13347198D01*
X5092206Y-13347198D02*
X5092206Y-13423388D01*
X5092206Y-13423388D02*
X5101730Y-13442436D01*
X5101730Y-13442436D02*
X5111253Y-13451960D01*
X5111253Y-13451960D02*
X5130301Y-13461484D01*
X5130301Y-13461484D02*
X5168396Y-13461484D01*
X5168396Y-13461484D02*
X5187444Y-13451960D01*
X5187444Y-13451960D02*
X5196968Y-13442436D01*
X5196968Y-13442436D02*
X5206491Y-13423388D01*
X5206491Y-13423388D02*
X5206491Y-13375769D01*
X5206491Y-13375769D02*
X5196968Y-13356722D01*
X5196968Y-13356722D02*
X5187444Y-13347198D01*
X5187444Y-13347198D02*
X5168396Y-13337674D01*
X5168396Y-13337674D02*
X5130301Y-13337674D01*
X5130301Y-13337674D02*
X5111253Y-13347198D01*
X5111253Y-13347198D02*
X5101730Y-13356722D01*
X5101730Y-13356722D02*
X5092206Y-13375769D01*
X5444587Y-13461484D02*
X5444587Y-13261484D01*
X5530301Y-13461484D02*
X5530301Y-13356722D01*
X5530301Y-13356722D02*
X5520777Y-13337674D01*
X5520777Y-13337674D02*
X5501730Y-13328150D01*
X5501730Y-13328150D02*
X5473158Y-13328150D01*
X5473158Y-13328150D02*
X5454111Y-13337674D01*
X5454111Y-13337674D02*
X5444587Y-13347198D01*
X5654110Y-13461484D02*
X5635063Y-13451960D01*
X5635063Y-13451960D02*
X5625539Y-13442436D01*
X5625539Y-13442436D02*
X5616015Y-13423388D01*
X5616015Y-13423388D02*
X5616015Y-13366246D01*
X5616015Y-13366246D02*
X5625539Y-13347198D01*
X5625539Y-13347198D02*
X5635063Y-13337674D01*
X5635063Y-13337674D02*
X5654110Y-13328150D01*
X5654110Y-13328150D02*
X5682682Y-13328150D01*
X5682682Y-13328150D02*
X5701730Y-13337674D01*
X5701730Y-13337674D02*
X5711253Y-13347198D01*
X5711253Y-13347198D02*
X5720777Y-13366246D01*
X5720777Y-13366246D02*
X5720777Y-13423388D01*
X5720777Y-13423388D02*
X5711253Y-13442436D01*
X5711253Y-13442436D02*
X5701730Y-13451960D01*
X5701730Y-13451960D02*
X5682682Y-13461484D01*
X5682682Y-13461484D02*
X5654110Y-13461484D01*
X5835063Y-13461484D02*
X5816015Y-13451960D01*
X5816015Y-13451960D02*
X5806491Y-13432912D01*
X5806491Y-13432912D02*
X5806491Y-13261484D01*
X5987444Y-13451960D02*
X5968396Y-13461484D01*
X5968396Y-13461484D02*
X5930301Y-13461484D01*
X5930301Y-13461484D02*
X5911253Y-13451960D01*
X5911253Y-13451960D02*
X5901730Y-13432912D01*
X5901730Y-13432912D02*
X5901730Y-13356722D01*
X5901730Y-13356722D02*
X5911253Y-13337674D01*
X5911253Y-13337674D02*
X5930301Y-13328150D01*
X5930301Y-13328150D02*
X5968396Y-13328150D01*
X5968396Y-13328150D02*
X5987444Y-13337674D01*
X5987444Y-13337674D02*
X5996968Y-13356722D01*
X5996968Y-13356722D02*
X5996968Y-13375769D01*
X5996968Y-13375769D02*
X5901730Y-13394817D01*
X6073158Y-13451960D02*
X6092206Y-13461484D01*
X6092206Y-13461484D02*
X6130301Y-13461484D01*
X6130301Y-13461484D02*
X6149349Y-13451960D01*
X6149349Y-13451960D02*
X6158872Y-13432912D01*
X6158872Y-13432912D02*
X6158872Y-13423388D01*
X6158872Y-13423388D02*
X6149349Y-13404341D01*
X6149349Y-13404341D02*
X6130301Y-13394817D01*
X6130301Y-13394817D02*
X6101730Y-13394817D01*
X6101730Y-13394817D02*
X6082682Y-13385293D01*
X6082682Y-13385293D02*
X6073158Y-13366246D01*
X6073158Y-13366246D02*
X6073158Y-13356722D01*
X6073158Y-13356722D02*
X6082682Y-13337674D01*
X6082682Y-13337674D02*
X6101730Y-13328150D01*
X6101730Y-13328150D02*
X6130301Y-13328150D01*
X6130301Y-13328150D02*
X6149349Y-13337674D01*
X6225539Y-13537674D02*
X6235063Y-13528150D01*
X6235063Y-13528150D02*
X6254111Y-13499579D01*
X6254111Y-13499579D02*
X6263634Y-13480531D01*
X6263634Y-13480531D02*
X6273158Y-13451960D01*
X6273158Y-13451960D02*
X6282682Y-13404341D01*
X6282682Y-13404341D02*
X6282682Y-13366246D01*
X6282682Y-13366246D02*
X6273158Y-13318627D01*
X6273158Y-13318627D02*
X6263634Y-13290055D01*
X6263634Y-13290055D02*
X6254111Y-13271008D01*
X6254111Y-13271008D02*
X6235063Y-13242436D01*
X6235063Y-13242436D02*
X6225539Y-13232912D01*
D14*
X1245356Y-13669356D02*
X1245356Y-13598644D01*
X1174644Y-13598644D01*
X1174644Y-13669356D01*
X1245356Y-13669356D01*
D10*
X1625539Y-13725484D02*
X1511253Y-13725484D01*
X1568396Y-13725484D02*
X1568396Y-13525484D01*
X1568396Y-13525484D02*
X1549348Y-13554055D01*
X1549348Y-13554055D02*
X1530301Y-13573103D01*
X1530301Y-13573103D02*
X1511253Y-13582627D01*
X1711253Y-13706436D02*
X1720777Y-13715960D01*
X1720777Y-13715960D02*
X1711253Y-13725484D01*
X1711253Y-13725484D02*
X1701729Y-13715960D01*
X1701729Y-13715960D02*
X1711253Y-13706436D01*
X1711253Y-13706436D02*
X1711253Y-13725484D01*
X1844586Y-13525484D02*
X1863634Y-13525484D01*
X1863634Y-13525484D02*
X1882682Y-13535008D01*
X1882682Y-13535008D02*
X1892205Y-13544531D01*
X1892205Y-13544531D02*
X1901729Y-13563579D01*
X1901729Y-13563579D02*
X1911253Y-13601674D01*
X1911253Y-13601674D02*
X1911253Y-13649293D01*
X1911253Y-13649293D02*
X1901729Y-13687388D01*
X1901729Y-13687388D02*
X1892205Y-13706436D01*
X1892205Y-13706436D02*
X1882682Y-13715960D01*
X1882682Y-13715960D02*
X1863634Y-13725484D01*
X1863634Y-13725484D02*
X1844586Y-13725484D01*
X1844586Y-13725484D02*
X1825539Y-13715960D01*
X1825539Y-13715960D02*
X1816015Y-13706436D01*
X1816015Y-13706436D02*
X1806491Y-13687388D01*
X1806491Y-13687388D02*
X1796967Y-13649293D01*
X1796967Y-13649293D02*
X1796967Y-13601674D01*
X1796967Y-13601674D02*
X1806491Y-13563579D01*
X1806491Y-13563579D02*
X1816015Y-13544531D01*
X1816015Y-13544531D02*
X1825539Y-13535008D01*
X1825539Y-13535008D02*
X1844586Y-13525484D01*
X2035062Y-13525484D02*
X2054110Y-13525484D01*
X2054110Y-13525484D02*
X2073158Y-13535008D01*
X2073158Y-13535008D02*
X2082682Y-13544531D01*
X2082682Y-13544531D02*
X2092205Y-13563579D01*
X2092205Y-13563579D02*
X2101729Y-13601674D01*
X2101729Y-13601674D02*
X2101729Y-13649293D01*
X2101729Y-13649293D02*
X2092205Y-13687388D01*
X2092205Y-13687388D02*
X2082682Y-13706436D01*
X2082682Y-13706436D02*
X2073158Y-13715960D01*
X2073158Y-13715960D02*
X2054110Y-13725484D01*
X2054110Y-13725484D02*
X2035062Y-13725484D01*
X2035062Y-13725484D02*
X2016015Y-13715960D01*
X2016015Y-13715960D02*
X2006491Y-13706436D01*
X2006491Y-13706436D02*
X1996967Y-13687388D01*
X1996967Y-13687388D02*
X1987443Y-13649293D01*
X1987443Y-13649293D02*
X1987443Y-13601674D01*
X1987443Y-13601674D02*
X1996967Y-13563579D01*
X1996967Y-13563579D02*
X2006491Y-13544531D01*
X2006491Y-13544531D02*
X2016015Y-13535008D01*
X2016015Y-13535008D02*
X2035062Y-13525484D01*
X2225539Y-13525484D02*
X2244586Y-13525484D01*
X2244586Y-13525484D02*
X2263634Y-13535008D01*
X2263634Y-13535008D02*
X2273158Y-13544531D01*
X2273158Y-13544531D02*
X2282682Y-13563579D01*
X2282682Y-13563579D02*
X2292205Y-13601674D01*
X2292205Y-13601674D02*
X2292205Y-13649293D01*
X2292205Y-13649293D02*
X2282682Y-13687388D01*
X2282682Y-13687388D02*
X2273158Y-13706436D01*
X2273158Y-13706436D02*
X2263634Y-13715960D01*
X2263634Y-13715960D02*
X2244586Y-13725484D01*
X2244586Y-13725484D02*
X2225539Y-13725484D01*
X2225539Y-13725484D02*
X2206491Y-13715960D01*
X2206491Y-13715960D02*
X2196967Y-13706436D01*
X2196967Y-13706436D02*
X2187444Y-13687388D01*
X2187444Y-13687388D02*
X2177920Y-13649293D01*
X2177920Y-13649293D02*
X2177920Y-13601674D01*
X2177920Y-13601674D02*
X2187444Y-13563579D01*
X2187444Y-13563579D02*
X2196967Y-13544531D01*
X2196967Y-13544531D02*
X2206491Y-13535008D01*
X2206491Y-13535008D02*
X2225539Y-13525484D01*
X2377920Y-13725484D02*
X2377920Y-13592150D01*
X2377920Y-13611198D02*
X2387444Y-13601674D01*
X2387444Y-13601674D02*
X2406491Y-13592150D01*
X2406491Y-13592150D02*
X2435063Y-13592150D01*
X2435063Y-13592150D02*
X2454110Y-13601674D01*
X2454110Y-13601674D02*
X2463634Y-13620722D01*
X2463634Y-13620722D02*
X2463634Y-13725484D01*
X2463634Y-13620722D02*
X2473158Y-13601674D01*
X2473158Y-13601674D02*
X2492205Y-13592150D01*
X2492205Y-13592150D02*
X2520777Y-13592150D01*
X2520777Y-13592150D02*
X2539825Y-13601674D01*
X2539825Y-13601674D02*
X2549348Y-13620722D01*
X2549348Y-13620722D02*
X2549348Y-13725484D01*
X2644586Y-13725484D02*
X2644586Y-13592150D01*
X2644586Y-13611198D02*
X2654110Y-13601674D01*
X2654110Y-13601674D02*
X2673158Y-13592150D01*
X2673158Y-13592150D02*
X2701729Y-13592150D01*
X2701729Y-13592150D02*
X2720777Y-13601674D01*
X2720777Y-13601674D02*
X2730301Y-13620722D01*
X2730301Y-13620722D02*
X2730301Y-13725484D01*
X2730301Y-13620722D02*
X2739825Y-13601674D01*
X2739825Y-13601674D02*
X2758872Y-13592150D01*
X2758872Y-13592150D02*
X2787444Y-13592150D01*
X2787444Y-13592150D02*
X2806491Y-13601674D01*
X2806491Y-13601674D02*
X2816015Y-13620722D01*
X2816015Y-13620722D02*
X2816015Y-13725484D01*
X3206491Y-13515960D02*
X3035063Y-13773103D01*
X3463634Y-13525484D02*
X3482682Y-13525484D01*
X3482682Y-13525484D02*
X3501729Y-13535008D01*
X3501729Y-13535008D02*
X3511253Y-13544531D01*
X3511253Y-13544531D02*
X3520777Y-13563579D01*
X3520777Y-13563579D02*
X3530301Y-13601674D01*
X3530301Y-13601674D02*
X3530301Y-13649293D01*
X3530301Y-13649293D02*
X3520777Y-13687388D01*
X3520777Y-13687388D02*
X3511253Y-13706436D01*
X3511253Y-13706436D02*
X3501729Y-13715960D01*
X3501729Y-13715960D02*
X3482682Y-13725484D01*
X3482682Y-13725484D02*
X3463634Y-13725484D01*
X3463634Y-13725484D02*
X3444586Y-13715960D01*
X3444586Y-13715960D02*
X3435063Y-13706436D01*
X3435063Y-13706436D02*
X3425539Y-13687388D01*
X3425539Y-13687388D02*
X3416015Y-13649293D01*
X3416015Y-13649293D02*
X3416015Y-13601674D01*
X3416015Y-13601674D02*
X3425539Y-13563579D01*
X3425539Y-13563579D02*
X3435063Y-13544531D01*
X3435063Y-13544531D02*
X3444586Y-13535008D01*
X3444586Y-13535008D02*
X3463634Y-13525484D01*
X3616015Y-13706436D02*
X3625539Y-13715960D01*
X3625539Y-13715960D02*
X3616015Y-13725484D01*
X3616015Y-13725484D02*
X3606491Y-13715960D01*
X3606491Y-13715960D02*
X3616015Y-13706436D01*
X3616015Y-13706436D02*
X3616015Y-13725484D01*
X3749348Y-13525484D02*
X3768396Y-13525484D01*
X3768396Y-13525484D02*
X3787444Y-13535008D01*
X3787444Y-13535008D02*
X3796967Y-13544531D01*
X3796967Y-13544531D02*
X3806491Y-13563579D01*
X3806491Y-13563579D02*
X3816015Y-13601674D01*
X3816015Y-13601674D02*
X3816015Y-13649293D01*
X3816015Y-13649293D02*
X3806491Y-13687388D01*
X3806491Y-13687388D02*
X3796967Y-13706436D01*
X3796967Y-13706436D02*
X3787444Y-13715960D01*
X3787444Y-13715960D02*
X3768396Y-13725484D01*
X3768396Y-13725484D02*
X3749348Y-13725484D01*
X3749348Y-13725484D02*
X3730301Y-13715960D01*
X3730301Y-13715960D02*
X3720777Y-13706436D01*
X3720777Y-13706436D02*
X3711253Y-13687388D01*
X3711253Y-13687388D02*
X3701729Y-13649293D01*
X3701729Y-13649293D02*
X3701729Y-13601674D01*
X3701729Y-13601674D02*
X3711253Y-13563579D01*
X3711253Y-13563579D02*
X3720777Y-13544531D01*
X3720777Y-13544531D02*
X3730301Y-13535008D01*
X3730301Y-13535008D02*
X3749348Y-13525484D01*
X3882682Y-13525484D02*
X4006491Y-13525484D01*
X4006491Y-13525484D02*
X3939825Y-13601674D01*
X3939825Y-13601674D02*
X3968396Y-13601674D01*
X3968396Y-13601674D02*
X3987444Y-13611198D01*
X3987444Y-13611198D02*
X3996967Y-13620722D01*
X3996967Y-13620722D02*
X4006491Y-13639769D01*
X4006491Y-13639769D02*
X4006491Y-13687388D01*
X4006491Y-13687388D02*
X3996967Y-13706436D01*
X3996967Y-13706436D02*
X3987444Y-13715960D01*
X3987444Y-13715960D02*
X3968396Y-13725484D01*
X3968396Y-13725484D02*
X3911253Y-13725484D01*
X3911253Y-13725484D02*
X3892206Y-13715960D01*
X3892206Y-13715960D02*
X3882682Y-13706436D01*
X4101729Y-13725484D02*
X4139825Y-13725484D01*
X4139825Y-13725484D02*
X4158872Y-13715960D01*
X4158872Y-13715960D02*
X4168396Y-13706436D01*
X4168396Y-13706436D02*
X4187444Y-13677865D01*
X4187444Y-13677865D02*
X4196968Y-13639769D01*
X4196968Y-13639769D02*
X4196968Y-13563579D01*
X4196968Y-13563579D02*
X4187444Y-13544531D01*
X4187444Y-13544531D02*
X4177920Y-13535008D01*
X4177920Y-13535008D02*
X4158872Y-13525484D01*
X4158872Y-13525484D02*
X4120777Y-13525484D01*
X4120777Y-13525484D02*
X4101729Y-13535008D01*
X4101729Y-13535008D02*
X4092206Y-13544531D01*
X4092206Y-13544531D02*
X4082682Y-13563579D01*
X4082682Y-13563579D02*
X4082682Y-13611198D01*
X4082682Y-13611198D02*
X4092206Y-13630246D01*
X4092206Y-13630246D02*
X4101729Y-13639769D01*
X4101729Y-13639769D02*
X4120777Y-13649293D01*
X4120777Y-13649293D02*
X4158872Y-13649293D01*
X4158872Y-13649293D02*
X4177920Y-13639769D01*
X4177920Y-13639769D02*
X4187444Y-13630246D01*
X4187444Y-13630246D02*
X4196968Y-13611198D01*
X4368396Y-13592150D02*
X4368396Y-13725484D01*
X4320777Y-13515960D02*
X4273158Y-13658817D01*
X4273158Y-13658817D02*
X4396968Y-13658817D01*
X4463634Y-13525484D02*
X4463634Y-13563579D01*
X4539825Y-13525484D02*
X4539825Y-13563579D01*
X4835063Y-13801674D02*
X4825539Y-13792150D01*
X4825539Y-13792150D02*
X4806491Y-13763579D01*
X4806491Y-13763579D02*
X4796968Y-13744531D01*
X4796968Y-13744531D02*
X4787444Y-13715960D01*
X4787444Y-13715960D02*
X4777920Y-13668341D01*
X4777920Y-13668341D02*
X4777920Y-13630246D01*
X4777920Y-13630246D02*
X4787444Y-13582627D01*
X4787444Y-13582627D02*
X4796968Y-13554055D01*
X4796968Y-13554055D02*
X4806491Y-13535008D01*
X4806491Y-13535008D02*
X4825539Y-13506436D01*
X4825539Y-13506436D02*
X4835063Y-13496912D01*
X4996968Y-13592150D02*
X4996968Y-13725484D01*
X4949349Y-13515960D02*
X4901730Y-13658817D01*
X4901730Y-13658817D02*
X5025539Y-13658817D01*
X5187444Y-13525484D02*
X5149349Y-13525484D01*
X5149349Y-13525484D02*
X5130301Y-13535008D01*
X5130301Y-13535008D02*
X5120777Y-13544531D01*
X5120777Y-13544531D02*
X5101730Y-13573103D01*
X5101730Y-13573103D02*
X5092206Y-13611198D01*
X5092206Y-13611198D02*
X5092206Y-13687388D01*
X5092206Y-13687388D02*
X5101730Y-13706436D01*
X5101730Y-13706436D02*
X5111253Y-13715960D01*
X5111253Y-13715960D02*
X5130301Y-13725484D01*
X5130301Y-13725484D02*
X5168396Y-13725484D01*
X5168396Y-13725484D02*
X5187444Y-13715960D01*
X5187444Y-13715960D02*
X5196968Y-13706436D01*
X5196968Y-13706436D02*
X5206491Y-13687388D01*
X5206491Y-13687388D02*
X5206491Y-13639769D01*
X5206491Y-13639769D02*
X5196968Y-13620722D01*
X5196968Y-13620722D02*
X5187444Y-13611198D01*
X5187444Y-13611198D02*
X5168396Y-13601674D01*
X5168396Y-13601674D02*
X5130301Y-13601674D01*
X5130301Y-13601674D02*
X5111253Y-13611198D01*
X5111253Y-13611198D02*
X5101730Y-13620722D01*
X5101730Y-13620722D02*
X5092206Y-13639769D01*
X5444587Y-13725484D02*
X5444587Y-13525484D01*
X5530301Y-13725484D02*
X5530301Y-13620722D01*
X5530301Y-13620722D02*
X5520777Y-13601674D01*
X5520777Y-13601674D02*
X5501730Y-13592150D01*
X5501730Y-13592150D02*
X5473158Y-13592150D01*
X5473158Y-13592150D02*
X5454111Y-13601674D01*
X5454111Y-13601674D02*
X5444587Y-13611198D01*
X5654110Y-13725484D02*
X5635063Y-13715960D01*
X5635063Y-13715960D02*
X5625539Y-13706436D01*
X5625539Y-13706436D02*
X5616015Y-13687388D01*
X5616015Y-13687388D02*
X5616015Y-13630246D01*
X5616015Y-13630246D02*
X5625539Y-13611198D01*
X5625539Y-13611198D02*
X5635063Y-13601674D01*
X5635063Y-13601674D02*
X5654110Y-13592150D01*
X5654110Y-13592150D02*
X5682682Y-13592150D01*
X5682682Y-13592150D02*
X5701730Y-13601674D01*
X5701730Y-13601674D02*
X5711253Y-13611198D01*
X5711253Y-13611198D02*
X5720777Y-13630246D01*
X5720777Y-13630246D02*
X5720777Y-13687388D01*
X5720777Y-13687388D02*
X5711253Y-13706436D01*
X5711253Y-13706436D02*
X5701730Y-13715960D01*
X5701730Y-13715960D02*
X5682682Y-13725484D01*
X5682682Y-13725484D02*
X5654110Y-13725484D01*
X5835063Y-13725484D02*
X5816015Y-13715960D01*
X5816015Y-13715960D02*
X5806491Y-13696912D01*
X5806491Y-13696912D02*
X5806491Y-13525484D01*
X5987444Y-13715960D02*
X5968396Y-13725484D01*
X5968396Y-13725484D02*
X5930301Y-13725484D01*
X5930301Y-13725484D02*
X5911253Y-13715960D01*
X5911253Y-13715960D02*
X5901730Y-13696912D01*
X5901730Y-13696912D02*
X5901730Y-13620722D01*
X5901730Y-13620722D02*
X5911253Y-13601674D01*
X5911253Y-13601674D02*
X5930301Y-13592150D01*
X5930301Y-13592150D02*
X5968396Y-13592150D01*
X5968396Y-13592150D02*
X5987444Y-13601674D01*
X5987444Y-13601674D02*
X5996968Y-13620722D01*
X5996968Y-13620722D02*
X5996968Y-13639769D01*
X5996968Y-13639769D02*
X5901730Y-13658817D01*
X6073158Y-13715960D02*
X6092206Y-13725484D01*
X6092206Y-13725484D02*
X6130301Y-13725484D01*
X6130301Y-13725484D02*
X6149349Y-13715960D01*
X6149349Y-13715960D02*
X6158872Y-13696912D01*
X6158872Y-13696912D02*
X6158872Y-13687388D01*
X6158872Y-13687388D02*
X6149349Y-13668341D01*
X6149349Y-13668341D02*
X6130301Y-13658817D01*
X6130301Y-13658817D02*
X6101730Y-13658817D01*
X6101730Y-13658817D02*
X6082682Y-13649293D01*
X6082682Y-13649293D02*
X6073158Y-13630246D01*
X6073158Y-13630246D02*
X6073158Y-13620722D01*
X6073158Y-13620722D02*
X6082682Y-13601674D01*
X6082682Y-13601674D02*
X6101730Y-13592150D01*
X6101730Y-13592150D02*
X6130301Y-13592150D01*
X6130301Y-13592150D02*
X6149349Y-13601674D01*
X6225539Y-13801674D02*
X6235063Y-13792150D01*
X6235063Y-13792150D02*
X6254111Y-13763579D01*
X6254111Y-13763579D02*
X6263634Y-13744531D01*
X6263634Y-13744531D02*
X6273158Y-13715960D01*
X6273158Y-13715960D02*
X6282682Y-13668341D01*
X6282682Y-13668341D02*
X6282682Y-13630246D01*
X6282682Y-13630246D02*
X6273158Y-13582627D01*
X6273158Y-13582627D02*
X6263634Y-13554055D01*
X6263634Y-13554055D02*
X6254111Y-13535008D01*
X6254111Y-13535008D02*
X6235063Y-13506436D01*
X6235063Y-13506436D02*
X6225539Y-13496912D01*
D15*
X1195000Y-13963000D02*
X1260000Y-13898000D01*
X1195000Y-13833000D01*
X1130000Y-13898000D01*
X1195000Y-13963000D01*
D10*
X1625539Y-13989484D02*
X1511253Y-13989484D01*
X1568396Y-13989484D02*
X1568396Y-13789484D01*
X1568396Y-13789484D02*
X1549348Y-13818055D01*
X1549348Y-13818055D02*
X1530301Y-13837103D01*
X1530301Y-13837103D02*
X1511253Y-13846627D01*
X1711253Y-13970436D02*
X1720777Y-13979960D01*
X1720777Y-13979960D02*
X1711253Y-13989484D01*
X1711253Y-13989484D02*
X1701729Y-13979960D01*
X1701729Y-13979960D02*
X1711253Y-13970436D01*
X1711253Y-13970436D02*
X1711253Y-13989484D01*
X1787443Y-13789484D02*
X1911253Y-13789484D01*
X1911253Y-13789484D02*
X1844586Y-13865674D01*
X1844586Y-13865674D02*
X1873158Y-13865674D01*
X1873158Y-13865674D02*
X1892205Y-13875198D01*
X1892205Y-13875198D02*
X1901729Y-13884722D01*
X1901729Y-13884722D02*
X1911253Y-13903769D01*
X1911253Y-13903769D02*
X1911253Y-13951388D01*
X1911253Y-13951388D02*
X1901729Y-13970436D01*
X1901729Y-13970436D02*
X1892205Y-13979960D01*
X1892205Y-13979960D02*
X1873158Y-13989484D01*
X1873158Y-13989484D02*
X1816015Y-13989484D01*
X1816015Y-13989484D02*
X1796967Y-13979960D01*
X1796967Y-13979960D02*
X1787443Y-13970436D01*
X2035062Y-13789484D02*
X2054110Y-13789484D01*
X2054110Y-13789484D02*
X2073158Y-13799008D01*
X2073158Y-13799008D02*
X2082682Y-13808531D01*
X2082682Y-13808531D02*
X2092205Y-13827579D01*
X2092205Y-13827579D02*
X2101729Y-13865674D01*
X2101729Y-13865674D02*
X2101729Y-13913293D01*
X2101729Y-13913293D02*
X2092205Y-13951388D01*
X2092205Y-13951388D02*
X2082682Y-13970436D01*
X2082682Y-13970436D02*
X2073158Y-13979960D01*
X2073158Y-13979960D02*
X2054110Y-13989484D01*
X2054110Y-13989484D02*
X2035062Y-13989484D01*
X2035062Y-13989484D02*
X2016015Y-13979960D01*
X2016015Y-13979960D02*
X2006491Y-13970436D01*
X2006491Y-13970436D02*
X1996967Y-13951388D01*
X1996967Y-13951388D02*
X1987443Y-13913293D01*
X1987443Y-13913293D02*
X1987443Y-13865674D01*
X1987443Y-13865674D02*
X1996967Y-13827579D01*
X1996967Y-13827579D02*
X2006491Y-13808531D01*
X2006491Y-13808531D02*
X2016015Y-13799008D01*
X2016015Y-13799008D02*
X2035062Y-13789484D01*
X2225539Y-13789484D02*
X2244586Y-13789484D01*
X2244586Y-13789484D02*
X2263634Y-13799008D01*
X2263634Y-13799008D02*
X2273158Y-13808531D01*
X2273158Y-13808531D02*
X2282682Y-13827579D01*
X2282682Y-13827579D02*
X2292205Y-13865674D01*
X2292205Y-13865674D02*
X2292205Y-13913293D01*
X2292205Y-13913293D02*
X2282682Y-13951388D01*
X2282682Y-13951388D02*
X2273158Y-13970436D01*
X2273158Y-13970436D02*
X2263634Y-13979960D01*
X2263634Y-13979960D02*
X2244586Y-13989484D01*
X2244586Y-13989484D02*
X2225539Y-13989484D01*
X2225539Y-13989484D02*
X2206491Y-13979960D01*
X2206491Y-13979960D02*
X2196967Y-13970436D01*
X2196967Y-13970436D02*
X2187444Y-13951388D01*
X2187444Y-13951388D02*
X2177920Y-13913293D01*
X2177920Y-13913293D02*
X2177920Y-13865674D01*
X2177920Y-13865674D02*
X2187444Y-13827579D01*
X2187444Y-13827579D02*
X2196967Y-13808531D01*
X2196967Y-13808531D02*
X2206491Y-13799008D01*
X2206491Y-13799008D02*
X2225539Y-13789484D01*
X2377920Y-13989484D02*
X2377920Y-13856150D01*
X2377920Y-13875198D02*
X2387444Y-13865674D01*
X2387444Y-13865674D02*
X2406491Y-13856150D01*
X2406491Y-13856150D02*
X2435063Y-13856150D01*
X2435063Y-13856150D02*
X2454110Y-13865674D01*
X2454110Y-13865674D02*
X2463634Y-13884722D01*
X2463634Y-13884722D02*
X2463634Y-13989484D01*
X2463634Y-13884722D02*
X2473158Y-13865674D01*
X2473158Y-13865674D02*
X2492205Y-13856150D01*
X2492205Y-13856150D02*
X2520777Y-13856150D01*
X2520777Y-13856150D02*
X2539825Y-13865674D01*
X2539825Y-13865674D02*
X2549348Y-13884722D01*
X2549348Y-13884722D02*
X2549348Y-13989484D01*
X2644586Y-13989484D02*
X2644586Y-13856150D01*
X2644586Y-13875198D02*
X2654110Y-13865674D01*
X2654110Y-13865674D02*
X2673158Y-13856150D01*
X2673158Y-13856150D02*
X2701729Y-13856150D01*
X2701729Y-13856150D02*
X2720777Y-13865674D01*
X2720777Y-13865674D02*
X2730301Y-13884722D01*
X2730301Y-13884722D02*
X2730301Y-13989484D01*
X2730301Y-13884722D02*
X2739825Y-13865674D01*
X2739825Y-13865674D02*
X2758872Y-13856150D01*
X2758872Y-13856150D02*
X2787444Y-13856150D01*
X2787444Y-13856150D02*
X2806491Y-13865674D01*
X2806491Y-13865674D02*
X2816015Y-13884722D01*
X2816015Y-13884722D02*
X2816015Y-13989484D01*
X3206491Y-13779960D02*
X3035063Y-14037103D01*
X3463634Y-13789484D02*
X3482682Y-13789484D01*
X3482682Y-13789484D02*
X3501729Y-13799008D01*
X3501729Y-13799008D02*
X3511253Y-13808531D01*
X3511253Y-13808531D02*
X3520777Y-13827579D01*
X3520777Y-13827579D02*
X3530301Y-13865674D01*
X3530301Y-13865674D02*
X3530301Y-13913293D01*
X3530301Y-13913293D02*
X3520777Y-13951388D01*
X3520777Y-13951388D02*
X3511253Y-13970436D01*
X3511253Y-13970436D02*
X3501729Y-13979960D01*
X3501729Y-13979960D02*
X3482682Y-13989484D01*
X3482682Y-13989484D02*
X3463634Y-13989484D01*
X3463634Y-13989484D02*
X3444586Y-13979960D01*
X3444586Y-13979960D02*
X3435063Y-13970436D01*
X3435063Y-13970436D02*
X3425539Y-13951388D01*
X3425539Y-13951388D02*
X3416015Y-13913293D01*
X3416015Y-13913293D02*
X3416015Y-13865674D01*
X3416015Y-13865674D02*
X3425539Y-13827579D01*
X3425539Y-13827579D02*
X3435063Y-13808531D01*
X3435063Y-13808531D02*
X3444586Y-13799008D01*
X3444586Y-13799008D02*
X3463634Y-13789484D01*
X3616015Y-13970436D02*
X3625539Y-13979960D01*
X3625539Y-13979960D02*
X3616015Y-13989484D01*
X3616015Y-13989484D02*
X3606491Y-13979960D01*
X3606491Y-13979960D02*
X3616015Y-13970436D01*
X3616015Y-13970436D02*
X3616015Y-13989484D01*
X3749348Y-13789484D02*
X3768396Y-13789484D01*
X3768396Y-13789484D02*
X3787444Y-13799008D01*
X3787444Y-13799008D02*
X3796967Y-13808531D01*
X3796967Y-13808531D02*
X3806491Y-13827579D01*
X3806491Y-13827579D02*
X3816015Y-13865674D01*
X3816015Y-13865674D02*
X3816015Y-13913293D01*
X3816015Y-13913293D02*
X3806491Y-13951388D01*
X3806491Y-13951388D02*
X3796967Y-13970436D01*
X3796967Y-13970436D02*
X3787444Y-13979960D01*
X3787444Y-13979960D02*
X3768396Y-13989484D01*
X3768396Y-13989484D02*
X3749348Y-13989484D01*
X3749348Y-13989484D02*
X3730301Y-13979960D01*
X3730301Y-13979960D02*
X3720777Y-13970436D01*
X3720777Y-13970436D02*
X3711253Y-13951388D01*
X3711253Y-13951388D02*
X3701729Y-13913293D01*
X3701729Y-13913293D02*
X3701729Y-13865674D01*
X3701729Y-13865674D02*
X3711253Y-13827579D01*
X3711253Y-13827579D02*
X3720777Y-13808531D01*
X3720777Y-13808531D02*
X3730301Y-13799008D01*
X3730301Y-13799008D02*
X3749348Y-13789484D01*
X3996967Y-13789484D02*
X3901729Y-13789484D01*
X3901729Y-13789484D02*
X3892206Y-13884722D01*
X3892206Y-13884722D02*
X3901729Y-13875198D01*
X3901729Y-13875198D02*
X3920777Y-13865674D01*
X3920777Y-13865674D02*
X3968396Y-13865674D01*
X3968396Y-13865674D02*
X3987444Y-13875198D01*
X3987444Y-13875198D02*
X3996967Y-13884722D01*
X3996967Y-13884722D02*
X4006491Y-13903769D01*
X4006491Y-13903769D02*
X4006491Y-13951388D01*
X4006491Y-13951388D02*
X3996967Y-13970436D01*
X3996967Y-13970436D02*
X3987444Y-13979960D01*
X3987444Y-13979960D02*
X3968396Y-13989484D01*
X3968396Y-13989484D02*
X3920777Y-13989484D01*
X3920777Y-13989484D02*
X3901729Y-13979960D01*
X3901729Y-13979960D02*
X3892206Y-13970436D01*
X4196968Y-13989484D02*
X4082682Y-13989484D01*
X4139825Y-13989484D02*
X4139825Y-13789484D01*
X4139825Y-13789484D02*
X4120777Y-13818055D01*
X4120777Y-13818055D02*
X4101729Y-13837103D01*
X4101729Y-13837103D02*
X4082682Y-13846627D01*
X4273158Y-13808531D02*
X4282682Y-13799008D01*
X4282682Y-13799008D02*
X4301729Y-13789484D01*
X4301729Y-13789484D02*
X4349349Y-13789484D01*
X4349349Y-13789484D02*
X4368396Y-13799008D01*
X4368396Y-13799008D02*
X4377920Y-13808531D01*
X4377920Y-13808531D02*
X4387444Y-13827579D01*
X4387444Y-13827579D02*
X4387444Y-13846627D01*
X4387444Y-13846627D02*
X4377920Y-13875198D01*
X4377920Y-13875198D02*
X4263634Y-13989484D01*
X4263634Y-13989484D02*
X4387444Y-13989484D01*
X4463634Y-13789484D02*
X4463634Y-13827579D01*
X4539825Y-13789484D02*
X4539825Y-13827579D01*
X4835063Y-14065674D02*
X4825539Y-14056150D01*
X4825539Y-14056150D02*
X4806491Y-14027579D01*
X4806491Y-14027579D02*
X4796968Y-14008531D01*
X4796968Y-14008531D02*
X4787444Y-13979960D01*
X4787444Y-13979960D02*
X4777920Y-13932341D01*
X4777920Y-13932341D02*
X4777920Y-13894246D01*
X4777920Y-13894246D02*
X4787444Y-13846627D01*
X4787444Y-13846627D02*
X4796968Y-13818055D01*
X4796968Y-13818055D02*
X4806491Y-13799008D01*
X4806491Y-13799008D02*
X4825539Y-13770436D01*
X4825539Y-13770436D02*
X4835063Y-13760912D01*
X4939825Y-13875198D02*
X4920777Y-13865674D01*
X4920777Y-13865674D02*
X4911253Y-13856150D01*
X4911253Y-13856150D02*
X4901730Y-13837103D01*
X4901730Y-13837103D02*
X4901730Y-13827579D01*
X4901730Y-13827579D02*
X4911253Y-13808531D01*
X4911253Y-13808531D02*
X4920777Y-13799008D01*
X4920777Y-13799008D02*
X4939825Y-13789484D01*
X4939825Y-13789484D02*
X4977920Y-13789484D01*
X4977920Y-13789484D02*
X4996968Y-13799008D01*
X4996968Y-13799008D02*
X5006491Y-13808531D01*
X5006491Y-13808531D02*
X5016015Y-13827579D01*
X5016015Y-13827579D02*
X5016015Y-13837103D01*
X5016015Y-13837103D02*
X5006491Y-13856150D01*
X5006491Y-13856150D02*
X4996968Y-13865674D01*
X4996968Y-13865674D02*
X4977920Y-13875198D01*
X4977920Y-13875198D02*
X4939825Y-13875198D01*
X4939825Y-13875198D02*
X4920777Y-13884722D01*
X4920777Y-13884722D02*
X4911253Y-13894246D01*
X4911253Y-13894246D02*
X4901730Y-13913293D01*
X4901730Y-13913293D02*
X4901730Y-13951388D01*
X4901730Y-13951388D02*
X4911253Y-13970436D01*
X4911253Y-13970436D02*
X4920777Y-13979960D01*
X4920777Y-13979960D02*
X4939825Y-13989484D01*
X4939825Y-13989484D02*
X4977920Y-13989484D01*
X4977920Y-13989484D02*
X4996968Y-13979960D01*
X4996968Y-13979960D02*
X5006491Y-13970436D01*
X5006491Y-13970436D02*
X5016015Y-13951388D01*
X5016015Y-13951388D02*
X5016015Y-13913293D01*
X5016015Y-13913293D02*
X5006491Y-13894246D01*
X5006491Y-13894246D02*
X4996968Y-13884722D01*
X4996968Y-13884722D02*
X4977920Y-13875198D01*
X5254111Y-13989484D02*
X5254111Y-13789484D01*
X5339825Y-13989484D02*
X5339825Y-13884722D01*
X5339825Y-13884722D02*
X5330301Y-13865674D01*
X5330301Y-13865674D02*
X5311253Y-13856150D01*
X5311253Y-13856150D02*
X5282682Y-13856150D01*
X5282682Y-13856150D02*
X5263634Y-13865674D01*
X5263634Y-13865674D02*
X5254111Y-13875198D01*
X5463634Y-13989484D02*
X5444587Y-13979960D01*
X5444587Y-13979960D02*
X5435063Y-13970436D01*
X5435063Y-13970436D02*
X5425539Y-13951388D01*
X5425539Y-13951388D02*
X5425539Y-13894246D01*
X5425539Y-13894246D02*
X5435063Y-13875198D01*
X5435063Y-13875198D02*
X5444587Y-13865674D01*
X5444587Y-13865674D02*
X5463634Y-13856150D01*
X5463634Y-13856150D02*
X5492206Y-13856150D01*
X5492206Y-13856150D02*
X5511253Y-13865674D01*
X5511253Y-13865674D02*
X5520777Y-13875198D01*
X5520777Y-13875198D02*
X5530301Y-13894246D01*
X5530301Y-13894246D02*
X5530301Y-13951388D01*
X5530301Y-13951388D02*
X5520777Y-13970436D01*
X5520777Y-13970436D02*
X5511253Y-13979960D01*
X5511253Y-13979960D02*
X5492206Y-13989484D01*
X5492206Y-13989484D02*
X5463634Y-13989484D01*
X5644587Y-13989484D02*
X5625539Y-13979960D01*
X5625539Y-13979960D02*
X5616015Y-13960912D01*
X5616015Y-13960912D02*
X5616015Y-13789484D01*
X5796968Y-13979960D02*
X5777920Y-13989484D01*
X5777920Y-13989484D02*
X5739825Y-13989484D01*
X5739825Y-13989484D02*
X5720777Y-13979960D01*
X5720777Y-13979960D02*
X5711253Y-13960912D01*
X5711253Y-13960912D02*
X5711253Y-13884722D01*
X5711253Y-13884722D02*
X5720777Y-13865674D01*
X5720777Y-13865674D02*
X5739825Y-13856150D01*
X5739825Y-13856150D02*
X5777920Y-13856150D01*
X5777920Y-13856150D02*
X5796968Y-13865674D01*
X5796968Y-13865674D02*
X5806491Y-13884722D01*
X5806491Y-13884722D02*
X5806491Y-13903769D01*
X5806491Y-13903769D02*
X5711253Y-13922817D01*
X5882682Y-13979960D02*
X5901730Y-13989484D01*
X5901730Y-13989484D02*
X5939825Y-13989484D01*
X5939825Y-13989484D02*
X5958872Y-13979960D01*
X5958872Y-13979960D02*
X5968396Y-13960912D01*
X5968396Y-13960912D02*
X5968396Y-13951388D01*
X5968396Y-13951388D02*
X5958872Y-13932341D01*
X5958872Y-13932341D02*
X5939825Y-13922817D01*
X5939825Y-13922817D02*
X5911253Y-13922817D01*
X5911253Y-13922817D02*
X5892206Y-13913293D01*
X5892206Y-13913293D02*
X5882682Y-13894246D01*
X5882682Y-13894246D02*
X5882682Y-13884722D01*
X5882682Y-13884722D02*
X5892206Y-13865674D01*
X5892206Y-13865674D02*
X5911253Y-13856150D01*
X5911253Y-13856150D02*
X5939825Y-13856150D01*
X5939825Y-13856150D02*
X5958872Y-13865674D01*
X6035063Y-14065674D02*
X6044587Y-14056150D01*
X6044587Y-14056150D02*
X6063634Y-14027579D01*
X6063634Y-14027579D02*
X6073158Y-14008531D01*
X6073158Y-14008531D02*
X6082682Y-13979960D01*
X6082682Y-13979960D02*
X6092206Y-13932341D01*
X6092206Y-13932341D02*
X6092206Y-13894246D01*
X6092206Y-13894246D02*
X6082682Y-13846627D01*
X6082682Y-13846627D02*
X6073158Y-13818055D01*
X6073158Y-13818055D02*
X6063634Y-13799008D01*
X6063634Y-13799008D02*
X6044587Y-13770436D01*
X6044587Y-13770436D02*
X6035063Y-13760912D01*
X1060000Y-14062000D02*
X1260000Y-14262000D01*
X1260000Y-14062000D02*
X1060000Y-14262000D01*
X1260000Y-14162000D02*
G75*
G03*
X1260000Y-14162000I-100000J0D01*
G01*
X1501729Y-14053484D02*
X1625539Y-14053484D01*
X1625539Y-14053484D02*
X1558872Y-14129674D01*
X1558872Y-14129674D02*
X1587443Y-14129674D01*
X1587443Y-14129674D02*
X1606491Y-14139198D01*
X1606491Y-14139198D02*
X1616015Y-14148722D01*
X1616015Y-14148722D02*
X1625539Y-14167769D01*
X1625539Y-14167769D02*
X1625539Y-14215388D01*
X1625539Y-14215388D02*
X1616015Y-14234436D01*
X1616015Y-14234436D02*
X1606491Y-14243960D01*
X1606491Y-14243960D02*
X1587443Y-14253484D01*
X1587443Y-14253484D02*
X1530301Y-14253484D01*
X1530301Y-14253484D02*
X1511253Y-14243960D01*
X1511253Y-14243960D02*
X1501729Y-14234436D01*
X1711253Y-14234436D02*
X1720777Y-14243960D01*
X1720777Y-14243960D02*
X1711253Y-14253484D01*
X1711253Y-14253484D02*
X1701729Y-14243960D01*
X1701729Y-14243960D02*
X1711253Y-14234436D01*
X1711253Y-14234436D02*
X1711253Y-14253484D01*
X1796967Y-14072531D02*
X1806491Y-14063008D01*
X1806491Y-14063008D02*
X1825539Y-14053484D01*
X1825539Y-14053484D02*
X1873158Y-14053484D01*
X1873158Y-14053484D02*
X1892205Y-14063008D01*
X1892205Y-14063008D02*
X1901729Y-14072531D01*
X1901729Y-14072531D02*
X1911253Y-14091579D01*
X1911253Y-14091579D02*
X1911253Y-14110627D01*
X1911253Y-14110627D02*
X1901729Y-14139198D01*
X1901729Y-14139198D02*
X1787443Y-14253484D01*
X1787443Y-14253484D02*
X1911253Y-14253484D01*
X2035062Y-14053484D02*
X2054110Y-14053484D01*
X2054110Y-14053484D02*
X2073158Y-14063008D01*
X2073158Y-14063008D02*
X2082682Y-14072531D01*
X2082682Y-14072531D02*
X2092205Y-14091579D01*
X2092205Y-14091579D02*
X2101729Y-14129674D01*
X2101729Y-14129674D02*
X2101729Y-14177293D01*
X2101729Y-14177293D02*
X2092205Y-14215388D01*
X2092205Y-14215388D02*
X2082682Y-14234436D01*
X2082682Y-14234436D02*
X2073158Y-14243960D01*
X2073158Y-14243960D02*
X2054110Y-14253484D01*
X2054110Y-14253484D02*
X2035062Y-14253484D01*
X2035062Y-14253484D02*
X2016015Y-14243960D01*
X2016015Y-14243960D02*
X2006491Y-14234436D01*
X2006491Y-14234436D02*
X1996967Y-14215388D01*
X1996967Y-14215388D02*
X1987443Y-14177293D01*
X1987443Y-14177293D02*
X1987443Y-14129674D01*
X1987443Y-14129674D02*
X1996967Y-14091579D01*
X1996967Y-14091579D02*
X2006491Y-14072531D01*
X2006491Y-14072531D02*
X2016015Y-14063008D01*
X2016015Y-14063008D02*
X2035062Y-14053484D01*
X2225539Y-14053484D02*
X2244586Y-14053484D01*
X2244586Y-14053484D02*
X2263634Y-14063008D01*
X2263634Y-14063008D02*
X2273158Y-14072531D01*
X2273158Y-14072531D02*
X2282682Y-14091579D01*
X2282682Y-14091579D02*
X2292205Y-14129674D01*
X2292205Y-14129674D02*
X2292205Y-14177293D01*
X2292205Y-14177293D02*
X2282682Y-14215388D01*
X2282682Y-14215388D02*
X2273158Y-14234436D01*
X2273158Y-14234436D02*
X2263634Y-14243960D01*
X2263634Y-14243960D02*
X2244586Y-14253484D01*
X2244586Y-14253484D02*
X2225539Y-14253484D01*
X2225539Y-14253484D02*
X2206491Y-14243960D01*
X2206491Y-14243960D02*
X2196967Y-14234436D01*
X2196967Y-14234436D02*
X2187444Y-14215388D01*
X2187444Y-14215388D02*
X2177920Y-14177293D01*
X2177920Y-14177293D02*
X2177920Y-14129674D01*
X2177920Y-14129674D02*
X2187444Y-14091579D01*
X2187444Y-14091579D02*
X2196967Y-14072531D01*
X2196967Y-14072531D02*
X2206491Y-14063008D01*
X2206491Y-14063008D02*
X2225539Y-14053484D01*
X2377920Y-14253484D02*
X2377920Y-14120150D01*
X2377920Y-14139198D02*
X2387444Y-14129674D01*
X2387444Y-14129674D02*
X2406491Y-14120150D01*
X2406491Y-14120150D02*
X2435063Y-14120150D01*
X2435063Y-14120150D02*
X2454110Y-14129674D01*
X2454110Y-14129674D02*
X2463634Y-14148722D01*
X2463634Y-14148722D02*
X2463634Y-14253484D01*
X2463634Y-14148722D02*
X2473158Y-14129674D01*
X2473158Y-14129674D02*
X2492205Y-14120150D01*
X2492205Y-14120150D02*
X2520777Y-14120150D01*
X2520777Y-14120150D02*
X2539825Y-14129674D01*
X2539825Y-14129674D02*
X2549348Y-14148722D01*
X2549348Y-14148722D02*
X2549348Y-14253484D01*
X2644586Y-14253484D02*
X2644586Y-14120150D01*
X2644586Y-14139198D02*
X2654110Y-14129674D01*
X2654110Y-14129674D02*
X2673158Y-14120150D01*
X2673158Y-14120150D02*
X2701729Y-14120150D01*
X2701729Y-14120150D02*
X2720777Y-14129674D01*
X2720777Y-14129674D02*
X2730301Y-14148722D01*
X2730301Y-14148722D02*
X2730301Y-14253484D01*
X2730301Y-14148722D02*
X2739825Y-14129674D01*
X2739825Y-14129674D02*
X2758872Y-14120150D01*
X2758872Y-14120150D02*
X2787444Y-14120150D01*
X2787444Y-14120150D02*
X2806491Y-14129674D01*
X2806491Y-14129674D02*
X2816015Y-14148722D01*
X2816015Y-14148722D02*
X2816015Y-14253484D01*
X3206491Y-14043960D02*
X3035063Y-14301103D01*
X3463634Y-14053484D02*
X3482682Y-14053484D01*
X3482682Y-14053484D02*
X3501729Y-14063008D01*
X3501729Y-14063008D02*
X3511253Y-14072531D01*
X3511253Y-14072531D02*
X3520777Y-14091579D01*
X3520777Y-14091579D02*
X3530301Y-14129674D01*
X3530301Y-14129674D02*
X3530301Y-14177293D01*
X3530301Y-14177293D02*
X3520777Y-14215388D01*
X3520777Y-14215388D02*
X3511253Y-14234436D01*
X3511253Y-14234436D02*
X3501729Y-14243960D01*
X3501729Y-14243960D02*
X3482682Y-14253484D01*
X3482682Y-14253484D02*
X3463634Y-14253484D01*
X3463634Y-14253484D02*
X3444586Y-14243960D01*
X3444586Y-14243960D02*
X3435063Y-14234436D01*
X3435063Y-14234436D02*
X3425539Y-14215388D01*
X3425539Y-14215388D02*
X3416015Y-14177293D01*
X3416015Y-14177293D02*
X3416015Y-14129674D01*
X3416015Y-14129674D02*
X3425539Y-14091579D01*
X3425539Y-14091579D02*
X3435063Y-14072531D01*
X3435063Y-14072531D02*
X3444586Y-14063008D01*
X3444586Y-14063008D02*
X3463634Y-14053484D01*
X3616015Y-14234436D02*
X3625539Y-14243960D01*
X3625539Y-14243960D02*
X3616015Y-14253484D01*
X3616015Y-14253484D02*
X3606491Y-14243960D01*
X3606491Y-14243960D02*
X3616015Y-14234436D01*
X3616015Y-14234436D02*
X3616015Y-14253484D01*
X3816015Y-14253484D02*
X3701729Y-14253484D01*
X3758872Y-14253484D02*
X3758872Y-14053484D01*
X3758872Y-14053484D02*
X3739825Y-14082055D01*
X3739825Y-14082055D02*
X3720777Y-14101103D01*
X3720777Y-14101103D02*
X3701729Y-14110627D01*
X3892206Y-14072531D02*
X3901729Y-14063008D01*
X3901729Y-14063008D02*
X3920777Y-14053484D01*
X3920777Y-14053484D02*
X3968396Y-14053484D01*
X3968396Y-14053484D02*
X3987444Y-14063008D01*
X3987444Y-14063008D02*
X3996967Y-14072531D01*
X3996967Y-14072531D02*
X4006491Y-14091579D01*
X4006491Y-14091579D02*
X4006491Y-14110627D01*
X4006491Y-14110627D02*
X3996967Y-14139198D01*
X3996967Y-14139198D02*
X3882682Y-14253484D01*
X3882682Y-14253484D02*
X4006491Y-14253484D01*
X4177920Y-14053484D02*
X4139825Y-14053484D01*
X4139825Y-14053484D02*
X4120777Y-14063008D01*
X4120777Y-14063008D02*
X4111253Y-14072531D01*
X4111253Y-14072531D02*
X4092206Y-14101103D01*
X4092206Y-14101103D02*
X4082682Y-14139198D01*
X4082682Y-14139198D02*
X4082682Y-14215388D01*
X4082682Y-14215388D02*
X4092206Y-14234436D01*
X4092206Y-14234436D02*
X4101729Y-14243960D01*
X4101729Y-14243960D02*
X4120777Y-14253484D01*
X4120777Y-14253484D02*
X4158872Y-14253484D01*
X4158872Y-14253484D02*
X4177920Y-14243960D01*
X4177920Y-14243960D02*
X4187444Y-14234436D01*
X4187444Y-14234436D02*
X4196968Y-14215388D01*
X4196968Y-14215388D02*
X4196968Y-14167769D01*
X4196968Y-14167769D02*
X4187444Y-14148722D01*
X4187444Y-14148722D02*
X4177920Y-14139198D01*
X4177920Y-14139198D02*
X4158872Y-14129674D01*
X4158872Y-14129674D02*
X4120777Y-14129674D01*
X4120777Y-14129674D02*
X4101729Y-14139198D01*
X4101729Y-14139198D02*
X4092206Y-14148722D01*
X4092206Y-14148722D02*
X4082682Y-14167769D01*
X4320777Y-14053484D02*
X4339825Y-14053484D01*
X4339825Y-14053484D02*
X4358872Y-14063008D01*
X4358872Y-14063008D02*
X4368396Y-14072531D01*
X4368396Y-14072531D02*
X4377920Y-14091579D01*
X4377920Y-14091579D02*
X4387444Y-14129674D01*
X4387444Y-14129674D02*
X4387444Y-14177293D01*
X4387444Y-14177293D02*
X4377920Y-14215388D01*
X4377920Y-14215388D02*
X4368396Y-14234436D01*
X4368396Y-14234436D02*
X4358872Y-14243960D01*
X4358872Y-14243960D02*
X4339825Y-14253484D01*
X4339825Y-14253484D02*
X4320777Y-14253484D01*
X4320777Y-14253484D02*
X4301729Y-14243960D01*
X4301729Y-14243960D02*
X4292206Y-14234436D01*
X4292206Y-14234436D02*
X4282682Y-14215388D01*
X4282682Y-14215388D02*
X4273158Y-14177293D01*
X4273158Y-14177293D02*
X4273158Y-14129674D01*
X4273158Y-14129674D02*
X4282682Y-14091579D01*
X4282682Y-14091579D02*
X4292206Y-14072531D01*
X4292206Y-14072531D02*
X4301729Y-14063008D01*
X4301729Y-14063008D02*
X4320777Y-14053484D01*
X4463634Y-14053484D02*
X4463634Y-14091579D01*
X4539825Y-14053484D02*
X4539825Y-14091579D01*
X4835063Y-14329674D02*
X4825539Y-14320150D01*
X4825539Y-14320150D02*
X4806491Y-14291579D01*
X4806491Y-14291579D02*
X4796968Y-14272531D01*
X4796968Y-14272531D02*
X4787444Y-14243960D01*
X4787444Y-14243960D02*
X4777920Y-14196341D01*
X4777920Y-14196341D02*
X4777920Y-14158246D01*
X4777920Y-14158246D02*
X4787444Y-14110627D01*
X4787444Y-14110627D02*
X4796968Y-14082055D01*
X4796968Y-14082055D02*
X4806491Y-14063008D01*
X4806491Y-14063008D02*
X4825539Y-14034436D01*
X4825539Y-14034436D02*
X4835063Y-14024912D01*
X4996968Y-14120150D02*
X4996968Y-14253484D01*
X4949349Y-14043960D02*
X4901730Y-14186817D01*
X4901730Y-14186817D02*
X5025539Y-14186817D01*
X5254111Y-14253484D02*
X5254111Y-14053484D01*
X5339825Y-14253484D02*
X5339825Y-14148722D01*
X5339825Y-14148722D02*
X5330301Y-14129674D01*
X5330301Y-14129674D02*
X5311253Y-14120150D01*
X5311253Y-14120150D02*
X5282682Y-14120150D01*
X5282682Y-14120150D02*
X5263634Y-14129674D01*
X5263634Y-14129674D02*
X5254111Y-14139198D01*
X5463634Y-14253484D02*
X5444587Y-14243960D01*
X5444587Y-14243960D02*
X5435063Y-14234436D01*
X5435063Y-14234436D02*
X5425539Y-14215388D01*
X5425539Y-14215388D02*
X5425539Y-14158246D01*
X5425539Y-14158246D02*
X5435063Y-14139198D01*
X5435063Y-14139198D02*
X5444587Y-14129674D01*
X5444587Y-14129674D02*
X5463634Y-14120150D01*
X5463634Y-14120150D02*
X5492206Y-14120150D01*
X5492206Y-14120150D02*
X5511253Y-14129674D01*
X5511253Y-14129674D02*
X5520777Y-14139198D01*
X5520777Y-14139198D02*
X5530301Y-14158246D01*
X5530301Y-14158246D02*
X5530301Y-14215388D01*
X5530301Y-14215388D02*
X5520777Y-14234436D01*
X5520777Y-14234436D02*
X5511253Y-14243960D01*
X5511253Y-14243960D02*
X5492206Y-14253484D01*
X5492206Y-14253484D02*
X5463634Y-14253484D01*
X5644587Y-14253484D02*
X5625539Y-14243960D01*
X5625539Y-14243960D02*
X5616015Y-14224912D01*
X5616015Y-14224912D02*
X5616015Y-14053484D01*
X5796968Y-14243960D02*
X5777920Y-14253484D01*
X5777920Y-14253484D02*
X5739825Y-14253484D01*
X5739825Y-14253484D02*
X5720777Y-14243960D01*
X5720777Y-14243960D02*
X5711253Y-14224912D01*
X5711253Y-14224912D02*
X5711253Y-14148722D01*
X5711253Y-14148722D02*
X5720777Y-14129674D01*
X5720777Y-14129674D02*
X5739825Y-14120150D01*
X5739825Y-14120150D02*
X5777920Y-14120150D01*
X5777920Y-14120150D02*
X5796968Y-14129674D01*
X5796968Y-14129674D02*
X5806491Y-14148722D01*
X5806491Y-14148722D02*
X5806491Y-14167769D01*
X5806491Y-14167769D02*
X5711253Y-14186817D01*
X5882682Y-14243960D02*
X5901730Y-14253484D01*
X5901730Y-14253484D02*
X5939825Y-14253484D01*
X5939825Y-14253484D02*
X5958872Y-14243960D01*
X5958872Y-14243960D02*
X5968396Y-14224912D01*
X5968396Y-14224912D02*
X5968396Y-14215388D01*
X5968396Y-14215388D02*
X5958872Y-14196341D01*
X5958872Y-14196341D02*
X5939825Y-14186817D01*
X5939825Y-14186817D02*
X5911253Y-14186817D01*
X5911253Y-14186817D02*
X5892206Y-14177293D01*
X5892206Y-14177293D02*
X5882682Y-14158246D01*
X5882682Y-14158246D02*
X5882682Y-14148722D01*
X5882682Y-14148722D02*
X5892206Y-14129674D01*
X5892206Y-14129674D02*
X5911253Y-14120150D01*
X5911253Y-14120150D02*
X5939825Y-14120150D01*
X5939825Y-14120150D02*
X5958872Y-14129674D01*
X6035063Y-14329674D02*
X6044587Y-14320150D01*
X6044587Y-14320150D02*
X6063634Y-14291579D01*
X6063634Y-14291579D02*
X6073158Y-14272531D01*
X6073158Y-14272531D02*
X6082682Y-14243960D01*
X6082682Y-14243960D02*
X6092206Y-14196341D01*
X6092206Y-14196341D02*
X6092206Y-14158246D01*
X6092206Y-14158246D02*
X6082682Y-14110627D01*
X6082682Y-14110627D02*
X6073158Y-14082055D01*
X6073158Y-14082055D02*
X6063634Y-14063008D01*
X6063634Y-14063008D02*
X6044587Y-14034436D01*
X6044587Y-14034436D02*
X6035063Y-14024912D01*
M02*
