%TF.GenerationSoftware,KiCad,Pcbnew,6.0.2+dfsg-1*%
%TF.CreationDate,2023-03-22T01:16:50-07:00*%
%TF.ProjectId,PICOnsole,5049434f-6e73-46f6-9c65-2e6b69636164,rev?*%
%TF.SameCoordinates,Original*%
%TF.FileFunction,Soldermask,Bot*%
%TF.FilePolarity,Negative*%
%FSLAX46Y46*%
G04 Gerber Fmt 4.6, Leading zero omitted, Abs format (unit mm)*
G04 Created by KiCad (PCBNEW 6.0.2+dfsg-1) date 2023-03-22 01:16:50*
%MOMM*%
%LPD*%
G01*
G04 APERTURE LIST*
G04 Aperture macros list*
%AMRoundRect*
0 Rectangle with rounded corners*
0 $1 Rounding radius*
0 $2 $3 $4 $5 $6 $7 $8 $9 X,Y pos of 4 corners*
0 Add a 4 corners polygon primitive as box body*
4,1,4,$2,$3,$4,$5,$6,$7,$8,$9,$2,$3,0*
0 Add four circle primitives for the rounded corners*
1,1,$1+$1,$2,$3*
1,1,$1+$1,$4,$5*
1,1,$1+$1,$6,$7*
1,1,$1+$1,$8,$9*
0 Add four rect primitives between the rounded corners*
20,1,$1+$1,$2,$3,$4,$5,0*
20,1,$1+$1,$4,$5,$6,$7,0*
20,1,$1+$1,$6,$7,$8,$9,0*
20,1,$1+$1,$8,$9,$2,$3,0*%
G04 Aperture macros list end*
%ADD10C,5.000000*%
%ADD11C,2.000000*%
%ADD12R,1.800000X1.800000*%
%ADD13O,1.800000X1.800000*%
%ADD14O,1.850000X3.048000*%
%ADD15O,3.048000X1.850000*%
%ADD16R,1.700000X1.700000*%
%ADD17O,1.700000X1.700000*%
%ADD18RoundRect,0.250000X0.350000X0.450000X-0.350000X0.450000X-0.350000X-0.450000X0.350000X-0.450000X0*%
%ADD19C,1.524000*%
%ADD20R,1.524000X1.524000*%
%ADD21RoundRect,0.250000X-0.350000X-0.450000X0.350000X-0.450000X0.350000X0.450000X-0.350000X0.450000X0*%
G04 APERTURE END LIST*
D10*
%TO.C,*%
X91440000Y-101600000D03*
%TD*%
D11*
%TO.C,SW3*%
X52590000Y-59975000D03*
X59090000Y-59975000D03*
X59090000Y-64475000D03*
X52590000Y-64475000D03*
%TD*%
D12*
%TO.C,D8*%
X37950000Y-60910000D03*
D13*
X27790000Y-60910000D03*
%TD*%
D12*
%TO.C,D2*%
X40490000Y-29160000D03*
D13*
X30330000Y-29160000D03*
%TD*%
D14*
%TO.C,SW4*%
X87630000Y-77555000D03*
X87630000Y-90055000D03*
X92630000Y-77555000D03*
X92630000Y-90055000D03*
%TD*%
D12*
%TO.C,D3*%
X40490000Y-32970000D03*
D13*
X30330000Y-32970000D03*
%TD*%
D10*
%TO.C,REF\u002A\u002A*%
X88900000Y-17780000D03*
%TD*%
%TO.C,REF\u002A\u002A*%
X17780000Y-101600000D03*
%TD*%
D12*
%TO.C,D1*%
X40490000Y-25350000D03*
D13*
X30330000Y-25350000D03*
%TD*%
D14*
%TO.C,SW9*%
X24050000Y-77570000D03*
X24050000Y-90070000D03*
X19050000Y-77570000D03*
X19050000Y-90070000D03*
%TD*%
D12*
%TO.C,D7*%
X29060000Y-52020000D03*
D13*
X18900000Y-52020000D03*
%TD*%
D12*
%TO.C,D9*%
X29060000Y-48210000D03*
D13*
X18900000Y-48210000D03*
%TD*%
D15*
%TO.C,SW8*%
X27990000Y-73610000D03*
X40490000Y-73610000D03*
X27990000Y-68610000D03*
X40490000Y-68610000D03*
%TD*%
D14*
%TO.C,SW2*%
X67230000Y-90075000D03*
X67230000Y-77575000D03*
X62230000Y-90075000D03*
X62230000Y-77575000D03*
%TD*%
D10*
%TO.C,REF\u002A\u002A*%
X17780000Y-17780000D03*
%TD*%
D12*
%TO.C,D5*%
X43030000Y-29160000D03*
D13*
X53190000Y-29160000D03*
%TD*%
D16*
%TO.C,U4*%
X94465000Y-20275000D03*
D17*
X94465000Y-22815000D03*
X94465000Y-25355000D03*
X94465000Y-27895000D03*
X94465000Y-30435000D03*
%TD*%
D16*
%TO.C,J1*%
X73510000Y-43130000D03*
D17*
X76050000Y-43130000D03*
X78590000Y-43130000D03*
X81130000Y-43130000D03*
%TD*%
D15*
%TO.C,SW1*%
X71190000Y-94015000D03*
X83690000Y-94015000D03*
X71190000Y-99015000D03*
X83690000Y-99015000D03*
%TD*%
%TO.C,SW7*%
X40510000Y-94010000D03*
X28010000Y-94010000D03*
X28010000Y-99010000D03*
X40510000Y-99010000D03*
%TD*%
D16*
%TO.C,U3*%
X37950000Y-43130000D03*
D17*
X37950000Y-45670000D03*
X37950000Y-48210000D03*
X37950000Y-50750000D03*
X37950000Y-53290000D03*
X37950000Y-55830000D03*
%TD*%
D14*
%TO.C,SW6*%
X44450000Y-77550000D03*
X44450000Y-90050000D03*
X49450000Y-77550000D03*
X49450000Y-90050000D03*
%TD*%
D15*
%TO.C,SW5*%
X83780000Y-73655000D03*
X71280000Y-73655000D03*
X71280000Y-68655000D03*
X83780000Y-68655000D03*
%TD*%
D12*
%TO.C,D6*%
X43030000Y-32970000D03*
D13*
X53190000Y-32970000D03*
%TD*%
D12*
%TO.C,D4*%
X43030000Y-25350000D03*
D13*
X53190000Y-25350000D03*
%TD*%
D16*
%TO.C,SW10*%
X76050000Y-15195000D03*
D17*
X73510000Y-15195000D03*
X70970000Y-15195000D03*
%TD*%
D16*
%TO.C,U5*%
X81130000Y-48845000D03*
D17*
X78590000Y-48845000D03*
X76050000Y-48845000D03*
X73510000Y-48845000D03*
X70970000Y-48845000D03*
X68430000Y-48845000D03*
X65890000Y-48845000D03*
%TD*%
D18*
%TO.C,R1*%
X60810000Y-94406193D03*
X58810000Y-94406193D03*
%TD*%
D19*
%TO.C,U2*%
X78590000Y-38050000D03*
X76050000Y-38050000D03*
D20*
X73510000Y-38050000D03*
D19*
X70970000Y-38050000D03*
X68430000Y-38050000D03*
X63350000Y-38050000D03*
X65890000Y-38050000D03*
D20*
X60810000Y-38050000D03*
D19*
X58270000Y-38050000D03*
X55730000Y-38050000D03*
X53190000Y-38050000D03*
X50650000Y-38050000D03*
D20*
X48110000Y-38050000D03*
D19*
X45570000Y-38050000D03*
X43030000Y-38050000D03*
X40490000Y-38050000D03*
X37950000Y-38050000D03*
D20*
X35410000Y-38050000D03*
D19*
X32870000Y-38050000D03*
X30330000Y-38050000D03*
X30330000Y-20270000D03*
X32870000Y-20270000D03*
D20*
X35410000Y-20270000D03*
D19*
X37950000Y-20270000D03*
X40490000Y-20270000D03*
X43030000Y-20270000D03*
X45570000Y-20270000D03*
D20*
X48110000Y-20270000D03*
D19*
X50650000Y-20270000D03*
X53190000Y-20270000D03*
X55730000Y-20270000D03*
X58270000Y-20270000D03*
D20*
X60810000Y-20270000D03*
D19*
X63350000Y-20270000D03*
X65890000Y-20270000D03*
X68430000Y-20270000D03*
X70970000Y-20270000D03*
D20*
X73510000Y-20270000D03*
D19*
X76050000Y-20270000D03*
X78590000Y-20270000D03*
%TD*%
D16*
%TO.C,J3*%
X60946073Y-98374999D03*
D17*
X58406073Y-98374999D03*
X55866073Y-98374999D03*
X53326073Y-98374999D03*
X50786073Y-98374999D03*
%TD*%
D16*
%TO.C,J4*%
X60946073Y-100915000D03*
D17*
X58406073Y-100915000D03*
X55866073Y-100915000D03*
X53326073Y-100915000D03*
X50786073Y-100915000D03*
%TD*%
D16*
%TO.C,J2*%
X77320000Y-85680000D03*
D17*
X77320000Y-83140000D03*
%TD*%
D21*
%TO.C,R2*%
X50920000Y-94406193D03*
X52920000Y-94406193D03*
%TD*%
D19*
%TO.C,U1*%
X78590000Y-38050000D03*
X76050000Y-38050000D03*
D20*
X73510000Y-38050000D03*
D19*
X70970000Y-38050000D03*
X68430000Y-38050000D03*
X63350000Y-38050000D03*
X65890000Y-38050000D03*
D20*
X60810000Y-38050000D03*
D19*
X58270000Y-38050000D03*
X55730000Y-38050000D03*
X53190000Y-38050000D03*
X50650000Y-38050000D03*
D20*
X48110000Y-38050000D03*
D19*
X45570000Y-38050000D03*
X43030000Y-38050000D03*
X40490000Y-38050000D03*
X37950000Y-38050000D03*
D20*
X35410000Y-38050000D03*
D19*
X32870000Y-38050000D03*
X30330000Y-38050000D03*
X30330000Y-20270000D03*
X32870000Y-20270000D03*
D20*
X35410000Y-20270000D03*
D19*
X37950000Y-20270000D03*
X40490000Y-20270000D03*
X43030000Y-20270000D03*
X45570000Y-20270000D03*
D20*
X48110000Y-20270000D03*
D19*
X50650000Y-20270000D03*
X53190000Y-20270000D03*
X55730000Y-20270000D03*
X58270000Y-20270000D03*
D20*
X60810000Y-20270000D03*
D19*
X63350000Y-20270000D03*
X65890000Y-20270000D03*
X68430000Y-20270000D03*
X70970000Y-20270000D03*
D20*
X73510000Y-20270000D03*
D19*
X76050000Y-20270000D03*
X78590000Y-20270000D03*
%TD*%
M02*
