%TF.GenerationSoftware,KiCad,Pcbnew,6.0.2+dfsg-1*%
%TF.CreationDate,2023-03-22T01:16:49-07:00*%
%TF.ProjectId,PICOnsole,5049434f-6e73-46f6-9c65-2e6b69636164,rev?*%
%TF.SameCoordinates,Original*%
%TF.FileFunction,Legend,Top*%
%TF.FilePolarity,Positive*%
%FSLAX46Y46*%
G04 Gerber Fmt 4.6, Leading zero omitted, Abs format (unit mm)*
G04 Created by KiCad (PCBNEW 6.0.2+dfsg-1) date 2023-03-22 01:16:49*
%MOMM*%
%LPD*%
G01*
G04 APERTURE LIST*
%ADD10C,0.300000*%
%ADD11C,0.150000*%
%ADD12C,0.120000*%
G04 APERTURE END LIST*
D10*
X92943071Y-73254285D02*
X91443071Y-73254285D01*
X91443071Y-72682857D01*
X91514500Y-72540000D01*
X91585928Y-72468571D01*
X91728785Y-72397142D01*
X91943071Y-72397142D01*
X92085928Y-72468571D01*
X92157357Y-72540000D01*
X92228785Y-72682857D01*
X92228785Y-73254285D01*
X92943071Y-71754285D02*
X91443071Y-71754285D01*
X92800214Y-70182857D02*
X92871642Y-70254285D01*
X92943071Y-70468571D01*
X92943071Y-70611428D01*
X92871642Y-70825714D01*
X92728785Y-70968571D01*
X92585928Y-71040000D01*
X92300214Y-71111428D01*
X92085928Y-71111428D01*
X91800214Y-71040000D01*
X91657357Y-70968571D01*
X91514500Y-70825714D01*
X91443071Y-70611428D01*
X91443071Y-70468571D01*
X91514500Y-70254285D01*
X91585928Y-70182857D01*
X91443071Y-69254285D02*
X91443071Y-68968571D01*
X91514500Y-68825714D01*
X91657357Y-68682857D01*
X91943071Y-68611428D01*
X92443071Y-68611428D01*
X92728785Y-68682857D01*
X92871642Y-68825714D01*
X92943071Y-68968571D01*
X92943071Y-69254285D01*
X92871642Y-69397142D01*
X92728785Y-69540000D01*
X92443071Y-69611428D01*
X91943071Y-69611428D01*
X91657357Y-69540000D01*
X91514500Y-69397142D01*
X91443071Y-69254285D01*
X91943071Y-67968571D02*
X92943071Y-67968571D01*
X92085928Y-67968571D02*
X92014500Y-67897142D01*
X91943071Y-67754285D01*
X91943071Y-67540000D01*
X92014500Y-67397142D01*
X92157357Y-67325714D01*
X92943071Y-67325714D01*
X92871642Y-66682857D02*
X92943071Y-66540000D01*
X92943071Y-66254285D01*
X92871642Y-66111428D01*
X92728785Y-66040000D01*
X92657357Y-66040000D01*
X92514500Y-66111428D01*
X92443071Y-66254285D01*
X92443071Y-66468571D01*
X92371642Y-66611428D01*
X92228785Y-66682857D01*
X92157357Y-66682857D01*
X92014500Y-66611428D01*
X91943071Y-66468571D01*
X91943071Y-66254285D01*
X92014500Y-66111428D01*
X92943071Y-65182857D02*
X92871642Y-65325714D01*
X92800214Y-65397142D01*
X92657357Y-65468571D01*
X92228785Y-65468571D01*
X92085928Y-65397142D01*
X92014500Y-65325714D01*
X91943071Y-65182857D01*
X91943071Y-64968571D01*
X92014500Y-64825714D01*
X92085928Y-64754285D01*
X92228785Y-64682857D01*
X92657357Y-64682857D01*
X92800214Y-64754285D01*
X92871642Y-64825714D01*
X92943071Y-64968571D01*
X92943071Y-65182857D01*
X92943071Y-63825714D02*
X92871642Y-63968571D01*
X92728785Y-64040000D01*
X91443071Y-64040000D01*
X92871642Y-62682857D02*
X92943071Y-62825714D01*
X92943071Y-63111428D01*
X92871642Y-63254285D01*
X92728785Y-63325714D01*
X92157357Y-63325714D01*
X92014500Y-63254285D01*
X91943071Y-63111428D01*
X91943071Y-62825714D01*
X92014500Y-62682857D01*
X92157357Y-62611428D01*
X92300214Y-62611428D01*
X92443071Y-63325714D01*
X91443071Y-61040000D02*
X92943071Y-60540000D01*
X91443071Y-60040000D01*
X92943071Y-58754285D02*
X92943071Y-59611428D01*
X92943071Y-59182857D02*
X91443071Y-59182857D01*
X91657357Y-59325714D01*
X91800214Y-59468571D01*
X91871642Y-59611428D01*
X94572357Y-73790000D02*
X94643785Y-73575714D01*
X94715214Y-73504285D01*
X94858071Y-73432857D01*
X95072357Y-73432857D01*
X95215214Y-73504285D01*
X95286642Y-73575714D01*
X95358071Y-73718571D01*
X95358071Y-74290000D01*
X93858071Y-74290000D01*
X93858071Y-73790000D01*
X93929500Y-73647142D01*
X94000928Y-73575714D01*
X94143785Y-73504285D01*
X94286642Y-73504285D01*
X94429500Y-73575714D01*
X94500928Y-73647142D01*
X94572357Y-73790000D01*
X94572357Y-74290000D01*
X94358071Y-72932857D02*
X95358071Y-72575714D01*
X94358071Y-72218571D02*
X95358071Y-72575714D01*
X95715214Y-72718571D01*
X95786642Y-72790000D01*
X95858071Y-72932857D01*
X94572357Y-70004285D02*
X94643785Y-69790000D01*
X94715214Y-69718571D01*
X94858071Y-69647142D01*
X95072357Y-69647142D01*
X95215214Y-69718571D01*
X95286642Y-69790000D01*
X95358071Y-69932857D01*
X95358071Y-70504285D01*
X93858071Y-70504285D01*
X93858071Y-70004285D01*
X93929500Y-69861428D01*
X94000928Y-69790000D01*
X94143785Y-69718571D01*
X94286642Y-69718571D01*
X94429500Y-69790000D01*
X94500928Y-69861428D01*
X94572357Y-70004285D01*
X94572357Y-70504285D01*
X95358071Y-69004285D02*
X94358071Y-69004285D01*
X94643785Y-69004285D02*
X94500928Y-68932857D01*
X94429500Y-68861428D01*
X94358071Y-68718571D01*
X94358071Y-68575714D01*
X94358071Y-68218571D02*
X95358071Y-67861428D01*
X94358071Y-67504285D02*
X95358071Y-67861428D01*
X95715214Y-68004285D01*
X95786642Y-68075714D01*
X95858071Y-68218571D01*
X95286642Y-66290000D02*
X95358071Y-66432857D01*
X95358071Y-66718571D01*
X95286642Y-66861428D01*
X95215214Y-66932857D01*
X95072357Y-67004285D01*
X94643785Y-67004285D01*
X94500928Y-66932857D01*
X94429500Y-66861428D01*
X94358071Y-66718571D01*
X94358071Y-66432857D01*
X94429500Y-66290000D01*
X95286642Y-65075714D02*
X95358071Y-65218571D01*
X95358071Y-65504285D01*
X95286642Y-65647142D01*
X95143785Y-65718571D01*
X94572357Y-65718571D01*
X94429500Y-65647142D01*
X94358071Y-65504285D01*
X94358071Y-65218571D01*
X94429500Y-65075714D01*
X94572357Y-65004285D01*
X94715214Y-65004285D01*
X94858071Y-65718571D01*
X95358071Y-63218571D02*
X93858071Y-63218571D01*
X93858071Y-62861428D01*
X93929500Y-62647142D01*
X94072357Y-62504285D01*
X94215214Y-62432857D01*
X94500928Y-62361428D01*
X94715214Y-62361428D01*
X95000928Y-62432857D01*
X95143785Y-62504285D01*
X95286642Y-62647142D01*
X95358071Y-62861428D01*
X95358071Y-63218571D01*
X95358071Y-61718571D02*
X94358071Y-61718571D01*
X93858071Y-61718571D02*
X93929500Y-61790000D01*
X94000928Y-61718571D01*
X93929500Y-61647142D01*
X93858071Y-61718571D01*
X94000928Y-61718571D01*
X95358071Y-61147142D02*
X94358071Y-60361428D01*
X94358071Y-61147142D02*
X95358071Y-60361428D01*
X95358071Y-59575714D02*
X95286642Y-59718571D01*
X95215214Y-59790000D01*
X95072357Y-59861428D01*
X94643785Y-59861428D01*
X94500928Y-59790000D01*
X94429500Y-59718571D01*
X94358071Y-59575714D01*
X94358071Y-59361428D01*
X94429500Y-59218571D01*
X94500928Y-59147142D01*
X94643785Y-59075714D01*
X95072357Y-59075714D01*
X95215214Y-59147142D01*
X95286642Y-59218571D01*
X95358071Y-59361428D01*
X95358071Y-59575714D01*
X94358071Y-58432857D02*
X95358071Y-58432857D01*
X94500928Y-58432857D02*
X94429500Y-58361428D01*
X94358071Y-58218571D01*
X94358071Y-58004285D01*
X94429500Y-57861428D01*
X94572357Y-57790000D01*
X95358071Y-57790000D01*
D11*
%TO.C,*%
%TO.C,SW3*%
X54506666Y-58379761D02*
X54649523Y-58427380D01*
X54887619Y-58427380D01*
X54982857Y-58379761D01*
X55030476Y-58332142D01*
X55078095Y-58236904D01*
X55078095Y-58141666D01*
X55030476Y-58046428D01*
X54982857Y-57998809D01*
X54887619Y-57951190D01*
X54697142Y-57903571D01*
X54601904Y-57855952D01*
X54554285Y-57808333D01*
X54506666Y-57713095D01*
X54506666Y-57617857D01*
X54554285Y-57522619D01*
X54601904Y-57475000D01*
X54697142Y-57427380D01*
X54935238Y-57427380D01*
X55078095Y-57475000D01*
X55411428Y-57427380D02*
X55649523Y-58427380D01*
X55840000Y-57713095D01*
X56030476Y-58427380D01*
X56268571Y-57427380D01*
X56554285Y-57427380D02*
X57173333Y-57427380D01*
X56840000Y-57808333D01*
X56982857Y-57808333D01*
X57078095Y-57855952D01*
X57125714Y-57903571D01*
X57173333Y-57998809D01*
X57173333Y-58236904D01*
X57125714Y-58332142D01*
X57078095Y-58379761D01*
X56982857Y-58427380D01*
X56697142Y-58427380D01*
X56601904Y-58379761D01*
X56554285Y-58332142D01*
%TO.C,D8*%
X24511904Y-62632380D02*
X24511904Y-61632380D01*
X24750000Y-61632380D01*
X24892857Y-61680000D01*
X24988095Y-61775238D01*
X25035714Y-61870476D01*
X25083333Y-62060952D01*
X25083333Y-62203809D01*
X25035714Y-62394285D01*
X24988095Y-62489523D01*
X24892857Y-62584761D01*
X24750000Y-62632380D01*
X24511904Y-62632380D01*
X25654761Y-62060952D02*
X25559523Y-62013333D01*
X25511904Y-61965714D01*
X25464285Y-61870476D01*
X25464285Y-61822857D01*
X25511904Y-61727619D01*
X25559523Y-61680000D01*
X25654761Y-61632380D01*
X25845238Y-61632380D01*
X25940476Y-61680000D01*
X25988095Y-61727619D01*
X26035714Y-61822857D01*
X26035714Y-61870476D01*
X25988095Y-61965714D01*
X25940476Y-62013333D01*
X25845238Y-62060952D01*
X25654761Y-62060952D01*
X25559523Y-62108571D01*
X25511904Y-62156190D01*
X25464285Y-62251428D01*
X25464285Y-62441904D01*
X25511904Y-62537142D01*
X25559523Y-62584761D01*
X25654761Y-62632380D01*
X25845238Y-62632380D01*
X25940476Y-62584761D01*
X25988095Y-62537142D01*
X26035714Y-62441904D01*
X26035714Y-62251428D01*
X25988095Y-62156190D01*
X25940476Y-62108571D01*
X25845238Y-62060952D01*
X37688095Y-63262380D02*
X37688095Y-62262380D01*
X38259523Y-63262380D02*
X37830952Y-62690952D01*
X38259523Y-62262380D02*
X37688095Y-62833809D01*
%TO.C,D2*%
X27051904Y-30882380D02*
X27051904Y-29882380D01*
X27290000Y-29882380D01*
X27432857Y-29930000D01*
X27528095Y-30025238D01*
X27575714Y-30120476D01*
X27623333Y-30310952D01*
X27623333Y-30453809D01*
X27575714Y-30644285D01*
X27528095Y-30739523D01*
X27432857Y-30834761D01*
X27290000Y-30882380D01*
X27051904Y-30882380D01*
X28004285Y-29977619D02*
X28051904Y-29930000D01*
X28147142Y-29882380D01*
X28385238Y-29882380D01*
X28480476Y-29930000D01*
X28528095Y-29977619D01*
X28575714Y-30072857D01*
X28575714Y-30168095D01*
X28528095Y-30310952D01*
X27956666Y-30882380D01*
X28575714Y-30882380D01*
%TO.C,SW4*%
X83374761Y-85308333D02*
X83422380Y-85165476D01*
X83422380Y-84927380D01*
X83374761Y-84832142D01*
X83327142Y-84784523D01*
X83231904Y-84736904D01*
X83136666Y-84736904D01*
X83041428Y-84784523D01*
X82993809Y-84832142D01*
X82946190Y-84927380D01*
X82898571Y-85117857D01*
X82850952Y-85213095D01*
X82803333Y-85260714D01*
X82708095Y-85308333D01*
X82612857Y-85308333D01*
X82517619Y-85260714D01*
X82470000Y-85213095D01*
X82422380Y-85117857D01*
X82422380Y-84879761D01*
X82470000Y-84736904D01*
X82422380Y-84403571D02*
X83422380Y-84165476D01*
X82708095Y-83975000D01*
X83422380Y-83784523D01*
X82422380Y-83546428D01*
X82755714Y-82736904D02*
X83422380Y-82736904D01*
X82374761Y-82975000D02*
X83089047Y-83213095D01*
X83089047Y-82594047D01*
%TO.C,D3*%
X27051904Y-34692380D02*
X27051904Y-33692380D01*
X27290000Y-33692380D01*
X27432857Y-33740000D01*
X27528095Y-33835238D01*
X27575714Y-33930476D01*
X27623333Y-34120952D01*
X27623333Y-34263809D01*
X27575714Y-34454285D01*
X27528095Y-34549523D01*
X27432857Y-34644761D01*
X27290000Y-34692380D01*
X27051904Y-34692380D01*
X27956666Y-33692380D02*
X28575714Y-33692380D01*
X28242380Y-34073333D01*
X28385238Y-34073333D01*
X28480476Y-34120952D01*
X28528095Y-34168571D01*
X28575714Y-34263809D01*
X28575714Y-34501904D01*
X28528095Y-34597142D01*
X28480476Y-34644761D01*
X28385238Y-34692380D01*
X28099523Y-34692380D01*
X28004285Y-34644761D01*
X27956666Y-34597142D01*
%TO.C,D1*%
X27051904Y-27072380D02*
X27051904Y-26072380D01*
X27290000Y-26072380D01*
X27432857Y-26120000D01*
X27528095Y-26215238D01*
X27575714Y-26310476D01*
X27623333Y-26500952D01*
X27623333Y-26643809D01*
X27575714Y-26834285D01*
X27528095Y-26929523D01*
X27432857Y-27024761D01*
X27290000Y-27072380D01*
X27051904Y-27072380D01*
X28575714Y-27072380D02*
X28004285Y-27072380D01*
X28290000Y-27072380D02*
X28290000Y-26072380D01*
X28194761Y-26215238D01*
X28099523Y-26310476D01*
X28004285Y-26358095D01*
%TO.C,SW9*%
X29114761Y-84983333D02*
X29162380Y-84840476D01*
X29162380Y-84602380D01*
X29114761Y-84507142D01*
X29067142Y-84459523D01*
X28971904Y-84411904D01*
X28876666Y-84411904D01*
X28781428Y-84459523D01*
X28733809Y-84507142D01*
X28686190Y-84602380D01*
X28638571Y-84792857D01*
X28590952Y-84888095D01*
X28543333Y-84935714D01*
X28448095Y-84983333D01*
X28352857Y-84983333D01*
X28257619Y-84935714D01*
X28210000Y-84888095D01*
X28162380Y-84792857D01*
X28162380Y-84554761D01*
X28210000Y-84411904D01*
X28162380Y-84078571D02*
X29162380Y-83840476D01*
X28448095Y-83650000D01*
X29162380Y-83459523D01*
X28162380Y-83221428D01*
X29162380Y-82792857D02*
X29162380Y-82602380D01*
X29114761Y-82507142D01*
X29067142Y-82459523D01*
X28924285Y-82364285D01*
X28733809Y-82316666D01*
X28352857Y-82316666D01*
X28257619Y-82364285D01*
X28210000Y-82411904D01*
X28162380Y-82507142D01*
X28162380Y-82697619D01*
X28210000Y-82792857D01*
X28257619Y-82840476D01*
X28352857Y-82888095D01*
X28590952Y-82888095D01*
X28686190Y-82840476D01*
X28733809Y-82792857D01*
X28781428Y-82697619D01*
X28781428Y-82507142D01*
X28733809Y-82411904D01*
X28686190Y-82364285D01*
X28590952Y-82316666D01*
%TO.C,D7*%
X15621904Y-53742380D02*
X15621904Y-52742380D01*
X15860000Y-52742380D01*
X16002857Y-52790000D01*
X16098095Y-52885238D01*
X16145714Y-52980476D01*
X16193333Y-53170952D01*
X16193333Y-53313809D01*
X16145714Y-53504285D01*
X16098095Y-53599523D01*
X16002857Y-53694761D01*
X15860000Y-53742380D01*
X15621904Y-53742380D01*
X16526666Y-52742380D02*
X17193333Y-52742380D01*
X16764761Y-53742380D01*
%TO.C,D9*%
X15621904Y-49932380D02*
X15621904Y-48932380D01*
X15860000Y-48932380D01*
X16002857Y-48980000D01*
X16098095Y-49075238D01*
X16145714Y-49170476D01*
X16193333Y-49360952D01*
X16193333Y-49503809D01*
X16145714Y-49694285D01*
X16098095Y-49789523D01*
X16002857Y-49884761D01*
X15860000Y-49932380D01*
X15621904Y-49932380D01*
X16669523Y-49932380D02*
X16860000Y-49932380D01*
X16955238Y-49884761D01*
X17002857Y-49837142D01*
X17098095Y-49694285D01*
X17145714Y-49503809D01*
X17145714Y-49122857D01*
X17098095Y-49027619D01*
X17050476Y-48980000D01*
X16955238Y-48932380D01*
X16764761Y-48932380D01*
X16669523Y-48980000D01*
X16621904Y-49027619D01*
X16574285Y-49122857D01*
X16574285Y-49360952D01*
X16621904Y-49456190D01*
X16669523Y-49503809D01*
X16764761Y-49551428D01*
X16955238Y-49551428D01*
X17050476Y-49503809D01*
X17098095Y-49456190D01*
X17145714Y-49360952D01*
%TO.C,SW8*%
X33076666Y-78674761D02*
X33219523Y-78722380D01*
X33457619Y-78722380D01*
X33552857Y-78674761D01*
X33600476Y-78627142D01*
X33648095Y-78531904D01*
X33648095Y-78436666D01*
X33600476Y-78341428D01*
X33552857Y-78293809D01*
X33457619Y-78246190D01*
X33267142Y-78198571D01*
X33171904Y-78150952D01*
X33124285Y-78103333D01*
X33076666Y-78008095D01*
X33076666Y-77912857D01*
X33124285Y-77817619D01*
X33171904Y-77770000D01*
X33267142Y-77722380D01*
X33505238Y-77722380D01*
X33648095Y-77770000D01*
X33981428Y-77722380D02*
X34219523Y-78722380D01*
X34410000Y-78008095D01*
X34600476Y-78722380D01*
X34838571Y-77722380D01*
X35362380Y-78150952D02*
X35267142Y-78103333D01*
X35219523Y-78055714D01*
X35171904Y-77960476D01*
X35171904Y-77912857D01*
X35219523Y-77817619D01*
X35267142Y-77770000D01*
X35362380Y-77722380D01*
X35552857Y-77722380D01*
X35648095Y-77770000D01*
X35695714Y-77817619D01*
X35743333Y-77912857D01*
X35743333Y-77960476D01*
X35695714Y-78055714D01*
X35648095Y-78103333D01*
X35552857Y-78150952D01*
X35362380Y-78150952D01*
X35267142Y-78198571D01*
X35219523Y-78246190D01*
X35171904Y-78341428D01*
X35171904Y-78531904D01*
X35219523Y-78627142D01*
X35267142Y-78674761D01*
X35362380Y-78722380D01*
X35552857Y-78722380D01*
X35648095Y-78674761D01*
X35695714Y-78627142D01*
X35743333Y-78531904D01*
X35743333Y-78341428D01*
X35695714Y-78246190D01*
X35648095Y-78198571D01*
X35552857Y-78150952D01*
%TO.C,SW2*%
X72294761Y-84988333D02*
X72342380Y-84845476D01*
X72342380Y-84607380D01*
X72294761Y-84512142D01*
X72247142Y-84464523D01*
X72151904Y-84416904D01*
X72056666Y-84416904D01*
X71961428Y-84464523D01*
X71913809Y-84512142D01*
X71866190Y-84607380D01*
X71818571Y-84797857D01*
X71770952Y-84893095D01*
X71723333Y-84940714D01*
X71628095Y-84988333D01*
X71532857Y-84988333D01*
X71437619Y-84940714D01*
X71390000Y-84893095D01*
X71342380Y-84797857D01*
X71342380Y-84559761D01*
X71390000Y-84416904D01*
X71342380Y-84083571D02*
X72342380Y-83845476D01*
X71628095Y-83655000D01*
X72342380Y-83464523D01*
X71342380Y-83226428D01*
X71437619Y-82893095D02*
X71390000Y-82845476D01*
X71342380Y-82750238D01*
X71342380Y-82512142D01*
X71390000Y-82416904D01*
X71437619Y-82369285D01*
X71532857Y-82321666D01*
X71628095Y-82321666D01*
X71770952Y-82369285D01*
X72342380Y-82940714D01*
X72342380Y-82321666D01*
%TO.C,R4*%
X71758333Y-53742380D02*
X71425000Y-53266190D01*
X71186904Y-53742380D02*
X71186904Y-52742380D01*
X71567857Y-52742380D01*
X71663095Y-52790000D01*
X71710714Y-52837619D01*
X71758333Y-52932857D01*
X71758333Y-53075714D01*
X71710714Y-53170952D01*
X71663095Y-53218571D01*
X71567857Y-53266190D01*
X71186904Y-53266190D01*
X72615476Y-53075714D02*
X72615476Y-53742380D01*
X72377380Y-52694761D02*
X72139285Y-53409047D01*
X72758333Y-53409047D01*
%TO.C,D5*%
X54991904Y-28342380D02*
X54991904Y-27342380D01*
X55230000Y-27342380D01*
X55372857Y-27390000D01*
X55468095Y-27485238D01*
X55515714Y-27580476D01*
X55563333Y-27770952D01*
X55563333Y-27913809D01*
X55515714Y-28104285D01*
X55468095Y-28199523D01*
X55372857Y-28294761D01*
X55230000Y-28342380D01*
X54991904Y-28342380D01*
X56468095Y-27342380D02*
X55991904Y-27342380D01*
X55944285Y-27818571D01*
X55991904Y-27770952D01*
X56087142Y-27723333D01*
X56325238Y-27723333D01*
X56420476Y-27770952D01*
X56468095Y-27818571D01*
X56515714Y-27913809D01*
X56515714Y-28151904D01*
X56468095Y-28247142D01*
X56420476Y-28294761D01*
X56325238Y-28342380D01*
X56087142Y-28342380D01*
X55991904Y-28294761D01*
X55944285Y-28247142D01*
%TO.C,U4*%
X93703095Y-17397380D02*
X93703095Y-18206904D01*
X93750714Y-18302142D01*
X93798333Y-18349761D01*
X93893571Y-18397380D01*
X94084047Y-18397380D01*
X94179285Y-18349761D01*
X94226904Y-18302142D01*
X94274523Y-18206904D01*
X94274523Y-17397380D01*
X95179285Y-17730714D02*
X95179285Y-18397380D01*
X94941190Y-17349761D02*
X94703095Y-18064047D01*
X95322142Y-18064047D01*
%TO.C,J1*%
X70632380Y-43463333D02*
X71346666Y-43463333D01*
X71489523Y-43510952D01*
X71584761Y-43606190D01*
X71632380Y-43749047D01*
X71632380Y-43844285D01*
X71632380Y-42463333D02*
X71632380Y-43034761D01*
X71632380Y-42749047D02*
X70632380Y-42749047D01*
X70775238Y-42844285D01*
X70870476Y-42939523D01*
X70918095Y-43034761D01*
%TO.C,SW1*%
X75936666Y-89759761D02*
X76079523Y-89807380D01*
X76317619Y-89807380D01*
X76412857Y-89759761D01*
X76460476Y-89712142D01*
X76508095Y-89616904D01*
X76508095Y-89521666D01*
X76460476Y-89426428D01*
X76412857Y-89378809D01*
X76317619Y-89331190D01*
X76127142Y-89283571D01*
X76031904Y-89235952D01*
X75984285Y-89188333D01*
X75936666Y-89093095D01*
X75936666Y-88997857D01*
X75984285Y-88902619D01*
X76031904Y-88855000D01*
X76127142Y-88807380D01*
X76365238Y-88807380D01*
X76508095Y-88855000D01*
X76841428Y-88807380D02*
X77079523Y-89807380D01*
X77270000Y-89093095D01*
X77460476Y-89807380D01*
X77698571Y-88807380D01*
X78603333Y-89807380D02*
X78031904Y-89807380D01*
X78317619Y-89807380D02*
X78317619Y-88807380D01*
X78222380Y-88950238D01*
X78127142Y-89045476D01*
X78031904Y-89093095D01*
%TO.C,SW7*%
X32756666Y-89754761D02*
X32899523Y-89802380D01*
X33137619Y-89802380D01*
X33232857Y-89754761D01*
X33280476Y-89707142D01*
X33328095Y-89611904D01*
X33328095Y-89516666D01*
X33280476Y-89421428D01*
X33232857Y-89373809D01*
X33137619Y-89326190D01*
X32947142Y-89278571D01*
X32851904Y-89230952D01*
X32804285Y-89183333D01*
X32756666Y-89088095D01*
X32756666Y-88992857D01*
X32804285Y-88897619D01*
X32851904Y-88850000D01*
X32947142Y-88802380D01*
X33185238Y-88802380D01*
X33328095Y-88850000D01*
X33661428Y-88802380D02*
X33899523Y-89802380D01*
X34090000Y-89088095D01*
X34280476Y-89802380D01*
X34518571Y-88802380D01*
X34804285Y-88802380D02*
X35470952Y-88802380D01*
X35042380Y-89802380D01*
%TO.C,R3*%
X82548333Y-53742380D02*
X82215000Y-53266190D01*
X81976904Y-53742380D02*
X81976904Y-52742380D01*
X82357857Y-52742380D01*
X82453095Y-52790000D01*
X82500714Y-52837619D01*
X82548333Y-52932857D01*
X82548333Y-53075714D01*
X82500714Y-53170952D01*
X82453095Y-53218571D01*
X82357857Y-53266190D01*
X81976904Y-53266190D01*
X82881666Y-52742380D02*
X83500714Y-52742380D01*
X83167380Y-53123333D01*
X83310238Y-53123333D01*
X83405476Y-53170952D01*
X83453095Y-53218571D01*
X83500714Y-53313809D01*
X83500714Y-53551904D01*
X83453095Y-53647142D01*
X83405476Y-53694761D01*
X83310238Y-53742380D01*
X83024523Y-53742380D01*
X82929285Y-53694761D01*
X82881666Y-53647142D01*
%TO.C,U3*%
X37188095Y-40252380D02*
X37188095Y-41061904D01*
X37235714Y-41157142D01*
X37283333Y-41204761D01*
X37378571Y-41252380D01*
X37569047Y-41252380D01*
X37664285Y-41204761D01*
X37711904Y-41157142D01*
X37759523Y-41061904D01*
X37759523Y-40252380D01*
X38140476Y-40252380D02*
X38759523Y-40252380D01*
X38426190Y-40633333D01*
X38569047Y-40633333D01*
X38664285Y-40680952D01*
X38711904Y-40728571D01*
X38759523Y-40823809D01*
X38759523Y-41061904D01*
X38711904Y-41157142D01*
X38664285Y-41204761D01*
X38569047Y-41252380D01*
X38283333Y-41252380D01*
X38188095Y-41204761D01*
X38140476Y-41157142D01*
%TO.C,SW6*%
X40194761Y-85303333D02*
X40242380Y-85160476D01*
X40242380Y-84922380D01*
X40194761Y-84827142D01*
X40147142Y-84779523D01*
X40051904Y-84731904D01*
X39956666Y-84731904D01*
X39861428Y-84779523D01*
X39813809Y-84827142D01*
X39766190Y-84922380D01*
X39718571Y-85112857D01*
X39670952Y-85208095D01*
X39623333Y-85255714D01*
X39528095Y-85303333D01*
X39432857Y-85303333D01*
X39337619Y-85255714D01*
X39290000Y-85208095D01*
X39242380Y-85112857D01*
X39242380Y-84874761D01*
X39290000Y-84731904D01*
X39242380Y-84398571D02*
X40242380Y-84160476D01*
X39528095Y-83970000D01*
X40242380Y-83779523D01*
X39242380Y-83541428D01*
X39242380Y-82731904D02*
X39242380Y-82922380D01*
X39290000Y-83017619D01*
X39337619Y-83065238D01*
X39480476Y-83160476D01*
X39670952Y-83208095D01*
X40051904Y-83208095D01*
X40147142Y-83160476D01*
X40194761Y-83112857D01*
X40242380Y-83017619D01*
X40242380Y-82827142D01*
X40194761Y-82731904D01*
X40147142Y-82684285D01*
X40051904Y-82636666D01*
X39813809Y-82636666D01*
X39718571Y-82684285D01*
X39670952Y-82731904D01*
X39623333Y-82827142D01*
X39623333Y-83017619D01*
X39670952Y-83112857D01*
X39718571Y-83160476D01*
X39813809Y-83208095D01*
%TO.C,SW5*%
X76366666Y-78719761D02*
X76509523Y-78767380D01*
X76747619Y-78767380D01*
X76842857Y-78719761D01*
X76890476Y-78672142D01*
X76938095Y-78576904D01*
X76938095Y-78481666D01*
X76890476Y-78386428D01*
X76842857Y-78338809D01*
X76747619Y-78291190D01*
X76557142Y-78243571D01*
X76461904Y-78195952D01*
X76414285Y-78148333D01*
X76366666Y-78053095D01*
X76366666Y-77957857D01*
X76414285Y-77862619D01*
X76461904Y-77815000D01*
X76557142Y-77767380D01*
X76795238Y-77767380D01*
X76938095Y-77815000D01*
X77271428Y-77767380D02*
X77509523Y-78767380D01*
X77700000Y-78053095D01*
X77890476Y-78767380D01*
X78128571Y-77767380D01*
X78985714Y-77767380D02*
X78509523Y-77767380D01*
X78461904Y-78243571D01*
X78509523Y-78195952D01*
X78604761Y-78148333D01*
X78842857Y-78148333D01*
X78938095Y-78195952D01*
X78985714Y-78243571D01*
X79033333Y-78338809D01*
X79033333Y-78576904D01*
X78985714Y-78672142D01*
X78938095Y-78719761D01*
X78842857Y-78767380D01*
X78604761Y-78767380D01*
X78509523Y-78719761D01*
X78461904Y-78672142D01*
%TO.C,D6*%
X54991904Y-32152380D02*
X54991904Y-31152380D01*
X55230000Y-31152380D01*
X55372857Y-31200000D01*
X55468095Y-31295238D01*
X55515714Y-31390476D01*
X55563333Y-31580952D01*
X55563333Y-31723809D01*
X55515714Y-31914285D01*
X55468095Y-32009523D01*
X55372857Y-32104761D01*
X55230000Y-32152380D01*
X54991904Y-32152380D01*
X56420476Y-31152380D02*
X56230000Y-31152380D01*
X56134761Y-31200000D01*
X56087142Y-31247619D01*
X55991904Y-31390476D01*
X55944285Y-31580952D01*
X55944285Y-31961904D01*
X55991904Y-32057142D01*
X56039523Y-32104761D01*
X56134761Y-32152380D01*
X56325238Y-32152380D01*
X56420476Y-32104761D01*
X56468095Y-32057142D01*
X56515714Y-31961904D01*
X56515714Y-31723809D01*
X56468095Y-31628571D01*
X56420476Y-31580952D01*
X56325238Y-31533333D01*
X56134761Y-31533333D01*
X56039523Y-31580952D01*
X55991904Y-31628571D01*
X55944285Y-31723809D01*
%TO.C,D4*%
X54991904Y-24532380D02*
X54991904Y-23532380D01*
X55230000Y-23532380D01*
X55372857Y-23580000D01*
X55468095Y-23675238D01*
X55515714Y-23770476D01*
X55563333Y-23960952D01*
X55563333Y-24103809D01*
X55515714Y-24294285D01*
X55468095Y-24389523D01*
X55372857Y-24484761D01*
X55230000Y-24532380D01*
X54991904Y-24532380D01*
X56420476Y-23865714D02*
X56420476Y-24532380D01*
X56182380Y-23484761D02*
X55944285Y-24199047D01*
X56563333Y-24199047D01*
%TO.C,SW10*%
X78784761Y-17004523D02*
X78832380Y-16861666D01*
X78832380Y-16623571D01*
X78784761Y-16528333D01*
X78737142Y-16480714D01*
X78641904Y-16433095D01*
X78546666Y-16433095D01*
X78451428Y-16480714D01*
X78403809Y-16528333D01*
X78356190Y-16623571D01*
X78308571Y-16814047D01*
X78260952Y-16909285D01*
X78213333Y-16956904D01*
X78118095Y-17004523D01*
X78022857Y-17004523D01*
X77927619Y-16956904D01*
X77880000Y-16909285D01*
X77832380Y-16814047D01*
X77832380Y-16575952D01*
X77880000Y-16433095D01*
X77832380Y-16099761D02*
X78832380Y-15861666D01*
X78118095Y-15671190D01*
X78832380Y-15480714D01*
X77832380Y-15242619D01*
X78832380Y-14337857D02*
X78832380Y-14909285D01*
X78832380Y-14623571D02*
X77832380Y-14623571D01*
X77975238Y-14718809D01*
X78070476Y-14814047D01*
X78118095Y-14909285D01*
X77832380Y-13718809D02*
X77832380Y-13623571D01*
X77880000Y-13528333D01*
X77927619Y-13480714D01*
X78022857Y-13433095D01*
X78213333Y-13385476D01*
X78451428Y-13385476D01*
X78641904Y-13433095D01*
X78737142Y-13480714D01*
X78784761Y-13528333D01*
X78832380Y-13623571D01*
X78832380Y-13718809D01*
X78784761Y-13814047D01*
X78737142Y-13861666D01*
X78641904Y-13909285D01*
X78451428Y-13956904D01*
X78213333Y-13956904D01*
X78022857Y-13909285D01*
X77927619Y-13861666D01*
X77880000Y-13814047D01*
X77832380Y-13718809D01*
X70018095Y-18187380D02*
X70018095Y-17187380D01*
X70399047Y-17187380D01*
X70494285Y-17235000D01*
X70541904Y-17282619D01*
X70589523Y-17377857D01*
X70589523Y-17520714D01*
X70541904Y-17615952D01*
X70494285Y-17663571D01*
X70399047Y-17711190D01*
X70018095Y-17711190D01*
X71160952Y-18187380D02*
X71065714Y-18139761D01*
X71018095Y-18092142D01*
X70970476Y-17996904D01*
X70970476Y-17711190D01*
X71018095Y-17615952D01*
X71065714Y-17568333D01*
X71160952Y-17520714D01*
X71303809Y-17520714D01*
X71399047Y-17568333D01*
X71446666Y-17615952D01*
X71494285Y-17711190D01*
X71494285Y-17996904D01*
X71446666Y-18092142D01*
X71399047Y-18139761D01*
X71303809Y-18187380D01*
X71160952Y-18187380D01*
X71827619Y-17520714D02*
X72018095Y-18187380D01*
X72208571Y-17711190D01*
X72399047Y-18187380D01*
X72589523Y-17520714D01*
X73351428Y-18139761D02*
X73256190Y-18187380D01*
X73065714Y-18187380D01*
X72970476Y-18139761D01*
X72922857Y-18044523D01*
X72922857Y-17663571D01*
X72970476Y-17568333D01*
X73065714Y-17520714D01*
X73256190Y-17520714D01*
X73351428Y-17568333D01*
X73399047Y-17663571D01*
X73399047Y-17758809D01*
X72922857Y-17854047D01*
X73827619Y-18187380D02*
X73827619Y-17520714D01*
X73827619Y-17711190D02*
X73875238Y-17615952D01*
X73922857Y-17568333D01*
X74018095Y-17520714D01*
X74113333Y-17520714D01*
X75160952Y-18139761D02*
X75303809Y-18187380D01*
X75541904Y-18187380D01*
X75637142Y-18139761D01*
X75684761Y-18092142D01*
X75732380Y-17996904D01*
X75732380Y-17901666D01*
X75684761Y-17806428D01*
X75637142Y-17758809D01*
X75541904Y-17711190D01*
X75351428Y-17663571D01*
X75256190Y-17615952D01*
X75208571Y-17568333D01*
X75160952Y-17473095D01*
X75160952Y-17377857D01*
X75208571Y-17282619D01*
X75256190Y-17235000D01*
X75351428Y-17187380D01*
X75589523Y-17187380D01*
X75732380Y-17235000D01*
X76065714Y-17520714D02*
X76256190Y-18187380D01*
X76446666Y-17711190D01*
X76637142Y-18187380D01*
X76827619Y-17520714D01*
X77208571Y-18187380D02*
X77208571Y-17520714D01*
X77208571Y-17187380D02*
X77160952Y-17235000D01*
X77208571Y-17282619D01*
X77256190Y-17235000D01*
X77208571Y-17187380D01*
X77208571Y-17282619D01*
X77541904Y-17520714D02*
X77922857Y-17520714D01*
X77684761Y-17187380D02*
X77684761Y-18044523D01*
X77732380Y-18139761D01*
X77827619Y-18187380D01*
X77922857Y-18187380D01*
X78684761Y-18139761D02*
X78589523Y-18187380D01*
X78399047Y-18187380D01*
X78303809Y-18139761D01*
X78256190Y-18092142D01*
X78208571Y-17996904D01*
X78208571Y-17711190D01*
X78256190Y-17615952D01*
X78303809Y-17568333D01*
X78399047Y-17520714D01*
X78589523Y-17520714D01*
X78684761Y-17568333D01*
X79113333Y-18187380D02*
X79113333Y-17187380D01*
X79541904Y-18187380D02*
X79541904Y-17663571D01*
X79494285Y-17568333D01*
X79399047Y-17520714D01*
X79256190Y-17520714D01*
X79160952Y-17568333D01*
X79113333Y-17615952D01*
%TO.C,U2*%
X74653095Y-22897380D02*
X74653095Y-23706904D01*
X74700714Y-23802142D01*
X74748333Y-23849761D01*
X74843571Y-23897380D01*
X75034047Y-23897380D01*
X75129285Y-23849761D01*
X75176904Y-23802142D01*
X75224523Y-23706904D01*
X75224523Y-22897380D01*
X75653095Y-22992619D02*
X75700714Y-22945000D01*
X75795952Y-22897380D01*
X76034047Y-22897380D01*
X76129285Y-22945000D01*
X76176904Y-22992619D01*
X76224523Y-23087857D01*
X76224523Y-23183095D01*
X76176904Y-23325952D01*
X75605476Y-23897380D01*
X76224523Y-23897380D01*
X30164285Y-22267380D02*
X30402380Y-23267380D01*
X30592857Y-22553095D01*
X30783333Y-23267380D01*
X31021428Y-22267380D01*
X31830952Y-23267380D02*
X31830952Y-22743571D01*
X31783333Y-22648333D01*
X31688095Y-22600714D01*
X31497619Y-22600714D01*
X31402380Y-22648333D01*
X31830952Y-23219761D02*
X31735714Y-23267380D01*
X31497619Y-23267380D01*
X31402380Y-23219761D01*
X31354761Y-23124523D01*
X31354761Y-23029285D01*
X31402380Y-22934047D01*
X31497619Y-22886428D01*
X31735714Y-22886428D01*
X31830952Y-22838809D01*
X32211904Y-22600714D02*
X32450000Y-23267380D01*
X32688095Y-22600714D01*
X33450000Y-23219761D02*
X33354761Y-23267380D01*
X33164285Y-23267380D01*
X33069047Y-23219761D01*
X33021428Y-23124523D01*
X33021428Y-22743571D01*
X33069047Y-22648333D01*
X33164285Y-22600714D01*
X33354761Y-22600714D01*
X33450000Y-22648333D01*
X33497619Y-22743571D01*
X33497619Y-22838809D01*
X33021428Y-22934047D01*
X33878571Y-23219761D02*
X33973809Y-23267380D01*
X34164285Y-23267380D01*
X34259523Y-23219761D01*
X34307142Y-23124523D01*
X34307142Y-23076904D01*
X34259523Y-22981666D01*
X34164285Y-22934047D01*
X34021428Y-22934047D01*
X33926190Y-22886428D01*
X33878571Y-22791190D01*
X33878571Y-22743571D01*
X33926190Y-22648333D01*
X34021428Y-22600714D01*
X34164285Y-22600714D01*
X34259523Y-22648333D01*
X34735714Y-23267380D02*
X34735714Y-22267380D01*
X35164285Y-23267380D02*
X35164285Y-22743571D01*
X35116666Y-22648333D01*
X35021428Y-22600714D01*
X34878571Y-22600714D01*
X34783333Y-22648333D01*
X34735714Y-22695952D01*
X36069047Y-23267380D02*
X36069047Y-22743571D01*
X36021428Y-22648333D01*
X35926190Y-22600714D01*
X35735714Y-22600714D01*
X35640476Y-22648333D01*
X36069047Y-23219761D02*
X35973809Y-23267380D01*
X35735714Y-23267380D01*
X35640476Y-23219761D01*
X35592857Y-23124523D01*
X35592857Y-23029285D01*
X35640476Y-22934047D01*
X35735714Y-22886428D01*
X35973809Y-22886428D01*
X36069047Y-22838809D01*
X36545238Y-23267380D02*
X36545238Y-22600714D01*
X36545238Y-22791190D02*
X36592857Y-22695952D01*
X36640476Y-22648333D01*
X36735714Y-22600714D01*
X36830952Y-22600714D01*
X37545238Y-23219761D02*
X37450000Y-23267380D01*
X37259523Y-23267380D01*
X37164285Y-23219761D01*
X37116666Y-23124523D01*
X37116666Y-22743571D01*
X37164285Y-22648333D01*
X37259523Y-22600714D01*
X37450000Y-22600714D01*
X37545238Y-22648333D01*
X37592857Y-22743571D01*
X37592857Y-22838809D01*
X37116666Y-22934047D01*
X37783333Y-23362619D02*
X38545238Y-23362619D01*
X39307142Y-23267380D02*
X38735714Y-23267380D01*
X39021428Y-23267380D02*
X39021428Y-22267380D01*
X38926190Y-22410238D01*
X38830952Y-22505476D01*
X38735714Y-22553095D01*
X39735714Y-23172142D02*
X39783333Y-23219761D01*
X39735714Y-23267380D01*
X39688095Y-23219761D01*
X39735714Y-23172142D01*
X39735714Y-23267380D01*
X40354761Y-22695952D02*
X40259523Y-22648333D01*
X40211904Y-22600714D01*
X40164285Y-22505476D01*
X40164285Y-22457857D01*
X40211904Y-22362619D01*
X40259523Y-22315000D01*
X40354761Y-22267380D01*
X40545238Y-22267380D01*
X40640476Y-22315000D01*
X40688095Y-22362619D01*
X40735714Y-22457857D01*
X40735714Y-22505476D01*
X40688095Y-22600714D01*
X40640476Y-22648333D01*
X40545238Y-22695952D01*
X40354761Y-22695952D01*
X40259523Y-22743571D01*
X40211904Y-22791190D01*
X40164285Y-22886428D01*
X40164285Y-23076904D01*
X40211904Y-23172142D01*
X40259523Y-23219761D01*
X40354761Y-23267380D01*
X40545238Y-23267380D01*
X40640476Y-23219761D01*
X40688095Y-23172142D01*
X40735714Y-23076904D01*
X40735714Y-22886428D01*
X40688095Y-22791190D01*
X40640476Y-22743571D01*
X40545238Y-22695952D01*
X41164285Y-23267380D02*
X41164285Y-22600714D01*
X41164285Y-22267380D02*
X41116666Y-22315000D01*
X41164285Y-22362619D01*
X41211904Y-22315000D01*
X41164285Y-22267380D01*
X41164285Y-22362619D01*
X41640476Y-22600714D02*
X41640476Y-23267380D01*
X41640476Y-22695952D02*
X41688095Y-22648333D01*
X41783333Y-22600714D01*
X41926190Y-22600714D01*
X42021428Y-22648333D01*
X42069047Y-22743571D01*
X42069047Y-23267380D01*
X42307142Y-23362619D02*
X43069047Y-23362619D01*
X43783333Y-23267380D02*
X43307142Y-23267380D01*
X43307142Y-22267380D01*
X44688095Y-23172142D02*
X44640476Y-23219761D01*
X44497619Y-23267380D01*
X44402380Y-23267380D01*
X44259523Y-23219761D01*
X44164285Y-23124523D01*
X44116666Y-23029285D01*
X44069047Y-22838809D01*
X44069047Y-22695952D01*
X44116666Y-22505476D01*
X44164285Y-22410238D01*
X44259523Y-22315000D01*
X44402380Y-22267380D01*
X44497619Y-22267380D01*
X44640476Y-22315000D01*
X44688095Y-22362619D01*
X45116666Y-23267380D02*
X45116666Y-22267380D01*
X45354761Y-22267380D01*
X45497619Y-22315000D01*
X45592857Y-22410238D01*
X45640476Y-22505476D01*
X45688095Y-22695952D01*
X45688095Y-22838809D01*
X45640476Y-23029285D01*
X45592857Y-23124523D01*
X45497619Y-23219761D01*
X45354761Y-23267380D01*
X45116666Y-23267380D01*
D12*
%TO.C,SW3*%
X53590000Y-65475000D02*
X58090000Y-65475000D01*
X52340000Y-61475000D02*
X52340000Y-62975000D01*
X59340000Y-62975000D02*
X59340000Y-61475000D01*
X58090000Y-58975000D02*
X53590000Y-58975000D01*
%TO.C,D8*%
X36810000Y-60910000D02*
X35590000Y-60910000D01*
X30150000Y-59440000D02*
X30150000Y-62380000D01*
X34690000Y-62380000D02*
X34690000Y-59440000D01*
X34810000Y-62380000D02*
X34810000Y-59440000D01*
X35590000Y-59440000D02*
X30150000Y-59440000D01*
X30150000Y-62380000D02*
X35590000Y-62380000D01*
X35590000Y-62380000D02*
X35590000Y-59440000D01*
X28930000Y-60910000D02*
X30150000Y-60910000D01*
X34570000Y-62380000D02*
X34570000Y-59440000D01*
%TO.C,D2*%
X37230000Y-30630000D02*
X37230000Y-27690000D01*
X32690000Y-30630000D02*
X38130000Y-30630000D01*
X39350000Y-29160000D02*
X38130000Y-29160000D01*
X38130000Y-30630000D02*
X38130000Y-27690000D01*
X38130000Y-27690000D02*
X32690000Y-27690000D01*
X37110000Y-30630000D02*
X37110000Y-27690000D01*
X31470000Y-29160000D02*
X32690000Y-29160000D01*
X37350000Y-30630000D02*
X37350000Y-27690000D01*
X32690000Y-27690000D02*
X32690000Y-30630000D01*
%TO.C,SW4*%
X83980000Y-89955000D02*
X83980000Y-77655000D01*
X88560000Y-77655000D02*
X91700000Y-77655000D01*
X96280000Y-77655000D02*
X96280000Y-89955000D01*
X93560000Y-77655000D02*
X96280000Y-77655000D01*
X86700000Y-89955000D02*
X83980000Y-89955000D01*
X91700000Y-89955000D02*
X88560000Y-89955000D01*
X83980000Y-77655000D02*
X86700000Y-77655000D01*
X96280000Y-89955000D02*
X93560000Y-89955000D01*
X94749050Y-83705000D02*
G75*
G03*
X94749050Y-83705000I-4579050J0D01*
G01*
%TO.C,D3*%
X31470000Y-32970000D02*
X32690000Y-32970000D01*
X37230000Y-34440000D02*
X37230000Y-31500000D01*
X37110000Y-34440000D02*
X37110000Y-31500000D01*
X37350000Y-34440000D02*
X37350000Y-31500000D01*
X38130000Y-31500000D02*
X32690000Y-31500000D01*
X39350000Y-32970000D02*
X38130000Y-32970000D01*
X38130000Y-34440000D02*
X38130000Y-31500000D01*
X32690000Y-31500000D02*
X32690000Y-34440000D01*
X32690000Y-34440000D02*
X38130000Y-34440000D01*
%TO.C,D1*%
X32690000Y-26820000D02*
X38130000Y-26820000D01*
X37350000Y-26820000D02*
X37350000Y-23880000D01*
X37230000Y-26820000D02*
X37230000Y-23880000D01*
X32690000Y-23880000D02*
X32690000Y-26820000D01*
X39350000Y-25350000D02*
X38130000Y-25350000D01*
X38130000Y-26820000D02*
X38130000Y-23880000D01*
X38130000Y-23880000D02*
X32690000Y-23880000D01*
X37110000Y-26820000D02*
X37110000Y-23880000D01*
X31470000Y-25350000D02*
X32690000Y-25350000D01*
%TO.C,SW9*%
X15400000Y-77670000D02*
X18120000Y-77670000D01*
X18120000Y-89970000D02*
X15400000Y-89970000D01*
X19980000Y-77670000D02*
X23120000Y-77670000D01*
X27700000Y-77670000D02*
X27700000Y-89970000D01*
X27700000Y-89970000D02*
X24980000Y-89970000D01*
X24980000Y-77670000D02*
X27700000Y-77670000D01*
X15400000Y-89970000D02*
X15400000Y-77670000D01*
X23120000Y-89970000D02*
X19980000Y-89970000D01*
X26089050Y-83920000D02*
G75*
G03*
X26089050Y-83920000I-4579050J0D01*
G01*
%TO.C,D7*%
X25680000Y-53490000D02*
X25680000Y-50550000D01*
X21260000Y-50550000D02*
X21260000Y-53490000D01*
X26700000Y-53490000D02*
X26700000Y-50550000D01*
X25920000Y-53490000D02*
X25920000Y-50550000D01*
X26700000Y-50550000D02*
X21260000Y-50550000D01*
X21260000Y-53490000D02*
X26700000Y-53490000D01*
X27920000Y-52020000D02*
X26700000Y-52020000D01*
X20040000Y-52020000D02*
X21260000Y-52020000D01*
X25800000Y-53490000D02*
X25800000Y-50550000D01*
%TO.C,D9*%
X21260000Y-49680000D02*
X26700000Y-49680000D01*
X25680000Y-49680000D02*
X25680000Y-46740000D01*
X25920000Y-49680000D02*
X25920000Y-46740000D01*
X25800000Y-49680000D02*
X25800000Y-46740000D01*
X26700000Y-46740000D02*
X21260000Y-46740000D01*
X20040000Y-48210000D02*
X21260000Y-48210000D01*
X26700000Y-49680000D02*
X26700000Y-46740000D01*
X21260000Y-46740000D02*
X21260000Y-49680000D01*
X27920000Y-48210000D02*
X26700000Y-48210000D01*
%TO.C,SW8*%
X40390000Y-64960000D02*
X40390000Y-67680000D01*
X28090000Y-72680000D02*
X28090000Y-69540000D01*
X28090000Y-67680000D02*
X28090000Y-64960000D01*
X28090000Y-64960000D02*
X40390000Y-64960000D01*
X28090000Y-77260000D02*
X28090000Y-74540000D01*
X40390000Y-69540000D02*
X40390000Y-72680000D01*
X40390000Y-74540000D02*
X40390000Y-77260000D01*
X40390000Y-77260000D02*
X28090000Y-77260000D01*
X38719050Y-71070000D02*
G75*
G03*
X38719050Y-71070000I-4579050J0D01*
G01*
%TO.C,SW2*%
X63160000Y-77675000D02*
X66300000Y-77675000D01*
X70880000Y-77675000D02*
X70880000Y-89975000D01*
X68160000Y-77675000D02*
X70880000Y-77675000D01*
X58580000Y-89975000D02*
X58580000Y-77675000D01*
X58580000Y-77675000D02*
X61300000Y-77675000D01*
X61300000Y-89975000D02*
X58580000Y-89975000D01*
X70880000Y-89975000D02*
X68160000Y-89975000D01*
X66300000Y-89975000D02*
X63160000Y-89975000D01*
X69269050Y-83925000D02*
G75*
G03*
X69269050Y-83925000I-4579050J0D01*
G01*
%TO.C,R4*%
X74872936Y-54025000D02*
X75327064Y-54025000D01*
X74872936Y-52555000D02*
X75327064Y-52555000D01*
%TO.C,D5*%
X52050000Y-29160000D02*
X50830000Y-29160000D01*
X50830000Y-27690000D02*
X45390000Y-27690000D01*
X46290000Y-27690000D02*
X46290000Y-30630000D01*
X45390000Y-30630000D02*
X50830000Y-30630000D01*
X50830000Y-30630000D02*
X50830000Y-27690000D01*
X45390000Y-27690000D02*
X45390000Y-30630000D01*
X46410000Y-27690000D02*
X46410000Y-30630000D01*
X44170000Y-29160000D02*
X45390000Y-29160000D01*
X46170000Y-27690000D02*
X46170000Y-30630000D01*
%TO.C,U4*%
X93135000Y-21545000D02*
X93135000Y-31765000D01*
X93135000Y-18945000D02*
X94465000Y-18945000D01*
X95795000Y-21545000D02*
X95795000Y-31765000D01*
X93135000Y-20275000D02*
X93135000Y-18945000D01*
X93135000Y-31765000D02*
X95795000Y-31765000D01*
X93135000Y-21545000D02*
X95795000Y-21545000D01*
%TO.C,J1*%
X74780000Y-41800000D02*
X82460000Y-41800000D01*
X73510000Y-44460000D02*
X72180000Y-44460000D01*
X74780000Y-44460000D02*
X74780000Y-41800000D01*
X82460000Y-44460000D02*
X82460000Y-41800000D01*
X74780000Y-44460000D02*
X82460000Y-44460000D01*
X72180000Y-44460000D02*
X72180000Y-43130000D01*
%TO.C,SW1*%
X71290000Y-98085000D02*
X71290000Y-94945000D01*
X71290000Y-102665000D02*
X71290000Y-99945000D01*
X71290000Y-90365000D02*
X83590000Y-90365000D01*
X83590000Y-102665000D02*
X71290000Y-102665000D01*
X83590000Y-90365000D02*
X83590000Y-93085000D01*
X83590000Y-94945000D02*
X83590000Y-98085000D01*
X83590000Y-99945000D02*
X83590000Y-102665000D01*
X71290000Y-93085000D02*
X71290000Y-90365000D01*
X82119050Y-96555000D02*
G75*
G03*
X82119050Y-96555000I-4579050J0D01*
G01*
%TO.C,SW7*%
X28110000Y-98080000D02*
X28110000Y-94940000D01*
X40410000Y-90360000D02*
X40410000Y-93080000D01*
X28110000Y-102660000D02*
X28110000Y-99940000D01*
X40410000Y-102660000D02*
X28110000Y-102660000D01*
X28110000Y-93080000D02*
X28110000Y-90360000D01*
X40410000Y-99940000D02*
X40410000Y-102660000D01*
X28110000Y-90360000D02*
X40410000Y-90360000D01*
X40410000Y-94940000D02*
X40410000Y-98080000D01*
X38939050Y-96550000D02*
G75*
G03*
X38939050Y-96550000I-4579050J0D01*
G01*
%TO.C,R3*%
X79312936Y-52555000D02*
X79767064Y-52555000D01*
X79312936Y-54025000D02*
X79767064Y-54025000D01*
%TO.C,U3*%
X36620000Y-44400000D02*
X39280000Y-44400000D01*
X36620000Y-57160000D02*
X39280000Y-57160000D01*
X39280000Y-44400000D02*
X39280000Y-57160000D01*
X36620000Y-41800000D02*
X37950000Y-41800000D01*
X36620000Y-43130000D02*
X36620000Y-41800000D01*
X36620000Y-44400000D02*
X36620000Y-57160000D01*
%TO.C,SW6*%
X43520000Y-89950000D02*
X40800000Y-89950000D01*
X45380000Y-77650000D02*
X48520000Y-77650000D01*
X53100000Y-89950000D02*
X50380000Y-89950000D01*
X50380000Y-77650000D02*
X53100000Y-77650000D01*
X40800000Y-89950000D02*
X40800000Y-77650000D01*
X48520000Y-89950000D02*
X45380000Y-89950000D01*
X40800000Y-77650000D02*
X43520000Y-77650000D01*
X53100000Y-77650000D02*
X53100000Y-89950000D01*
X51569050Y-83700000D02*
G75*
G03*
X51569050Y-83700000I-4579050J0D01*
G01*
%TO.C,SW5*%
X71380000Y-65005000D02*
X83680000Y-65005000D01*
X83680000Y-65005000D02*
X83680000Y-67725000D01*
X83680000Y-77305000D02*
X71380000Y-77305000D01*
X83680000Y-74585000D02*
X83680000Y-77305000D01*
X71380000Y-77305000D02*
X71380000Y-74585000D01*
X83680000Y-69585000D02*
X83680000Y-72725000D01*
X71380000Y-67725000D02*
X71380000Y-65005000D01*
X71380000Y-72725000D02*
X71380000Y-69585000D01*
X82009050Y-71115000D02*
G75*
G03*
X82009050Y-71115000I-4579050J0D01*
G01*
%TO.C,D6*%
X46170000Y-31500000D02*
X46170000Y-34440000D01*
X46410000Y-31500000D02*
X46410000Y-34440000D01*
X45390000Y-31500000D02*
X45390000Y-34440000D01*
X50830000Y-31500000D02*
X45390000Y-31500000D01*
X44170000Y-32970000D02*
X45390000Y-32970000D01*
X46290000Y-31500000D02*
X46290000Y-34440000D01*
X45390000Y-34440000D02*
X50830000Y-34440000D01*
X52050000Y-32970000D02*
X50830000Y-32970000D01*
X50830000Y-34440000D02*
X50830000Y-31500000D01*
%TO.C,D4*%
X52050000Y-25350000D02*
X50830000Y-25350000D01*
X45390000Y-26820000D02*
X50830000Y-26820000D01*
X50830000Y-23880000D02*
X45390000Y-23880000D01*
X50830000Y-26820000D02*
X50830000Y-23880000D01*
X44170000Y-25350000D02*
X45390000Y-25350000D01*
X45390000Y-23880000D02*
X45390000Y-26820000D01*
X46170000Y-23880000D02*
X46170000Y-26820000D01*
X46290000Y-23880000D02*
X46290000Y-26820000D01*
X46410000Y-23880000D02*
X46410000Y-26820000D01*
%TO.C,SW10*%
X74780000Y-16525000D02*
X69640000Y-16525000D01*
X74780000Y-13865000D02*
X74780000Y-16525000D01*
X76050000Y-13865000D02*
X77380000Y-13865000D01*
X77380000Y-13865000D02*
X77380000Y-15195000D01*
X69640000Y-13865000D02*
X69640000Y-16525000D01*
X74780000Y-13865000D02*
X69640000Y-13865000D01*
%TD*%
M02*
