%TF.GenerationSoftware,KiCad,Pcbnew,7.0.8*%
%TF.CreationDate,2023-10-15T22:57:13-07:00*%
%TF.ProjectId,HandheldInterface,48616e64-6865-46c6-9449-6e7465726661,rev?*%
%TF.SameCoordinates,Original*%
%TF.FileFunction,Soldermask,Bot*%
%TF.FilePolarity,Negative*%
%FSLAX46Y46*%
G04 Gerber Fmt 4.6, Leading zero omitted, Abs format (unit mm)*
G04 Created by KiCad (PCBNEW 7.0.8) date 2023-10-15 22:57:13*
%MOMM*%
%LPD*%
G01*
G04 APERTURE LIST*
%ADD10C,5.600000*%
%ADD11R,1.700000X1.700000*%
%ADD12O,1.700000X1.700000*%
%ADD13C,1.524000*%
%ADD14R,1.524000X1.524000*%
%ADD15O,1.850000X3.048000*%
%ADD16O,3.048000X1.850000*%
%ADD17C,2.000000*%
%ADD18R,1.800000X1.800000*%
%ADD19O,1.800000X1.800000*%
G04 APERTURE END LIST*
D10*
%TO.C,REF\u002A\u002A*%
X93980000Y-91440000D03*
%TD*%
%TO.C,REF\u002A\u002A*%
X25400000Y-91440000D03*
%TD*%
%TO.C,REF\u002A\u002A*%
X25400000Y-20320000D03*
%TD*%
%TO.C,REF\u002A\u002A*%
X93980000Y-20320000D03*
%TD*%
D11*
%TO.C,U3*%
X86360000Y-39370000D03*
D12*
X86360000Y-41910000D03*
X86360000Y-44450000D03*
X86360000Y-46990000D03*
X86360000Y-49530000D03*
X86360000Y-52070000D03*
X86360000Y-54610000D03*
%TD*%
%TO.C,U2*%
X38100000Y-53340000D03*
X38100000Y-50800000D03*
X38100000Y-48260000D03*
X38100000Y-45720000D03*
X38100000Y-43180000D03*
D11*
X38100000Y-40640000D03*
%TD*%
D13*
%TO.C,U1*%
X35560000Y-17780000D03*
X38100000Y-17780000D03*
D14*
X40640000Y-17780000D03*
D13*
X43180000Y-17780000D03*
X45720000Y-17780000D03*
X48260000Y-17780000D03*
X50800000Y-17780000D03*
D14*
X53340000Y-17780000D03*
D13*
X55880000Y-17780000D03*
X58420000Y-17780000D03*
X60960000Y-17780000D03*
X63500000Y-17780000D03*
D14*
X66040000Y-17780000D03*
D13*
X68580000Y-17780000D03*
X71120000Y-17780000D03*
X73660000Y-17780000D03*
X76200000Y-17780000D03*
D14*
X78740000Y-17780000D03*
D13*
X81280000Y-17780000D03*
X83820000Y-17780000D03*
X83820000Y-35560000D03*
X81280000Y-35560000D03*
D14*
X78740000Y-35560000D03*
D13*
X76200000Y-35560000D03*
X73660000Y-35560000D03*
X71120000Y-35560000D03*
X68580000Y-35560000D03*
D14*
X66040000Y-35560000D03*
D13*
X63500000Y-35560000D03*
X60960000Y-35560000D03*
X58420000Y-35560000D03*
X55880000Y-35560000D03*
D14*
X53340000Y-35560000D03*
D13*
X48260000Y-35560000D03*
X50800000Y-35560000D03*
X45720000Y-35560000D03*
X43180000Y-35560000D03*
D14*
X40640000Y-35560000D03*
D13*
X38100000Y-35560000D03*
X35560000Y-35560000D03*
%TD*%
D15*
%TO.C,SW9*%
X27900000Y-72280000D03*
X27900000Y-84780000D03*
X22900000Y-72280000D03*
X22900000Y-84780000D03*
%TD*%
D16*
%TO.C,SW8*%
X44410000Y-68470000D03*
X31910000Y-68470000D03*
X44410000Y-63470000D03*
X31910000Y-63470000D03*
%TD*%
%TO.C,SW7*%
X31710000Y-88790000D03*
X44210000Y-88790000D03*
X31710000Y-93790000D03*
X44210000Y-93790000D03*
%TD*%
D15*
%TO.C,SW6*%
X48300000Y-84980000D03*
X48300000Y-72480000D03*
X53300000Y-84980000D03*
X53300000Y-72480000D03*
%TD*%
D16*
%TO.C,SW5*%
X87520000Y-68540000D03*
X75020000Y-68540000D03*
X87520000Y-63540000D03*
X75020000Y-63540000D03*
%TD*%
D15*
%TO.C,SW4*%
X91520000Y-85090000D03*
X91520000Y-72590000D03*
X96520000Y-85090000D03*
X96520000Y-72590000D03*
%TD*%
D17*
%TO.C,SW3*%
X62940000Y-57440000D03*
X56440000Y-57440000D03*
X62940000Y-61940000D03*
X56440000Y-61940000D03*
%TD*%
D15*
%TO.C,SW2*%
X71120000Y-72390000D03*
X71120000Y-84890000D03*
X66120000Y-72390000D03*
X66120000Y-84890000D03*
%TD*%
D16*
%TO.C,SW1*%
X75130000Y-88900000D03*
X87630000Y-88900000D03*
X75130000Y-93900000D03*
X87630000Y-93900000D03*
%TD*%
D12*
%TO.C,J1*%
X43180000Y-25400000D03*
X43180000Y-27940000D03*
X45720000Y-25400000D03*
X45720000Y-27940000D03*
X48260000Y-25400000D03*
X48260000Y-27940000D03*
X50800000Y-25400000D03*
X50800000Y-27940000D03*
X53340000Y-25400000D03*
X53340000Y-27940000D03*
X55880000Y-25400000D03*
X55880000Y-27940000D03*
X58420000Y-25400000D03*
X58420000Y-27940000D03*
X60960000Y-25400000D03*
X60960000Y-27940000D03*
X63500000Y-25400000D03*
X63500000Y-27940000D03*
X66040000Y-25400000D03*
X66040000Y-27940000D03*
X68580000Y-25400000D03*
X68580000Y-27940000D03*
X71120000Y-25400000D03*
X71120000Y-27940000D03*
X73660000Y-25400000D03*
D11*
X73660000Y-27940000D03*
%TD*%
D12*
%TO.C,J2*%
X81280000Y-77470000D03*
D11*
X81280000Y-80010000D03*
%TD*%
D18*
%TO.C,D9*%
X48260000Y-41910000D03*
D19*
X48260000Y-52070000D03*
%TD*%
%TO.C,D8*%
X52070000Y-52070000D03*
D18*
X52070000Y-41910000D03*
%TD*%
%TO.C,D7*%
X55880000Y-41910000D03*
D19*
X55880000Y-52070000D03*
%TD*%
D18*
%TO.C,D6*%
X73660000Y-41910000D03*
D19*
X73660000Y-52070000D03*
%TD*%
D18*
%TO.C,D5*%
X77470000Y-41910000D03*
D19*
X77470000Y-52070000D03*
%TD*%
D18*
%TO.C,D4*%
X81280000Y-41910000D03*
D19*
X81280000Y-52070000D03*
%TD*%
D18*
%TO.C,D3*%
X60960000Y-41910000D03*
D19*
X60960000Y-52070000D03*
%TD*%
D18*
%TO.C,D2*%
X64770000Y-41910000D03*
D19*
X64770000Y-52070000D03*
%TD*%
D18*
%TO.C,D1*%
X68580000Y-41910000D03*
D19*
X68580000Y-52070000D03*
%TD*%
M02*
