M48
; DRILL file {KiCad 7.0.8} date Sun Oct 15 22:57:15 2023
; FORMAT={-:-/ absolute / inch / decimal}
; #@! TF.CreationDate,2023-10-15T22:57:15-07:00
; #@! TF.GenerationSoftware,Kicad,Pcbnew,7.0.8
; #@! TF.FileFunction,Plated,1,2,PTH
FMAT,2
INCH
; #@! TA.AperFunction,Plated,PTH,ViaDrill
T1C0.0157
; #@! TA.AperFunction,Plated,PTH,ComponentDrill
T2C0.0300
; #@! TA.AperFunction,Plated,PTH,ComponentDrill
T3C0.0354
; #@! TA.AperFunction,Plated,PTH,ComponentDrill
T4C0.0394
; #@! TA.AperFunction,Plated,PTH,ComponentDrill
T5C0.0433
; #@! TA.AperFunction,Plated,PTH,ComponentDrill
T6C0.0512
; #@! TA.AperFunction,Plated,PTH,ComponentDrill
T7C0.1260
%
G90
G05
T1
X1.8Y-1.25
X2.3Y-1.9
X2.3Y-2.05
X2.675Y-1.2
X2.775Y-2.55
X2.8Y-1.3
X2.85Y-1.5
X2.9Y-1.3
X3.35Y-2.3
T2
X1.4Y-0.7
X1.4Y-1.4
X1.5Y-0.7
X1.5Y-1.4
X1.6Y-0.7
X1.6Y-1.4
X1.7Y-0.7
X1.7Y-1.4
X1.8Y-0.7
X1.8Y-1.4
X1.9Y-0.7
X1.9Y-1.4
X2.0Y-0.7
X2.0Y-1.4
X2.1Y-0.7
X2.1Y-1.4
X2.2Y-0.7
X2.2Y-1.4
X2.3Y-0.7
X2.3Y-1.4
X2.4Y-0.7
X2.4Y-1.4
X2.5Y-0.7
X2.5Y-1.4
X2.6Y-0.7
X2.6Y-1.4
X2.7Y-0.7
X2.7Y-1.4
X2.8Y-0.7
X2.8Y-1.4
X2.9Y-0.7
X2.9Y-1.4
X3.0Y-0.7
X3.0Y-1.4
X3.1Y-0.7
X3.1Y-1.4
X3.2Y-0.7
X3.2Y-1.4
X3.3Y-0.7
X3.3Y-1.4
T3
X1.9Y-1.65
X1.9Y-2.05
X2.05Y-1.65
X2.05Y-2.05
X2.2Y-1.65
X2.2Y-2.05
X2.4Y-1.65
X2.4Y-2.05
X2.55Y-1.65
X2.55Y-2.05
X2.7Y-1.65
X2.7Y-2.05
X2.9Y-1.65
X2.9Y-2.05
X3.05Y-1.65
X3.05Y-2.05
X3.2Y-1.65
X3.2Y-2.05
T4
X1.5Y-1.6
X1.5Y-1.7
X1.5Y-1.8
X1.5Y-1.9
X1.5Y-2.0
X1.5Y-2.1
X1.7Y-1.0
X1.7Y-1.1
X1.8Y-1.0
X1.8Y-1.1
X1.9Y-1.0
X1.9Y-1.1
X2.0Y-1.0
X2.0Y-1.1
X2.1Y-1.0
X2.1Y-1.1
X2.2Y-1.0
X2.2Y-1.1
X2.3Y-1.0
X2.3Y-1.1
X2.4Y-1.0
X2.4Y-1.1
X2.5Y-1.0
X2.5Y-1.1
X2.6Y-1.0
X2.6Y-1.1
X2.7Y-1.0
X2.7Y-1.1
X2.8Y-1.0
X2.8Y-1.1
X2.9Y-1.0
X2.9Y-1.1
X3.2Y-3.05
X3.2Y-3.15
X3.4Y-1.55
X3.4Y-1.65
X3.4Y-1.75
X3.4Y-1.85
X3.4Y-1.95
X3.4Y-2.05
X3.4Y-2.15
T5
X2.222Y-2.2614
X2.222Y-2.4386
X2.478Y-2.2614
X2.478Y-2.4386
T6
X0.9016Y-2.8457
X0.9016Y-3.3378
X1.0984Y-2.8457
X1.0984Y-3.3378
X1.2484Y-3.4957
X1.2484Y-3.6925
X1.2563Y-2.4988
X1.2563Y-2.6957
X1.7406Y-3.4957
X1.7406Y-3.6925
X1.7484Y-2.4988
X1.7484Y-2.6957
X1.9016Y-2.8535
X1.9016Y-3.3457
X2.0984Y-2.8535
X2.0984Y-3.3457
X2.6031Y-2.85
X2.6031Y-3.3421
X2.8Y-2.85
X2.8Y-3.3421
X2.9535Y-2.5016
X2.9535Y-2.6984
X2.9579Y-3.5
X2.9579Y-3.6969
X3.4457Y-2.5016
X3.4457Y-2.6984
X3.45Y-3.5
X3.45Y-3.6969
X3.6031Y-2.8579
X3.6031Y-3.35
X3.8Y-2.8579
X3.8Y-3.35
T7
X1.0Y-0.8
X1.0Y-3.6
X3.7Y-0.8
X3.7Y-3.6
T0
M30
