%TF.GenerationSoftware,KiCad,Pcbnew,7.0.8*%
%TF.CreationDate,2023-10-15T22:57:15-07:00*%
%TF.ProjectId,HandheldInterface,48616e64-6865-46c6-9449-6e7465726661,rev?*%
%TF.SameCoordinates,Original*%
%TF.FileFunction,Drillmap*%
%TF.FilePolarity,Positive*%
%FSLAX45Y45*%
G04 Gerber Fmt 4.5, Leading zero omitted, Abs format (unit mm)*
G04 Created by KiCad (PCBNEW 7.0.8) date 2023-10-15 22:57:15*
%MOMM*%
%LPD*%
G01*
G04 APERTURE LIST*
%ADD10C,0.200000*%
%ADD11C,0.040000*%
%ADD12C,0.076200*%
%ADD13C,0.090000*%
%ADD14C,0.100000*%
%ADD15C,0.110000*%
%ADD16C,0.130000*%
%ADD17C,0.320000*%
G04 APERTURE END LIST*
D10*
X10160000Y-2032000D02*
X10160000Y-9398000D01*
X9652000Y-9906000D01*
X2286000Y-9906000D01*
X1778000Y-9398000D01*
X1778000Y-2032000D01*
X2286000Y-1524000D01*
X9652000Y-1524000D01*
X10160000Y-2032000D01*
D11*
X4552000Y-3155000D02*
X4592000Y-3195000D01*
X4592000Y-3155000D02*
X4552000Y-3195000D01*
X5822000Y-4806000D02*
X5862000Y-4846000D01*
X5862000Y-4806000D02*
X5822000Y-4846000D01*
X5822000Y-5187000D02*
X5862000Y-5227000D01*
X5862000Y-5187000D02*
X5822000Y-5227000D01*
X6774500Y-3028000D02*
X6814500Y-3068000D01*
X6814500Y-3028000D02*
X6774500Y-3068000D01*
X7028500Y-6457000D02*
X7068500Y-6497000D01*
X7068500Y-6457000D02*
X7028500Y-6497000D01*
X7092000Y-3282000D02*
X7132000Y-3322000D01*
X7132000Y-3282000D02*
X7092000Y-3322000D01*
X7219000Y-3790000D02*
X7259000Y-3830000D01*
X7259000Y-3790000D02*
X7219000Y-3830000D01*
X7346000Y-3282000D02*
X7386000Y-3322000D01*
X7386000Y-3282000D02*
X7346000Y-3322000D01*
X8489000Y-5822000D02*
X8529000Y-5862000D01*
X8529000Y-5822000D02*
X8489000Y-5862000D01*
D12*
X3594100Y-1778000D02*
G75*
G03*
X3594100Y-1778000I-38100J0D01*
G01*
X3594100Y-3556000D02*
G75*
G03*
X3594100Y-3556000I-38100J0D01*
G01*
X3848100Y-1778000D02*
G75*
G03*
X3848100Y-1778000I-38100J0D01*
G01*
X3848100Y-3556000D02*
G75*
G03*
X3848100Y-3556000I-38100J0D01*
G01*
X4102100Y-1778000D02*
G75*
G03*
X4102100Y-1778000I-38100J0D01*
G01*
X4102100Y-3556000D02*
G75*
G03*
X4102100Y-3556000I-38100J0D01*
G01*
X4356100Y-1778000D02*
G75*
G03*
X4356100Y-1778000I-38100J0D01*
G01*
X4356100Y-3556000D02*
G75*
G03*
X4356100Y-3556000I-38100J0D01*
G01*
X4610100Y-1778000D02*
G75*
G03*
X4610100Y-1778000I-38100J0D01*
G01*
X4610100Y-3556000D02*
G75*
G03*
X4610100Y-3556000I-38100J0D01*
G01*
X4864100Y-1778000D02*
G75*
G03*
X4864100Y-1778000I-38100J0D01*
G01*
X4864100Y-3556000D02*
G75*
G03*
X4864100Y-3556000I-38100J0D01*
G01*
X5118100Y-1778000D02*
G75*
G03*
X5118100Y-1778000I-38100J0D01*
G01*
X5118100Y-3556000D02*
G75*
G03*
X5118100Y-3556000I-38100J0D01*
G01*
X5372100Y-1778000D02*
G75*
G03*
X5372100Y-1778000I-38100J0D01*
G01*
X5372100Y-3556000D02*
G75*
G03*
X5372100Y-3556000I-38100J0D01*
G01*
X5626100Y-1778000D02*
G75*
G03*
X5626100Y-1778000I-38100J0D01*
G01*
X5626100Y-3556000D02*
G75*
G03*
X5626100Y-3556000I-38100J0D01*
G01*
X5880100Y-1778000D02*
G75*
G03*
X5880100Y-1778000I-38100J0D01*
G01*
X5880100Y-3556000D02*
G75*
G03*
X5880100Y-3556000I-38100J0D01*
G01*
X6134100Y-1778000D02*
G75*
G03*
X6134100Y-1778000I-38100J0D01*
G01*
X6134100Y-3556000D02*
G75*
G03*
X6134100Y-3556000I-38100J0D01*
G01*
X6388100Y-1778000D02*
G75*
G03*
X6388100Y-1778000I-38100J0D01*
G01*
X6388100Y-3556000D02*
G75*
G03*
X6388100Y-3556000I-38100J0D01*
G01*
X6642100Y-1778000D02*
G75*
G03*
X6642100Y-1778000I-38100J0D01*
G01*
X6642100Y-3556000D02*
G75*
G03*
X6642100Y-3556000I-38100J0D01*
G01*
X6896100Y-1778000D02*
G75*
G03*
X6896100Y-1778000I-38100J0D01*
G01*
X6896100Y-3556000D02*
G75*
G03*
X6896100Y-3556000I-38100J0D01*
G01*
X7150100Y-1778000D02*
G75*
G03*
X7150100Y-1778000I-38100J0D01*
G01*
X7150100Y-3556000D02*
G75*
G03*
X7150100Y-3556000I-38100J0D01*
G01*
X7404100Y-1778000D02*
G75*
G03*
X7404100Y-1778000I-38100J0D01*
G01*
X7404100Y-3556000D02*
G75*
G03*
X7404100Y-3556000I-38100J0D01*
G01*
X7658100Y-1778000D02*
G75*
G03*
X7658100Y-1778000I-38100J0D01*
G01*
X7658100Y-3556000D02*
G75*
G03*
X7658100Y-3556000I-38100J0D01*
G01*
X7912100Y-1778000D02*
G75*
G03*
X7912100Y-1778000I-38100J0D01*
G01*
X7912100Y-3556000D02*
G75*
G03*
X7912100Y-3556000I-38100J0D01*
G01*
X8166100Y-1778000D02*
G75*
G03*
X8166100Y-1778000I-38100J0D01*
G01*
X8166100Y-3556000D02*
G75*
G03*
X8166100Y-3556000I-38100J0D01*
G01*
X8420100Y-1778000D02*
G75*
G03*
X8420100Y-1778000I-38100J0D01*
G01*
X8420100Y-3556000D02*
G75*
G03*
X8420100Y-3556000I-38100J0D01*
G01*
D13*
X4826000Y-4146000D02*
X4826000Y-4236000D01*
X4781000Y-4191000D02*
X4871000Y-4191000D01*
X4826000Y-5162000D02*
X4826000Y-5252000D01*
X4781000Y-5207000D02*
X4871000Y-5207000D01*
X5207000Y-4146000D02*
X5207000Y-4236000D01*
X5162000Y-4191000D02*
X5252000Y-4191000D01*
X5207000Y-5162000D02*
X5207000Y-5252000D01*
X5162000Y-5207000D02*
X5252000Y-5207000D01*
X5588000Y-4146000D02*
X5588000Y-4236000D01*
X5543000Y-4191000D02*
X5633000Y-4191000D01*
X5588000Y-5162000D02*
X5588000Y-5252000D01*
X5543000Y-5207000D02*
X5633000Y-5207000D01*
X6096000Y-4146000D02*
X6096000Y-4236000D01*
X6051000Y-4191000D02*
X6141000Y-4191000D01*
X6096000Y-5162000D02*
X6096000Y-5252000D01*
X6051000Y-5207000D02*
X6141000Y-5207000D01*
X6477000Y-4146000D02*
X6477000Y-4236000D01*
X6432000Y-4191000D02*
X6522000Y-4191000D01*
X6477000Y-5162000D02*
X6477000Y-5252000D01*
X6432000Y-5207000D02*
X6522000Y-5207000D01*
X6858000Y-4146000D02*
X6858000Y-4236000D01*
X6813000Y-4191000D02*
X6903000Y-4191000D01*
X6858000Y-5162000D02*
X6858000Y-5252000D01*
X6813000Y-5207000D02*
X6903000Y-5207000D01*
X7366000Y-4146000D02*
X7366000Y-4236000D01*
X7321000Y-4191000D02*
X7411000Y-4191000D01*
X7366000Y-5162000D02*
X7366000Y-5252000D01*
X7321000Y-5207000D02*
X7411000Y-5207000D01*
X7747000Y-4146000D02*
X7747000Y-4236000D01*
X7702000Y-4191000D02*
X7792000Y-4191000D01*
X7747000Y-5162000D02*
X7747000Y-5252000D01*
X7702000Y-5207000D02*
X7792000Y-5207000D01*
X8128000Y-4146000D02*
X8128000Y-4236000D01*
X8083000Y-4191000D02*
X8173000Y-4191000D01*
X8128000Y-5162000D02*
X8128000Y-5252000D01*
X8083000Y-5207000D02*
X8173000Y-5207000D01*
D14*
X3845356Y-4099356D02*
X3845356Y-4028644D01*
X3774644Y-4028644D01*
X3774644Y-4099356D01*
X3845356Y-4099356D01*
X3845356Y-4353356D02*
X3845356Y-4282644D01*
X3774644Y-4282644D01*
X3774644Y-4353356D01*
X3845356Y-4353356D01*
X3845356Y-4607356D02*
X3845356Y-4536644D01*
X3774644Y-4536644D01*
X3774644Y-4607356D01*
X3845356Y-4607356D01*
X3845356Y-4861356D02*
X3845356Y-4790644D01*
X3774644Y-4790644D01*
X3774644Y-4861356D01*
X3845356Y-4861356D01*
X3845356Y-5115356D02*
X3845356Y-5044644D01*
X3774644Y-5044644D01*
X3774644Y-5115356D01*
X3845356Y-5115356D01*
X3845356Y-5369356D02*
X3845356Y-5298644D01*
X3774644Y-5298644D01*
X3774644Y-5369356D01*
X3845356Y-5369356D01*
X4353356Y-2575356D02*
X4353356Y-2504644D01*
X4282644Y-2504644D01*
X4282644Y-2575356D01*
X4353356Y-2575356D01*
X4353356Y-2829356D02*
X4353356Y-2758644D01*
X4282644Y-2758644D01*
X4282644Y-2829356D01*
X4353356Y-2829356D01*
X4607356Y-2575356D02*
X4607356Y-2504644D01*
X4536644Y-2504644D01*
X4536644Y-2575356D01*
X4607356Y-2575356D01*
X4607356Y-2829356D02*
X4607356Y-2758644D01*
X4536644Y-2758644D01*
X4536644Y-2829356D01*
X4607356Y-2829356D01*
X4861356Y-2575356D02*
X4861356Y-2504644D01*
X4790644Y-2504644D01*
X4790644Y-2575356D01*
X4861356Y-2575356D01*
X4861356Y-2829356D02*
X4861356Y-2758644D01*
X4790644Y-2758644D01*
X4790644Y-2829356D01*
X4861356Y-2829356D01*
X5115356Y-2575356D02*
X5115356Y-2504644D01*
X5044644Y-2504644D01*
X5044644Y-2575356D01*
X5115356Y-2575356D01*
X5115356Y-2829356D02*
X5115356Y-2758644D01*
X5044644Y-2758644D01*
X5044644Y-2829356D01*
X5115356Y-2829356D01*
X5369356Y-2575356D02*
X5369356Y-2504644D01*
X5298644Y-2504644D01*
X5298644Y-2575356D01*
X5369356Y-2575356D01*
X5369356Y-2829356D02*
X5369356Y-2758644D01*
X5298644Y-2758644D01*
X5298644Y-2829356D01*
X5369356Y-2829356D01*
X5623356Y-2575356D02*
X5623356Y-2504644D01*
X5552644Y-2504644D01*
X5552644Y-2575356D01*
X5623356Y-2575356D01*
X5623356Y-2829356D02*
X5623356Y-2758644D01*
X5552644Y-2758644D01*
X5552644Y-2829356D01*
X5623356Y-2829356D01*
X5877356Y-2575356D02*
X5877356Y-2504644D01*
X5806644Y-2504644D01*
X5806644Y-2575356D01*
X5877356Y-2575356D01*
X5877356Y-2829356D02*
X5877356Y-2758644D01*
X5806644Y-2758644D01*
X5806644Y-2829356D01*
X5877356Y-2829356D01*
X6131356Y-2575356D02*
X6131356Y-2504644D01*
X6060644Y-2504644D01*
X6060644Y-2575356D01*
X6131356Y-2575356D01*
X6131356Y-2829356D02*
X6131356Y-2758644D01*
X6060644Y-2758644D01*
X6060644Y-2829356D01*
X6131356Y-2829356D01*
X6385356Y-2575356D02*
X6385356Y-2504644D01*
X6314644Y-2504644D01*
X6314644Y-2575356D01*
X6385356Y-2575356D01*
X6385356Y-2829356D02*
X6385356Y-2758644D01*
X6314644Y-2758644D01*
X6314644Y-2829356D01*
X6385356Y-2829356D01*
X6639356Y-2575356D02*
X6639356Y-2504644D01*
X6568644Y-2504644D01*
X6568644Y-2575356D01*
X6639356Y-2575356D01*
X6639356Y-2829356D02*
X6639356Y-2758644D01*
X6568644Y-2758644D01*
X6568644Y-2829356D01*
X6639356Y-2829356D01*
X6893356Y-2575356D02*
X6893356Y-2504644D01*
X6822644Y-2504644D01*
X6822644Y-2575356D01*
X6893356Y-2575356D01*
X6893356Y-2829356D02*
X6893356Y-2758644D01*
X6822644Y-2758644D01*
X6822644Y-2829356D01*
X6893356Y-2829356D01*
X7147356Y-2575356D02*
X7147356Y-2504644D01*
X7076644Y-2504644D01*
X7076644Y-2575356D01*
X7147356Y-2575356D01*
X7147356Y-2829356D02*
X7147356Y-2758644D01*
X7076644Y-2758644D01*
X7076644Y-2829356D01*
X7147356Y-2829356D01*
X7401356Y-2575356D02*
X7401356Y-2504644D01*
X7330644Y-2504644D01*
X7330644Y-2575356D01*
X7401356Y-2575356D01*
X7401356Y-2829356D02*
X7401356Y-2758644D01*
X7330644Y-2758644D01*
X7330644Y-2829356D01*
X7401356Y-2829356D01*
X8163356Y-7782356D02*
X8163356Y-7711644D01*
X8092644Y-7711644D01*
X8092644Y-7782356D01*
X8163356Y-7782356D01*
X8163356Y-8036356D02*
X8163356Y-7965644D01*
X8092644Y-7965644D01*
X8092644Y-8036356D01*
X8163356Y-8036356D01*
X8671356Y-3972356D02*
X8671356Y-3901644D01*
X8600644Y-3901644D01*
X8600644Y-3972356D01*
X8671356Y-3972356D01*
X8671356Y-4226356D02*
X8671356Y-4155644D01*
X8600644Y-4155644D01*
X8600644Y-4226356D01*
X8671356Y-4226356D01*
X8671356Y-4480356D02*
X8671356Y-4409644D01*
X8600644Y-4409644D01*
X8600644Y-4480356D01*
X8671356Y-4480356D01*
X8671356Y-4734356D02*
X8671356Y-4663644D01*
X8600644Y-4663644D01*
X8600644Y-4734356D01*
X8671356Y-4734356D01*
X8671356Y-4988356D02*
X8671356Y-4917644D01*
X8600644Y-4917644D01*
X8600644Y-4988356D01*
X8671356Y-4988356D01*
X8671356Y-5242356D02*
X8671356Y-5171644D01*
X8600644Y-5171644D01*
X8600644Y-5242356D01*
X8671356Y-5242356D01*
X8671356Y-5496356D02*
X8671356Y-5425644D01*
X8600644Y-5425644D01*
X8600644Y-5496356D01*
X8671356Y-5496356D01*
D15*
X5644000Y-5799000D02*
X5699000Y-5744000D01*
X5644000Y-5689000D01*
X5589000Y-5744000D01*
X5644000Y-5799000D01*
X5644000Y-6249000D02*
X5699000Y-6194000D01*
X5644000Y-6139000D01*
X5589000Y-6194000D01*
X5644000Y-6249000D01*
X6294000Y-5799000D02*
X6349000Y-5744000D01*
X6294000Y-5689000D01*
X6239000Y-5744000D01*
X6294000Y-5799000D01*
X6294000Y-6249000D02*
X6349000Y-6194000D01*
X6294000Y-6139000D01*
X6239000Y-6194000D01*
X6294000Y-6249000D01*
D16*
X2225000Y-7163000D02*
X2355000Y-7293000D01*
X2355000Y-7163000D02*
X2225000Y-7293000D01*
X2355000Y-7228000D02*
G75*
G03*
X2355000Y-7228000I-65000J0D01*
G01*
X2225000Y-8413000D02*
X2355000Y-8543000D01*
X2355000Y-8413000D02*
X2225000Y-8543000D01*
X2355000Y-8478000D02*
G75*
G03*
X2355000Y-8478000I-65000J0D01*
G01*
X2725000Y-7163000D02*
X2855000Y-7293000D01*
X2855000Y-7163000D02*
X2725000Y-7293000D01*
X2855000Y-7228000D02*
G75*
G03*
X2855000Y-7228000I-65000J0D01*
G01*
X2725000Y-8413000D02*
X2855000Y-8543000D01*
X2855000Y-8413000D02*
X2725000Y-8543000D01*
X2855000Y-8478000D02*
G75*
G03*
X2855000Y-8478000I-65000J0D01*
G01*
X3106000Y-8814000D02*
X3236000Y-8944000D01*
X3236000Y-8814000D02*
X3106000Y-8944000D01*
X3236000Y-8879000D02*
G75*
G03*
X3236000Y-8879000I-65000J0D01*
G01*
X3106000Y-9314000D02*
X3236000Y-9444000D01*
X3236000Y-9314000D02*
X3106000Y-9444000D01*
X3236000Y-9379000D02*
G75*
G03*
X3236000Y-9379000I-65000J0D01*
G01*
X3126000Y-6282000D02*
X3256000Y-6412000D01*
X3256000Y-6282000D02*
X3126000Y-6412000D01*
X3256000Y-6347000D02*
G75*
G03*
X3256000Y-6347000I-65000J0D01*
G01*
X3126000Y-6782000D02*
X3256000Y-6912000D01*
X3256000Y-6782000D02*
X3126000Y-6912000D01*
X3256000Y-6847000D02*
G75*
G03*
X3256000Y-6847000I-65000J0D01*
G01*
X4356000Y-8814000D02*
X4486000Y-8944000D01*
X4486000Y-8814000D02*
X4356000Y-8944000D01*
X4486000Y-8879000D02*
G75*
G03*
X4486000Y-8879000I-65000J0D01*
G01*
X4356000Y-9314000D02*
X4486000Y-9444000D01*
X4486000Y-9314000D02*
X4356000Y-9444000D01*
X4486000Y-9379000D02*
G75*
G03*
X4486000Y-9379000I-65000J0D01*
G01*
X4376000Y-6282000D02*
X4506000Y-6412000D01*
X4506000Y-6282000D02*
X4376000Y-6412000D01*
X4506000Y-6347000D02*
G75*
G03*
X4506000Y-6347000I-65000J0D01*
G01*
X4376000Y-6782000D02*
X4506000Y-6912000D01*
X4506000Y-6782000D02*
X4376000Y-6912000D01*
X4506000Y-6847000D02*
G75*
G03*
X4506000Y-6847000I-65000J0D01*
G01*
X4765000Y-7183000D02*
X4895000Y-7313000D01*
X4895000Y-7183000D02*
X4765000Y-7313000D01*
X4895000Y-7248000D02*
G75*
G03*
X4895000Y-7248000I-65000J0D01*
G01*
X4765000Y-8433000D02*
X4895000Y-8563000D01*
X4895000Y-8433000D02*
X4765000Y-8563000D01*
X4895000Y-8498000D02*
G75*
G03*
X4895000Y-8498000I-65000J0D01*
G01*
X5265000Y-7183000D02*
X5395000Y-7313000D01*
X5395000Y-7183000D02*
X5265000Y-7313000D01*
X5395000Y-7248000D02*
G75*
G03*
X5395000Y-7248000I-65000J0D01*
G01*
X5265000Y-8433000D02*
X5395000Y-8563000D01*
X5395000Y-8433000D02*
X5265000Y-8563000D01*
X5395000Y-8498000D02*
G75*
G03*
X5395000Y-8498000I-65000J0D01*
G01*
X6547000Y-7174000D02*
X6677000Y-7304000D01*
X6677000Y-7174000D02*
X6547000Y-7304000D01*
X6677000Y-7239000D02*
G75*
G03*
X6677000Y-7239000I-65000J0D01*
G01*
X6547000Y-8424000D02*
X6677000Y-8554000D01*
X6677000Y-8424000D02*
X6547000Y-8554000D01*
X6677000Y-8489000D02*
G75*
G03*
X6677000Y-8489000I-65000J0D01*
G01*
X7047000Y-7174000D02*
X7177000Y-7304000D01*
X7177000Y-7174000D02*
X7047000Y-7304000D01*
X7177000Y-7239000D02*
G75*
G03*
X7177000Y-7239000I-65000J0D01*
G01*
X7047000Y-8424000D02*
X7177000Y-8554000D01*
X7177000Y-8424000D02*
X7047000Y-8554000D01*
X7177000Y-8489000D02*
G75*
G03*
X7177000Y-8489000I-65000J0D01*
G01*
X7437000Y-6289000D02*
X7567000Y-6419000D01*
X7567000Y-6289000D02*
X7437000Y-6419000D01*
X7567000Y-6354000D02*
G75*
G03*
X7567000Y-6354000I-65000J0D01*
G01*
X7437000Y-6789000D02*
X7567000Y-6919000D01*
X7567000Y-6789000D02*
X7437000Y-6919000D01*
X7567000Y-6854000D02*
G75*
G03*
X7567000Y-6854000I-65000J0D01*
G01*
X7448000Y-8825000D02*
X7578000Y-8955000D01*
X7578000Y-8825000D02*
X7448000Y-8955000D01*
X7578000Y-8890000D02*
G75*
G03*
X7578000Y-8890000I-65000J0D01*
G01*
X7448000Y-9325000D02*
X7578000Y-9455000D01*
X7578000Y-9325000D02*
X7448000Y-9455000D01*
X7578000Y-9390000D02*
G75*
G03*
X7578000Y-9390000I-65000J0D01*
G01*
X8687000Y-6289000D02*
X8817000Y-6419000D01*
X8817000Y-6289000D02*
X8687000Y-6419000D01*
X8817000Y-6354000D02*
G75*
G03*
X8817000Y-6354000I-65000J0D01*
G01*
X8687000Y-6789000D02*
X8817000Y-6919000D01*
X8817000Y-6789000D02*
X8687000Y-6919000D01*
X8817000Y-6854000D02*
G75*
G03*
X8817000Y-6854000I-65000J0D01*
G01*
X8698000Y-8825000D02*
X8828000Y-8955000D01*
X8828000Y-8825000D02*
X8698000Y-8955000D01*
X8828000Y-8890000D02*
G75*
G03*
X8828000Y-8890000I-65000J0D01*
G01*
X8698000Y-9325000D02*
X8828000Y-9455000D01*
X8828000Y-9325000D02*
X8698000Y-9455000D01*
X8828000Y-9390000D02*
G75*
G03*
X8828000Y-9390000I-65000J0D01*
G01*
X9087000Y-7194000D02*
X9217000Y-7324000D01*
X9217000Y-7194000D02*
X9087000Y-7324000D01*
X9217000Y-7259000D02*
G75*
G03*
X9217000Y-7259000I-65000J0D01*
G01*
X9087000Y-8444000D02*
X9217000Y-8574000D01*
X9217000Y-8444000D02*
X9087000Y-8574000D01*
X9217000Y-8509000D02*
G75*
G03*
X9217000Y-8509000I-65000J0D01*
G01*
X9587000Y-7194000D02*
X9717000Y-7324000D01*
X9717000Y-7194000D02*
X9587000Y-7324000D01*
X9717000Y-7259000D02*
G75*
G03*
X9717000Y-7259000I-65000J0D01*
G01*
X9587000Y-8444000D02*
X9717000Y-8574000D01*
X9717000Y-8444000D02*
X9587000Y-8574000D01*
X9717000Y-8509000D02*
G75*
G03*
X9717000Y-8509000I-65000J0D01*
G01*
D17*
X2380000Y-1872000D02*
X2700000Y-2192000D01*
X2700000Y-1872000D02*
X2380000Y-2192000D01*
X2540000Y-1872000D02*
X2540000Y-2192000D01*
X2380000Y-2032000D02*
X2700000Y-2032000D01*
X2380000Y-8984000D02*
X2700000Y-9304000D01*
X2700000Y-8984000D02*
X2380000Y-9304000D01*
X2540000Y-8984000D02*
X2540000Y-9304000D01*
X2380000Y-9144000D02*
X2700000Y-9144000D01*
X9238000Y-1872000D02*
X9558000Y-2192000D01*
X9558000Y-1872000D02*
X9238000Y-2192000D01*
X9398000Y-1872000D02*
X9398000Y-2192000D01*
X9238000Y-2032000D02*
X9558000Y-2032000D01*
X9238000Y-8984000D02*
X9558000Y-9304000D01*
X9558000Y-8984000D02*
X9238000Y-9304000D01*
X9398000Y-8984000D02*
X9398000Y-9304000D01*
X9238000Y-9144000D02*
X9558000Y-9144000D01*
D10*
X2028777Y-10227484D02*
X2028777Y-10027484D01*
X2028777Y-10027484D02*
X2076396Y-10027484D01*
X2076396Y-10027484D02*
X2104967Y-10037008D01*
X2104967Y-10037008D02*
X2124015Y-10056055D01*
X2124015Y-10056055D02*
X2133539Y-10075103D01*
X2133539Y-10075103D02*
X2143063Y-10113198D01*
X2143063Y-10113198D02*
X2143063Y-10141770D01*
X2143063Y-10141770D02*
X2133539Y-10179865D01*
X2133539Y-10179865D02*
X2124015Y-10198912D01*
X2124015Y-10198912D02*
X2104967Y-10217960D01*
X2104967Y-10217960D02*
X2076396Y-10227484D01*
X2076396Y-10227484D02*
X2028777Y-10227484D01*
X2228777Y-10227484D02*
X2228777Y-10094150D01*
X2228777Y-10132246D02*
X2238301Y-10113198D01*
X2238301Y-10113198D02*
X2247824Y-10103674D01*
X2247824Y-10103674D02*
X2266872Y-10094150D01*
X2266872Y-10094150D02*
X2285920Y-10094150D01*
X2352586Y-10227484D02*
X2352586Y-10094150D01*
X2352586Y-10027484D02*
X2343063Y-10037008D01*
X2343063Y-10037008D02*
X2352586Y-10046531D01*
X2352586Y-10046531D02*
X2362110Y-10037008D01*
X2362110Y-10037008D02*
X2352586Y-10027484D01*
X2352586Y-10027484D02*
X2352586Y-10046531D01*
X2476396Y-10227484D02*
X2457348Y-10217960D01*
X2457348Y-10217960D02*
X2447824Y-10198912D01*
X2447824Y-10198912D02*
X2447824Y-10027484D01*
X2581158Y-10227484D02*
X2562110Y-10217960D01*
X2562110Y-10217960D02*
X2552586Y-10198912D01*
X2552586Y-10198912D02*
X2552586Y-10027484D01*
X2809729Y-10227484D02*
X2809729Y-10027484D01*
X2809729Y-10027484D02*
X2876396Y-10170341D01*
X2876396Y-10170341D02*
X2943062Y-10027484D01*
X2943062Y-10027484D02*
X2943062Y-10227484D01*
X3124015Y-10227484D02*
X3124015Y-10122722D01*
X3124015Y-10122722D02*
X3114491Y-10103674D01*
X3114491Y-10103674D02*
X3095443Y-10094150D01*
X3095443Y-10094150D02*
X3057348Y-10094150D01*
X3057348Y-10094150D02*
X3038301Y-10103674D01*
X3124015Y-10217960D02*
X3104967Y-10227484D01*
X3104967Y-10227484D02*
X3057348Y-10227484D01*
X3057348Y-10227484D02*
X3038301Y-10217960D01*
X3038301Y-10217960D02*
X3028777Y-10198912D01*
X3028777Y-10198912D02*
X3028777Y-10179865D01*
X3028777Y-10179865D02*
X3038301Y-10160817D01*
X3038301Y-10160817D02*
X3057348Y-10151293D01*
X3057348Y-10151293D02*
X3104967Y-10151293D01*
X3104967Y-10151293D02*
X3124015Y-10141770D01*
X3219253Y-10094150D02*
X3219253Y-10294150D01*
X3219253Y-10103674D02*
X3238301Y-10094150D01*
X3238301Y-10094150D02*
X3276396Y-10094150D01*
X3276396Y-10094150D02*
X3295443Y-10103674D01*
X3295443Y-10103674D02*
X3304967Y-10113198D01*
X3304967Y-10113198D02*
X3314491Y-10132246D01*
X3314491Y-10132246D02*
X3314491Y-10189389D01*
X3314491Y-10189389D02*
X3304967Y-10208436D01*
X3304967Y-10208436D02*
X3295443Y-10217960D01*
X3295443Y-10217960D02*
X3276396Y-10227484D01*
X3276396Y-10227484D02*
X3238301Y-10227484D01*
X3238301Y-10227484D02*
X3219253Y-10217960D01*
X3400205Y-10208436D02*
X3409729Y-10217960D01*
X3409729Y-10217960D02*
X3400205Y-10227484D01*
X3400205Y-10227484D02*
X3390682Y-10217960D01*
X3390682Y-10217960D02*
X3400205Y-10208436D01*
X3400205Y-10208436D02*
X3400205Y-10227484D01*
X3400205Y-10103674D02*
X3409729Y-10113198D01*
X3409729Y-10113198D02*
X3400205Y-10122722D01*
X3400205Y-10122722D02*
X3390682Y-10113198D01*
X3390682Y-10113198D02*
X3400205Y-10103674D01*
X3400205Y-10103674D02*
X3400205Y-10122722D01*
D11*
X1728000Y-10536000D02*
X1768000Y-10576000D01*
X1768000Y-10536000D02*
X1728000Y-10576000D01*
D10*
X2066872Y-10447484D02*
X2085920Y-10447484D01*
X2085920Y-10447484D02*
X2104967Y-10457008D01*
X2104967Y-10457008D02*
X2114491Y-10466531D01*
X2114491Y-10466531D02*
X2124015Y-10485579D01*
X2124015Y-10485579D02*
X2133539Y-10523674D01*
X2133539Y-10523674D02*
X2133539Y-10571293D01*
X2133539Y-10571293D02*
X2124015Y-10609389D01*
X2124015Y-10609389D02*
X2114491Y-10628436D01*
X2114491Y-10628436D02*
X2104967Y-10637960D01*
X2104967Y-10637960D02*
X2085920Y-10647484D01*
X2085920Y-10647484D02*
X2066872Y-10647484D01*
X2066872Y-10647484D02*
X2047824Y-10637960D01*
X2047824Y-10637960D02*
X2038301Y-10628436D01*
X2038301Y-10628436D02*
X2028777Y-10609389D01*
X2028777Y-10609389D02*
X2019253Y-10571293D01*
X2019253Y-10571293D02*
X2019253Y-10523674D01*
X2019253Y-10523674D02*
X2028777Y-10485579D01*
X2028777Y-10485579D02*
X2038301Y-10466531D01*
X2038301Y-10466531D02*
X2047824Y-10457008D01*
X2047824Y-10457008D02*
X2066872Y-10447484D01*
X2219253Y-10628436D02*
X2228777Y-10637960D01*
X2228777Y-10637960D02*
X2219253Y-10647484D01*
X2219253Y-10647484D02*
X2209729Y-10637960D01*
X2209729Y-10637960D02*
X2219253Y-10628436D01*
X2219253Y-10628436D02*
X2219253Y-10647484D01*
X2400205Y-10514150D02*
X2400205Y-10647484D01*
X2352586Y-10437960D02*
X2304967Y-10580817D01*
X2304967Y-10580817D02*
X2428777Y-10580817D01*
X2543063Y-10447484D02*
X2562110Y-10447484D01*
X2562110Y-10447484D02*
X2581158Y-10457008D01*
X2581158Y-10457008D02*
X2590682Y-10466531D01*
X2590682Y-10466531D02*
X2600205Y-10485579D01*
X2600205Y-10485579D02*
X2609729Y-10523674D01*
X2609729Y-10523674D02*
X2609729Y-10571293D01*
X2609729Y-10571293D02*
X2600205Y-10609389D01*
X2600205Y-10609389D02*
X2590682Y-10628436D01*
X2590682Y-10628436D02*
X2581158Y-10637960D01*
X2581158Y-10637960D02*
X2562110Y-10647484D01*
X2562110Y-10647484D02*
X2543063Y-10647484D01*
X2543063Y-10647484D02*
X2524015Y-10637960D01*
X2524015Y-10637960D02*
X2514491Y-10628436D01*
X2514491Y-10628436D02*
X2504967Y-10609389D01*
X2504967Y-10609389D02*
X2495444Y-10571293D01*
X2495444Y-10571293D02*
X2495444Y-10523674D01*
X2495444Y-10523674D02*
X2504967Y-10485579D01*
X2504967Y-10485579D02*
X2514491Y-10466531D01*
X2514491Y-10466531D02*
X2524015Y-10457008D01*
X2524015Y-10457008D02*
X2543063Y-10447484D01*
X2733539Y-10447484D02*
X2752586Y-10447484D01*
X2752586Y-10447484D02*
X2771634Y-10457008D01*
X2771634Y-10457008D02*
X2781158Y-10466531D01*
X2781158Y-10466531D02*
X2790682Y-10485579D01*
X2790682Y-10485579D02*
X2800205Y-10523674D01*
X2800205Y-10523674D02*
X2800205Y-10571293D01*
X2800205Y-10571293D02*
X2790682Y-10609389D01*
X2790682Y-10609389D02*
X2781158Y-10628436D01*
X2781158Y-10628436D02*
X2771634Y-10637960D01*
X2771634Y-10637960D02*
X2752586Y-10647484D01*
X2752586Y-10647484D02*
X2733539Y-10647484D01*
X2733539Y-10647484D02*
X2714491Y-10637960D01*
X2714491Y-10637960D02*
X2704967Y-10628436D01*
X2704967Y-10628436D02*
X2695444Y-10609389D01*
X2695444Y-10609389D02*
X2685920Y-10571293D01*
X2685920Y-10571293D02*
X2685920Y-10523674D01*
X2685920Y-10523674D02*
X2695444Y-10485579D01*
X2695444Y-10485579D02*
X2704967Y-10466531D01*
X2704967Y-10466531D02*
X2714491Y-10457008D01*
X2714491Y-10457008D02*
X2733539Y-10447484D01*
X2885920Y-10647484D02*
X2885920Y-10514150D01*
X2885920Y-10533198D02*
X2895443Y-10523674D01*
X2895443Y-10523674D02*
X2914491Y-10514150D01*
X2914491Y-10514150D02*
X2943063Y-10514150D01*
X2943063Y-10514150D02*
X2962110Y-10523674D01*
X2962110Y-10523674D02*
X2971634Y-10542722D01*
X2971634Y-10542722D02*
X2971634Y-10647484D01*
X2971634Y-10542722D02*
X2981158Y-10523674D01*
X2981158Y-10523674D02*
X3000205Y-10514150D01*
X3000205Y-10514150D02*
X3028777Y-10514150D01*
X3028777Y-10514150D02*
X3047824Y-10523674D01*
X3047824Y-10523674D02*
X3057348Y-10542722D01*
X3057348Y-10542722D02*
X3057348Y-10647484D01*
X3152586Y-10647484D02*
X3152586Y-10514150D01*
X3152586Y-10533198D02*
X3162110Y-10523674D01*
X3162110Y-10523674D02*
X3181158Y-10514150D01*
X3181158Y-10514150D02*
X3209729Y-10514150D01*
X3209729Y-10514150D02*
X3228777Y-10523674D01*
X3228777Y-10523674D02*
X3238301Y-10542722D01*
X3238301Y-10542722D02*
X3238301Y-10647484D01*
X3238301Y-10542722D02*
X3247824Y-10523674D01*
X3247824Y-10523674D02*
X3266872Y-10514150D01*
X3266872Y-10514150D02*
X3295443Y-10514150D01*
X3295443Y-10514150D02*
X3314491Y-10523674D01*
X3314491Y-10523674D02*
X3324015Y-10542722D01*
X3324015Y-10542722D02*
X3324015Y-10647484D01*
X3714491Y-10437960D02*
X3543063Y-10695103D01*
X3971634Y-10447484D02*
X3990682Y-10447484D01*
X3990682Y-10447484D02*
X4009729Y-10457008D01*
X4009729Y-10457008D02*
X4019253Y-10466531D01*
X4019253Y-10466531D02*
X4028777Y-10485579D01*
X4028777Y-10485579D02*
X4038301Y-10523674D01*
X4038301Y-10523674D02*
X4038301Y-10571293D01*
X4038301Y-10571293D02*
X4028777Y-10609389D01*
X4028777Y-10609389D02*
X4019253Y-10628436D01*
X4019253Y-10628436D02*
X4009729Y-10637960D01*
X4009729Y-10637960D02*
X3990682Y-10647484D01*
X3990682Y-10647484D02*
X3971634Y-10647484D01*
X3971634Y-10647484D02*
X3952586Y-10637960D01*
X3952586Y-10637960D02*
X3943063Y-10628436D01*
X3943063Y-10628436D02*
X3933539Y-10609389D01*
X3933539Y-10609389D02*
X3924015Y-10571293D01*
X3924015Y-10571293D02*
X3924015Y-10523674D01*
X3924015Y-10523674D02*
X3933539Y-10485579D01*
X3933539Y-10485579D02*
X3943063Y-10466531D01*
X3943063Y-10466531D02*
X3952586Y-10457008D01*
X3952586Y-10457008D02*
X3971634Y-10447484D01*
X4124015Y-10628436D02*
X4133539Y-10637960D01*
X4133539Y-10637960D02*
X4124015Y-10647484D01*
X4124015Y-10647484D02*
X4114491Y-10637960D01*
X4114491Y-10637960D02*
X4124015Y-10628436D01*
X4124015Y-10628436D02*
X4124015Y-10647484D01*
X4257348Y-10447484D02*
X4276396Y-10447484D01*
X4276396Y-10447484D02*
X4295444Y-10457008D01*
X4295444Y-10457008D02*
X4304968Y-10466531D01*
X4304968Y-10466531D02*
X4314491Y-10485579D01*
X4314491Y-10485579D02*
X4324015Y-10523674D01*
X4324015Y-10523674D02*
X4324015Y-10571293D01*
X4324015Y-10571293D02*
X4314491Y-10609389D01*
X4314491Y-10609389D02*
X4304968Y-10628436D01*
X4304968Y-10628436D02*
X4295444Y-10637960D01*
X4295444Y-10637960D02*
X4276396Y-10647484D01*
X4276396Y-10647484D02*
X4257348Y-10647484D01*
X4257348Y-10647484D02*
X4238301Y-10637960D01*
X4238301Y-10637960D02*
X4228777Y-10628436D01*
X4228777Y-10628436D02*
X4219253Y-10609389D01*
X4219253Y-10609389D02*
X4209729Y-10571293D01*
X4209729Y-10571293D02*
X4209729Y-10523674D01*
X4209729Y-10523674D02*
X4219253Y-10485579D01*
X4219253Y-10485579D02*
X4228777Y-10466531D01*
X4228777Y-10466531D02*
X4238301Y-10457008D01*
X4238301Y-10457008D02*
X4257348Y-10447484D01*
X4514491Y-10647484D02*
X4400206Y-10647484D01*
X4457348Y-10647484D02*
X4457348Y-10447484D01*
X4457348Y-10447484D02*
X4438301Y-10476055D01*
X4438301Y-10476055D02*
X4419253Y-10495103D01*
X4419253Y-10495103D02*
X4400206Y-10504627D01*
X4695444Y-10447484D02*
X4600206Y-10447484D01*
X4600206Y-10447484D02*
X4590682Y-10542722D01*
X4590682Y-10542722D02*
X4600206Y-10533198D01*
X4600206Y-10533198D02*
X4619253Y-10523674D01*
X4619253Y-10523674D02*
X4666872Y-10523674D01*
X4666872Y-10523674D02*
X4685920Y-10533198D01*
X4685920Y-10533198D02*
X4695444Y-10542722D01*
X4695444Y-10542722D02*
X4704968Y-10561770D01*
X4704968Y-10561770D02*
X4704968Y-10609389D01*
X4704968Y-10609389D02*
X4695444Y-10628436D01*
X4695444Y-10628436D02*
X4685920Y-10637960D01*
X4685920Y-10637960D02*
X4666872Y-10647484D01*
X4666872Y-10647484D02*
X4619253Y-10647484D01*
X4619253Y-10647484D02*
X4600206Y-10637960D01*
X4600206Y-10637960D02*
X4590682Y-10628436D01*
X4771634Y-10447484D02*
X4904968Y-10447484D01*
X4904968Y-10447484D02*
X4819253Y-10647484D01*
X4971634Y-10447484D02*
X4971634Y-10485579D01*
X5047825Y-10447484D02*
X5047825Y-10485579D01*
X5343063Y-10723674D02*
X5333539Y-10714150D01*
X5333539Y-10714150D02*
X5314491Y-10685579D01*
X5314491Y-10685579D02*
X5304968Y-10666531D01*
X5304968Y-10666531D02*
X5295444Y-10637960D01*
X5295444Y-10637960D02*
X5285920Y-10590341D01*
X5285920Y-10590341D02*
X5285920Y-10552246D01*
X5285920Y-10552246D02*
X5295444Y-10504627D01*
X5295444Y-10504627D02*
X5304968Y-10476055D01*
X5304968Y-10476055D02*
X5314491Y-10457008D01*
X5314491Y-10457008D02*
X5333539Y-10428436D01*
X5333539Y-10428436D02*
X5343063Y-10418912D01*
X5428777Y-10647484D02*
X5466872Y-10647484D01*
X5466872Y-10647484D02*
X5485920Y-10637960D01*
X5485920Y-10637960D02*
X5495444Y-10628436D01*
X5495444Y-10628436D02*
X5514491Y-10599865D01*
X5514491Y-10599865D02*
X5524015Y-10561770D01*
X5524015Y-10561770D02*
X5524015Y-10485579D01*
X5524015Y-10485579D02*
X5514491Y-10466531D01*
X5514491Y-10466531D02*
X5504968Y-10457008D01*
X5504968Y-10457008D02*
X5485920Y-10447484D01*
X5485920Y-10447484D02*
X5447825Y-10447484D01*
X5447825Y-10447484D02*
X5428777Y-10457008D01*
X5428777Y-10457008D02*
X5419253Y-10466531D01*
X5419253Y-10466531D02*
X5409730Y-10485579D01*
X5409730Y-10485579D02*
X5409730Y-10533198D01*
X5409730Y-10533198D02*
X5419253Y-10552246D01*
X5419253Y-10552246D02*
X5428777Y-10561770D01*
X5428777Y-10561770D02*
X5447825Y-10571293D01*
X5447825Y-10571293D02*
X5485920Y-10571293D01*
X5485920Y-10571293D02*
X5504968Y-10561770D01*
X5504968Y-10561770D02*
X5514491Y-10552246D01*
X5514491Y-10552246D02*
X5524015Y-10533198D01*
X5762110Y-10647484D02*
X5762110Y-10447484D01*
X5847825Y-10647484D02*
X5847825Y-10542722D01*
X5847825Y-10542722D02*
X5838301Y-10523674D01*
X5838301Y-10523674D02*
X5819253Y-10514150D01*
X5819253Y-10514150D02*
X5790682Y-10514150D01*
X5790682Y-10514150D02*
X5771634Y-10523674D01*
X5771634Y-10523674D02*
X5762110Y-10533198D01*
X5971634Y-10647484D02*
X5952587Y-10637960D01*
X5952587Y-10637960D02*
X5943063Y-10628436D01*
X5943063Y-10628436D02*
X5933539Y-10609389D01*
X5933539Y-10609389D02*
X5933539Y-10552246D01*
X5933539Y-10552246D02*
X5943063Y-10533198D01*
X5943063Y-10533198D02*
X5952587Y-10523674D01*
X5952587Y-10523674D02*
X5971634Y-10514150D01*
X5971634Y-10514150D02*
X6000206Y-10514150D01*
X6000206Y-10514150D02*
X6019253Y-10523674D01*
X6019253Y-10523674D02*
X6028777Y-10533198D01*
X6028777Y-10533198D02*
X6038301Y-10552246D01*
X6038301Y-10552246D02*
X6038301Y-10609389D01*
X6038301Y-10609389D02*
X6028777Y-10628436D01*
X6028777Y-10628436D02*
X6019253Y-10637960D01*
X6019253Y-10637960D02*
X6000206Y-10647484D01*
X6000206Y-10647484D02*
X5971634Y-10647484D01*
X6152587Y-10647484D02*
X6133539Y-10637960D01*
X6133539Y-10637960D02*
X6124015Y-10618912D01*
X6124015Y-10618912D02*
X6124015Y-10447484D01*
X6304968Y-10637960D02*
X6285920Y-10647484D01*
X6285920Y-10647484D02*
X6247825Y-10647484D01*
X6247825Y-10647484D02*
X6228777Y-10637960D01*
X6228777Y-10637960D02*
X6219253Y-10618912D01*
X6219253Y-10618912D02*
X6219253Y-10542722D01*
X6219253Y-10542722D02*
X6228777Y-10523674D01*
X6228777Y-10523674D02*
X6247825Y-10514150D01*
X6247825Y-10514150D02*
X6285920Y-10514150D01*
X6285920Y-10514150D02*
X6304968Y-10523674D01*
X6304968Y-10523674D02*
X6314491Y-10542722D01*
X6314491Y-10542722D02*
X6314491Y-10561770D01*
X6314491Y-10561770D02*
X6219253Y-10580817D01*
X6390682Y-10637960D02*
X6409730Y-10647484D01*
X6409730Y-10647484D02*
X6447825Y-10647484D01*
X6447825Y-10647484D02*
X6466872Y-10637960D01*
X6466872Y-10637960D02*
X6476396Y-10618912D01*
X6476396Y-10618912D02*
X6476396Y-10609389D01*
X6476396Y-10609389D02*
X6466872Y-10590341D01*
X6466872Y-10590341D02*
X6447825Y-10580817D01*
X6447825Y-10580817D02*
X6419253Y-10580817D01*
X6419253Y-10580817D02*
X6400206Y-10571293D01*
X6400206Y-10571293D02*
X6390682Y-10552246D01*
X6390682Y-10552246D02*
X6390682Y-10542722D01*
X6390682Y-10542722D02*
X6400206Y-10523674D01*
X6400206Y-10523674D02*
X6419253Y-10514150D01*
X6419253Y-10514150D02*
X6447825Y-10514150D01*
X6447825Y-10514150D02*
X6466872Y-10523674D01*
X6543063Y-10723674D02*
X6552587Y-10714150D01*
X6552587Y-10714150D02*
X6571634Y-10685579D01*
X6571634Y-10685579D02*
X6581158Y-10666531D01*
X6581158Y-10666531D02*
X6590682Y-10637960D01*
X6590682Y-10637960D02*
X6600206Y-10590341D01*
X6600206Y-10590341D02*
X6600206Y-10552246D01*
X6600206Y-10552246D02*
X6590682Y-10504627D01*
X6590682Y-10504627D02*
X6581158Y-10476055D01*
X6581158Y-10476055D02*
X6571634Y-10457008D01*
X6571634Y-10457008D02*
X6552587Y-10428436D01*
X6552587Y-10428436D02*
X6543063Y-10418912D01*
D12*
X1768000Y-10820000D02*
G75*
G03*
X1768000Y-10820000I-38100J0D01*
G01*
D10*
X2066872Y-10711484D02*
X2085920Y-10711484D01*
X2085920Y-10711484D02*
X2104967Y-10721008D01*
X2104967Y-10721008D02*
X2114491Y-10730531D01*
X2114491Y-10730531D02*
X2124015Y-10749579D01*
X2124015Y-10749579D02*
X2133539Y-10787674D01*
X2133539Y-10787674D02*
X2133539Y-10835293D01*
X2133539Y-10835293D02*
X2124015Y-10873389D01*
X2124015Y-10873389D02*
X2114491Y-10892436D01*
X2114491Y-10892436D02*
X2104967Y-10901960D01*
X2104967Y-10901960D02*
X2085920Y-10911484D01*
X2085920Y-10911484D02*
X2066872Y-10911484D01*
X2066872Y-10911484D02*
X2047824Y-10901960D01*
X2047824Y-10901960D02*
X2038301Y-10892436D01*
X2038301Y-10892436D02*
X2028777Y-10873389D01*
X2028777Y-10873389D02*
X2019253Y-10835293D01*
X2019253Y-10835293D02*
X2019253Y-10787674D01*
X2019253Y-10787674D02*
X2028777Y-10749579D01*
X2028777Y-10749579D02*
X2038301Y-10730531D01*
X2038301Y-10730531D02*
X2047824Y-10721008D01*
X2047824Y-10721008D02*
X2066872Y-10711484D01*
X2219253Y-10892436D02*
X2228777Y-10901960D01*
X2228777Y-10901960D02*
X2219253Y-10911484D01*
X2219253Y-10911484D02*
X2209729Y-10901960D01*
X2209729Y-10901960D02*
X2219253Y-10892436D01*
X2219253Y-10892436D02*
X2219253Y-10911484D01*
X2295444Y-10711484D02*
X2428777Y-10711484D01*
X2428777Y-10711484D02*
X2343063Y-10911484D01*
X2590682Y-10711484D02*
X2552586Y-10711484D01*
X2552586Y-10711484D02*
X2533539Y-10721008D01*
X2533539Y-10721008D02*
X2524015Y-10730531D01*
X2524015Y-10730531D02*
X2504967Y-10759103D01*
X2504967Y-10759103D02*
X2495444Y-10797198D01*
X2495444Y-10797198D02*
X2495444Y-10873389D01*
X2495444Y-10873389D02*
X2504967Y-10892436D01*
X2504967Y-10892436D02*
X2514491Y-10901960D01*
X2514491Y-10901960D02*
X2533539Y-10911484D01*
X2533539Y-10911484D02*
X2571634Y-10911484D01*
X2571634Y-10911484D02*
X2590682Y-10901960D01*
X2590682Y-10901960D02*
X2600205Y-10892436D01*
X2600205Y-10892436D02*
X2609729Y-10873389D01*
X2609729Y-10873389D02*
X2609729Y-10825770D01*
X2609729Y-10825770D02*
X2600205Y-10806722D01*
X2600205Y-10806722D02*
X2590682Y-10797198D01*
X2590682Y-10797198D02*
X2571634Y-10787674D01*
X2571634Y-10787674D02*
X2533539Y-10787674D01*
X2533539Y-10787674D02*
X2514491Y-10797198D01*
X2514491Y-10797198D02*
X2504967Y-10806722D01*
X2504967Y-10806722D02*
X2495444Y-10825770D01*
X2685920Y-10730531D02*
X2695444Y-10721008D01*
X2695444Y-10721008D02*
X2714491Y-10711484D01*
X2714491Y-10711484D02*
X2762110Y-10711484D01*
X2762110Y-10711484D02*
X2781158Y-10721008D01*
X2781158Y-10721008D02*
X2790682Y-10730531D01*
X2790682Y-10730531D02*
X2800205Y-10749579D01*
X2800205Y-10749579D02*
X2800205Y-10768627D01*
X2800205Y-10768627D02*
X2790682Y-10797198D01*
X2790682Y-10797198D02*
X2676396Y-10911484D01*
X2676396Y-10911484D02*
X2800205Y-10911484D01*
X2885920Y-10911484D02*
X2885920Y-10778150D01*
X2885920Y-10797198D02*
X2895443Y-10787674D01*
X2895443Y-10787674D02*
X2914491Y-10778150D01*
X2914491Y-10778150D02*
X2943063Y-10778150D01*
X2943063Y-10778150D02*
X2962110Y-10787674D01*
X2962110Y-10787674D02*
X2971634Y-10806722D01*
X2971634Y-10806722D02*
X2971634Y-10911484D01*
X2971634Y-10806722D02*
X2981158Y-10787674D01*
X2981158Y-10787674D02*
X3000205Y-10778150D01*
X3000205Y-10778150D02*
X3028777Y-10778150D01*
X3028777Y-10778150D02*
X3047824Y-10787674D01*
X3047824Y-10787674D02*
X3057348Y-10806722D01*
X3057348Y-10806722D02*
X3057348Y-10911484D01*
X3152586Y-10911484D02*
X3152586Y-10778150D01*
X3152586Y-10797198D02*
X3162110Y-10787674D01*
X3162110Y-10787674D02*
X3181158Y-10778150D01*
X3181158Y-10778150D02*
X3209729Y-10778150D01*
X3209729Y-10778150D02*
X3228777Y-10787674D01*
X3228777Y-10787674D02*
X3238301Y-10806722D01*
X3238301Y-10806722D02*
X3238301Y-10911484D01*
X3238301Y-10806722D02*
X3247824Y-10787674D01*
X3247824Y-10787674D02*
X3266872Y-10778150D01*
X3266872Y-10778150D02*
X3295443Y-10778150D01*
X3295443Y-10778150D02*
X3314491Y-10787674D01*
X3314491Y-10787674D02*
X3324015Y-10806722D01*
X3324015Y-10806722D02*
X3324015Y-10911484D01*
X3714491Y-10701960D02*
X3543063Y-10959103D01*
X3971634Y-10711484D02*
X3990682Y-10711484D01*
X3990682Y-10711484D02*
X4009729Y-10721008D01*
X4009729Y-10721008D02*
X4019253Y-10730531D01*
X4019253Y-10730531D02*
X4028777Y-10749579D01*
X4028777Y-10749579D02*
X4038301Y-10787674D01*
X4038301Y-10787674D02*
X4038301Y-10835293D01*
X4038301Y-10835293D02*
X4028777Y-10873389D01*
X4028777Y-10873389D02*
X4019253Y-10892436D01*
X4019253Y-10892436D02*
X4009729Y-10901960D01*
X4009729Y-10901960D02*
X3990682Y-10911484D01*
X3990682Y-10911484D02*
X3971634Y-10911484D01*
X3971634Y-10911484D02*
X3952586Y-10901960D01*
X3952586Y-10901960D02*
X3943063Y-10892436D01*
X3943063Y-10892436D02*
X3933539Y-10873389D01*
X3933539Y-10873389D02*
X3924015Y-10835293D01*
X3924015Y-10835293D02*
X3924015Y-10787674D01*
X3924015Y-10787674D02*
X3933539Y-10749579D01*
X3933539Y-10749579D02*
X3943063Y-10730531D01*
X3943063Y-10730531D02*
X3952586Y-10721008D01*
X3952586Y-10721008D02*
X3971634Y-10711484D01*
X4124015Y-10892436D02*
X4133539Y-10901960D01*
X4133539Y-10901960D02*
X4124015Y-10911484D01*
X4124015Y-10911484D02*
X4114491Y-10901960D01*
X4114491Y-10901960D02*
X4124015Y-10892436D01*
X4124015Y-10892436D02*
X4124015Y-10911484D01*
X4257348Y-10711484D02*
X4276396Y-10711484D01*
X4276396Y-10711484D02*
X4295444Y-10721008D01*
X4295444Y-10721008D02*
X4304968Y-10730531D01*
X4304968Y-10730531D02*
X4314491Y-10749579D01*
X4314491Y-10749579D02*
X4324015Y-10787674D01*
X4324015Y-10787674D02*
X4324015Y-10835293D01*
X4324015Y-10835293D02*
X4314491Y-10873389D01*
X4314491Y-10873389D02*
X4304968Y-10892436D01*
X4304968Y-10892436D02*
X4295444Y-10901960D01*
X4295444Y-10901960D02*
X4276396Y-10911484D01*
X4276396Y-10911484D02*
X4257348Y-10911484D01*
X4257348Y-10911484D02*
X4238301Y-10901960D01*
X4238301Y-10901960D02*
X4228777Y-10892436D01*
X4228777Y-10892436D02*
X4219253Y-10873389D01*
X4219253Y-10873389D02*
X4209729Y-10835293D01*
X4209729Y-10835293D02*
X4209729Y-10787674D01*
X4209729Y-10787674D02*
X4219253Y-10749579D01*
X4219253Y-10749579D02*
X4228777Y-10730531D01*
X4228777Y-10730531D02*
X4238301Y-10721008D01*
X4238301Y-10721008D02*
X4257348Y-10711484D01*
X4390682Y-10711484D02*
X4514491Y-10711484D01*
X4514491Y-10711484D02*
X4447825Y-10787674D01*
X4447825Y-10787674D02*
X4476396Y-10787674D01*
X4476396Y-10787674D02*
X4495444Y-10797198D01*
X4495444Y-10797198D02*
X4504968Y-10806722D01*
X4504968Y-10806722D02*
X4514491Y-10825770D01*
X4514491Y-10825770D02*
X4514491Y-10873389D01*
X4514491Y-10873389D02*
X4504968Y-10892436D01*
X4504968Y-10892436D02*
X4495444Y-10901960D01*
X4495444Y-10901960D02*
X4476396Y-10911484D01*
X4476396Y-10911484D02*
X4419253Y-10911484D01*
X4419253Y-10911484D02*
X4400206Y-10901960D01*
X4400206Y-10901960D02*
X4390682Y-10892436D01*
X4638301Y-10711484D02*
X4657349Y-10711484D01*
X4657349Y-10711484D02*
X4676396Y-10721008D01*
X4676396Y-10721008D02*
X4685920Y-10730531D01*
X4685920Y-10730531D02*
X4695444Y-10749579D01*
X4695444Y-10749579D02*
X4704968Y-10787674D01*
X4704968Y-10787674D02*
X4704968Y-10835293D01*
X4704968Y-10835293D02*
X4695444Y-10873389D01*
X4695444Y-10873389D02*
X4685920Y-10892436D01*
X4685920Y-10892436D02*
X4676396Y-10901960D01*
X4676396Y-10901960D02*
X4657349Y-10911484D01*
X4657349Y-10911484D02*
X4638301Y-10911484D01*
X4638301Y-10911484D02*
X4619253Y-10901960D01*
X4619253Y-10901960D02*
X4609729Y-10892436D01*
X4609729Y-10892436D02*
X4600206Y-10873389D01*
X4600206Y-10873389D02*
X4590682Y-10835293D01*
X4590682Y-10835293D02*
X4590682Y-10787674D01*
X4590682Y-10787674D02*
X4600206Y-10749579D01*
X4600206Y-10749579D02*
X4609729Y-10730531D01*
X4609729Y-10730531D02*
X4619253Y-10721008D01*
X4619253Y-10721008D02*
X4638301Y-10711484D01*
X4828777Y-10711484D02*
X4847825Y-10711484D01*
X4847825Y-10711484D02*
X4866872Y-10721008D01*
X4866872Y-10721008D02*
X4876396Y-10730531D01*
X4876396Y-10730531D02*
X4885920Y-10749579D01*
X4885920Y-10749579D02*
X4895444Y-10787674D01*
X4895444Y-10787674D02*
X4895444Y-10835293D01*
X4895444Y-10835293D02*
X4885920Y-10873389D01*
X4885920Y-10873389D02*
X4876396Y-10892436D01*
X4876396Y-10892436D02*
X4866872Y-10901960D01*
X4866872Y-10901960D02*
X4847825Y-10911484D01*
X4847825Y-10911484D02*
X4828777Y-10911484D01*
X4828777Y-10911484D02*
X4809729Y-10901960D01*
X4809729Y-10901960D02*
X4800206Y-10892436D01*
X4800206Y-10892436D02*
X4790682Y-10873389D01*
X4790682Y-10873389D02*
X4781158Y-10835293D01*
X4781158Y-10835293D02*
X4781158Y-10787674D01*
X4781158Y-10787674D02*
X4790682Y-10749579D01*
X4790682Y-10749579D02*
X4800206Y-10730531D01*
X4800206Y-10730531D02*
X4809729Y-10721008D01*
X4809729Y-10721008D02*
X4828777Y-10711484D01*
X4971634Y-10711484D02*
X4971634Y-10749579D01*
X5047825Y-10711484D02*
X5047825Y-10749579D01*
X5343063Y-10987674D02*
X5333539Y-10978150D01*
X5333539Y-10978150D02*
X5314491Y-10949579D01*
X5314491Y-10949579D02*
X5304968Y-10930531D01*
X5304968Y-10930531D02*
X5295444Y-10901960D01*
X5295444Y-10901960D02*
X5285920Y-10854341D01*
X5285920Y-10854341D02*
X5285920Y-10816246D01*
X5285920Y-10816246D02*
X5295444Y-10768627D01*
X5295444Y-10768627D02*
X5304968Y-10740055D01*
X5304968Y-10740055D02*
X5314491Y-10721008D01*
X5314491Y-10721008D02*
X5333539Y-10692436D01*
X5333539Y-10692436D02*
X5343063Y-10682912D01*
X5504968Y-10778150D02*
X5504968Y-10911484D01*
X5457349Y-10701960D02*
X5409730Y-10844817D01*
X5409730Y-10844817D02*
X5533539Y-10844817D01*
X5647825Y-10711484D02*
X5666872Y-10711484D01*
X5666872Y-10711484D02*
X5685920Y-10721008D01*
X5685920Y-10721008D02*
X5695444Y-10730531D01*
X5695444Y-10730531D02*
X5704968Y-10749579D01*
X5704968Y-10749579D02*
X5714491Y-10787674D01*
X5714491Y-10787674D02*
X5714491Y-10835293D01*
X5714491Y-10835293D02*
X5704968Y-10873389D01*
X5704968Y-10873389D02*
X5695444Y-10892436D01*
X5695444Y-10892436D02*
X5685920Y-10901960D01*
X5685920Y-10901960D02*
X5666872Y-10911484D01*
X5666872Y-10911484D02*
X5647825Y-10911484D01*
X5647825Y-10911484D02*
X5628777Y-10901960D01*
X5628777Y-10901960D02*
X5619253Y-10892436D01*
X5619253Y-10892436D02*
X5609729Y-10873389D01*
X5609729Y-10873389D02*
X5600206Y-10835293D01*
X5600206Y-10835293D02*
X5600206Y-10787674D01*
X5600206Y-10787674D02*
X5609729Y-10749579D01*
X5609729Y-10749579D02*
X5619253Y-10730531D01*
X5619253Y-10730531D02*
X5628777Y-10721008D01*
X5628777Y-10721008D02*
X5647825Y-10711484D01*
X5952587Y-10911484D02*
X5952587Y-10711484D01*
X6038301Y-10911484D02*
X6038301Y-10806722D01*
X6038301Y-10806722D02*
X6028777Y-10787674D01*
X6028777Y-10787674D02*
X6009730Y-10778150D01*
X6009730Y-10778150D02*
X5981158Y-10778150D01*
X5981158Y-10778150D02*
X5962110Y-10787674D01*
X5962110Y-10787674D02*
X5952587Y-10797198D01*
X6162110Y-10911484D02*
X6143063Y-10901960D01*
X6143063Y-10901960D02*
X6133539Y-10892436D01*
X6133539Y-10892436D02*
X6124015Y-10873389D01*
X6124015Y-10873389D02*
X6124015Y-10816246D01*
X6124015Y-10816246D02*
X6133539Y-10797198D01*
X6133539Y-10797198D02*
X6143063Y-10787674D01*
X6143063Y-10787674D02*
X6162110Y-10778150D01*
X6162110Y-10778150D02*
X6190682Y-10778150D01*
X6190682Y-10778150D02*
X6209730Y-10787674D01*
X6209730Y-10787674D02*
X6219253Y-10797198D01*
X6219253Y-10797198D02*
X6228777Y-10816246D01*
X6228777Y-10816246D02*
X6228777Y-10873389D01*
X6228777Y-10873389D02*
X6219253Y-10892436D01*
X6219253Y-10892436D02*
X6209730Y-10901960D01*
X6209730Y-10901960D02*
X6190682Y-10911484D01*
X6190682Y-10911484D02*
X6162110Y-10911484D01*
X6343063Y-10911484D02*
X6324015Y-10901960D01*
X6324015Y-10901960D02*
X6314491Y-10882912D01*
X6314491Y-10882912D02*
X6314491Y-10711484D01*
X6495444Y-10901960D02*
X6476396Y-10911484D01*
X6476396Y-10911484D02*
X6438301Y-10911484D01*
X6438301Y-10911484D02*
X6419253Y-10901960D01*
X6419253Y-10901960D02*
X6409730Y-10882912D01*
X6409730Y-10882912D02*
X6409730Y-10806722D01*
X6409730Y-10806722D02*
X6419253Y-10787674D01*
X6419253Y-10787674D02*
X6438301Y-10778150D01*
X6438301Y-10778150D02*
X6476396Y-10778150D01*
X6476396Y-10778150D02*
X6495444Y-10787674D01*
X6495444Y-10787674D02*
X6504968Y-10806722D01*
X6504968Y-10806722D02*
X6504968Y-10825770D01*
X6504968Y-10825770D02*
X6409730Y-10844817D01*
X6581158Y-10901960D02*
X6600206Y-10911484D01*
X6600206Y-10911484D02*
X6638301Y-10911484D01*
X6638301Y-10911484D02*
X6657349Y-10901960D01*
X6657349Y-10901960D02*
X6666872Y-10882912D01*
X6666872Y-10882912D02*
X6666872Y-10873389D01*
X6666872Y-10873389D02*
X6657349Y-10854341D01*
X6657349Y-10854341D02*
X6638301Y-10844817D01*
X6638301Y-10844817D02*
X6609730Y-10844817D01*
X6609730Y-10844817D02*
X6590682Y-10835293D01*
X6590682Y-10835293D02*
X6581158Y-10816246D01*
X6581158Y-10816246D02*
X6581158Y-10806722D01*
X6581158Y-10806722D02*
X6590682Y-10787674D01*
X6590682Y-10787674D02*
X6609730Y-10778150D01*
X6609730Y-10778150D02*
X6638301Y-10778150D01*
X6638301Y-10778150D02*
X6657349Y-10787674D01*
X6733539Y-10987674D02*
X6743063Y-10978150D01*
X6743063Y-10978150D02*
X6762111Y-10949579D01*
X6762111Y-10949579D02*
X6771634Y-10930531D01*
X6771634Y-10930531D02*
X6781158Y-10901960D01*
X6781158Y-10901960D02*
X6790682Y-10854341D01*
X6790682Y-10854341D02*
X6790682Y-10816246D01*
X6790682Y-10816246D02*
X6781158Y-10768627D01*
X6781158Y-10768627D02*
X6771634Y-10740055D01*
X6771634Y-10740055D02*
X6762111Y-10721008D01*
X6762111Y-10721008D02*
X6743063Y-10692436D01*
X6743063Y-10692436D02*
X6733539Y-10682912D01*
D13*
X1723000Y-11039000D02*
X1723000Y-11129000D01*
X1678000Y-11084000D02*
X1768000Y-11084000D01*
D10*
X2066872Y-10975484D02*
X2085920Y-10975484D01*
X2085920Y-10975484D02*
X2104967Y-10985008D01*
X2104967Y-10985008D02*
X2114491Y-10994531D01*
X2114491Y-10994531D02*
X2124015Y-11013579D01*
X2124015Y-11013579D02*
X2133539Y-11051674D01*
X2133539Y-11051674D02*
X2133539Y-11099293D01*
X2133539Y-11099293D02*
X2124015Y-11137389D01*
X2124015Y-11137389D02*
X2114491Y-11156436D01*
X2114491Y-11156436D02*
X2104967Y-11165960D01*
X2104967Y-11165960D02*
X2085920Y-11175484D01*
X2085920Y-11175484D02*
X2066872Y-11175484D01*
X2066872Y-11175484D02*
X2047824Y-11165960D01*
X2047824Y-11165960D02*
X2038301Y-11156436D01*
X2038301Y-11156436D02*
X2028777Y-11137389D01*
X2028777Y-11137389D02*
X2019253Y-11099293D01*
X2019253Y-11099293D02*
X2019253Y-11051674D01*
X2019253Y-11051674D02*
X2028777Y-11013579D01*
X2028777Y-11013579D02*
X2038301Y-10994531D01*
X2038301Y-10994531D02*
X2047824Y-10985008D01*
X2047824Y-10985008D02*
X2066872Y-10975484D01*
X2219253Y-11156436D02*
X2228777Y-11165960D01*
X2228777Y-11165960D02*
X2219253Y-11175484D01*
X2219253Y-11175484D02*
X2209729Y-11165960D01*
X2209729Y-11165960D02*
X2219253Y-11156436D01*
X2219253Y-11156436D02*
X2219253Y-11175484D01*
X2324015Y-11175484D02*
X2362110Y-11175484D01*
X2362110Y-11175484D02*
X2381158Y-11165960D01*
X2381158Y-11165960D02*
X2390682Y-11156436D01*
X2390682Y-11156436D02*
X2409729Y-11127865D01*
X2409729Y-11127865D02*
X2419253Y-11089770D01*
X2419253Y-11089770D02*
X2419253Y-11013579D01*
X2419253Y-11013579D02*
X2409729Y-10994531D01*
X2409729Y-10994531D02*
X2400205Y-10985008D01*
X2400205Y-10985008D02*
X2381158Y-10975484D01*
X2381158Y-10975484D02*
X2343063Y-10975484D01*
X2343063Y-10975484D02*
X2324015Y-10985008D01*
X2324015Y-10985008D02*
X2314491Y-10994531D01*
X2314491Y-10994531D02*
X2304967Y-11013579D01*
X2304967Y-11013579D02*
X2304967Y-11061198D01*
X2304967Y-11061198D02*
X2314491Y-11080246D01*
X2314491Y-11080246D02*
X2324015Y-11089770D01*
X2324015Y-11089770D02*
X2343063Y-11099293D01*
X2343063Y-11099293D02*
X2381158Y-11099293D01*
X2381158Y-11099293D02*
X2400205Y-11089770D01*
X2400205Y-11089770D02*
X2409729Y-11080246D01*
X2409729Y-11080246D02*
X2419253Y-11061198D01*
X2543063Y-10975484D02*
X2562110Y-10975484D01*
X2562110Y-10975484D02*
X2581158Y-10985008D01*
X2581158Y-10985008D02*
X2590682Y-10994531D01*
X2590682Y-10994531D02*
X2600205Y-11013579D01*
X2600205Y-11013579D02*
X2609729Y-11051674D01*
X2609729Y-11051674D02*
X2609729Y-11099293D01*
X2609729Y-11099293D02*
X2600205Y-11137389D01*
X2600205Y-11137389D02*
X2590682Y-11156436D01*
X2590682Y-11156436D02*
X2581158Y-11165960D01*
X2581158Y-11165960D02*
X2562110Y-11175484D01*
X2562110Y-11175484D02*
X2543063Y-11175484D01*
X2543063Y-11175484D02*
X2524015Y-11165960D01*
X2524015Y-11165960D02*
X2514491Y-11156436D01*
X2514491Y-11156436D02*
X2504967Y-11137389D01*
X2504967Y-11137389D02*
X2495444Y-11099293D01*
X2495444Y-11099293D02*
X2495444Y-11051674D01*
X2495444Y-11051674D02*
X2504967Y-11013579D01*
X2504967Y-11013579D02*
X2514491Y-10994531D01*
X2514491Y-10994531D02*
X2524015Y-10985008D01*
X2524015Y-10985008D02*
X2543063Y-10975484D01*
X2733539Y-10975484D02*
X2752586Y-10975484D01*
X2752586Y-10975484D02*
X2771634Y-10985008D01*
X2771634Y-10985008D02*
X2781158Y-10994531D01*
X2781158Y-10994531D02*
X2790682Y-11013579D01*
X2790682Y-11013579D02*
X2800205Y-11051674D01*
X2800205Y-11051674D02*
X2800205Y-11099293D01*
X2800205Y-11099293D02*
X2790682Y-11137389D01*
X2790682Y-11137389D02*
X2781158Y-11156436D01*
X2781158Y-11156436D02*
X2771634Y-11165960D01*
X2771634Y-11165960D02*
X2752586Y-11175484D01*
X2752586Y-11175484D02*
X2733539Y-11175484D01*
X2733539Y-11175484D02*
X2714491Y-11165960D01*
X2714491Y-11165960D02*
X2704967Y-11156436D01*
X2704967Y-11156436D02*
X2695444Y-11137389D01*
X2695444Y-11137389D02*
X2685920Y-11099293D01*
X2685920Y-11099293D02*
X2685920Y-11051674D01*
X2685920Y-11051674D02*
X2695444Y-11013579D01*
X2695444Y-11013579D02*
X2704967Y-10994531D01*
X2704967Y-10994531D02*
X2714491Y-10985008D01*
X2714491Y-10985008D02*
X2733539Y-10975484D01*
X2885920Y-11175484D02*
X2885920Y-11042150D01*
X2885920Y-11061198D02*
X2895443Y-11051674D01*
X2895443Y-11051674D02*
X2914491Y-11042150D01*
X2914491Y-11042150D02*
X2943063Y-11042150D01*
X2943063Y-11042150D02*
X2962110Y-11051674D01*
X2962110Y-11051674D02*
X2971634Y-11070722D01*
X2971634Y-11070722D02*
X2971634Y-11175484D01*
X2971634Y-11070722D02*
X2981158Y-11051674D01*
X2981158Y-11051674D02*
X3000205Y-11042150D01*
X3000205Y-11042150D02*
X3028777Y-11042150D01*
X3028777Y-11042150D02*
X3047824Y-11051674D01*
X3047824Y-11051674D02*
X3057348Y-11070722D01*
X3057348Y-11070722D02*
X3057348Y-11175484D01*
X3152586Y-11175484D02*
X3152586Y-11042150D01*
X3152586Y-11061198D02*
X3162110Y-11051674D01*
X3162110Y-11051674D02*
X3181158Y-11042150D01*
X3181158Y-11042150D02*
X3209729Y-11042150D01*
X3209729Y-11042150D02*
X3228777Y-11051674D01*
X3228777Y-11051674D02*
X3238301Y-11070722D01*
X3238301Y-11070722D02*
X3238301Y-11175484D01*
X3238301Y-11070722D02*
X3247824Y-11051674D01*
X3247824Y-11051674D02*
X3266872Y-11042150D01*
X3266872Y-11042150D02*
X3295443Y-11042150D01*
X3295443Y-11042150D02*
X3314491Y-11051674D01*
X3314491Y-11051674D02*
X3324015Y-11070722D01*
X3324015Y-11070722D02*
X3324015Y-11175484D01*
X3714491Y-10965960D02*
X3543063Y-11223103D01*
X3971634Y-10975484D02*
X3990682Y-10975484D01*
X3990682Y-10975484D02*
X4009729Y-10985008D01*
X4009729Y-10985008D02*
X4019253Y-10994531D01*
X4019253Y-10994531D02*
X4028777Y-11013579D01*
X4028777Y-11013579D02*
X4038301Y-11051674D01*
X4038301Y-11051674D02*
X4038301Y-11099293D01*
X4038301Y-11099293D02*
X4028777Y-11137389D01*
X4028777Y-11137389D02*
X4019253Y-11156436D01*
X4019253Y-11156436D02*
X4009729Y-11165960D01*
X4009729Y-11165960D02*
X3990682Y-11175484D01*
X3990682Y-11175484D02*
X3971634Y-11175484D01*
X3971634Y-11175484D02*
X3952586Y-11165960D01*
X3952586Y-11165960D02*
X3943063Y-11156436D01*
X3943063Y-11156436D02*
X3933539Y-11137389D01*
X3933539Y-11137389D02*
X3924015Y-11099293D01*
X3924015Y-11099293D02*
X3924015Y-11051674D01*
X3924015Y-11051674D02*
X3933539Y-11013579D01*
X3933539Y-11013579D02*
X3943063Y-10994531D01*
X3943063Y-10994531D02*
X3952586Y-10985008D01*
X3952586Y-10985008D02*
X3971634Y-10975484D01*
X4124015Y-11156436D02*
X4133539Y-11165960D01*
X4133539Y-11165960D02*
X4124015Y-11175484D01*
X4124015Y-11175484D02*
X4114491Y-11165960D01*
X4114491Y-11165960D02*
X4124015Y-11156436D01*
X4124015Y-11156436D02*
X4124015Y-11175484D01*
X4257348Y-10975484D02*
X4276396Y-10975484D01*
X4276396Y-10975484D02*
X4295444Y-10985008D01*
X4295444Y-10985008D02*
X4304968Y-10994531D01*
X4304968Y-10994531D02*
X4314491Y-11013579D01*
X4314491Y-11013579D02*
X4324015Y-11051674D01*
X4324015Y-11051674D02*
X4324015Y-11099293D01*
X4324015Y-11099293D02*
X4314491Y-11137389D01*
X4314491Y-11137389D02*
X4304968Y-11156436D01*
X4304968Y-11156436D02*
X4295444Y-11165960D01*
X4295444Y-11165960D02*
X4276396Y-11175484D01*
X4276396Y-11175484D02*
X4257348Y-11175484D01*
X4257348Y-11175484D02*
X4238301Y-11165960D01*
X4238301Y-11165960D02*
X4228777Y-11156436D01*
X4228777Y-11156436D02*
X4219253Y-11137389D01*
X4219253Y-11137389D02*
X4209729Y-11099293D01*
X4209729Y-11099293D02*
X4209729Y-11051674D01*
X4209729Y-11051674D02*
X4219253Y-11013579D01*
X4219253Y-11013579D02*
X4228777Y-10994531D01*
X4228777Y-10994531D02*
X4238301Y-10985008D01*
X4238301Y-10985008D02*
X4257348Y-10975484D01*
X4390682Y-10975484D02*
X4514491Y-10975484D01*
X4514491Y-10975484D02*
X4447825Y-11051674D01*
X4447825Y-11051674D02*
X4476396Y-11051674D01*
X4476396Y-11051674D02*
X4495444Y-11061198D01*
X4495444Y-11061198D02*
X4504968Y-11070722D01*
X4504968Y-11070722D02*
X4514491Y-11089770D01*
X4514491Y-11089770D02*
X4514491Y-11137389D01*
X4514491Y-11137389D02*
X4504968Y-11156436D01*
X4504968Y-11156436D02*
X4495444Y-11165960D01*
X4495444Y-11165960D02*
X4476396Y-11175484D01*
X4476396Y-11175484D02*
X4419253Y-11175484D01*
X4419253Y-11175484D02*
X4400206Y-11165960D01*
X4400206Y-11165960D02*
X4390682Y-11156436D01*
X4695444Y-10975484D02*
X4600206Y-10975484D01*
X4600206Y-10975484D02*
X4590682Y-11070722D01*
X4590682Y-11070722D02*
X4600206Y-11061198D01*
X4600206Y-11061198D02*
X4619253Y-11051674D01*
X4619253Y-11051674D02*
X4666872Y-11051674D01*
X4666872Y-11051674D02*
X4685920Y-11061198D01*
X4685920Y-11061198D02*
X4695444Y-11070722D01*
X4695444Y-11070722D02*
X4704968Y-11089770D01*
X4704968Y-11089770D02*
X4704968Y-11137389D01*
X4704968Y-11137389D02*
X4695444Y-11156436D01*
X4695444Y-11156436D02*
X4685920Y-11165960D01*
X4685920Y-11165960D02*
X4666872Y-11175484D01*
X4666872Y-11175484D02*
X4619253Y-11175484D01*
X4619253Y-11175484D02*
X4600206Y-11165960D01*
X4600206Y-11165960D02*
X4590682Y-11156436D01*
X4876396Y-11042150D02*
X4876396Y-11175484D01*
X4828777Y-10965960D02*
X4781158Y-11108817D01*
X4781158Y-11108817D02*
X4904968Y-11108817D01*
X4971634Y-10975484D02*
X4971634Y-11013579D01*
X5047825Y-10975484D02*
X5047825Y-11013579D01*
X5343063Y-11251674D02*
X5333539Y-11242150D01*
X5333539Y-11242150D02*
X5314491Y-11213579D01*
X5314491Y-11213579D02*
X5304968Y-11194531D01*
X5304968Y-11194531D02*
X5295444Y-11165960D01*
X5295444Y-11165960D02*
X5285920Y-11118341D01*
X5285920Y-11118341D02*
X5285920Y-11080246D01*
X5285920Y-11080246D02*
X5295444Y-11032627D01*
X5295444Y-11032627D02*
X5304968Y-11004055D01*
X5304968Y-11004055D02*
X5314491Y-10985008D01*
X5314491Y-10985008D02*
X5333539Y-10956436D01*
X5333539Y-10956436D02*
X5343063Y-10946912D01*
X5524015Y-11175484D02*
X5409730Y-11175484D01*
X5466872Y-11175484D02*
X5466872Y-10975484D01*
X5466872Y-10975484D02*
X5447825Y-11004055D01*
X5447825Y-11004055D02*
X5428777Y-11023103D01*
X5428777Y-11023103D02*
X5409730Y-11032627D01*
X5638301Y-11061198D02*
X5619253Y-11051674D01*
X5619253Y-11051674D02*
X5609729Y-11042150D01*
X5609729Y-11042150D02*
X5600206Y-11023103D01*
X5600206Y-11023103D02*
X5600206Y-11013579D01*
X5600206Y-11013579D02*
X5609729Y-10994531D01*
X5609729Y-10994531D02*
X5619253Y-10985008D01*
X5619253Y-10985008D02*
X5638301Y-10975484D01*
X5638301Y-10975484D02*
X5676396Y-10975484D01*
X5676396Y-10975484D02*
X5695444Y-10985008D01*
X5695444Y-10985008D02*
X5704968Y-10994531D01*
X5704968Y-10994531D02*
X5714491Y-11013579D01*
X5714491Y-11013579D02*
X5714491Y-11023103D01*
X5714491Y-11023103D02*
X5704968Y-11042150D01*
X5704968Y-11042150D02*
X5695444Y-11051674D01*
X5695444Y-11051674D02*
X5676396Y-11061198D01*
X5676396Y-11061198D02*
X5638301Y-11061198D01*
X5638301Y-11061198D02*
X5619253Y-11070722D01*
X5619253Y-11070722D02*
X5609729Y-11080246D01*
X5609729Y-11080246D02*
X5600206Y-11099293D01*
X5600206Y-11099293D02*
X5600206Y-11137389D01*
X5600206Y-11137389D02*
X5609729Y-11156436D01*
X5609729Y-11156436D02*
X5619253Y-11165960D01*
X5619253Y-11165960D02*
X5638301Y-11175484D01*
X5638301Y-11175484D02*
X5676396Y-11175484D01*
X5676396Y-11175484D02*
X5695444Y-11165960D01*
X5695444Y-11165960D02*
X5704968Y-11156436D01*
X5704968Y-11156436D02*
X5714491Y-11137389D01*
X5714491Y-11137389D02*
X5714491Y-11099293D01*
X5714491Y-11099293D02*
X5704968Y-11080246D01*
X5704968Y-11080246D02*
X5695444Y-11070722D01*
X5695444Y-11070722D02*
X5676396Y-11061198D01*
X5952587Y-11175484D02*
X5952587Y-10975484D01*
X6038301Y-11175484D02*
X6038301Y-11070722D01*
X6038301Y-11070722D02*
X6028777Y-11051674D01*
X6028777Y-11051674D02*
X6009730Y-11042150D01*
X6009730Y-11042150D02*
X5981158Y-11042150D01*
X5981158Y-11042150D02*
X5962110Y-11051674D01*
X5962110Y-11051674D02*
X5952587Y-11061198D01*
X6162110Y-11175484D02*
X6143063Y-11165960D01*
X6143063Y-11165960D02*
X6133539Y-11156436D01*
X6133539Y-11156436D02*
X6124015Y-11137389D01*
X6124015Y-11137389D02*
X6124015Y-11080246D01*
X6124015Y-11080246D02*
X6133539Y-11061198D01*
X6133539Y-11061198D02*
X6143063Y-11051674D01*
X6143063Y-11051674D02*
X6162110Y-11042150D01*
X6162110Y-11042150D02*
X6190682Y-11042150D01*
X6190682Y-11042150D02*
X6209730Y-11051674D01*
X6209730Y-11051674D02*
X6219253Y-11061198D01*
X6219253Y-11061198D02*
X6228777Y-11080246D01*
X6228777Y-11080246D02*
X6228777Y-11137389D01*
X6228777Y-11137389D02*
X6219253Y-11156436D01*
X6219253Y-11156436D02*
X6209730Y-11165960D01*
X6209730Y-11165960D02*
X6190682Y-11175484D01*
X6190682Y-11175484D02*
X6162110Y-11175484D01*
X6343063Y-11175484D02*
X6324015Y-11165960D01*
X6324015Y-11165960D02*
X6314491Y-11146912D01*
X6314491Y-11146912D02*
X6314491Y-10975484D01*
X6495444Y-11165960D02*
X6476396Y-11175484D01*
X6476396Y-11175484D02*
X6438301Y-11175484D01*
X6438301Y-11175484D02*
X6419253Y-11165960D01*
X6419253Y-11165960D02*
X6409730Y-11146912D01*
X6409730Y-11146912D02*
X6409730Y-11070722D01*
X6409730Y-11070722D02*
X6419253Y-11051674D01*
X6419253Y-11051674D02*
X6438301Y-11042150D01*
X6438301Y-11042150D02*
X6476396Y-11042150D01*
X6476396Y-11042150D02*
X6495444Y-11051674D01*
X6495444Y-11051674D02*
X6504968Y-11070722D01*
X6504968Y-11070722D02*
X6504968Y-11089770D01*
X6504968Y-11089770D02*
X6409730Y-11108817D01*
X6581158Y-11165960D02*
X6600206Y-11175484D01*
X6600206Y-11175484D02*
X6638301Y-11175484D01*
X6638301Y-11175484D02*
X6657349Y-11165960D01*
X6657349Y-11165960D02*
X6666872Y-11146912D01*
X6666872Y-11146912D02*
X6666872Y-11137389D01*
X6666872Y-11137389D02*
X6657349Y-11118341D01*
X6657349Y-11118341D02*
X6638301Y-11108817D01*
X6638301Y-11108817D02*
X6609730Y-11108817D01*
X6609730Y-11108817D02*
X6590682Y-11099293D01*
X6590682Y-11099293D02*
X6581158Y-11080246D01*
X6581158Y-11080246D02*
X6581158Y-11070722D01*
X6581158Y-11070722D02*
X6590682Y-11051674D01*
X6590682Y-11051674D02*
X6609730Y-11042150D01*
X6609730Y-11042150D02*
X6638301Y-11042150D01*
X6638301Y-11042150D02*
X6657349Y-11051674D01*
X6733539Y-11251674D02*
X6743063Y-11242150D01*
X6743063Y-11242150D02*
X6762111Y-11213579D01*
X6762111Y-11213579D02*
X6771634Y-11194531D01*
X6771634Y-11194531D02*
X6781158Y-11165960D01*
X6781158Y-11165960D02*
X6790682Y-11118341D01*
X6790682Y-11118341D02*
X6790682Y-11080246D01*
X6790682Y-11080246D02*
X6781158Y-11032627D01*
X6781158Y-11032627D02*
X6771634Y-11004055D01*
X6771634Y-11004055D02*
X6762111Y-10985008D01*
X6762111Y-10985008D02*
X6743063Y-10956436D01*
X6743063Y-10956436D02*
X6733539Y-10946912D01*
D14*
X1753356Y-11383356D02*
X1753356Y-11312644D01*
X1682644Y-11312644D01*
X1682644Y-11383356D01*
X1753356Y-11383356D01*
D10*
X2133539Y-11439484D02*
X2019253Y-11439484D01*
X2076396Y-11439484D02*
X2076396Y-11239484D01*
X2076396Y-11239484D02*
X2057348Y-11268055D01*
X2057348Y-11268055D02*
X2038301Y-11287103D01*
X2038301Y-11287103D02*
X2019253Y-11296627D01*
X2219253Y-11420436D02*
X2228777Y-11429960D01*
X2228777Y-11429960D02*
X2219253Y-11439484D01*
X2219253Y-11439484D02*
X2209729Y-11429960D01*
X2209729Y-11429960D02*
X2219253Y-11420436D01*
X2219253Y-11420436D02*
X2219253Y-11439484D01*
X2352586Y-11239484D02*
X2371634Y-11239484D01*
X2371634Y-11239484D02*
X2390682Y-11249008D01*
X2390682Y-11249008D02*
X2400205Y-11258531D01*
X2400205Y-11258531D02*
X2409729Y-11277579D01*
X2409729Y-11277579D02*
X2419253Y-11315674D01*
X2419253Y-11315674D02*
X2419253Y-11363293D01*
X2419253Y-11363293D02*
X2409729Y-11401388D01*
X2409729Y-11401388D02*
X2400205Y-11420436D01*
X2400205Y-11420436D02*
X2390682Y-11429960D01*
X2390682Y-11429960D02*
X2371634Y-11439484D01*
X2371634Y-11439484D02*
X2352586Y-11439484D01*
X2352586Y-11439484D02*
X2333539Y-11429960D01*
X2333539Y-11429960D02*
X2324015Y-11420436D01*
X2324015Y-11420436D02*
X2314491Y-11401388D01*
X2314491Y-11401388D02*
X2304967Y-11363293D01*
X2304967Y-11363293D02*
X2304967Y-11315674D01*
X2304967Y-11315674D02*
X2314491Y-11277579D01*
X2314491Y-11277579D02*
X2324015Y-11258531D01*
X2324015Y-11258531D02*
X2333539Y-11249008D01*
X2333539Y-11249008D02*
X2352586Y-11239484D01*
X2543063Y-11239484D02*
X2562110Y-11239484D01*
X2562110Y-11239484D02*
X2581158Y-11249008D01*
X2581158Y-11249008D02*
X2590682Y-11258531D01*
X2590682Y-11258531D02*
X2600205Y-11277579D01*
X2600205Y-11277579D02*
X2609729Y-11315674D01*
X2609729Y-11315674D02*
X2609729Y-11363293D01*
X2609729Y-11363293D02*
X2600205Y-11401388D01*
X2600205Y-11401388D02*
X2590682Y-11420436D01*
X2590682Y-11420436D02*
X2581158Y-11429960D01*
X2581158Y-11429960D02*
X2562110Y-11439484D01*
X2562110Y-11439484D02*
X2543063Y-11439484D01*
X2543063Y-11439484D02*
X2524015Y-11429960D01*
X2524015Y-11429960D02*
X2514491Y-11420436D01*
X2514491Y-11420436D02*
X2504967Y-11401388D01*
X2504967Y-11401388D02*
X2495444Y-11363293D01*
X2495444Y-11363293D02*
X2495444Y-11315674D01*
X2495444Y-11315674D02*
X2504967Y-11277579D01*
X2504967Y-11277579D02*
X2514491Y-11258531D01*
X2514491Y-11258531D02*
X2524015Y-11249008D01*
X2524015Y-11249008D02*
X2543063Y-11239484D01*
X2733539Y-11239484D02*
X2752586Y-11239484D01*
X2752586Y-11239484D02*
X2771634Y-11249008D01*
X2771634Y-11249008D02*
X2781158Y-11258531D01*
X2781158Y-11258531D02*
X2790682Y-11277579D01*
X2790682Y-11277579D02*
X2800205Y-11315674D01*
X2800205Y-11315674D02*
X2800205Y-11363293D01*
X2800205Y-11363293D02*
X2790682Y-11401388D01*
X2790682Y-11401388D02*
X2781158Y-11420436D01*
X2781158Y-11420436D02*
X2771634Y-11429960D01*
X2771634Y-11429960D02*
X2752586Y-11439484D01*
X2752586Y-11439484D02*
X2733539Y-11439484D01*
X2733539Y-11439484D02*
X2714491Y-11429960D01*
X2714491Y-11429960D02*
X2704967Y-11420436D01*
X2704967Y-11420436D02*
X2695444Y-11401388D01*
X2695444Y-11401388D02*
X2685920Y-11363293D01*
X2685920Y-11363293D02*
X2685920Y-11315674D01*
X2685920Y-11315674D02*
X2695444Y-11277579D01*
X2695444Y-11277579D02*
X2704967Y-11258531D01*
X2704967Y-11258531D02*
X2714491Y-11249008D01*
X2714491Y-11249008D02*
X2733539Y-11239484D01*
X2885920Y-11439484D02*
X2885920Y-11306150D01*
X2885920Y-11325198D02*
X2895443Y-11315674D01*
X2895443Y-11315674D02*
X2914491Y-11306150D01*
X2914491Y-11306150D02*
X2943063Y-11306150D01*
X2943063Y-11306150D02*
X2962110Y-11315674D01*
X2962110Y-11315674D02*
X2971634Y-11334722D01*
X2971634Y-11334722D02*
X2971634Y-11439484D01*
X2971634Y-11334722D02*
X2981158Y-11315674D01*
X2981158Y-11315674D02*
X3000205Y-11306150D01*
X3000205Y-11306150D02*
X3028777Y-11306150D01*
X3028777Y-11306150D02*
X3047824Y-11315674D01*
X3047824Y-11315674D02*
X3057348Y-11334722D01*
X3057348Y-11334722D02*
X3057348Y-11439484D01*
X3152586Y-11439484D02*
X3152586Y-11306150D01*
X3152586Y-11325198D02*
X3162110Y-11315674D01*
X3162110Y-11315674D02*
X3181158Y-11306150D01*
X3181158Y-11306150D02*
X3209729Y-11306150D01*
X3209729Y-11306150D02*
X3228777Y-11315674D01*
X3228777Y-11315674D02*
X3238301Y-11334722D01*
X3238301Y-11334722D02*
X3238301Y-11439484D01*
X3238301Y-11334722D02*
X3247824Y-11315674D01*
X3247824Y-11315674D02*
X3266872Y-11306150D01*
X3266872Y-11306150D02*
X3295443Y-11306150D01*
X3295443Y-11306150D02*
X3314491Y-11315674D01*
X3314491Y-11315674D02*
X3324015Y-11334722D01*
X3324015Y-11334722D02*
X3324015Y-11439484D01*
X3714491Y-11229960D02*
X3543063Y-11487103D01*
X3971634Y-11239484D02*
X3990682Y-11239484D01*
X3990682Y-11239484D02*
X4009729Y-11249008D01*
X4009729Y-11249008D02*
X4019253Y-11258531D01*
X4019253Y-11258531D02*
X4028777Y-11277579D01*
X4028777Y-11277579D02*
X4038301Y-11315674D01*
X4038301Y-11315674D02*
X4038301Y-11363293D01*
X4038301Y-11363293D02*
X4028777Y-11401388D01*
X4028777Y-11401388D02*
X4019253Y-11420436D01*
X4019253Y-11420436D02*
X4009729Y-11429960D01*
X4009729Y-11429960D02*
X3990682Y-11439484D01*
X3990682Y-11439484D02*
X3971634Y-11439484D01*
X3971634Y-11439484D02*
X3952586Y-11429960D01*
X3952586Y-11429960D02*
X3943063Y-11420436D01*
X3943063Y-11420436D02*
X3933539Y-11401388D01*
X3933539Y-11401388D02*
X3924015Y-11363293D01*
X3924015Y-11363293D02*
X3924015Y-11315674D01*
X3924015Y-11315674D02*
X3933539Y-11277579D01*
X3933539Y-11277579D02*
X3943063Y-11258531D01*
X3943063Y-11258531D02*
X3952586Y-11249008D01*
X3952586Y-11249008D02*
X3971634Y-11239484D01*
X4124015Y-11420436D02*
X4133539Y-11429960D01*
X4133539Y-11429960D02*
X4124015Y-11439484D01*
X4124015Y-11439484D02*
X4114491Y-11429960D01*
X4114491Y-11429960D02*
X4124015Y-11420436D01*
X4124015Y-11420436D02*
X4124015Y-11439484D01*
X4257348Y-11239484D02*
X4276396Y-11239484D01*
X4276396Y-11239484D02*
X4295444Y-11249008D01*
X4295444Y-11249008D02*
X4304968Y-11258531D01*
X4304968Y-11258531D02*
X4314491Y-11277579D01*
X4314491Y-11277579D02*
X4324015Y-11315674D01*
X4324015Y-11315674D02*
X4324015Y-11363293D01*
X4324015Y-11363293D02*
X4314491Y-11401388D01*
X4314491Y-11401388D02*
X4304968Y-11420436D01*
X4304968Y-11420436D02*
X4295444Y-11429960D01*
X4295444Y-11429960D02*
X4276396Y-11439484D01*
X4276396Y-11439484D02*
X4257348Y-11439484D01*
X4257348Y-11439484D02*
X4238301Y-11429960D01*
X4238301Y-11429960D02*
X4228777Y-11420436D01*
X4228777Y-11420436D02*
X4219253Y-11401388D01*
X4219253Y-11401388D02*
X4209729Y-11363293D01*
X4209729Y-11363293D02*
X4209729Y-11315674D01*
X4209729Y-11315674D02*
X4219253Y-11277579D01*
X4219253Y-11277579D02*
X4228777Y-11258531D01*
X4228777Y-11258531D02*
X4238301Y-11249008D01*
X4238301Y-11249008D02*
X4257348Y-11239484D01*
X4390682Y-11239484D02*
X4514491Y-11239484D01*
X4514491Y-11239484D02*
X4447825Y-11315674D01*
X4447825Y-11315674D02*
X4476396Y-11315674D01*
X4476396Y-11315674D02*
X4495444Y-11325198D01*
X4495444Y-11325198D02*
X4504968Y-11334722D01*
X4504968Y-11334722D02*
X4514491Y-11353769D01*
X4514491Y-11353769D02*
X4514491Y-11401388D01*
X4514491Y-11401388D02*
X4504968Y-11420436D01*
X4504968Y-11420436D02*
X4495444Y-11429960D01*
X4495444Y-11429960D02*
X4476396Y-11439484D01*
X4476396Y-11439484D02*
X4419253Y-11439484D01*
X4419253Y-11439484D02*
X4400206Y-11429960D01*
X4400206Y-11429960D02*
X4390682Y-11420436D01*
X4609729Y-11439484D02*
X4647825Y-11439484D01*
X4647825Y-11439484D02*
X4666872Y-11429960D01*
X4666872Y-11429960D02*
X4676396Y-11420436D01*
X4676396Y-11420436D02*
X4695444Y-11391865D01*
X4695444Y-11391865D02*
X4704968Y-11353769D01*
X4704968Y-11353769D02*
X4704968Y-11277579D01*
X4704968Y-11277579D02*
X4695444Y-11258531D01*
X4695444Y-11258531D02*
X4685920Y-11249008D01*
X4685920Y-11249008D02*
X4666872Y-11239484D01*
X4666872Y-11239484D02*
X4628777Y-11239484D01*
X4628777Y-11239484D02*
X4609729Y-11249008D01*
X4609729Y-11249008D02*
X4600206Y-11258531D01*
X4600206Y-11258531D02*
X4590682Y-11277579D01*
X4590682Y-11277579D02*
X4590682Y-11325198D01*
X4590682Y-11325198D02*
X4600206Y-11344246D01*
X4600206Y-11344246D02*
X4609729Y-11353769D01*
X4609729Y-11353769D02*
X4628777Y-11363293D01*
X4628777Y-11363293D02*
X4666872Y-11363293D01*
X4666872Y-11363293D02*
X4685920Y-11353769D01*
X4685920Y-11353769D02*
X4695444Y-11344246D01*
X4695444Y-11344246D02*
X4704968Y-11325198D01*
X4876396Y-11306150D02*
X4876396Y-11439484D01*
X4828777Y-11229960D02*
X4781158Y-11372817D01*
X4781158Y-11372817D02*
X4904968Y-11372817D01*
X4971634Y-11239484D02*
X4971634Y-11277579D01*
X5047825Y-11239484D02*
X5047825Y-11277579D01*
X5343063Y-11515674D02*
X5333539Y-11506150D01*
X5333539Y-11506150D02*
X5314491Y-11477579D01*
X5314491Y-11477579D02*
X5304968Y-11458531D01*
X5304968Y-11458531D02*
X5295444Y-11429960D01*
X5295444Y-11429960D02*
X5285920Y-11382341D01*
X5285920Y-11382341D02*
X5285920Y-11344246D01*
X5285920Y-11344246D02*
X5295444Y-11296627D01*
X5295444Y-11296627D02*
X5304968Y-11268055D01*
X5304968Y-11268055D02*
X5314491Y-11249008D01*
X5314491Y-11249008D02*
X5333539Y-11220436D01*
X5333539Y-11220436D02*
X5343063Y-11210912D01*
X5504968Y-11306150D02*
X5504968Y-11439484D01*
X5457349Y-11229960D02*
X5409730Y-11372817D01*
X5409730Y-11372817D02*
X5533539Y-11372817D01*
X5714491Y-11439484D02*
X5600206Y-11439484D01*
X5657348Y-11439484D02*
X5657348Y-11239484D01*
X5657348Y-11239484D02*
X5638301Y-11268055D01*
X5638301Y-11268055D02*
X5619253Y-11287103D01*
X5619253Y-11287103D02*
X5600206Y-11296627D01*
X5952587Y-11439484D02*
X5952587Y-11239484D01*
X6038301Y-11439484D02*
X6038301Y-11334722D01*
X6038301Y-11334722D02*
X6028777Y-11315674D01*
X6028777Y-11315674D02*
X6009730Y-11306150D01*
X6009730Y-11306150D02*
X5981158Y-11306150D01*
X5981158Y-11306150D02*
X5962110Y-11315674D01*
X5962110Y-11315674D02*
X5952587Y-11325198D01*
X6162110Y-11439484D02*
X6143063Y-11429960D01*
X6143063Y-11429960D02*
X6133539Y-11420436D01*
X6133539Y-11420436D02*
X6124015Y-11401388D01*
X6124015Y-11401388D02*
X6124015Y-11344246D01*
X6124015Y-11344246D02*
X6133539Y-11325198D01*
X6133539Y-11325198D02*
X6143063Y-11315674D01*
X6143063Y-11315674D02*
X6162110Y-11306150D01*
X6162110Y-11306150D02*
X6190682Y-11306150D01*
X6190682Y-11306150D02*
X6209730Y-11315674D01*
X6209730Y-11315674D02*
X6219253Y-11325198D01*
X6219253Y-11325198D02*
X6228777Y-11344246D01*
X6228777Y-11344246D02*
X6228777Y-11401388D01*
X6228777Y-11401388D02*
X6219253Y-11420436D01*
X6219253Y-11420436D02*
X6209730Y-11429960D01*
X6209730Y-11429960D02*
X6190682Y-11439484D01*
X6190682Y-11439484D02*
X6162110Y-11439484D01*
X6343063Y-11439484D02*
X6324015Y-11429960D01*
X6324015Y-11429960D02*
X6314491Y-11410912D01*
X6314491Y-11410912D02*
X6314491Y-11239484D01*
X6495444Y-11429960D02*
X6476396Y-11439484D01*
X6476396Y-11439484D02*
X6438301Y-11439484D01*
X6438301Y-11439484D02*
X6419253Y-11429960D01*
X6419253Y-11429960D02*
X6409730Y-11410912D01*
X6409730Y-11410912D02*
X6409730Y-11334722D01*
X6409730Y-11334722D02*
X6419253Y-11315674D01*
X6419253Y-11315674D02*
X6438301Y-11306150D01*
X6438301Y-11306150D02*
X6476396Y-11306150D01*
X6476396Y-11306150D02*
X6495444Y-11315674D01*
X6495444Y-11315674D02*
X6504968Y-11334722D01*
X6504968Y-11334722D02*
X6504968Y-11353769D01*
X6504968Y-11353769D02*
X6409730Y-11372817D01*
X6581158Y-11429960D02*
X6600206Y-11439484D01*
X6600206Y-11439484D02*
X6638301Y-11439484D01*
X6638301Y-11439484D02*
X6657349Y-11429960D01*
X6657349Y-11429960D02*
X6666872Y-11410912D01*
X6666872Y-11410912D02*
X6666872Y-11401388D01*
X6666872Y-11401388D02*
X6657349Y-11382341D01*
X6657349Y-11382341D02*
X6638301Y-11372817D01*
X6638301Y-11372817D02*
X6609730Y-11372817D01*
X6609730Y-11372817D02*
X6590682Y-11363293D01*
X6590682Y-11363293D02*
X6581158Y-11344246D01*
X6581158Y-11344246D02*
X6581158Y-11334722D01*
X6581158Y-11334722D02*
X6590682Y-11315674D01*
X6590682Y-11315674D02*
X6609730Y-11306150D01*
X6609730Y-11306150D02*
X6638301Y-11306150D01*
X6638301Y-11306150D02*
X6657349Y-11315674D01*
X6733539Y-11515674D02*
X6743063Y-11506150D01*
X6743063Y-11506150D02*
X6762111Y-11477579D01*
X6762111Y-11477579D02*
X6771634Y-11458531D01*
X6771634Y-11458531D02*
X6781158Y-11429960D01*
X6781158Y-11429960D02*
X6790682Y-11382341D01*
X6790682Y-11382341D02*
X6790682Y-11344246D01*
X6790682Y-11344246D02*
X6781158Y-11296627D01*
X6781158Y-11296627D02*
X6771634Y-11268055D01*
X6771634Y-11268055D02*
X6762111Y-11249008D01*
X6762111Y-11249008D02*
X6743063Y-11220436D01*
X6743063Y-11220436D02*
X6733539Y-11210912D01*
D15*
X1713000Y-11667000D02*
X1768000Y-11612000D01*
X1713000Y-11557000D01*
X1658000Y-11612000D01*
X1713000Y-11667000D01*
D10*
X2133539Y-11703484D02*
X2019253Y-11703484D01*
X2076396Y-11703484D02*
X2076396Y-11503484D01*
X2076396Y-11503484D02*
X2057348Y-11532055D01*
X2057348Y-11532055D02*
X2038301Y-11551103D01*
X2038301Y-11551103D02*
X2019253Y-11560627D01*
X2219253Y-11684436D02*
X2228777Y-11693960D01*
X2228777Y-11693960D02*
X2219253Y-11703484D01*
X2219253Y-11703484D02*
X2209729Y-11693960D01*
X2209729Y-11693960D02*
X2219253Y-11684436D01*
X2219253Y-11684436D02*
X2219253Y-11703484D01*
X2419253Y-11703484D02*
X2304967Y-11703484D01*
X2362110Y-11703484D02*
X2362110Y-11503484D01*
X2362110Y-11503484D02*
X2343063Y-11532055D01*
X2343063Y-11532055D02*
X2324015Y-11551103D01*
X2324015Y-11551103D02*
X2304967Y-11560627D01*
X2543063Y-11503484D02*
X2562110Y-11503484D01*
X2562110Y-11503484D02*
X2581158Y-11513008D01*
X2581158Y-11513008D02*
X2590682Y-11522531D01*
X2590682Y-11522531D02*
X2600205Y-11541579D01*
X2600205Y-11541579D02*
X2609729Y-11579674D01*
X2609729Y-11579674D02*
X2609729Y-11627293D01*
X2609729Y-11627293D02*
X2600205Y-11665388D01*
X2600205Y-11665388D02*
X2590682Y-11684436D01*
X2590682Y-11684436D02*
X2581158Y-11693960D01*
X2581158Y-11693960D02*
X2562110Y-11703484D01*
X2562110Y-11703484D02*
X2543063Y-11703484D01*
X2543063Y-11703484D02*
X2524015Y-11693960D01*
X2524015Y-11693960D02*
X2514491Y-11684436D01*
X2514491Y-11684436D02*
X2504967Y-11665388D01*
X2504967Y-11665388D02*
X2495444Y-11627293D01*
X2495444Y-11627293D02*
X2495444Y-11579674D01*
X2495444Y-11579674D02*
X2504967Y-11541579D01*
X2504967Y-11541579D02*
X2514491Y-11522531D01*
X2514491Y-11522531D02*
X2524015Y-11513008D01*
X2524015Y-11513008D02*
X2543063Y-11503484D01*
X2733539Y-11503484D02*
X2752586Y-11503484D01*
X2752586Y-11503484D02*
X2771634Y-11513008D01*
X2771634Y-11513008D02*
X2781158Y-11522531D01*
X2781158Y-11522531D02*
X2790682Y-11541579D01*
X2790682Y-11541579D02*
X2800205Y-11579674D01*
X2800205Y-11579674D02*
X2800205Y-11627293D01*
X2800205Y-11627293D02*
X2790682Y-11665388D01*
X2790682Y-11665388D02*
X2781158Y-11684436D01*
X2781158Y-11684436D02*
X2771634Y-11693960D01*
X2771634Y-11693960D02*
X2752586Y-11703484D01*
X2752586Y-11703484D02*
X2733539Y-11703484D01*
X2733539Y-11703484D02*
X2714491Y-11693960D01*
X2714491Y-11693960D02*
X2704967Y-11684436D01*
X2704967Y-11684436D02*
X2695444Y-11665388D01*
X2695444Y-11665388D02*
X2685920Y-11627293D01*
X2685920Y-11627293D02*
X2685920Y-11579674D01*
X2685920Y-11579674D02*
X2695444Y-11541579D01*
X2695444Y-11541579D02*
X2704967Y-11522531D01*
X2704967Y-11522531D02*
X2714491Y-11513008D01*
X2714491Y-11513008D02*
X2733539Y-11503484D01*
X2885920Y-11703484D02*
X2885920Y-11570150D01*
X2885920Y-11589198D02*
X2895443Y-11579674D01*
X2895443Y-11579674D02*
X2914491Y-11570150D01*
X2914491Y-11570150D02*
X2943063Y-11570150D01*
X2943063Y-11570150D02*
X2962110Y-11579674D01*
X2962110Y-11579674D02*
X2971634Y-11598722D01*
X2971634Y-11598722D02*
X2971634Y-11703484D01*
X2971634Y-11598722D02*
X2981158Y-11579674D01*
X2981158Y-11579674D02*
X3000205Y-11570150D01*
X3000205Y-11570150D02*
X3028777Y-11570150D01*
X3028777Y-11570150D02*
X3047824Y-11579674D01*
X3047824Y-11579674D02*
X3057348Y-11598722D01*
X3057348Y-11598722D02*
X3057348Y-11703484D01*
X3152586Y-11703484D02*
X3152586Y-11570150D01*
X3152586Y-11589198D02*
X3162110Y-11579674D01*
X3162110Y-11579674D02*
X3181158Y-11570150D01*
X3181158Y-11570150D02*
X3209729Y-11570150D01*
X3209729Y-11570150D02*
X3228777Y-11579674D01*
X3228777Y-11579674D02*
X3238301Y-11598722D01*
X3238301Y-11598722D02*
X3238301Y-11703484D01*
X3238301Y-11598722D02*
X3247824Y-11579674D01*
X3247824Y-11579674D02*
X3266872Y-11570150D01*
X3266872Y-11570150D02*
X3295443Y-11570150D01*
X3295443Y-11570150D02*
X3314491Y-11579674D01*
X3314491Y-11579674D02*
X3324015Y-11598722D01*
X3324015Y-11598722D02*
X3324015Y-11703484D01*
X3714491Y-11493960D02*
X3543063Y-11751103D01*
X3971634Y-11503484D02*
X3990682Y-11503484D01*
X3990682Y-11503484D02*
X4009729Y-11513008D01*
X4009729Y-11513008D02*
X4019253Y-11522531D01*
X4019253Y-11522531D02*
X4028777Y-11541579D01*
X4028777Y-11541579D02*
X4038301Y-11579674D01*
X4038301Y-11579674D02*
X4038301Y-11627293D01*
X4038301Y-11627293D02*
X4028777Y-11665388D01*
X4028777Y-11665388D02*
X4019253Y-11684436D01*
X4019253Y-11684436D02*
X4009729Y-11693960D01*
X4009729Y-11693960D02*
X3990682Y-11703484D01*
X3990682Y-11703484D02*
X3971634Y-11703484D01*
X3971634Y-11703484D02*
X3952586Y-11693960D01*
X3952586Y-11693960D02*
X3943063Y-11684436D01*
X3943063Y-11684436D02*
X3933539Y-11665388D01*
X3933539Y-11665388D02*
X3924015Y-11627293D01*
X3924015Y-11627293D02*
X3924015Y-11579674D01*
X3924015Y-11579674D02*
X3933539Y-11541579D01*
X3933539Y-11541579D02*
X3943063Y-11522531D01*
X3943063Y-11522531D02*
X3952586Y-11513008D01*
X3952586Y-11513008D02*
X3971634Y-11503484D01*
X4124015Y-11684436D02*
X4133539Y-11693960D01*
X4133539Y-11693960D02*
X4124015Y-11703484D01*
X4124015Y-11703484D02*
X4114491Y-11693960D01*
X4114491Y-11693960D02*
X4124015Y-11684436D01*
X4124015Y-11684436D02*
X4124015Y-11703484D01*
X4257348Y-11503484D02*
X4276396Y-11503484D01*
X4276396Y-11503484D02*
X4295444Y-11513008D01*
X4295444Y-11513008D02*
X4304968Y-11522531D01*
X4304968Y-11522531D02*
X4314491Y-11541579D01*
X4314491Y-11541579D02*
X4324015Y-11579674D01*
X4324015Y-11579674D02*
X4324015Y-11627293D01*
X4324015Y-11627293D02*
X4314491Y-11665388D01*
X4314491Y-11665388D02*
X4304968Y-11684436D01*
X4304968Y-11684436D02*
X4295444Y-11693960D01*
X4295444Y-11693960D02*
X4276396Y-11703484D01*
X4276396Y-11703484D02*
X4257348Y-11703484D01*
X4257348Y-11703484D02*
X4238301Y-11693960D01*
X4238301Y-11693960D02*
X4228777Y-11684436D01*
X4228777Y-11684436D02*
X4219253Y-11665388D01*
X4219253Y-11665388D02*
X4209729Y-11627293D01*
X4209729Y-11627293D02*
X4209729Y-11579674D01*
X4209729Y-11579674D02*
X4219253Y-11541579D01*
X4219253Y-11541579D02*
X4228777Y-11522531D01*
X4228777Y-11522531D02*
X4238301Y-11513008D01*
X4238301Y-11513008D02*
X4257348Y-11503484D01*
X4495444Y-11570150D02*
X4495444Y-11703484D01*
X4447825Y-11493960D02*
X4400206Y-11636817D01*
X4400206Y-11636817D02*
X4524015Y-11636817D01*
X4581158Y-11503484D02*
X4704968Y-11503484D01*
X4704968Y-11503484D02*
X4638301Y-11579674D01*
X4638301Y-11579674D02*
X4666872Y-11579674D01*
X4666872Y-11579674D02*
X4685920Y-11589198D01*
X4685920Y-11589198D02*
X4695444Y-11598722D01*
X4695444Y-11598722D02*
X4704968Y-11617769D01*
X4704968Y-11617769D02*
X4704968Y-11665388D01*
X4704968Y-11665388D02*
X4695444Y-11684436D01*
X4695444Y-11684436D02*
X4685920Y-11693960D01*
X4685920Y-11693960D02*
X4666872Y-11703484D01*
X4666872Y-11703484D02*
X4609729Y-11703484D01*
X4609729Y-11703484D02*
X4590682Y-11693960D01*
X4590682Y-11693960D02*
X4581158Y-11684436D01*
X4771634Y-11503484D02*
X4895444Y-11503484D01*
X4895444Y-11503484D02*
X4828777Y-11579674D01*
X4828777Y-11579674D02*
X4857349Y-11579674D01*
X4857349Y-11579674D02*
X4876396Y-11589198D01*
X4876396Y-11589198D02*
X4885920Y-11598722D01*
X4885920Y-11598722D02*
X4895444Y-11617769D01*
X4895444Y-11617769D02*
X4895444Y-11665388D01*
X4895444Y-11665388D02*
X4885920Y-11684436D01*
X4885920Y-11684436D02*
X4876396Y-11693960D01*
X4876396Y-11693960D02*
X4857349Y-11703484D01*
X4857349Y-11703484D02*
X4800206Y-11703484D01*
X4800206Y-11703484D02*
X4781158Y-11693960D01*
X4781158Y-11693960D02*
X4771634Y-11684436D01*
X4971634Y-11503484D02*
X4971634Y-11541579D01*
X5047825Y-11503484D02*
X5047825Y-11541579D01*
X5343063Y-11779674D02*
X5333539Y-11770150D01*
X5333539Y-11770150D02*
X5314491Y-11741579D01*
X5314491Y-11741579D02*
X5304968Y-11722531D01*
X5304968Y-11722531D02*
X5295444Y-11693960D01*
X5295444Y-11693960D02*
X5285920Y-11646341D01*
X5285920Y-11646341D02*
X5285920Y-11608246D01*
X5285920Y-11608246D02*
X5295444Y-11560627D01*
X5295444Y-11560627D02*
X5304968Y-11532055D01*
X5304968Y-11532055D02*
X5314491Y-11513008D01*
X5314491Y-11513008D02*
X5333539Y-11484436D01*
X5333539Y-11484436D02*
X5343063Y-11474912D01*
X5504968Y-11570150D02*
X5504968Y-11703484D01*
X5457349Y-11493960D02*
X5409730Y-11636817D01*
X5409730Y-11636817D02*
X5533539Y-11636817D01*
X5762110Y-11703484D02*
X5762110Y-11503484D01*
X5847825Y-11703484D02*
X5847825Y-11598722D01*
X5847825Y-11598722D02*
X5838301Y-11579674D01*
X5838301Y-11579674D02*
X5819253Y-11570150D01*
X5819253Y-11570150D02*
X5790682Y-11570150D01*
X5790682Y-11570150D02*
X5771634Y-11579674D01*
X5771634Y-11579674D02*
X5762110Y-11589198D01*
X5971634Y-11703484D02*
X5952587Y-11693960D01*
X5952587Y-11693960D02*
X5943063Y-11684436D01*
X5943063Y-11684436D02*
X5933539Y-11665388D01*
X5933539Y-11665388D02*
X5933539Y-11608246D01*
X5933539Y-11608246D02*
X5943063Y-11589198D01*
X5943063Y-11589198D02*
X5952587Y-11579674D01*
X5952587Y-11579674D02*
X5971634Y-11570150D01*
X5971634Y-11570150D02*
X6000206Y-11570150D01*
X6000206Y-11570150D02*
X6019253Y-11579674D01*
X6019253Y-11579674D02*
X6028777Y-11589198D01*
X6028777Y-11589198D02*
X6038301Y-11608246D01*
X6038301Y-11608246D02*
X6038301Y-11665388D01*
X6038301Y-11665388D02*
X6028777Y-11684436D01*
X6028777Y-11684436D02*
X6019253Y-11693960D01*
X6019253Y-11693960D02*
X6000206Y-11703484D01*
X6000206Y-11703484D02*
X5971634Y-11703484D01*
X6152587Y-11703484D02*
X6133539Y-11693960D01*
X6133539Y-11693960D02*
X6124015Y-11674912D01*
X6124015Y-11674912D02*
X6124015Y-11503484D01*
X6304968Y-11693960D02*
X6285920Y-11703484D01*
X6285920Y-11703484D02*
X6247825Y-11703484D01*
X6247825Y-11703484D02*
X6228777Y-11693960D01*
X6228777Y-11693960D02*
X6219253Y-11674912D01*
X6219253Y-11674912D02*
X6219253Y-11598722D01*
X6219253Y-11598722D02*
X6228777Y-11579674D01*
X6228777Y-11579674D02*
X6247825Y-11570150D01*
X6247825Y-11570150D02*
X6285920Y-11570150D01*
X6285920Y-11570150D02*
X6304968Y-11579674D01*
X6304968Y-11579674D02*
X6314491Y-11598722D01*
X6314491Y-11598722D02*
X6314491Y-11617769D01*
X6314491Y-11617769D02*
X6219253Y-11636817D01*
X6390682Y-11693960D02*
X6409730Y-11703484D01*
X6409730Y-11703484D02*
X6447825Y-11703484D01*
X6447825Y-11703484D02*
X6466872Y-11693960D01*
X6466872Y-11693960D02*
X6476396Y-11674912D01*
X6476396Y-11674912D02*
X6476396Y-11665388D01*
X6476396Y-11665388D02*
X6466872Y-11646341D01*
X6466872Y-11646341D02*
X6447825Y-11636817D01*
X6447825Y-11636817D02*
X6419253Y-11636817D01*
X6419253Y-11636817D02*
X6400206Y-11627293D01*
X6400206Y-11627293D02*
X6390682Y-11608246D01*
X6390682Y-11608246D02*
X6390682Y-11598722D01*
X6390682Y-11598722D02*
X6400206Y-11579674D01*
X6400206Y-11579674D02*
X6419253Y-11570150D01*
X6419253Y-11570150D02*
X6447825Y-11570150D01*
X6447825Y-11570150D02*
X6466872Y-11579674D01*
X6543063Y-11779674D02*
X6552587Y-11770150D01*
X6552587Y-11770150D02*
X6571634Y-11741579D01*
X6571634Y-11741579D02*
X6581158Y-11722531D01*
X6581158Y-11722531D02*
X6590682Y-11693960D01*
X6590682Y-11693960D02*
X6600206Y-11646341D01*
X6600206Y-11646341D02*
X6600206Y-11608246D01*
X6600206Y-11608246D02*
X6590682Y-11560627D01*
X6590682Y-11560627D02*
X6581158Y-11532055D01*
X6581158Y-11532055D02*
X6571634Y-11513008D01*
X6571634Y-11513008D02*
X6552587Y-11484436D01*
X6552587Y-11484436D02*
X6543063Y-11474912D01*
D16*
X1638000Y-11811000D02*
X1768000Y-11941000D01*
X1768000Y-11811000D02*
X1638000Y-11941000D01*
X1768000Y-11876000D02*
G75*
G03*
X1768000Y-11876000I-65000J0D01*
G01*
D10*
X2133539Y-11967484D02*
X2019253Y-11967484D01*
X2076396Y-11967484D02*
X2076396Y-11767484D01*
X2076396Y-11767484D02*
X2057348Y-11796055D01*
X2057348Y-11796055D02*
X2038301Y-11815103D01*
X2038301Y-11815103D02*
X2019253Y-11824627D01*
X2219253Y-11948436D02*
X2228777Y-11957960D01*
X2228777Y-11957960D02*
X2219253Y-11967484D01*
X2219253Y-11967484D02*
X2209729Y-11957960D01*
X2209729Y-11957960D02*
X2219253Y-11948436D01*
X2219253Y-11948436D02*
X2219253Y-11967484D01*
X2295444Y-11767484D02*
X2419253Y-11767484D01*
X2419253Y-11767484D02*
X2352586Y-11843674D01*
X2352586Y-11843674D02*
X2381158Y-11843674D01*
X2381158Y-11843674D02*
X2400205Y-11853198D01*
X2400205Y-11853198D02*
X2409729Y-11862722D01*
X2409729Y-11862722D02*
X2419253Y-11881769D01*
X2419253Y-11881769D02*
X2419253Y-11929388D01*
X2419253Y-11929388D02*
X2409729Y-11948436D01*
X2409729Y-11948436D02*
X2400205Y-11957960D01*
X2400205Y-11957960D02*
X2381158Y-11967484D01*
X2381158Y-11967484D02*
X2324015Y-11967484D01*
X2324015Y-11967484D02*
X2304967Y-11957960D01*
X2304967Y-11957960D02*
X2295444Y-11948436D01*
X2543063Y-11767484D02*
X2562110Y-11767484D01*
X2562110Y-11767484D02*
X2581158Y-11777008D01*
X2581158Y-11777008D02*
X2590682Y-11786531D01*
X2590682Y-11786531D02*
X2600205Y-11805579D01*
X2600205Y-11805579D02*
X2609729Y-11843674D01*
X2609729Y-11843674D02*
X2609729Y-11891293D01*
X2609729Y-11891293D02*
X2600205Y-11929388D01*
X2600205Y-11929388D02*
X2590682Y-11948436D01*
X2590682Y-11948436D02*
X2581158Y-11957960D01*
X2581158Y-11957960D02*
X2562110Y-11967484D01*
X2562110Y-11967484D02*
X2543063Y-11967484D01*
X2543063Y-11967484D02*
X2524015Y-11957960D01*
X2524015Y-11957960D02*
X2514491Y-11948436D01*
X2514491Y-11948436D02*
X2504967Y-11929388D01*
X2504967Y-11929388D02*
X2495444Y-11891293D01*
X2495444Y-11891293D02*
X2495444Y-11843674D01*
X2495444Y-11843674D02*
X2504967Y-11805579D01*
X2504967Y-11805579D02*
X2514491Y-11786531D01*
X2514491Y-11786531D02*
X2524015Y-11777008D01*
X2524015Y-11777008D02*
X2543063Y-11767484D01*
X2733539Y-11767484D02*
X2752586Y-11767484D01*
X2752586Y-11767484D02*
X2771634Y-11777008D01*
X2771634Y-11777008D02*
X2781158Y-11786531D01*
X2781158Y-11786531D02*
X2790682Y-11805579D01*
X2790682Y-11805579D02*
X2800205Y-11843674D01*
X2800205Y-11843674D02*
X2800205Y-11891293D01*
X2800205Y-11891293D02*
X2790682Y-11929388D01*
X2790682Y-11929388D02*
X2781158Y-11948436D01*
X2781158Y-11948436D02*
X2771634Y-11957960D01*
X2771634Y-11957960D02*
X2752586Y-11967484D01*
X2752586Y-11967484D02*
X2733539Y-11967484D01*
X2733539Y-11967484D02*
X2714491Y-11957960D01*
X2714491Y-11957960D02*
X2704967Y-11948436D01*
X2704967Y-11948436D02*
X2695444Y-11929388D01*
X2695444Y-11929388D02*
X2685920Y-11891293D01*
X2685920Y-11891293D02*
X2685920Y-11843674D01*
X2685920Y-11843674D02*
X2695444Y-11805579D01*
X2695444Y-11805579D02*
X2704967Y-11786531D01*
X2704967Y-11786531D02*
X2714491Y-11777008D01*
X2714491Y-11777008D02*
X2733539Y-11767484D01*
X2885920Y-11967484D02*
X2885920Y-11834150D01*
X2885920Y-11853198D02*
X2895443Y-11843674D01*
X2895443Y-11843674D02*
X2914491Y-11834150D01*
X2914491Y-11834150D02*
X2943063Y-11834150D01*
X2943063Y-11834150D02*
X2962110Y-11843674D01*
X2962110Y-11843674D02*
X2971634Y-11862722D01*
X2971634Y-11862722D02*
X2971634Y-11967484D01*
X2971634Y-11862722D02*
X2981158Y-11843674D01*
X2981158Y-11843674D02*
X3000205Y-11834150D01*
X3000205Y-11834150D02*
X3028777Y-11834150D01*
X3028777Y-11834150D02*
X3047824Y-11843674D01*
X3047824Y-11843674D02*
X3057348Y-11862722D01*
X3057348Y-11862722D02*
X3057348Y-11967484D01*
X3152586Y-11967484D02*
X3152586Y-11834150D01*
X3152586Y-11853198D02*
X3162110Y-11843674D01*
X3162110Y-11843674D02*
X3181158Y-11834150D01*
X3181158Y-11834150D02*
X3209729Y-11834150D01*
X3209729Y-11834150D02*
X3228777Y-11843674D01*
X3228777Y-11843674D02*
X3238301Y-11862722D01*
X3238301Y-11862722D02*
X3238301Y-11967484D01*
X3238301Y-11862722D02*
X3247824Y-11843674D01*
X3247824Y-11843674D02*
X3266872Y-11834150D01*
X3266872Y-11834150D02*
X3295443Y-11834150D01*
X3295443Y-11834150D02*
X3314491Y-11843674D01*
X3314491Y-11843674D02*
X3324015Y-11862722D01*
X3324015Y-11862722D02*
X3324015Y-11967484D01*
X3714491Y-11757960D02*
X3543063Y-12015103D01*
X3971634Y-11767484D02*
X3990682Y-11767484D01*
X3990682Y-11767484D02*
X4009729Y-11777008D01*
X4009729Y-11777008D02*
X4019253Y-11786531D01*
X4019253Y-11786531D02*
X4028777Y-11805579D01*
X4028777Y-11805579D02*
X4038301Y-11843674D01*
X4038301Y-11843674D02*
X4038301Y-11891293D01*
X4038301Y-11891293D02*
X4028777Y-11929388D01*
X4028777Y-11929388D02*
X4019253Y-11948436D01*
X4019253Y-11948436D02*
X4009729Y-11957960D01*
X4009729Y-11957960D02*
X3990682Y-11967484D01*
X3990682Y-11967484D02*
X3971634Y-11967484D01*
X3971634Y-11967484D02*
X3952586Y-11957960D01*
X3952586Y-11957960D02*
X3943063Y-11948436D01*
X3943063Y-11948436D02*
X3933539Y-11929388D01*
X3933539Y-11929388D02*
X3924015Y-11891293D01*
X3924015Y-11891293D02*
X3924015Y-11843674D01*
X3924015Y-11843674D02*
X3933539Y-11805579D01*
X3933539Y-11805579D02*
X3943063Y-11786531D01*
X3943063Y-11786531D02*
X3952586Y-11777008D01*
X3952586Y-11777008D02*
X3971634Y-11767484D01*
X4124015Y-11948436D02*
X4133539Y-11957960D01*
X4133539Y-11957960D02*
X4124015Y-11967484D01*
X4124015Y-11967484D02*
X4114491Y-11957960D01*
X4114491Y-11957960D02*
X4124015Y-11948436D01*
X4124015Y-11948436D02*
X4124015Y-11967484D01*
X4257348Y-11767484D02*
X4276396Y-11767484D01*
X4276396Y-11767484D02*
X4295444Y-11777008D01*
X4295444Y-11777008D02*
X4304968Y-11786531D01*
X4304968Y-11786531D02*
X4314491Y-11805579D01*
X4314491Y-11805579D02*
X4324015Y-11843674D01*
X4324015Y-11843674D02*
X4324015Y-11891293D01*
X4324015Y-11891293D02*
X4314491Y-11929388D01*
X4314491Y-11929388D02*
X4304968Y-11948436D01*
X4304968Y-11948436D02*
X4295444Y-11957960D01*
X4295444Y-11957960D02*
X4276396Y-11967484D01*
X4276396Y-11967484D02*
X4257348Y-11967484D01*
X4257348Y-11967484D02*
X4238301Y-11957960D01*
X4238301Y-11957960D02*
X4228777Y-11948436D01*
X4228777Y-11948436D02*
X4219253Y-11929388D01*
X4219253Y-11929388D02*
X4209729Y-11891293D01*
X4209729Y-11891293D02*
X4209729Y-11843674D01*
X4209729Y-11843674D02*
X4219253Y-11805579D01*
X4219253Y-11805579D02*
X4228777Y-11786531D01*
X4228777Y-11786531D02*
X4238301Y-11777008D01*
X4238301Y-11777008D02*
X4257348Y-11767484D01*
X4504968Y-11767484D02*
X4409729Y-11767484D01*
X4409729Y-11767484D02*
X4400206Y-11862722D01*
X4400206Y-11862722D02*
X4409729Y-11853198D01*
X4409729Y-11853198D02*
X4428777Y-11843674D01*
X4428777Y-11843674D02*
X4476396Y-11843674D01*
X4476396Y-11843674D02*
X4495444Y-11853198D01*
X4495444Y-11853198D02*
X4504968Y-11862722D01*
X4504968Y-11862722D02*
X4514491Y-11881769D01*
X4514491Y-11881769D02*
X4514491Y-11929388D01*
X4514491Y-11929388D02*
X4504968Y-11948436D01*
X4504968Y-11948436D02*
X4495444Y-11957960D01*
X4495444Y-11957960D02*
X4476396Y-11967484D01*
X4476396Y-11967484D02*
X4428777Y-11967484D01*
X4428777Y-11967484D02*
X4409729Y-11957960D01*
X4409729Y-11957960D02*
X4400206Y-11948436D01*
X4704968Y-11967484D02*
X4590682Y-11967484D01*
X4647825Y-11967484D02*
X4647825Y-11767484D01*
X4647825Y-11767484D02*
X4628777Y-11796055D01*
X4628777Y-11796055D02*
X4609729Y-11815103D01*
X4609729Y-11815103D02*
X4590682Y-11824627D01*
X4781158Y-11786531D02*
X4790682Y-11777008D01*
X4790682Y-11777008D02*
X4809729Y-11767484D01*
X4809729Y-11767484D02*
X4857349Y-11767484D01*
X4857349Y-11767484D02*
X4876396Y-11777008D01*
X4876396Y-11777008D02*
X4885920Y-11786531D01*
X4885920Y-11786531D02*
X4895444Y-11805579D01*
X4895444Y-11805579D02*
X4895444Y-11824627D01*
X4895444Y-11824627D02*
X4885920Y-11853198D01*
X4885920Y-11853198D02*
X4771634Y-11967484D01*
X4771634Y-11967484D02*
X4895444Y-11967484D01*
X4971634Y-11767484D02*
X4971634Y-11805579D01*
X5047825Y-11767484D02*
X5047825Y-11805579D01*
X5343063Y-12043674D02*
X5333539Y-12034150D01*
X5333539Y-12034150D02*
X5314491Y-12005579D01*
X5314491Y-12005579D02*
X5304968Y-11986531D01*
X5304968Y-11986531D02*
X5295444Y-11957960D01*
X5295444Y-11957960D02*
X5285920Y-11910341D01*
X5285920Y-11910341D02*
X5285920Y-11872246D01*
X5285920Y-11872246D02*
X5295444Y-11824627D01*
X5295444Y-11824627D02*
X5304968Y-11796055D01*
X5304968Y-11796055D02*
X5314491Y-11777008D01*
X5314491Y-11777008D02*
X5333539Y-11748436D01*
X5333539Y-11748436D02*
X5343063Y-11738912D01*
X5400206Y-11767484D02*
X5524015Y-11767484D01*
X5524015Y-11767484D02*
X5457349Y-11843674D01*
X5457349Y-11843674D02*
X5485920Y-11843674D01*
X5485920Y-11843674D02*
X5504968Y-11853198D01*
X5504968Y-11853198D02*
X5514491Y-11862722D01*
X5514491Y-11862722D02*
X5524015Y-11881769D01*
X5524015Y-11881769D02*
X5524015Y-11929388D01*
X5524015Y-11929388D02*
X5514491Y-11948436D01*
X5514491Y-11948436D02*
X5504968Y-11957960D01*
X5504968Y-11957960D02*
X5485920Y-11967484D01*
X5485920Y-11967484D02*
X5428777Y-11967484D01*
X5428777Y-11967484D02*
X5409730Y-11957960D01*
X5409730Y-11957960D02*
X5400206Y-11948436D01*
X5600206Y-11786531D02*
X5609729Y-11777008D01*
X5609729Y-11777008D02*
X5628777Y-11767484D01*
X5628777Y-11767484D02*
X5676396Y-11767484D01*
X5676396Y-11767484D02*
X5695444Y-11777008D01*
X5695444Y-11777008D02*
X5704968Y-11786531D01*
X5704968Y-11786531D02*
X5714491Y-11805579D01*
X5714491Y-11805579D02*
X5714491Y-11824627D01*
X5714491Y-11824627D02*
X5704968Y-11853198D01*
X5704968Y-11853198D02*
X5590682Y-11967484D01*
X5590682Y-11967484D02*
X5714491Y-11967484D01*
X5952587Y-11967484D02*
X5952587Y-11767484D01*
X6038301Y-11967484D02*
X6038301Y-11862722D01*
X6038301Y-11862722D02*
X6028777Y-11843674D01*
X6028777Y-11843674D02*
X6009730Y-11834150D01*
X6009730Y-11834150D02*
X5981158Y-11834150D01*
X5981158Y-11834150D02*
X5962110Y-11843674D01*
X5962110Y-11843674D02*
X5952587Y-11853198D01*
X6162110Y-11967484D02*
X6143063Y-11957960D01*
X6143063Y-11957960D02*
X6133539Y-11948436D01*
X6133539Y-11948436D02*
X6124015Y-11929388D01*
X6124015Y-11929388D02*
X6124015Y-11872246D01*
X6124015Y-11872246D02*
X6133539Y-11853198D01*
X6133539Y-11853198D02*
X6143063Y-11843674D01*
X6143063Y-11843674D02*
X6162110Y-11834150D01*
X6162110Y-11834150D02*
X6190682Y-11834150D01*
X6190682Y-11834150D02*
X6209730Y-11843674D01*
X6209730Y-11843674D02*
X6219253Y-11853198D01*
X6219253Y-11853198D02*
X6228777Y-11872246D01*
X6228777Y-11872246D02*
X6228777Y-11929388D01*
X6228777Y-11929388D02*
X6219253Y-11948436D01*
X6219253Y-11948436D02*
X6209730Y-11957960D01*
X6209730Y-11957960D02*
X6190682Y-11967484D01*
X6190682Y-11967484D02*
X6162110Y-11967484D01*
X6343063Y-11967484D02*
X6324015Y-11957960D01*
X6324015Y-11957960D02*
X6314491Y-11938912D01*
X6314491Y-11938912D02*
X6314491Y-11767484D01*
X6495444Y-11957960D02*
X6476396Y-11967484D01*
X6476396Y-11967484D02*
X6438301Y-11967484D01*
X6438301Y-11967484D02*
X6419253Y-11957960D01*
X6419253Y-11957960D02*
X6409730Y-11938912D01*
X6409730Y-11938912D02*
X6409730Y-11862722D01*
X6409730Y-11862722D02*
X6419253Y-11843674D01*
X6419253Y-11843674D02*
X6438301Y-11834150D01*
X6438301Y-11834150D02*
X6476396Y-11834150D01*
X6476396Y-11834150D02*
X6495444Y-11843674D01*
X6495444Y-11843674D02*
X6504968Y-11862722D01*
X6504968Y-11862722D02*
X6504968Y-11881769D01*
X6504968Y-11881769D02*
X6409730Y-11900817D01*
X6581158Y-11957960D02*
X6600206Y-11967484D01*
X6600206Y-11967484D02*
X6638301Y-11967484D01*
X6638301Y-11967484D02*
X6657349Y-11957960D01*
X6657349Y-11957960D02*
X6666872Y-11938912D01*
X6666872Y-11938912D02*
X6666872Y-11929388D01*
X6666872Y-11929388D02*
X6657349Y-11910341D01*
X6657349Y-11910341D02*
X6638301Y-11900817D01*
X6638301Y-11900817D02*
X6609730Y-11900817D01*
X6609730Y-11900817D02*
X6590682Y-11891293D01*
X6590682Y-11891293D02*
X6581158Y-11872246D01*
X6581158Y-11872246D02*
X6581158Y-11862722D01*
X6581158Y-11862722D02*
X6590682Y-11843674D01*
X6590682Y-11843674D02*
X6609730Y-11834150D01*
X6609730Y-11834150D02*
X6638301Y-11834150D01*
X6638301Y-11834150D02*
X6657349Y-11843674D01*
X6733539Y-12043674D02*
X6743063Y-12034150D01*
X6743063Y-12034150D02*
X6762111Y-12005579D01*
X6762111Y-12005579D02*
X6771634Y-11986531D01*
X6771634Y-11986531D02*
X6781158Y-11957960D01*
X6781158Y-11957960D02*
X6790682Y-11910341D01*
X6790682Y-11910341D02*
X6790682Y-11872246D01*
X6790682Y-11872246D02*
X6781158Y-11824627D01*
X6781158Y-11824627D02*
X6771634Y-11796055D01*
X6771634Y-11796055D02*
X6762111Y-11777008D01*
X6762111Y-11777008D02*
X6743063Y-11748436D01*
X6743063Y-11748436D02*
X6733539Y-11738912D01*
X1568000Y-12040000D02*
X1768000Y-12240000D01*
X1768000Y-12040000D02*
X1568000Y-12240000D01*
X1668000Y-12040000D02*
X1668000Y-12240000D01*
X1568000Y-12140000D02*
X1768000Y-12140000D01*
X2009729Y-12031484D02*
X2133539Y-12031484D01*
X2133539Y-12031484D02*
X2066872Y-12107674D01*
X2066872Y-12107674D02*
X2095443Y-12107674D01*
X2095443Y-12107674D02*
X2114491Y-12117198D01*
X2114491Y-12117198D02*
X2124015Y-12126722D01*
X2124015Y-12126722D02*
X2133539Y-12145769D01*
X2133539Y-12145769D02*
X2133539Y-12193388D01*
X2133539Y-12193388D02*
X2124015Y-12212436D01*
X2124015Y-12212436D02*
X2114491Y-12221960D01*
X2114491Y-12221960D02*
X2095443Y-12231484D01*
X2095443Y-12231484D02*
X2038301Y-12231484D01*
X2038301Y-12231484D02*
X2019253Y-12221960D01*
X2019253Y-12221960D02*
X2009729Y-12212436D01*
X2219253Y-12212436D02*
X2228777Y-12221960D01*
X2228777Y-12221960D02*
X2219253Y-12231484D01*
X2219253Y-12231484D02*
X2209729Y-12221960D01*
X2209729Y-12221960D02*
X2219253Y-12212436D01*
X2219253Y-12212436D02*
X2219253Y-12231484D01*
X2304967Y-12050531D02*
X2314491Y-12041008D01*
X2314491Y-12041008D02*
X2333539Y-12031484D01*
X2333539Y-12031484D02*
X2381158Y-12031484D01*
X2381158Y-12031484D02*
X2400205Y-12041008D01*
X2400205Y-12041008D02*
X2409729Y-12050531D01*
X2409729Y-12050531D02*
X2419253Y-12069579D01*
X2419253Y-12069579D02*
X2419253Y-12088627D01*
X2419253Y-12088627D02*
X2409729Y-12117198D01*
X2409729Y-12117198D02*
X2295444Y-12231484D01*
X2295444Y-12231484D02*
X2419253Y-12231484D01*
X2543063Y-12031484D02*
X2562110Y-12031484D01*
X2562110Y-12031484D02*
X2581158Y-12041008D01*
X2581158Y-12041008D02*
X2590682Y-12050531D01*
X2590682Y-12050531D02*
X2600205Y-12069579D01*
X2600205Y-12069579D02*
X2609729Y-12107674D01*
X2609729Y-12107674D02*
X2609729Y-12155293D01*
X2609729Y-12155293D02*
X2600205Y-12193388D01*
X2600205Y-12193388D02*
X2590682Y-12212436D01*
X2590682Y-12212436D02*
X2581158Y-12221960D01*
X2581158Y-12221960D02*
X2562110Y-12231484D01*
X2562110Y-12231484D02*
X2543063Y-12231484D01*
X2543063Y-12231484D02*
X2524015Y-12221960D01*
X2524015Y-12221960D02*
X2514491Y-12212436D01*
X2514491Y-12212436D02*
X2504967Y-12193388D01*
X2504967Y-12193388D02*
X2495444Y-12155293D01*
X2495444Y-12155293D02*
X2495444Y-12107674D01*
X2495444Y-12107674D02*
X2504967Y-12069579D01*
X2504967Y-12069579D02*
X2514491Y-12050531D01*
X2514491Y-12050531D02*
X2524015Y-12041008D01*
X2524015Y-12041008D02*
X2543063Y-12031484D01*
X2733539Y-12031484D02*
X2752586Y-12031484D01*
X2752586Y-12031484D02*
X2771634Y-12041008D01*
X2771634Y-12041008D02*
X2781158Y-12050531D01*
X2781158Y-12050531D02*
X2790682Y-12069579D01*
X2790682Y-12069579D02*
X2800205Y-12107674D01*
X2800205Y-12107674D02*
X2800205Y-12155293D01*
X2800205Y-12155293D02*
X2790682Y-12193388D01*
X2790682Y-12193388D02*
X2781158Y-12212436D01*
X2781158Y-12212436D02*
X2771634Y-12221960D01*
X2771634Y-12221960D02*
X2752586Y-12231484D01*
X2752586Y-12231484D02*
X2733539Y-12231484D01*
X2733539Y-12231484D02*
X2714491Y-12221960D01*
X2714491Y-12221960D02*
X2704967Y-12212436D01*
X2704967Y-12212436D02*
X2695444Y-12193388D01*
X2695444Y-12193388D02*
X2685920Y-12155293D01*
X2685920Y-12155293D02*
X2685920Y-12107674D01*
X2685920Y-12107674D02*
X2695444Y-12069579D01*
X2695444Y-12069579D02*
X2704967Y-12050531D01*
X2704967Y-12050531D02*
X2714491Y-12041008D01*
X2714491Y-12041008D02*
X2733539Y-12031484D01*
X2885920Y-12231484D02*
X2885920Y-12098150D01*
X2885920Y-12117198D02*
X2895443Y-12107674D01*
X2895443Y-12107674D02*
X2914491Y-12098150D01*
X2914491Y-12098150D02*
X2943063Y-12098150D01*
X2943063Y-12098150D02*
X2962110Y-12107674D01*
X2962110Y-12107674D02*
X2971634Y-12126722D01*
X2971634Y-12126722D02*
X2971634Y-12231484D01*
X2971634Y-12126722D02*
X2981158Y-12107674D01*
X2981158Y-12107674D02*
X3000205Y-12098150D01*
X3000205Y-12098150D02*
X3028777Y-12098150D01*
X3028777Y-12098150D02*
X3047824Y-12107674D01*
X3047824Y-12107674D02*
X3057348Y-12126722D01*
X3057348Y-12126722D02*
X3057348Y-12231484D01*
X3152586Y-12231484D02*
X3152586Y-12098150D01*
X3152586Y-12117198D02*
X3162110Y-12107674D01*
X3162110Y-12107674D02*
X3181158Y-12098150D01*
X3181158Y-12098150D02*
X3209729Y-12098150D01*
X3209729Y-12098150D02*
X3228777Y-12107674D01*
X3228777Y-12107674D02*
X3238301Y-12126722D01*
X3238301Y-12126722D02*
X3238301Y-12231484D01*
X3238301Y-12126722D02*
X3247824Y-12107674D01*
X3247824Y-12107674D02*
X3266872Y-12098150D01*
X3266872Y-12098150D02*
X3295443Y-12098150D01*
X3295443Y-12098150D02*
X3314491Y-12107674D01*
X3314491Y-12107674D02*
X3324015Y-12126722D01*
X3324015Y-12126722D02*
X3324015Y-12231484D01*
X3714491Y-12021960D02*
X3543063Y-12279103D01*
X3971634Y-12031484D02*
X3990682Y-12031484D01*
X3990682Y-12031484D02*
X4009729Y-12041008D01*
X4009729Y-12041008D02*
X4019253Y-12050531D01*
X4019253Y-12050531D02*
X4028777Y-12069579D01*
X4028777Y-12069579D02*
X4038301Y-12107674D01*
X4038301Y-12107674D02*
X4038301Y-12155293D01*
X4038301Y-12155293D02*
X4028777Y-12193388D01*
X4028777Y-12193388D02*
X4019253Y-12212436D01*
X4019253Y-12212436D02*
X4009729Y-12221960D01*
X4009729Y-12221960D02*
X3990682Y-12231484D01*
X3990682Y-12231484D02*
X3971634Y-12231484D01*
X3971634Y-12231484D02*
X3952586Y-12221960D01*
X3952586Y-12221960D02*
X3943063Y-12212436D01*
X3943063Y-12212436D02*
X3933539Y-12193388D01*
X3933539Y-12193388D02*
X3924015Y-12155293D01*
X3924015Y-12155293D02*
X3924015Y-12107674D01*
X3924015Y-12107674D02*
X3933539Y-12069579D01*
X3933539Y-12069579D02*
X3943063Y-12050531D01*
X3943063Y-12050531D02*
X3952586Y-12041008D01*
X3952586Y-12041008D02*
X3971634Y-12031484D01*
X4124015Y-12212436D02*
X4133539Y-12221960D01*
X4133539Y-12221960D02*
X4124015Y-12231484D01*
X4124015Y-12231484D02*
X4114491Y-12221960D01*
X4114491Y-12221960D02*
X4124015Y-12212436D01*
X4124015Y-12212436D02*
X4124015Y-12231484D01*
X4324015Y-12231484D02*
X4209729Y-12231484D01*
X4266872Y-12231484D02*
X4266872Y-12031484D01*
X4266872Y-12031484D02*
X4247825Y-12060055D01*
X4247825Y-12060055D02*
X4228777Y-12079103D01*
X4228777Y-12079103D02*
X4209729Y-12088627D01*
X4400206Y-12050531D02*
X4409729Y-12041008D01*
X4409729Y-12041008D02*
X4428777Y-12031484D01*
X4428777Y-12031484D02*
X4476396Y-12031484D01*
X4476396Y-12031484D02*
X4495444Y-12041008D01*
X4495444Y-12041008D02*
X4504968Y-12050531D01*
X4504968Y-12050531D02*
X4514491Y-12069579D01*
X4514491Y-12069579D02*
X4514491Y-12088627D01*
X4514491Y-12088627D02*
X4504968Y-12117198D01*
X4504968Y-12117198D02*
X4390682Y-12231484D01*
X4390682Y-12231484D02*
X4514491Y-12231484D01*
X4685920Y-12031484D02*
X4647825Y-12031484D01*
X4647825Y-12031484D02*
X4628777Y-12041008D01*
X4628777Y-12041008D02*
X4619253Y-12050531D01*
X4619253Y-12050531D02*
X4600206Y-12079103D01*
X4600206Y-12079103D02*
X4590682Y-12117198D01*
X4590682Y-12117198D02*
X4590682Y-12193388D01*
X4590682Y-12193388D02*
X4600206Y-12212436D01*
X4600206Y-12212436D02*
X4609729Y-12221960D01*
X4609729Y-12221960D02*
X4628777Y-12231484D01*
X4628777Y-12231484D02*
X4666872Y-12231484D01*
X4666872Y-12231484D02*
X4685920Y-12221960D01*
X4685920Y-12221960D02*
X4695444Y-12212436D01*
X4695444Y-12212436D02*
X4704968Y-12193388D01*
X4704968Y-12193388D02*
X4704968Y-12145769D01*
X4704968Y-12145769D02*
X4695444Y-12126722D01*
X4695444Y-12126722D02*
X4685920Y-12117198D01*
X4685920Y-12117198D02*
X4666872Y-12107674D01*
X4666872Y-12107674D02*
X4628777Y-12107674D01*
X4628777Y-12107674D02*
X4609729Y-12117198D01*
X4609729Y-12117198D02*
X4600206Y-12126722D01*
X4600206Y-12126722D02*
X4590682Y-12145769D01*
X4828777Y-12031484D02*
X4847825Y-12031484D01*
X4847825Y-12031484D02*
X4866872Y-12041008D01*
X4866872Y-12041008D02*
X4876396Y-12050531D01*
X4876396Y-12050531D02*
X4885920Y-12069579D01*
X4885920Y-12069579D02*
X4895444Y-12107674D01*
X4895444Y-12107674D02*
X4895444Y-12155293D01*
X4895444Y-12155293D02*
X4885920Y-12193388D01*
X4885920Y-12193388D02*
X4876396Y-12212436D01*
X4876396Y-12212436D02*
X4866872Y-12221960D01*
X4866872Y-12221960D02*
X4847825Y-12231484D01*
X4847825Y-12231484D02*
X4828777Y-12231484D01*
X4828777Y-12231484D02*
X4809729Y-12221960D01*
X4809729Y-12221960D02*
X4800206Y-12212436D01*
X4800206Y-12212436D02*
X4790682Y-12193388D01*
X4790682Y-12193388D02*
X4781158Y-12155293D01*
X4781158Y-12155293D02*
X4781158Y-12107674D01*
X4781158Y-12107674D02*
X4790682Y-12069579D01*
X4790682Y-12069579D02*
X4800206Y-12050531D01*
X4800206Y-12050531D02*
X4809729Y-12041008D01*
X4809729Y-12041008D02*
X4828777Y-12031484D01*
X4971634Y-12031484D02*
X4971634Y-12069579D01*
X5047825Y-12031484D02*
X5047825Y-12069579D01*
X5343063Y-12307674D02*
X5333539Y-12298150D01*
X5333539Y-12298150D02*
X5314491Y-12269579D01*
X5314491Y-12269579D02*
X5304968Y-12250531D01*
X5304968Y-12250531D02*
X5295444Y-12221960D01*
X5295444Y-12221960D02*
X5285920Y-12174341D01*
X5285920Y-12174341D02*
X5285920Y-12136246D01*
X5285920Y-12136246D02*
X5295444Y-12088627D01*
X5295444Y-12088627D02*
X5304968Y-12060055D01*
X5304968Y-12060055D02*
X5314491Y-12041008D01*
X5314491Y-12041008D02*
X5333539Y-12012436D01*
X5333539Y-12012436D02*
X5343063Y-12002912D01*
X5504968Y-12098150D02*
X5504968Y-12231484D01*
X5457349Y-12021960D02*
X5409730Y-12164817D01*
X5409730Y-12164817D02*
X5533539Y-12164817D01*
X5762110Y-12231484D02*
X5762110Y-12031484D01*
X5847825Y-12231484D02*
X5847825Y-12126722D01*
X5847825Y-12126722D02*
X5838301Y-12107674D01*
X5838301Y-12107674D02*
X5819253Y-12098150D01*
X5819253Y-12098150D02*
X5790682Y-12098150D01*
X5790682Y-12098150D02*
X5771634Y-12107674D01*
X5771634Y-12107674D02*
X5762110Y-12117198D01*
X5971634Y-12231484D02*
X5952587Y-12221960D01*
X5952587Y-12221960D02*
X5943063Y-12212436D01*
X5943063Y-12212436D02*
X5933539Y-12193388D01*
X5933539Y-12193388D02*
X5933539Y-12136246D01*
X5933539Y-12136246D02*
X5943063Y-12117198D01*
X5943063Y-12117198D02*
X5952587Y-12107674D01*
X5952587Y-12107674D02*
X5971634Y-12098150D01*
X5971634Y-12098150D02*
X6000206Y-12098150D01*
X6000206Y-12098150D02*
X6019253Y-12107674D01*
X6019253Y-12107674D02*
X6028777Y-12117198D01*
X6028777Y-12117198D02*
X6038301Y-12136246D01*
X6038301Y-12136246D02*
X6038301Y-12193388D01*
X6038301Y-12193388D02*
X6028777Y-12212436D01*
X6028777Y-12212436D02*
X6019253Y-12221960D01*
X6019253Y-12221960D02*
X6000206Y-12231484D01*
X6000206Y-12231484D02*
X5971634Y-12231484D01*
X6152587Y-12231484D02*
X6133539Y-12221960D01*
X6133539Y-12221960D02*
X6124015Y-12202912D01*
X6124015Y-12202912D02*
X6124015Y-12031484D01*
X6304968Y-12221960D02*
X6285920Y-12231484D01*
X6285920Y-12231484D02*
X6247825Y-12231484D01*
X6247825Y-12231484D02*
X6228777Y-12221960D01*
X6228777Y-12221960D02*
X6219253Y-12202912D01*
X6219253Y-12202912D02*
X6219253Y-12126722D01*
X6219253Y-12126722D02*
X6228777Y-12107674D01*
X6228777Y-12107674D02*
X6247825Y-12098150D01*
X6247825Y-12098150D02*
X6285920Y-12098150D01*
X6285920Y-12098150D02*
X6304968Y-12107674D01*
X6304968Y-12107674D02*
X6314491Y-12126722D01*
X6314491Y-12126722D02*
X6314491Y-12145769D01*
X6314491Y-12145769D02*
X6219253Y-12164817D01*
X6390682Y-12221960D02*
X6409730Y-12231484D01*
X6409730Y-12231484D02*
X6447825Y-12231484D01*
X6447825Y-12231484D02*
X6466872Y-12221960D01*
X6466872Y-12221960D02*
X6476396Y-12202912D01*
X6476396Y-12202912D02*
X6476396Y-12193388D01*
X6476396Y-12193388D02*
X6466872Y-12174341D01*
X6466872Y-12174341D02*
X6447825Y-12164817D01*
X6447825Y-12164817D02*
X6419253Y-12164817D01*
X6419253Y-12164817D02*
X6400206Y-12155293D01*
X6400206Y-12155293D02*
X6390682Y-12136246D01*
X6390682Y-12136246D02*
X6390682Y-12126722D01*
X6390682Y-12126722D02*
X6400206Y-12107674D01*
X6400206Y-12107674D02*
X6419253Y-12098150D01*
X6419253Y-12098150D02*
X6447825Y-12098150D01*
X6447825Y-12098150D02*
X6466872Y-12107674D01*
X6543063Y-12307674D02*
X6552587Y-12298150D01*
X6552587Y-12298150D02*
X6571634Y-12269579D01*
X6571634Y-12269579D02*
X6581158Y-12250531D01*
X6581158Y-12250531D02*
X6590682Y-12221960D01*
X6590682Y-12221960D02*
X6600206Y-12174341D01*
X6600206Y-12174341D02*
X6600206Y-12136246D01*
X6600206Y-12136246D02*
X6590682Y-12088627D01*
X6590682Y-12088627D02*
X6581158Y-12060055D01*
X6581158Y-12060055D02*
X6571634Y-12041008D01*
X6571634Y-12041008D02*
X6552587Y-12012436D01*
X6552587Y-12012436D02*
X6543063Y-12002912D01*
M02*
