%TF.GenerationSoftware,KiCad,Pcbnew,7.0.8*%
%TF.CreationDate,2023-10-15T22:57:13-07:00*%
%TF.ProjectId,HandheldInterface,48616e64-6865-46c6-9449-6e7465726661,rev?*%
%TF.SameCoordinates,Original*%
%TF.FileFunction,Legend,Top*%
%TF.FilePolarity,Positive*%
%FSLAX46Y46*%
G04 Gerber Fmt 4.6, Leading zero omitted, Abs format (unit mm)*
G04 Created by KiCad (PCBNEW 7.0.8) date 2023-10-15 22:57:13*
%MOMM*%
%LPD*%
G01*
G04 APERTURE LIST*
%ADD10C,0.150000*%
%ADD11C,0.300000*%
%ADD12C,0.200000*%
%ADD13C,0.120000*%
G04 APERTURE END LIST*
D10*
X19569904Y-53222069D02*
X19569904Y-52222069D01*
X19569904Y-52222069D02*
X19807999Y-52222069D01*
X19807999Y-52222069D02*
X19950856Y-52269688D01*
X19950856Y-52269688D02*
X20046094Y-52364926D01*
X20046094Y-52364926D02*
X20093713Y-52460164D01*
X20093713Y-52460164D02*
X20141332Y-52650640D01*
X20141332Y-52650640D02*
X20141332Y-52793497D01*
X20141332Y-52793497D02*
X20093713Y-52983973D01*
X20093713Y-52983973D02*
X20046094Y-53079211D01*
X20046094Y-53079211D02*
X19950856Y-53174450D01*
X19950856Y-53174450D02*
X19807999Y-53222069D01*
X19807999Y-53222069D02*
X19569904Y-53222069D01*
X20950856Y-53174450D02*
X20855618Y-53222069D01*
X20855618Y-53222069D02*
X20665142Y-53222069D01*
X20665142Y-53222069D02*
X20569904Y-53174450D01*
X20569904Y-53174450D02*
X20522285Y-53079211D01*
X20522285Y-53079211D02*
X20522285Y-52698259D01*
X20522285Y-52698259D02*
X20569904Y-52603021D01*
X20569904Y-52603021D02*
X20665142Y-52555402D01*
X20665142Y-52555402D02*
X20855618Y-52555402D01*
X20855618Y-52555402D02*
X20950856Y-52603021D01*
X20950856Y-52603021D02*
X20998475Y-52698259D01*
X20998475Y-52698259D02*
X20998475Y-52793497D01*
X20998475Y-52793497D02*
X20522285Y-52888735D01*
X21331809Y-52555402D02*
X21569904Y-53222069D01*
X21569904Y-53222069D02*
X21807999Y-52555402D01*
X22188952Y-53222069D02*
X22188952Y-52222069D01*
X22284190Y-52841116D02*
X22569904Y-53222069D01*
X22569904Y-52555402D02*
X22188952Y-52936354D01*
X22998476Y-53222069D02*
X22998476Y-52555402D01*
X22998476Y-52222069D02*
X22950857Y-52269688D01*
X22950857Y-52269688D02*
X22998476Y-52317307D01*
X22998476Y-52317307D02*
X23046095Y-52269688D01*
X23046095Y-52269688D02*
X22998476Y-52222069D01*
X22998476Y-52222069D02*
X22998476Y-52317307D01*
X23331809Y-52555402D02*
X23712761Y-52555402D01*
X23474666Y-52222069D02*
X23474666Y-53079211D01*
X23474666Y-53079211D02*
X23522285Y-53174450D01*
X23522285Y-53174450D02*
X23617523Y-53222069D01*
X23617523Y-53222069D02*
X23712761Y-53222069D01*
X24808000Y-53222069D02*
X24808000Y-52222069D01*
X24808000Y-52698259D02*
X25379428Y-52698259D01*
X25379428Y-53222069D02*
X25379428Y-52222069D01*
X26284190Y-53222069D02*
X26284190Y-52698259D01*
X26284190Y-52698259D02*
X26236571Y-52603021D01*
X26236571Y-52603021D02*
X26141333Y-52555402D01*
X26141333Y-52555402D02*
X25950857Y-52555402D01*
X25950857Y-52555402D02*
X25855619Y-52603021D01*
X26284190Y-53174450D02*
X26188952Y-53222069D01*
X26188952Y-53222069D02*
X25950857Y-53222069D01*
X25950857Y-53222069D02*
X25855619Y-53174450D01*
X25855619Y-53174450D02*
X25808000Y-53079211D01*
X25808000Y-53079211D02*
X25808000Y-52983973D01*
X25808000Y-52983973D02*
X25855619Y-52888735D01*
X25855619Y-52888735D02*
X25950857Y-52841116D01*
X25950857Y-52841116D02*
X26188952Y-52841116D01*
X26188952Y-52841116D02*
X26284190Y-52793497D01*
X26760381Y-52555402D02*
X26760381Y-53222069D01*
X26760381Y-52650640D02*
X26808000Y-52603021D01*
X26808000Y-52603021D02*
X26903238Y-52555402D01*
X26903238Y-52555402D02*
X27046095Y-52555402D01*
X27046095Y-52555402D02*
X27141333Y-52603021D01*
X27141333Y-52603021D02*
X27188952Y-52698259D01*
X27188952Y-52698259D02*
X27188952Y-53222069D01*
X28093714Y-53222069D02*
X28093714Y-52222069D01*
X28093714Y-53174450D02*
X27998476Y-53222069D01*
X27998476Y-53222069D02*
X27808000Y-53222069D01*
X27808000Y-53222069D02*
X27712762Y-53174450D01*
X27712762Y-53174450D02*
X27665143Y-53126830D01*
X27665143Y-53126830D02*
X27617524Y-53031592D01*
X27617524Y-53031592D02*
X27617524Y-52745878D01*
X27617524Y-52745878D02*
X27665143Y-52650640D01*
X27665143Y-52650640D02*
X27712762Y-52603021D01*
X27712762Y-52603021D02*
X27808000Y-52555402D01*
X27808000Y-52555402D02*
X27998476Y-52555402D01*
X27998476Y-52555402D02*
X28093714Y-52603021D01*
X28569905Y-53222069D02*
X28569905Y-52222069D01*
X28998476Y-53222069D02*
X28998476Y-52698259D01*
X28998476Y-52698259D02*
X28950857Y-52603021D01*
X28950857Y-52603021D02*
X28855619Y-52555402D01*
X28855619Y-52555402D02*
X28712762Y-52555402D01*
X28712762Y-52555402D02*
X28617524Y-52603021D01*
X28617524Y-52603021D02*
X28569905Y-52650640D01*
X29855619Y-53174450D02*
X29760381Y-53222069D01*
X29760381Y-53222069D02*
X29569905Y-53222069D01*
X29569905Y-53222069D02*
X29474667Y-53174450D01*
X29474667Y-53174450D02*
X29427048Y-53079211D01*
X29427048Y-53079211D02*
X29427048Y-52698259D01*
X29427048Y-52698259D02*
X29474667Y-52603021D01*
X29474667Y-52603021D02*
X29569905Y-52555402D01*
X29569905Y-52555402D02*
X29760381Y-52555402D01*
X29760381Y-52555402D02*
X29855619Y-52603021D01*
X29855619Y-52603021D02*
X29903238Y-52698259D01*
X29903238Y-52698259D02*
X29903238Y-52793497D01*
X29903238Y-52793497D02*
X29427048Y-52888735D01*
X30474667Y-53222069D02*
X30379429Y-53174450D01*
X30379429Y-53174450D02*
X30331810Y-53079211D01*
X30331810Y-53079211D02*
X30331810Y-52222069D01*
X31284191Y-53222069D02*
X31284191Y-52222069D01*
X31284191Y-53174450D02*
X31188953Y-53222069D01*
X31188953Y-53222069D02*
X30998477Y-53222069D01*
X30998477Y-53222069D02*
X30903239Y-53174450D01*
X30903239Y-53174450D02*
X30855620Y-53126830D01*
X30855620Y-53126830D02*
X30808001Y-53031592D01*
X30808001Y-53031592D02*
X30808001Y-52745878D01*
X30808001Y-52745878D02*
X30855620Y-52650640D01*
X30855620Y-52650640D02*
X30903239Y-52603021D01*
X30903239Y-52603021D02*
X30998477Y-52555402D01*
X30998477Y-52555402D02*
X31188953Y-52555402D01*
X31188953Y-52555402D02*
X31284191Y-52603021D01*
D11*
G36*
X19786818Y-38583535D02*
G01*
X19823822Y-38620539D01*
X19868528Y-38709951D01*
X19868528Y-38853418D01*
X19823821Y-38942831D01*
X19786816Y-38979836D01*
X19697404Y-39024542D01*
X19311385Y-39024542D01*
X19311385Y-38538828D01*
X19697404Y-38538828D01*
X19786818Y-38583535D01*
G37*
G36*
X23358247Y-39083535D02*
G01*
X23395251Y-39120539D01*
X23439957Y-39209951D01*
X23439957Y-39567704D01*
X23395250Y-39657117D01*
X23358245Y-39694122D01*
X23268833Y-39738828D01*
X23125367Y-39738828D01*
X23035953Y-39694121D01*
X22998948Y-39657116D01*
X22954243Y-39567704D01*
X22954243Y-39209951D01*
X22998948Y-39120540D01*
X23035953Y-39083535D01*
X23125367Y-39038828D01*
X23268833Y-39038828D01*
X23358247Y-39083535D01*
G37*
G36*
X27286819Y-39083535D02*
G01*
X27323823Y-39120539D01*
X27368529Y-39209951D01*
X27368529Y-39567704D01*
X27323822Y-39657117D01*
X27286817Y-39694122D01*
X27197405Y-39738828D01*
X27053939Y-39738828D01*
X26964525Y-39694121D01*
X26927520Y-39657116D01*
X26882815Y-39567704D01*
X26882815Y-39209951D01*
X26927520Y-39120540D01*
X26964525Y-39083535D01*
X27053939Y-39038828D01*
X27197405Y-39038828D01*
X27286819Y-39083535D01*
G37*
G36*
X29406726Y-39072060D02*
G01*
X29432901Y-39124411D01*
X29025672Y-39205857D01*
X29025672Y-39138523D01*
X29058903Y-39072060D01*
X29125368Y-39038828D01*
X29340262Y-39038828D01*
X29406726Y-39072060D01*
G37*
G36*
X29954244Y-40253114D02*
G01*
X18797099Y-40253114D01*
X18797099Y-39888828D01*
X19011385Y-39888828D01*
X19031481Y-39963828D01*
X19086385Y-40018732D01*
X19161385Y-40038828D01*
X19236385Y-40018732D01*
X19291289Y-39963828D01*
X19311385Y-39888828D01*
X20511385Y-39888828D01*
X20531481Y-39963828D01*
X20586385Y-40018732D01*
X20661385Y-40038828D01*
X20736385Y-40018732D01*
X20791289Y-39963828D01*
X20811385Y-39888828D01*
X20811385Y-39245971D01*
X21154243Y-39245971D01*
X21159033Y-39263848D01*
X21158722Y-39282351D01*
X21230150Y-39568065D01*
X21238186Y-39582542D01*
X21241507Y-39598767D01*
X21312936Y-39741624D01*
X21328958Y-39759693D01*
X21341034Y-39780608D01*
X21483891Y-39923466D01*
X21513750Y-39940705D01*
X21542523Y-39959703D01*
X21756809Y-40031131D01*
X21780917Y-40032578D01*
X21804243Y-40038828D01*
X21947100Y-40038828D01*
X21970425Y-40032578D01*
X21994534Y-40031131D01*
X22208820Y-39959703D01*
X22237595Y-39940703D01*
X22267453Y-39923465D01*
X22338881Y-39852036D01*
X22377703Y-39784793D01*
X22377703Y-39707147D01*
X22338879Y-39639904D01*
X22275156Y-39603114D01*
X22654243Y-39603114D01*
X22663166Y-39636417D01*
X22670079Y-39670196D01*
X22741507Y-39813053D01*
X22757530Y-39831122D01*
X22769605Y-39852037D01*
X22841034Y-39923466D01*
X22861948Y-39935540D01*
X22880018Y-39951564D01*
X23022876Y-40022992D01*
X23056651Y-40029903D01*
X23089957Y-40038828D01*
X23304243Y-40038828D01*
X23337546Y-40029904D01*
X23371325Y-40022992D01*
X23514182Y-39951564D01*
X23532251Y-39935540D01*
X23553166Y-39923466D01*
X23587804Y-39888828D01*
X24082814Y-39888828D01*
X24102910Y-39963828D01*
X24157814Y-40018732D01*
X24232814Y-40038828D01*
X24307814Y-40018732D01*
X24362718Y-39963828D01*
X24382814Y-39888828D01*
X24382814Y-39093817D01*
X24393096Y-39083535D01*
X24482510Y-39038828D01*
X24625976Y-39038828D01*
X24692440Y-39072060D01*
X24725672Y-39138524D01*
X24725672Y-39888828D01*
X24745768Y-39963828D01*
X24800672Y-40018732D01*
X24875672Y-40038828D01*
X24950672Y-40018732D01*
X25005576Y-39963828D01*
X25025672Y-39888828D01*
X25025672Y-39174542D01*
X25368529Y-39174542D01*
X25377453Y-39207847D01*
X25384365Y-39241623D01*
X25455793Y-39384482D01*
X25461880Y-39391346D01*
X25464781Y-39400049D01*
X25487316Y-39420032D01*
X25507308Y-39442577D01*
X25516013Y-39445478D01*
X25522876Y-39451564D01*
X25665734Y-39522993D01*
X25699518Y-39529906D01*
X25732815Y-39538828D01*
X25911690Y-39538828D01*
X25978154Y-39572060D01*
X26011386Y-39638524D01*
X26011386Y-39639132D01*
X25978153Y-39705596D01*
X25911690Y-39738828D01*
X25696796Y-39738828D01*
X25585611Y-39683236D01*
X25509541Y-39667669D01*
X25435880Y-39692223D01*
X25384365Y-39750318D01*
X25368798Y-39826388D01*
X25393352Y-39900049D01*
X25451447Y-39951564D01*
X25594305Y-40022992D01*
X25628080Y-40029903D01*
X25661386Y-40038828D01*
X25947100Y-40038828D01*
X25980403Y-40029904D01*
X26014182Y-40022992D01*
X26157039Y-39951564D01*
X26163901Y-39945478D01*
X26172606Y-39942577D01*
X26192593Y-39920036D01*
X26215134Y-39900049D01*
X26218035Y-39891344D01*
X26224121Y-39884482D01*
X26295550Y-39741624D01*
X26302462Y-39707843D01*
X26311386Y-39674542D01*
X26311386Y-39603114D01*
X26582815Y-39603114D01*
X26591738Y-39636417D01*
X26598651Y-39670196D01*
X26670079Y-39813053D01*
X26686102Y-39831122D01*
X26698177Y-39852037D01*
X26769606Y-39923466D01*
X26790520Y-39935540D01*
X26808590Y-39951564D01*
X26951448Y-40022992D01*
X26985223Y-40029903D01*
X27018529Y-40038828D01*
X27232815Y-40038828D01*
X27266118Y-40029904D01*
X27299897Y-40022992D01*
X27442754Y-39951564D01*
X27460823Y-39935540D01*
X27481738Y-39923466D01*
X27553167Y-39852037D01*
X27565241Y-39831122D01*
X27581265Y-39813053D01*
X27650520Y-39674542D01*
X28011386Y-39674542D01*
X28020309Y-39707843D01*
X28027222Y-39741624D01*
X28098651Y-39884482D01*
X28104736Y-39891344D01*
X28107638Y-39900049D01*
X28130178Y-39920036D01*
X28150166Y-39942577D01*
X28158870Y-39945478D01*
X28165733Y-39951564D01*
X28308591Y-40022992D01*
X28384660Y-40038559D01*
X28458321Y-40014005D01*
X28509836Y-39955910D01*
X28525403Y-39879840D01*
X28500849Y-39806179D01*
X28442754Y-39754664D01*
X28344618Y-39705596D01*
X28329091Y-39674542D01*
X28725672Y-39674542D01*
X28734596Y-39707847D01*
X28741508Y-39741623D01*
X28812936Y-39884482D01*
X28819023Y-39891346D01*
X28821924Y-39900049D01*
X28844459Y-39920032D01*
X28864451Y-39942577D01*
X28873156Y-39945478D01*
X28880019Y-39951564D01*
X29022877Y-40022993D01*
X29056661Y-40029906D01*
X29089958Y-40038828D01*
X29375672Y-40038828D01*
X29408975Y-40029904D01*
X29442754Y-40022992D01*
X29585611Y-39951564D01*
X29643706Y-39900049D01*
X29668260Y-39826388D01*
X29652693Y-39750318D01*
X29601178Y-39692223D01*
X29527517Y-39667669D01*
X29451448Y-39683236D01*
X29340262Y-39738828D01*
X29125367Y-39738828D01*
X29058904Y-39705597D01*
X29025672Y-39639133D01*
X29025672Y-39511798D01*
X29619376Y-39393058D01*
X29641316Y-39382209D01*
X29664958Y-39375875D01*
X29675549Y-39365283D01*
X29688978Y-39358644D01*
X29702555Y-39338277D01*
X29719862Y-39320971D01*
X29723739Y-39306501D01*
X29732048Y-39294038D01*
X29733623Y-39269613D01*
X29739958Y-39245971D01*
X29739958Y-39103114D01*
X29731035Y-39069813D01*
X29724122Y-39036031D01*
X29652693Y-38893175D01*
X29646606Y-38886311D01*
X29643706Y-38877609D01*
X29621165Y-38857620D01*
X29601177Y-38835080D01*
X29592474Y-38832179D01*
X29585611Y-38826093D01*
X29442754Y-38754664D01*
X29408973Y-38747751D01*
X29375672Y-38738828D01*
X29089958Y-38738828D01*
X29056656Y-38747751D01*
X29022876Y-38754664D01*
X28880018Y-38826093D01*
X28873155Y-38832178D01*
X28864451Y-38835080D01*
X28844463Y-38857620D01*
X28821923Y-38877608D01*
X28819021Y-38886312D01*
X28812936Y-38893175D01*
X28741508Y-39036032D01*
X28734595Y-39069810D01*
X28725672Y-39103114D01*
X28725672Y-39674542D01*
X28329091Y-39674542D01*
X28311386Y-39639132D01*
X28311386Y-38388828D01*
X28291290Y-38313828D01*
X28236386Y-38258924D01*
X28161386Y-38238828D01*
X28086386Y-38258924D01*
X28031482Y-38313828D01*
X28011386Y-38388828D01*
X28011386Y-39674542D01*
X27650520Y-39674542D01*
X27652693Y-39670195D01*
X27659604Y-39636419D01*
X27668529Y-39603114D01*
X27668529Y-39174542D01*
X27659604Y-39141236D01*
X27652693Y-39107461D01*
X27581265Y-38964603D01*
X27565241Y-38946533D01*
X27553166Y-38925618D01*
X27481737Y-38854190D01*
X27460822Y-38842115D01*
X27442754Y-38826093D01*
X27299897Y-38754664D01*
X27266116Y-38747751D01*
X27232815Y-38738828D01*
X27018529Y-38738828D01*
X26985228Y-38747750D01*
X26951446Y-38754664D01*
X26808590Y-38826093D01*
X26790521Y-38842115D01*
X26769607Y-38854190D01*
X26698178Y-38925618D01*
X26686102Y-38946533D01*
X26670079Y-38964603D01*
X26598651Y-39107460D01*
X26591738Y-39141238D01*
X26582815Y-39174542D01*
X26582815Y-39603114D01*
X26311386Y-39603114D01*
X26302463Y-39569813D01*
X26295550Y-39536031D01*
X26224121Y-39393175D01*
X26218034Y-39386311D01*
X26215134Y-39377609D01*
X26192593Y-39357620D01*
X26172605Y-39335080D01*
X26163902Y-39332179D01*
X26157039Y-39326093D01*
X26014182Y-39254664D01*
X25980401Y-39247751D01*
X25947100Y-39238828D01*
X25768224Y-39238828D01*
X25701761Y-39205597D01*
X25668529Y-39139133D01*
X25668529Y-39138523D01*
X25701760Y-39072060D01*
X25768225Y-39038828D01*
X25911690Y-39038828D01*
X26022874Y-39094421D01*
X26098944Y-39109988D01*
X26172605Y-39085434D01*
X26224121Y-39027339D01*
X26239688Y-38951270D01*
X26215134Y-38877609D01*
X26157039Y-38826093D01*
X26014182Y-38754664D01*
X25980401Y-38747751D01*
X25947100Y-38738828D01*
X25732815Y-38738828D01*
X25699513Y-38747751D01*
X25665733Y-38754664D01*
X25522875Y-38826093D01*
X25516012Y-38832178D01*
X25507308Y-38835080D01*
X25487320Y-38857620D01*
X25464780Y-38877608D01*
X25461878Y-38886312D01*
X25455793Y-38893175D01*
X25384365Y-39036032D01*
X25377452Y-39069810D01*
X25368529Y-39103114D01*
X25368529Y-39174542D01*
X25025672Y-39174542D01*
X25025672Y-39103114D01*
X25016749Y-39069813D01*
X25009836Y-39036031D01*
X24938407Y-38893175D01*
X24932320Y-38886311D01*
X24929420Y-38877609D01*
X24906879Y-38857620D01*
X24886891Y-38835080D01*
X24878188Y-38832179D01*
X24871325Y-38826093D01*
X24728468Y-38754664D01*
X24694687Y-38747751D01*
X24661386Y-38738828D01*
X24447100Y-38738828D01*
X24413799Y-38747750D01*
X24380017Y-38754664D01*
X24329041Y-38780151D01*
X24307814Y-38758924D01*
X24232814Y-38738828D01*
X24157814Y-38758924D01*
X24102910Y-38813828D01*
X24082814Y-38888828D01*
X24082814Y-39888828D01*
X23587804Y-39888828D01*
X23624595Y-39852037D01*
X23636669Y-39831122D01*
X23652693Y-39813053D01*
X23724121Y-39670195D01*
X23731032Y-39636419D01*
X23739957Y-39603114D01*
X23739957Y-39174542D01*
X23731032Y-39141236D01*
X23724121Y-39107461D01*
X23652693Y-38964603D01*
X23636669Y-38946533D01*
X23624594Y-38925618D01*
X23553165Y-38854190D01*
X23532250Y-38842115D01*
X23514182Y-38826093D01*
X23371325Y-38754664D01*
X23337544Y-38747751D01*
X23304243Y-38738828D01*
X23089957Y-38738828D01*
X23056656Y-38747750D01*
X23022874Y-38754664D01*
X22880018Y-38826093D01*
X22861949Y-38842115D01*
X22841035Y-38854190D01*
X22769606Y-38925618D01*
X22757530Y-38946533D01*
X22741507Y-38964603D01*
X22670079Y-39107460D01*
X22663166Y-39141238D01*
X22654243Y-39174542D01*
X22654243Y-39603114D01*
X22275156Y-39603114D01*
X22271636Y-39601082D01*
X22193990Y-39601082D01*
X22126747Y-39639906D01*
X22080359Y-39686294D01*
X21922757Y-39738828D01*
X21828586Y-39738828D01*
X21670983Y-39686294D01*
X21570378Y-39585688D01*
X21517197Y-39479328D01*
X21454243Y-39227507D01*
X21454243Y-39050148D01*
X21517197Y-38798327D01*
X21570378Y-38691967D01*
X21670984Y-38591361D01*
X21828586Y-38538828D01*
X21922760Y-38538828D01*
X22080358Y-38591361D01*
X22126748Y-38637751D01*
X22193991Y-38676574D01*
X22271637Y-38676574D01*
X22338880Y-38637751D01*
X22377703Y-38570508D01*
X22377703Y-38492862D01*
X22338880Y-38425619D01*
X22267452Y-38354191D01*
X22237595Y-38336953D01*
X22208820Y-38317954D01*
X21994534Y-38246526D01*
X21970428Y-38245078D01*
X21947100Y-38238828D01*
X21804243Y-38238828D01*
X21780914Y-38245078D01*
X21756808Y-38246526D01*
X21542523Y-38317955D01*
X21513750Y-38336951D01*
X21483891Y-38354191D01*
X21341034Y-38497048D01*
X21328958Y-38517963D01*
X21312936Y-38536032D01*
X21241507Y-38678889D01*
X21238186Y-38695113D01*
X21230150Y-38709591D01*
X21158722Y-38995305D01*
X21159033Y-39013807D01*
X21154243Y-39031685D01*
X21154243Y-39245971D01*
X20811385Y-39245971D01*
X20811385Y-38888828D01*
X20791289Y-38813828D01*
X20736385Y-38758924D01*
X20661385Y-38738828D01*
X20586385Y-38758924D01*
X20531481Y-38813828D01*
X20511385Y-38888828D01*
X20511385Y-39888828D01*
X19311385Y-39888828D01*
X19311385Y-39324542D01*
X19732814Y-39324542D01*
X19766117Y-39315618D01*
X19799896Y-39308706D01*
X19942753Y-39237278D01*
X19960822Y-39221254D01*
X19981737Y-39209180D01*
X20053166Y-39137751D01*
X20065240Y-39116836D01*
X20081264Y-39098767D01*
X20152692Y-38955909D01*
X20159603Y-38922133D01*
X20168528Y-38888828D01*
X20168528Y-38674542D01*
X20159603Y-38641236D01*
X20152692Y-38607461D01*
X20098503Y-38499081D01*
X20445068Y-38499081D01*
X20461383Y-38527339D01*
X20483891Y-38566323D01*
X20555319Y-38637751D01*
X20572420Y-38647624D01*
X20586385Y-38661589D01*
X20605458Y-38666699D01*
X20622561Y-38676574D01*
X20622562Y-38676574D01*
X20642310Y-38676574D01*
X20661385Y-38681685D01*
X20680460Y-38676574D01*
X20700208Y-38676574D01*
X20717310Y-38666700D01*
X20736385Y-38661589D01*
X20750349Y-38647624D01*
X20760201Y-38641937D01*
X20767450Y-38637752D01*
X20838879Y-38566324D01*
X20838881Y-38566322D01*
X20861388Y-38527339D01*
X20877703Y-38499081D01*
X20877703Y-38421435D01*
X20877703Y-38421434D01*
X20854909Y-38381954D01*
X20838881Y-38354192D01*
X20838880Y-38354191D01*
X20767451Y-38282762D01*
X20767450Y-38282761D01*
X20750348Y-38272887D01*
X20736385Y-38258924D01*
X20717310Y-38253812D01*
X20700208Y-38243939D01*
X20700207Y-38243939D01*
X20680460Y-38243939D01*
X20661385Y-38238828D01*
X20642310Y-38243939D01*
X20622561Y-38243939D01*
X20605458Y-38253813D01*
X20586385Y-38258924D01*
X20572420Y-38272888D01*
X20555319Y-38282762D01*
X20555318Y-38282762D01*
X20555318Y-38282763D01*
X20483890Y-38354192D01*
X20467862Y-38381954D01*
X20445068Y-38421434D01*
X20445068Y-38421435D01*
X20445068Y-38499081D01*
X20098503Y-38499081D01*
X20081264Y-38464603D01*
X20065240Y-38446533D01*
X20053165Y-38425618D01*
X19981736Y-38354190D01*
X19960821Y-38342115D01*
X19942753Y-38326093D01*
X19799896Y-38254664D01*
X19766115Y-38247751D01*
X19732814Y-38238828D01*
X19161385Y-38238828D01*
X19086385Y-38258924D01*
X19031481Y-38313828D01*
X19011385Y-38388828D01*
X19011385Y-39888828D01*
X18797099Y-39888828D01*
X18797099Y-38024542D01*
X29954244Y-38024542D01*
X29954244Y-40253114D01*
G37*
D12*
X18852125Y-38100000D02*
X31947875Y-38100000D01*
X31947875Y-51801250D01*
X18852125Y-51801250D01*
X18852125Y-38100000D01*
D10*
X20379428Y-54379914D02*
X20284189Y-54332295D01*
X20284189Y-54332295D02*
X20093713Y-54332295D01*
X20093713Y-54332295D02*
X19998475Y-54379914D01*
X19998475Y-54379914D02*
X19903237Y-54475152D01*
X19903237Y-54475152D02*
X19855618Y-54570390D01*
X19855618Y-54570390D02*
X19855618Y-54760866D01*
X19855618Y-54760866D02*
X19903237Y-54856104D01*
X19903237Y-54856104D02*
X19998475Y-54951342D01*
X19998475Y-54951342D02*
X20093713Y-54998961D01*
X20093713Y-54998961D02*
X20284189Y-54998961D01*
X20284189Y-54998961D02*
X20379428Y-54951342D01*
X20188951Y-53998961D02*
X19950856Y-54046580D01*
X19950856Y-54046580D02*
X19712761Y-54189438D01*
X19712761Y-54189438D02*
X19569904Y-54427533D01*
X19569904Y-54427533D02*
X19522285Y-54665628D01*
X19522285Y-54665628D02*
X19569904Y-54903723D01*
X19569904Y-54903723D02*
X19712761Y-55141819D01*
X19712761Y-55141819D02*
X19950856Y-55284676D01*
X19950856Y-55284676D02*
X20188951Y-55332295D01*
X20188951Y-55332295D02*
X20427047Y-55284676D01*
X20427047Y-55284676D02*
X20665142Y-55141819D01*
X20665142Y-55141819D02*
X20807999Y-54903723D01*
X20807999Y-54903723D02*
X20855618Y-54665628D01*
X20855618Y-54665628D02*
X20807999Y-54427533D01*
X20807999Y-54427533D02*
X20665142Y-54189438D01*
X20665142Y-54189438D02*
X20427047Y-54046580D01*
X20427047Y-54046580D02*
X20188951Y-53998961D01*
X22379428Y-54618009D02*
X22522285Y-54665628D01*
X22522285Y-54665628D02*
X22569904Y-54713247D01*
X22569904Y-54713247D02*
X22617523Y-54808485D01*
X22617523Y-54808485D02*
X22617523Y-54951342D01*
X22617523Y-54951342D02*
X22569904Y-55046580D01*
X22569904Y-55046580D02*
X22522285Y-55094200D01*
X22522285Y-55094200D02*
X22427047Y-55141819D01*
X22427047Y-55141819D02*
X22046095Y-55141819D01*
X22046095Y-55141819D02*
X22046095Y-54141819D01*
X22046095Y-54141819D02*
X22379428Y-54141819D01*
X22379428Y-54141819D02*
X22474666Y-54189438D01*
X22474666Y-54189438D02*
X22522285Y-54237057D01*
X22522285Y-54237057D02*
X22569904Y-54332295D01*
X22569904Y-54332295D02*
X22569904Y-54427533D01*
X22569904Y-54427533D02*
X22522285Y-54522771D01*
X22522285Y-54522771D02*
X22474666Y-54570390D01*
X22474666Y-54570390D02*
X22379428Y-54618009D01*
X22379428Y-54618009D02*
X22046095Y-54618009D01*
X23046095Y-55141819D02*
X23046095Y-54475152D01*
X23046095Y-54665628D02*
X23093714Y-54570390D01*
X23093714Y-54570390D02*
X23141333Y-54522771D01*
X23141333Y-54522771D02*
X23236571Y-54475152D01*
X23236571Y-54475152D02*
X23331809Y-54475152D01*
X23569905Y-54475152D02*
X23808000Y-55141819D01*
X24046095Y-54475152D02*
X23808000Y-55141819D01*
X23808000Y-55141819D02*
X23712762Y-55379914D01*
X23712762Y-55379914D02*
X23665143Y-55427533D01*
X23665143Y-55427533D02*
X23569905Y-55475152D01*
X24855619Y-55094200D02*
X24760381Y-55141819D01*
X24760381Y-55141819D02*
X24569905Y-55141819D01*
X24569905Y-55141819D02*
X24474667Y-55094200D01*
X24474667Y-55094200D02*
X24427048Y-55046580D01*
X24427048Y-55046580D02*
X24379429Y-54951342D01*
X24379429Y-54951342D02*
X24379429Y-54665628D01*
X24379429Y-54665628D02*
X24427048Y-54570390D01*
X24427048Y-54570390D02*
X24474667Y-54522771D01*
X24474667Y-54522771D02*
X24569905Y-54475152D01*
X24569905Y-54475152D02*
X24760381Y-54475152D01*
X24760381Y-54475152D02*
X24855619Y-54522771D01*
X25665143Y-55094200D02*
X25569905Y-55141819D01*
X25569905Y-55141819D02*
X25379429Y-55141819D01*
X25379429Y-55141819D02*
X25284191Y-55094200D01*
X25284191Y-55094200D02*
X25236572Y-54998961D01*
X25236572Y-54998961D02*
X25236572Y-54618009D01*
X25236572Y-54618009D02*
X25284191Y-54522771D01*
X25284191Y-54522771D02*
X25379429Y-54475152D01*
X25379429Y-54475152D02*
X25569905Y-54475152D01*
X25569905Y-54475152D02*
X25665143Y-54522771D01*
X25665143Y-54522771D02*
X25712762Y-54618009D01*
X25712762Y-54618009D02*
X25712762Y-54713247D01*
X25712762Y-54713247D02*
X25236572Y-54808485D01*
X26903239Y-55141819D02*
X26903239Y-54141819D01*
X26903239Y-54141819D02*
X27141334Y-54141819D01*
X27141334Y-54141819D02*
X27284191Y-54189438D01*
X27284191Y-54189438D02*
X27379429Y-54284676D01*
X27379429Y-54284676D02*
X27427048Y-54379914D01*
X27427048Y-54379914D02*
X27474667Y-54570390D01*
X27474667Y-54570390D02*
X27474667Y-54713247D01*
X27474667Y-54713247D02*
X27427048Y-54903723D01*
X27427048Y-54903723D02*
X27379429Y-54998961D01*
X27379429Y-54998961D02*
X27284191Y-55094200D01*
X27284191Y-55094200D02*
X27141334Y-55141819D01*
X27141334Y-55141819D02*
X26903239Y-55141819D01*
X27903239Y-55141819D02*
X27903239Y-54475152D01*
X27903239Y-54141819D02*
X27855620Y-54189438D01*
X27855620Y-54189438D02*
X27903239Y-54237057D01*
X27903239Y-54237057D02*
X27950858Y-54189438D01*
X27950858Y-54189438D02*
X27903239Y-54141819D01*
X27903239Y-54141819D02*
X27903239Y-54237057D01*
X28284191Y-55141819D02*
X28808000Y-54475152D01*
X28284191Y-54475152D02*
X28808000Y-55141819D01*
X29331810Y-55141819D02*
X29236572Y-55094200D01*
X29236572Y-55094200D02*
X29188953Y-55046580D01*
X29188953Y-55046580D02*
X29141334Y-54951342D01*
X29141334Y-54951342D02*
X29141334Y-54665628D01*
X29141334Y-54665628D02*
X29188953Y-54570390D01*
X29188953Y-54570390D02*
X29236572Y-54522771D01*
X29236572Y-54522771D02*
X29331810Y-54475152D01*
X29331810Y-54475152D02*
X29474667Y-54475152D01*
X29474667Y-54475152D02*
X29569905Y-54522771D01*
X29569905Y-54522771D02*
X29617524Y-54570390D01*
X29617524Y-54570390D02*
X29665143Y-54665628D01*
X29665143Y-54665628D02*
X29665143Y-54951342D01*
X29665143Y-54951342D02*
X29617524Y-55046580D01*
X29617524Y-55046580D02*
X29569905Y-55094200D01*
X29569905Y-55094200D02*
X29474667Y-55141819D01*
X29474667Y-55141819D02*
X29331810Y-55141819D01*
X30093715Y-54475152D02*
X30093715Y-55141819D01*
X30093715Y-54570390D02*
X30141334Y-54522771D01*
X30141334Y-54522771D02*
X30236572Y-54475152D01*
X30236572Y-54475152D02*
X30379429Y-54475152D01*
X30379429Y-54475152D02*
X30474667Y-54522771D01*
X30474667Y-54522771D02*
X30522286Y-54618009D01*
X30522286Y-54618009D02*
X30522286Y-55141819D01*
D12*
X18852125Y-55596500D02*
X31947875Y-55596500D01*
X31947875Y-57516250D01*
X18852125Y-57516250D01*
X18852125Y-55596500D01*
X18852125Y-51801250D02*
X31947875Y-51801250D01*
X31947875Y-53721000D01*
X18852125Y-53721000D01*
X18852125Y-51801250D01*
D10*
X19427047Y-56017319D02*
X19760380Y-57017319D01*
X19760380Y-57017319D02*
X20093713Y-56017319D01*
X20807999Y-56969700D02*
X20712761Y-57017319D01*
X20712761Y-57017319D02*
X20522285Y-57017319D01*
X20522285Y-57017319D02*
X20427047Y-56969700D01*
X20427047Y-56969700D02*
X20379428Y-56874461D01*
X20379428Y-56874461D02*
X20379428Y-56493509D01*
X20379428Y-56493509D02*
X20427047Y-56398271D01*
X20427047Y-56398271D02*
X20522285Y-56350652D01*
X20522285Y-56350652D02*
X20712761Y-56350652D01*
X20712761Y-56350652D02*
X20807999Y-56398271D01*
X20807999Y-56398271D02*
X20855618Y-56493509D01*
X20855618Y-56493509D02*
X20855618Y-56588747D01*
X20855618Y-56588747D02*
X20379428Y-56683985D01*
X21284190Y-57017319D02*
X21284190Y-56350652D01*
X21284190Y-56541128D02*
X21331809Y-56445890D01*
X21331809Y-56445890D02*
X21379428Y-56398271D01*
X21379428Y-56398271D02*
X21474666Y-56350652D01*
X21474666Y-56350652D02*
X21569904Y-56350652D01*
X21855619Y-56969700D02*
X21950857Y-57017319D01*
X21950857Y-57017319D02*
X22141333Y-57017319D01*
X22141333Y-57017319D02*
X22236571Y-56969700D01*
X22236571Y-56969700D02*
X22284190Y-56874461D01*
X22284190Y-56874461D02*
X22284190Y-56826842D01*
X22284190Y-56826842D02*
X22236571Y-56731604D01*
X22236571Y-56731604D02*
X22141333Y-56683985D01*
X22141333Y-56683985D02*
X21998476Y-56683985D01*
X21998476Y-56683985D02*
X21903238Y-56636366D01*
X21903238Y-56636366D02*
X21855619Y-56541128D01*
X21855619Y-56541128D02*
X21855619Y-56493509D01*
X21855619Y-56493509D02*
X21903238Y-56398271D01*
X21903238Y-56398271D02*
X21998476Y-56350652D01*
X21998476Y-56350652D02*
X22141333Y-56350652D01*
X22141333Y-56350652D02*
X22236571Y-56398271D01*
X22712762Y-57017319D02*
X22712762Y-56350652D01*
X22712762Y-56017319D02*
X22665143Y-56064938D01*
X22665143Y-56064938D02*
X22712762Y-56112557D01*
X22712762Y-56112557D02*
X22760381Y-56064938D01*
X22760381Y-56064938D02*
X22712762Y-56017319D01*
X22712762Y-56017319D02*
X22712762Y-56112557D01*
X23331809Y-57017319D02*
X23236571Y-56969700D01*
X23236571Y-56969700D02*
X23188952Y-56922080D01*
X23188952Y-56922080D02*
X23141333Y-56826842D01*
X23141333Y-56826842D02*
X23141333Y-56541128D01*
X23141333Y-56541128D02*
X23188952Y-56445890D01*
X23188952Y-56445890D02*
X23236571Y-56398271D01*
X23236571Y-56398271D02*
X23331809Y-56350652D01*
X23331809Y-56350652D02*
X23474666Y-56350652D01*
X23474666Y-56350652D02*
X23569904Y-56398271D01*
X23569904Y-56398271D02*
X23617523Y-56445890D01*
X23617523Y-56445890D02*
X23665142Y-56541128D01*
X23665142Y-56541128D02*
X23665142Y-56826842D01*
X23665142Y-56826842D02*
X23617523Y-56922080D01*
X23617523Y-56922080D02*
X23569904Y-56969700D01*
X23569904Y-56969700D02*
X23474666Y-57017319D01*
X23474666Y-57017319D02*
X23331809Y-57017319D01*
X24093714Y-56350652D02*
X24093714Y-57017319D01*
X24093714Y-56445890D02*
X24141333Y-56398271D01*
X24141333Y-56398271D02*
X24236571Y-56350652D01*
X24236571Y-56350652D02*
X24379428Y-56350652D01*
X24379428Y-56350652D02*
X24474666Y-56398271D01*
X24474666Y-56398271D02*
X24522285Y-56493509D01*
X24522285Y-56493509D02*
X24522285Y-57017319D01*
X26284190Y-57017319D02*
X25712762Y-57017319D01*
X25998476Y-57017319D02*
X25998476Y-56017319D01*
X25998476Y-56017319D02*
X25903238Y-56160176D01*
X25903238Y-56160176D02*
X25808000Y-56255414D01*
X25808000Y-56255414D02*
X25712762Y-56303033D01*
X26712762Y-56922080D02*
X26760381Y-56969700D01*
X26760381Y-56969700D02*
X26712762Y-57017319D01*
X26712762Y-57017319D02*
X26665143Y-56969700D01*
X26665143Y-56969700D02*
X26712762Y-56922080D01*
X26712762Y-56922080D02*
X26712762Y-57017319D01*
X27712761Y-57017319D02*
X27141333Y-57017319D01*
X27427047Y-57017319D02*
X27427047Y-56017319D01*
X27427047Y-56017319D02*
X27331809Y-56160176D01*
X27331809Y-56160176D02*
X27236571Y-56255414D01*
X27236571Y-56255414D02*
X27141333Y-56303033D01*
D12*
X18852125Y-53721000D02*
X31947875Y-53721000D01*
X31947875Y-55640750D01*
X18852125Y-55640750D01*
X18852125Y-53721000D01*
D10*
X93813333Y-42364819D02*
X93480000Y-41888628D01*
X93241905Y-42364819D02*
X93241905Y-41364819D01*
X93241905Y-41364819D02*
X93622857Y-41364819D01*
X93622857Y-41364819D02*
X93718095Y-41412438D01*
X93718095Y-41412438D02*
X93765714Y-41460057D01*
X93765714Y-41460057D02*
X93813333Y-41555295D01*
X93813333Y-41555295D02*
X93813333Y-41698152D01*
X93813333Y-41698152D02*
X93765714Y-41793390D01*
X93765714Y-41793390D02*
X93718095Y-41841009D01*
X93718095Y-41841009D02*
X93622857Y-41888628D01*
X93622857Y-41888628D02*
X93241905Y-41888628D01*
X94194286Y-41460057D02*
X94241905Y-41412438D01*
X94241905Y-41412438D02*
X94337143Y-41364819D01*
X94337143Y-41364819D02*
X94575238Y-41364819D01*
X94575238Y-41364819D02*
X94670476Y-41412438D01*
X94670476Y-41412438D02*
X94718095Y-41460057D01*
X94718095Y-41460057D02*
X94765714Y-41555295D01*
X94765714Y-41555295D02*
X94765714Y-41650533D01*
X94765714Y-41650533D02*
X94718095Y-41793390D01*
X94718095Y-41793390D02*
X94146667Y-42364819D01*
X94146667Y-42364819D02*
X94765714Y-42364819D01*
X93813333Y-39824819D02*
X93480000Y-39348628D01*
X93241905Y-39824819D02*
X93241905Y-38824819D01*
X93241905Y-38824819D02*
X93622857Y-38824819D01*
X93622857Y-38824819D02*
X93718095Y-38872438D01*
X93718095Y-38872438D02*
X93765714Y-38920057D01*
X93765714Y-38920057D02*
X93813333Y-39015295D01*
X93813333Y-39015295D02*
X93813333Y-39158152D01*
X93813333Y-39158152D02*
X93765714Y-39253390D01*
X93765714Y-39253390D02*
X93718095Y-39301009D01*
X93718095Y-39301009D02*
X93622857Y-39348628D01*
X93622857Y-39348628D02*
X93241905Y-39348628D01*
X94765714Y-39824819D02*
X94194286Y-39824819D01*
X94480000Y-39824819D02*
X94480000Y-38824819D01*
X94480000Y-38824819D02*
X94384762Y-38967676D01*
X94384762Y-38967676D02*
X94289524Y-39062914D01*
X94289524Y-39062914D02*
X94194286Y-39110533D01*
X40729819Y-25526904D02*
X41539342Y-25526904D01*
X41539342Y-25526904D02*
X41634580Y-25479285D01*
X41634580Y-25479285D02*
X41682200Y-25431666D01*
X41682200Y-25431666D02*
X41729819Y-25336428D01*
X41729819Y-25336428D02*
X41729819Y-25145952D01*
X41729819Y-25145952D02*
X41682200Y-25050714D01*
X41682200Y-25050714D02*
X41634580Y-25003095D01*
X41634580Y-25003095D02*
X41539342Y-24955476D01*
X41539342Y-24955476D02*
X40729819Y-24955476D01*
X41729819Y-23955476D02*
X41729819Y-24526904D01*
X41729819Y-24241190D02*
X40729819Y-24241190D01*
X40729819Y-24241190D02*
X40872676Y-24336428D01*
X40872676Y-24336428D02*
X40967914Y-24431666D01*
X40967914Y-24431666D02*
X41015533Y-24526904D01*
G36*
X36123207Y-20172847D02*
G01*
X36085264Y-20191819D01*
X35882579Y-20191819D01*
X35825537Y-20163298D01*
X35797017Y-20106256D01*
X35797017Y-20046428D01*
X35825537Y-19989386D01*
X35882579Y-19960866D01*
X36102969Y-19960866D01*
X36107182Y-19959332D01*
X36111543Y-19960374D01*
X36123207Y-19956904D01*
X36123207Y-20172847D01*
G37*
G36*
X37761353Y-19703672D02*
G01*
X37789874Y-19760714D01*
X37789874Y-19776762D01*
X37463684Y-19841999D01*
X37463684Y-19760714D01*
X37492204Y-19703672D01*
X37549246Y-19675152D01*
X37704312Y-19675152D01*
X37761353Y-19703672D01*
G37*
G36*
X40361303Y-20172847D02*
G01*
X40323360Y-20191819D01*
X40120675Y-20191819D01*
X40063633Y-20163298D01*
X40035113Y-20106256D01*
X40035113Y-20046428D01*
X40063633Y-19989386D01*
X40120675Y-19960866D01*
X40341065Y-19960866D01*
X40345278Y-19959332D01*
X40349639Y-19960374D01*
X40361303Y-19956904D01*
X40361303Y-20172847D01*
G37*
G36*
X41856592Y-19703672D02*
G01*
X41885113Y-19760714D01*
X41885113Y-19776762D01*
X41558923Y-19841999D01*
X41558923Y-19760714D01*
X41587443Y-19703672D01*
X41644485Y-19675152D01*
X41799551Y-19675152D01*
X41856592Y-19703672D01*
G37*
G36*
X44963305Y-19804648D02*
G01*
X44993712Y-19835055D01*
X45027970Y-19903571D01*
X45027970Y-20058637D01*
X44993711Y-20127153D01*
X44963304Y-20157561D01*
X44894789Y-20191819D01*
X44739723Y-20191819D01*
X44671207Y-20157561D01*
X44640800Y-20127153D01*
X44606542Y-20058637D01*
X44606542Y-19903571D01*
X44640800Y-19835055D01*
X44671207Y-19804648D01*
X44739723Y-19770390D01*
X44894789Y-19770390D01*
X44963305Y-19804648D01*
G37*
G36*
X44963305Y-19376077D02*
G01*
X44993712Y-19406484D01*
X45027970Y-19475000D01*
X45027970Y-19487209D01*
X44993712Y-19555725D01*
X44963305Y-19586132D01*
X44894789Y-19620390D01*
X44739723Y-19620390D01*
X44671207Y-19586132D01*
X44640800Y-19555725D01*
X44606542Y-19487209D01*
X44606542Y-19475000D01*
X44640800Y-19406484D01*
X44671207Y-19376077D01*
X44739723Y-19341819D01*
X44894789Y-19341819D01*
X44963305Y-19376077D01*
G37*
G36*
X49824361Y-19379990D02*
G01*
X49898474Y-19454103D01*
X49936967Y-19531090D01*
X49980351Y-19704624D01*
X49980351Y-19829013D01*
X49936967Y-20002547D01*
X49898473Y-20079534D01*
X49824361Y-20153647D01*
X49709848Y-20191819D01*
X49558923Y-20191819D01*
X49558923Y-19341819D01*
X49709848Y-19341819D01*
X49824361Y-19379990D01*
G37*
G36*
X50273208Y-20579914D02*
G01*
X34314182Y-20579914D01*
X34314182Y-20349033D01*
X42076729Y-20349033D01*
X42085638Y-20399557D01*
X42124938Y-20432534D01*
X42150590Y-20437057D01*
X42912494Y-20437057D01*
X42960703Y-20419510D01*
X42986355Y-20375081D01*
X42981762Y-20349033D01*
X46600538Y-20349033D01*
X46609447Y-20399557D01*
X46648747Y-20432534D01*
X46674399Y-20437057D01*
X47436303Y-20437057D01*
X47484512Y-20419510D01*
X47510164Y-20375081D01*
X47501255Y-20324557D01*
X47461955Y-20291580D01*
X47436303Y-20287057D01*
X46674399Y-20287057D01*
X46626190Y-20304604D01*
X46600538Y-20349033D01*
X42981762Y-20349033D01*
X42977446Y-20324557D01*
X42938146Y-20291580D01*
X42912494Y-20287057D01*
X42150590Y-20287057D01*
X42102381Y-20304604D01*
X42076729Y-20349033D01*
X34314182Y-20349033D01*
X34314182Y-19258188D01*
X34457039Y-19258188D01*
X34458581Y-19284191D01*
X34696676Y-20284191D01*
X34701005Y-20290759D01*
X34701701Y-20298597D01*
X34714761Y-20311626D01*
X34724912Y-20327024D01*
X34732450Y-20329272D01*
X34738021Y-20334830D01*
X34756397Y-20336415D01*
X34774074Y-20341688D01*
X34781296Y-20338563D01*
X34789134Y-20339240D01*
X34804230Y-20328642D01*
X34821160Y-20321319D01*
X34824683Y-20314284D01*
X34831124Y-20309764D01*
X34842104Y-20286144D01*
X34960111Y-19843613D01*
X35078120Y-20286144D01*
X35082625Y-20292595D01*
X35083531Y-20300410D01*
X35096936Y-20313083D01*
X35107497Y-20328204D01*
X35115091Y-20330248D01*
X35120810Y-20335655D01*
X35139223Y-20336746D01*
X35157035Y-20341542D01*
X35164171Y-20338224D01*
X35172024Y-20338690D01*
X35186827Y-20327693D01*
X35203558Y-20319916D01*
X35206892Y-20312787D01*
X35213207Y-20308097D01*
X35223548Y-20284191D01*
X35261698Y-20123961D01*
X35647017Y-20123961D01*
X35648550Y-20128173D01*
X35647508Y-20132535D01*
X35654935Y-20157502D01*
X35702554Y-20252741D01*
X35710707Y-20260460D01*
X35715174Y-20270765D01*
X35736095Y-20286282D01*
X35831333Y-20333901D01*
X35835786Y-20334413D01*
X35839222Y-20337296D01*
X35864874Y-20341819D01*
X36102969Y-20341819D01*
X36107182Y-20340285D01*
X36111543Y-20341327D01*
X36136510Y-20333901D01*
X36156302Y-20324004D01*
X36185183Y-20340680D01*
X36235707Y-20331771D01*
X36268684Y-20292471D01*
X36273207Y-20266819D01*
X36273207Y-19743009D01*
X36271673Y-19738795D01*
X36272715Y-19734434D01*
X36265289Y-19709468D01*
X36217670Y-19614230D01*
X36209516Y-19606510D01*
X36206564Y-19599698D01*
X36504161Y-19599698D01*
X36508529Y-19625377D01*
X36746624Y-20292044D01*
X36746932Y-20292415D01*
X36746935Y-20292896D01*
X36763262Y-20312117D01*
X36779363Y-20331543D01*
X36779835Y-20331629D01*
X36780148Y-20331997D01*
X36805061Y-20336234D01*
X36829832Y-20340757D01*
X36830249Y-20340519D01*
X36830725Y-20340600D01*
X36852543Y-20327826D01*
X36874416Y-20315374D01*
X36874582Y-20314924D01*
X36874998Y-20314681D01*
X36887886Y-20292044D01*
X36947916Y-20123961D01*
X37313684Y-20123961D01*
X37315217Y-20128173D01*
X37314175Y-20132535D01*
X37321602Y-20157502D01*
X37369221Y-20252741D01*
X37377374Y-20260460D01*
X37381841Y-20270765D01*
X37402762Y-20286282D01*
X37498000Y-20333901D01*
X37502453Y-20334413D01*
X37505889Y-20337296D01*
X37531541Y-20341819D01*
X37722017Y-20341819D01*
X37726230Y-20340285D01*
X37730591Y-20341327D01*
X37755558Y-20333901D01*
X37850796Y-20286282D01*
X37886068Y-20249028D01*
X37889143Y-20197818D01*
X37858579Y-20156612D01*
X37808680Y-20144692D01*
X37783714Y-20152118D01*
X37704312Y-20191819D01*
X37549246Y-20191819D01*
X37492204Y-20163298D01*
X37463684Y-20106256D01*
X37463684Y-19994970D01*
X37879582Y-19911791D01*
X37890169Y-19905351D01*
X37902374Y-19903199D01*
X37911408Y-19892432D01*
X37923414Y-19885130D01*
X37927384Y-19873392D01*
X37935351Y-19863899D01*
X37939874Y-19838247D01*
X37939874Y-19790628D01*
X38170827Y-19790628D01*
X38172360Y-19794841D01*
X38171319Y-19799202D01*
X38178745Y-19824169D01*
X38226364Y-19919407D01*
X38234517Y-19927126D01*
X38238984Y-19937431D01*
X38259905Y-19952948D01*
X38355143Y-20000567D01*
X38359596Y-20001079D01*
X38363032Y-20003962D01*
X38388684Y-20008485D01*
X38513836Y-20008485D01*
X38570877Y-20037005D01*
X38599398Y-20094047D01*
X38599398Y-20106256D01*
X38570877Y-20163298D01*
X38513836Y-20191819D01*
X38358770Y-20191819D01*
X38279368Y-20152118D01*
X38228401Y-20146253D01*
X38185588Y-20174519D01*
X38170962Y-20223694D01*
X38191365Y-20270765D01*
X38212286Y-20286282D01*
X38307524Y-20333901D01*
X38311977Y-20334413D01*
X38315413Y-20337296D01*
X38341065Y-20341819D01*
X38531541Y-20341819D01*
X38535754Y-20340285D01*
X38540115Y-20341327D01*
X38565082Y-20333901D01*
X38660320Y-20286282D01*
X38668039Y-20278128D01*
X38678344Y-20273662D01*
X38683419Y-20266819D01*
X39027970Y-20266819D01*
X39045517Y-20315028D01*
X39089946Y-20340680D01*
X39140470Y-20331771D01*
X39173447Y-20292471D01*
X39177970Y-20266819D01*
X39177970Y-19726456D01*
X39195016Y-19709410D01*
X39263532Y-19675152D01*
X39370979Y-19675152D01*
X39428020Y-19703672D01*
X39456541Y-19760714D01*
X39456541Y-20266819D01*
X39474088Y-20315028D01*
X39518517Y-20340680D01*
X39569041Y-20331771D01*
X39602018Y-20292471D01*
X39606541Y-20266819D01*
X39606541Y-20123961D01*
X39885113Y-20123961D01*
X39886646Y-20128173D01*
X39885604Y-20132535D01*
X39893031Y-20157502D01*
X39940650Y-20252741D01*
X39948803Y-20260460D01*
X39953270Y-20270765D01*
X39974191Y-20286282D01*
X40069429Y-20333901D01*
X40073882Y-20334413D01*
X40077318Y-20337296D01*
X40102970Y-20341819D01*
X40341065Y-20341819D01*
X40345278Y-20340285D01*
X40349639Y-20341327D01*
X40374606Y-20333901D01*
X40394398Y-20324004D01*
X40423279Y-20340680D01*
X40473803Y-20331771D01*
X40506780Y-20292471D01*
X40511303Y-20266819D01*
X40837494Y-20266819D01*
X40855041Y-20315028D01*
X40899470Y-20340680D01*
X40949994Y-20331771D01*
X40982971Y-20292471D01*
X40987494Y-20266819D01*
X40987494Y-20123961D01*
X41408923Y-20123961D01*
X41410456Y-20128173D01*
X41409414Y-20132535D01*
X41416841Y-20157502D01*
X41464460Y-20252741D01*
X41472613Y-20260460D01*
X41477080Y-20270765D01*
X41498001Y-20286282D01*
X41593239Y-20333901D01*
X41597692Y-20334413D01*
X41601128Y-20337296D01*
X41626780Y-20341819D01*
X41817256Y-20341819D01*
X41821469Y-20340285D01*
X41825830Y-20341327D01*
X41850797Y-20333901D01*
X41946035Y-20286282D01*
X41976794Y-20253795D01*
X43029110Y-20253795D01*
X43038019Y-20304319D01*
X43077319Y-20337296D01*
X43102971Y-20341819D01*
X43674399Y-20341819D01*
X43722608Y-20324272D01*
X43748260Y-20279843D01*
X43739351Y-20229319D01*
X43719503Y-20212664D01*
X43980638Y-20212664D01*
X43985680Y-20231484D01*
X43987379Y-20250896D01*
X43993052Y-20258998D01*
X43993915Y-20262219D01*
X43996646Y-20264131D01*
X44002319Y-20272233D01*
X44049938Y-20319852D01*
X44067596Y-20328085D01*
X44083560Y-20339264D01*
X44086976Y-20338965D01*
X44089947Y-20340680D01*
X44093326Y-20340084D01*
X44096434Y-20341533D01*
X44115253Y-20336490D01*
X44134667Y-20334792D01*
X44138480Y-20332122D01*
X44140471Y-20331771D01*
X44142592Y-20329242D01*
X44142769Y-20329118D01*
X44145989Y-20328256D01*
X44147900Y-20325526D01*
X44156004Y-20319852D01*
X44203623Y-20272233D01*
X44211857Y-20254574D01*
X44223034Y-20238612D01*
X44222444Y-20231869D01*
X44225304Y-20225737D01*
X44220261Y-20206918D01*
X44218564Y-20187505D01*
X44212889Y-20179400D01*
X44212027Y-20176182D01*
X44209297Y-20174270D01*
X44203623Y-20166167D01*
X44156005Y-20118548D01*
X44138347Y-20110314D01*
X44122382Y-20099135D01*
X44118965Y-20099433D01*
X44115995Y-20097719D01*
X44112615Y-20098314D01*
X44109508Y-20096866D01*
X44090688Y-20101908D01*
X44071274Y-20103607D01*
X44067460Y-20106277D01*
X44065471Y-20106628D01*
X44063349Y-20109155D01*
X44063171Y-20109280D01*
X44059953Y-20110143D01*
X44058041Y-20112872D01*
X44049937Y-20118548D01*
X44002318Y-20166168D01*
X43994084Y-20183825D01*
X43982907Y-20199789D01*
X43983497Y-20206532D01*
X43980638Y-20212664D01*
X43719503Y-20212664D01*
X43700051Y-20196342D01*
X43674399Y-20191819D01*
X43463685Y-20191819D01*
X43463685Y-20076342D01*
X44456542Y-20076342D01*
X44458075Y-20080555D01*
X44457034Y-20084916D01*
X44464460Y-20109883D01*
X44512079Y-20205121D01*
X44513267Y-20206246D01*
X44526127Y-20224612D01*
X44573746Y-20272232D01*
X44575227Y-20272922D01*
X44593239Y-20286282D01*
X44688477Y-20333901D01*
X44692930Y-20334413D01*
X44696366Y-20337296D01*
X44722018Y-20341819D01*
X44912494Y-20341819D01*
X44916707Y-20340285D01*
X44921068Y-20341327D01*
X44946035Y-20333901D01*
X45041273Y-20286282D01*
X45042397Y-20285094D01*
X45060766Y-20272232D01*
X45066179Y-20266819D01*
X45456542Y-20266819D01*
X45474089Y-20315028D01*
X45518518Y-20340680D01*
X45569042Y-20331771D01*
X45602019Y-20292471D01*
X45606542Y-20266819D01*
X45932732Y-20266819D01*
X45950279Y-20315028D01*
X45994708Y-20340680D01*
X46045232Y-20331771D01*
X46078209Y-20292471D01*
X46082732Y-20266819D01*
X46082732Y-19726456D01*
X46099778Y-19709410D01*
X46168294Y-19675152D01*
X46275741Y-19675152D01*
X46332782Y-19703672D01*
X46361303Y-19760714D01*
X46361303Y-20266819D01*
X46378850Y-20315028D01*
X46423279Y-20340680D01*
X46473803Y-20331771D01*
X46506780Y-20292471D01*
X46511303Y-20266819D01*
X47599399Y-20266819D01*
X47606062Y-20285127D01*
X47609447Y-20304319D01*
X47614631Y-20308669D01*
X47616946Y-20315028D01*
X47633819Y-20324770D01*
X47648747Y-20337296D01*
X47658489Y-20339013D01*
X47661375Y-20340680D01*
X47664657Y-20340101D01*
X47674399Y-20341819D01*
X48150589Y-20341819D01*
X48198798Y-20324272D01*
X48224450Y-20279843D01*
X48215541Y-20229319D01*
X48176241Y-20196342D01*
X48150589Y-20191819D01*
X47749399Y-20191819D01*
X47749399Y-19838247D01*
X48361304Y-19838247D01*
X48362489Y-19841504D01*
X48363543Y-19856437D01*
X48411162Y-20046913D01*
X48413150Y-20049857D01*
X48416841Y-20062264D01*
X48464460Y-20157502D01*
X48465646Y-20158625D01*
X48478509Y-20176994D01*
X48573747Y-20272233D01*
X48577811Y-20274128D01*
X48580158Y-20277948D01*
X48603063Y-20290351D01*
X48745919Y-20337970D01*
X48747554Y-20337925D01*
X48769637Y-20341819D01*
X48864875Y-20341819D01*
X48866413Y-20341258D01*
X48888592Y-20337970D01*
X49031449Y-20290351D01*
X49034960Y-20287563D01*
X49039429Y-20287173D01*
X49060766Y-20272232D01*
X49066179Y-20266819D01*
X49408923Y-20266819D01*
X49415586Y-20285127D01*
X49418971Y-20304319D01*
X49424155Y-20308669D01*
X49426470Y-20315028D01*
X49443343Y-20324770D01*
X49458271Y-20337296D01*
X49468013Y-20339013D01*
X49470899Y-20340680D01*
X49474181Y-20340101D01*
X49483923Y-20341819D01*
X49722018Y-20341819D01*
X49723556Y-20341258D01*
X49745735Y-20337970D01*
X49888592Y-20290351D01*
X49892104Y-20287563D01*
X49896571Y-20287173D01*
X49917908Y-20272233D01*
X50013147Y-20176993D01*
X50013838Y-20175510D01*
X50027195Y-20157502D01*
X50074814Y-20062264D01*
X50075220Y-20058735D01*
X50080493Y-20046913D01*
X50128112Y-19856437D01*
X50127751Y-19852988D01*
X50130351Y-19838247D01*
X50130351Y-19695390D01*
X50129165Y-19692132D01*
X50128112Y-19677200D01*
X50080493Y-19486724D01*
X50078504Y-19483779D01*
X50074814Y-19471373D01*
X50027195Y-19376135D01*
X50026008Y-19375011D01*
X50013146Y-19356643D01*
X49917908Y-19261405D01*
X49913844Y-19259510D01*
X49911497Y-19255689D01*
X49888592Y-19243287D01*
X49745735Y-19195668D01*
X49744100Y-19195712D01*
X49722018Y-19191819D01*
X49483923Y-19191819D01*
X49465614Y-19198482D01*
X49446423Y-19201867D01*
X49442072Y-19207051D01*
X49435714Y-19209366D01*
X49425971Y-19226239D01*
X49413446Y-19241167D01*
X49411728Y-19250909D01*
X49410062Y-19253795D01*
X49410640Y-19257077D01*
X49408923Y-19266819D01*
X49408923Y-20266819D01*
X49066179Y-20266819D01*
X49108384Y-20224613D01*
X49130065Y-20178116D01*
X49116787Y-20128561D01*
X49074762Y-20099135D01*
X49023654Y-20103607D01*
X49002317Y-20118548D01*
X48967218Y-20153647D01*
X48852705Y-20191819D01*
X48781807Y-20191819D01*
X48667294Y-20153648D01*
X48593181Y-20079534D01*
X48554687Y-20002547D01*
X48511304Y-19829013D01*
X48511304Y-19704624D01*
X48554687Y-19531090D01*
X48593181Y-19454103D01*
X48667294Y-19379990D01*
X48781807Y-19341819D01*
X48852705Y-19341819D01*
X48967218Y-19379990D01*
X49002318Y-19415090D01*
X49048814Y-19436771D01*
X49098369Y-19423494D01*
X49127795Y-19381468D01*
X49123324Y-19330361D01*
X49108384Y-19309024D01*
X49060765Y-19261405D01*
X49056701Y-19259510D01*
X49054354Y-19255689D01*
X49031449Y-19243287D01*
X48888592Y-19195668D01*
X48886957Y-19195712D01*
X48864875Y-19191819D01*
X48769637Y-19191819D01*
X48768099Y-19192378D01*
X48745919Y-19195668D01*
X48603063Y-19243287D01*
X48599552Y-19246073D01*
X48595084Y-19246464D01*
X48573747Y-19261405D01*
X48478509Y-19356643D01*
X48477818Y-19358124D01*
X48464460Y-19376135D01*
X48416841Y-19471373D01*
X48416434Y-19474901D01*
X48411162Y-19486724D01*
X48363543Y-19677200D01*
X48363903Y-19680648D01*
X48361304Y-19695390D01*
X48361304Y-19838247D01*
X47749399Y-19838247D01*
X47749399Y-19266819D01*
X47731852Y-19218610D01*
X47687423Y-19192958D01*
X47636899Y-19201867D01*
X47603922Y-19241167D01*
X47599399Y-19266819D01*
X47599399Y-20266819D01*
X46511303Y-20266819D01*
X46511303Y-19743009D01*
X46509769Y-19738795D01*
X46510811Y-19734434D01*
X46503385Y-19709468D01*
X46455766Y-19614230D01*
X46447612Y-19606510D01*
X46443146Y-19596206D01*
X46422225Y-19580689D01*
X46326987Y-19533070D01*
X46322533Y-19532557D01*
X46319098Y-19529675D01*
X46293446Y-19525152D01*
X46150589Y-19525152D01*
X46146375Y-19526685D01*
X46142014Y-19525644D01*
X46117048Y-19533070D01*
X46067358Y-19557914D01*
X46065185Y-19551943D01*
X46020756Y-19526291D01*
X45970232Y-19535200D01*
X45937255Y-19574500D01*
X45932732Y-19600152D01*
X45932732Y-20266819D01*
X45606542Y-20266819D01*
X45606542Y-19600152D01*
X45588995Y-19551943D01*
X45544566Y-19526291D01*
X45494042Y-19535200D01*
X45461065Y-19574500D01*
X45456542Y-19600152D01*
X45456542Y-20266819D01*
X45066179Y-20266819D01*
X45108384Y-20224613D01*
X45109074Y-20223131D01*
X45122433Y-20205121D01*
X45170052Y-20109883D01*
X45170564Y-20105429D01*
X45173447Y-20101994D01*
X45177970Y-20076342D01*
X45177970Y-19885866D01*
X45176436Y-19881652D01*
X45177478Y-19877291D01*
X45170052Y-19852325D01*
X45122433Y-19757087D01*
X45121243Y-19755961D01*
X45108384Y-19737595D01*
X45066179Y-19695390D01*
X45108384Y-19653185D01*
X45109075Y-19651703D01*
X45122433Y-19633693D01*
X45170052Y-19538455D01*
X45170564Y-19534001D01*
X45173447Y-19530566D01*
X45177970Y-19504914D01*
X45177970Y-19457295D01*
X45176436Y-19453081D01*
X45177478Y-19448720D01*
X45170052Y-19423754D01*
X45122433Y-19328516D01*
X45121243Y-19327390D01*
X45108384Y-19309024D01*
X45107262Y-19307902D01*
X45409209Y-19307902D01*
X45414251Y-19326721D01*
X45415950Y-19346134D01*
X45421623Y-19354236D01*
X45422486Y-19357456D01*
X45425216Y-19359367D01*
X45430890Y-19367471D01*
X45478509Y-19415090D01*
X45496167Y-19423323D01*
X45512131Y-19434502D01*
X45515547Y-19434203D01*
X45518518Y-19435918D01*
X45521897Y-19435322D01*
X45525005Y-19436771D01*
X45543824Y-19431728D01*
X45563238Y-19430030D01*
X45567051Y-19427360D01*
X45569042Y-19427009D01*
X45571163Y-19424480D01*
X45571340Y-19424356D01*
X45574560Y-19423494D01*
X45576471Y-19420764D01*
X45584575Y-19415090D01*
X45632194Y-19367471D01*
X45640429Y-19349810D01*
X45651605Y-19333849D01*
X45651015Y-19327107D01*
X45653875Y-19320975D01*
X45648832Y-19302153D01*
X45647134Y-19282742D01*
X45641460Y-19274639D01*
X45640598Y-19271420D01*
X45637868Y-19269508D01*
X45632194Y-19261405D01*
X45584575Y-19213786D01*
X45566914Y-19205551D01*
X45550953Y-19194375D01*
X45547537Y-19194673D01*
X45544566Y-19192958D01*
X45541185Y-19193554D01*
X45538078Y-19192105D01*
X45519256Y-19197147D01*
X45499846Y-19198846D01*
X45496032Y-19201515D01*
X45494042Y-19201867D01*
X45491920Y-19204395D01*
X45491743Y-19204519D01*
X45488524Y-19205382D01*
X45486612Y-19208112D01*
X45478509Y-19213786D01*
X45430890Y-19261405D01*
X45422656Y-19279062D01*
X45411478Y-19295027D01*
X45412068Y-19301770D01*
X45409209Y-19307902D01*
X45107262Y-19307902D01*
X45060765Y-19261405D01*
X45059283Y-19260714D01*
X45041273Y-19247356D01*
X44946035Y-19199737D01*
X44941581Y-19199224D01*
X44938146Y-19196342D01*
X44912494Y-19191819D01*
X44722018Y-19191819D01*
X44717804Y-19193352D01*
X44713443Y-19192311D01*
X44688477Y-19199737D01*
X44593239Y-19247356D01*
X44592113Y-19248545D01*
X44573747Y-19261405D01*
X44526128Y-19309024D01*
X44525437Y-19310505D01*
X44512079Y-19328516D01*
X44464460Y-19423754D01*
X44463947Y-19428207D01*
X44461065Y-19431643D01*
X44456542Y-19457295D01*
X44456542Y-19504914D01*
X44458075Y-19509127D01*
X44457034Y-19513488D01*
X44464460Y-19538455D01*
X44512079Y-19633693D01*
X44513268Y-19634818D01*
X44526128Y-19653185D01*
X44568333Y-19695390D01*
X44526128Y-19737595D01*
X44525437Y-19739076D01*
X44512079Y-19757087D01*
X44464460Y-19852325D01*
X44463947Y-19856778D01*
X44461065Y-19860214D01*
X44456542Y-19885866D01*
X44456542Y-20076342D01*
X43463685Y-20076342D01*
X43463685Y-19266819D01*
X43462209Y-19262765D01*
X43463230Y-19258576D01*
X43453582Y-19239063D01*
X43446138Y-19218610D01*
X43442403Y-19216454D01*
X43440492Y-19212587D01*
X43420557Y-19203840D01*
X43401709Y-19192958D01*
X43397461Y-19193706D01*
X43393512Y-19191974D01*
X43372617Y-19198087D01*
X43351185Y-19201867D01*
X43348413Y-19205169D01*
X43344274Y-19206381D01*
X43326281Y-19225216D01*
X43235161Y-19361896D01*
X43153782Y-19443275D01*
X43069430Y-19485451D01*
X43034158Y-19522705D01*
X43031083Y-19573916D01*
X43061647Y-19615121D01*
X43111545Y-19627041D01*
X43136512Y-19619615D01*
X43231750Y-19571996D01*
X43232875Y-19570806D01*
X43251242Y-19557947D01*
X43313685Y-19495504D01*
X43313685Y-20191819D01*
X43102971Y-20191819D01*
X43054762Y-20209366D01*
X43029110Y-20253795D01*
X41976794Y-20253795D01*
X41981307Y-20249028D01*
X41984382Y-20197818D01*
X41953818Y-20156612D01*
X41903919Y-20144692D01*
X41878953Y-20152118D01*
X41799551Y-20191819D01*
X41644485Y-20191819D01*
X41587443Y-20163298D01*
X41558923Y-20106256D01*
X41558923Y-19994970D01*
X41974821Y-19911791D01*
X41985408Y-19905351D01*
X41997613Y-19903199D01*
X42006647Y-19892432D01*
X42018653Y-19885130D01*
X42022623Y-19873392D01*
X42030590Y-19863899D01*
X42035113Y-19838247D01*
X42035113Y-19743009D01*
X42033579Y-19738795D01*
X42034621Y-19734434D01*
X42027195Y-19709468D01*
X41979576Y-19614230D01*
X41971422Y-19606510D01*
X41966956Y-19596206D01*
X41946035Y-19580689D01*
X41850797Y-19533070D01*
X41846343Y-19532557D01*
X41842908Y-19529675D01*
X41817256Y-19525152D01*
X41626780Y-19525152D01*
X41622566Y-19526685D01*
X41618205Y-19525644D01*
X41593239Y-19533070D01*
X41498001Y-19580689D01*
X41490281Y-19588842D01*
X41479977Y-19593309D01*
X41464460Y-19614230D01*
X41416841Y-19709468D01*
X41416328Y-19713921D01*
X41413446Y-19717357D01*
X41408923Y-19743009D01*
X41408923Y-20123961D01*
X40987494Y-20123961D01*
X40987494Y-19808333D01*
X41021752Y-19739817D01*
X41052159Y-19709410D01*
X41120675Y-19675152D01*
X41198208Y-19675152D01*
X41246417Y-19657605D01*
X41272069Y-19613176D01*
X41263160Y-19562652D01*
X41223860Y-19529675D01*
X41198208Y-19525152D01*
X41102970Y-19525152D01*
X41098756Y-19526685D01*
X41094395Y-19525644D01*
X41069429Y-19533070D01*
X40979452Y-19578058D01*
X40969947Y-19551943D01*
X40925518Y-19526291D01*
X40874994Y-19535200D01*
X40842017Y-19574500D01*
X40837494Y-19600152D01*
X40837494Y-20266819D01*
X40511303Y-20266819D01*
X40511303Y-19743009D01*
X40509769Y-19738795D01*
X40510811Y-19734434D01*
X40503385Y-19709468D01*
X40455766Y-19614230D01*
X40447612Y-19606510D01*
X40443146Y-19596206D01*
X40422225Y-19580689D01*
X40326987Y-19533070D01*
X40322533Y-19532557D01*
X40319098Y-19529675D01*
X40293446Y-19525152D01*
X40102970Y-19525152D01*
X40098756Y-19526685D01*
X40094395Y-19525644D01*
X40069429Y-19533070D01*
X39974191Y-19580689D01*
X39938919Y-19617943D01*
X39935844Y-19669154D01*
X39966408Y-19710359D01*
X40016306Y-19722279D01*
X40041273Y-19714853D01*
X40120675Y-19675152D01*
X40275741Y-19675152D01*
X40332782Y-19703672D01*
X40361303Y-19760714D01*
X40361303Y-19791894D01*
X40323360Y-19810866D01*
X40102970Y-19810866D01*
X40098756Y-19812399D01*
X40094395Y-19811358D01*
X40069429Y-19818784D01*
X39974191Y-19866403D01*
X39966471Y-19874556D01*
X39956167Y-19879023D01*
X39940650Y-19899944D01*
X39893031Y-19995182D01*
X39892518Y-19999635D01*
X39889636Y-20003071D01*
X39885113Y-20028723D01*
X39885113Y-20123961D01*
X39606541Y-20123961D01*
X39606541Y-19743009D01*
X39605007Y-19738795D01*
X39606049Y-19734434D01*
X39598623Y-19709468D01*
X39551004Y-19614230D01*
X39542850Y-19606510D01*
X39538384Y-19596206D01*
X39517463Y-19580689D01*
X39422225Y-19533070D01*
X39417771Y-19532557D01*
X39414336Y-19529675D01*
X39388684Y-19525152D01*
X39245827Y-19525152D01*
X39241613Y-19526685D01*
X39237252Y-19525644D01*
X39212286Y-19533070D01*
X39177970Y-19550228D01*
X39177970Y-19266819D01*
X39160423Y-19218610D01*
X39115994Y-19192958D01*
X39065470Y-19201867D01*
X39032493Y-19241167D01*
X39027970Y-19266819D01*
X39027970Y-20266819D01*
X38683419Y-20266819D01*
X38693861Y-20252741D01*
X38741480Y-20157502D01*
X38741992Y-20153048D01*
X38744875Y-20149613D01*
X38749398Y-20123961D01*
X38749398Y-20076342D01*
X38747864Y-20072128D01*
X38748906Y-20067767D01*
X38741480Y-20042801D01*
X38693861Y-19947563D01*
X38685707Y-19939843D01*
X38681241Y-19929539D01*
X38660320Y-19914022D01*
X38565082Y-19866403D01*
X38560628Y-19865890D01*
X38557193Y-19863008D01*
X38531541Y-19858485D01*
X38406389Y-19858485D01*
X38349347Y-19829964D01*
X38320827Y-19772923D01*
X38320827Y-19760714D01*
X38349347Y-19703672D01*
X38406389Y-19675152D01*
X38513836Y-19675152D01*
X38593238Y-19714853D01*
X38644204Y-19720718D01*
X38687017Y-19692452D01*
X38701644Y-19643277D01*
X38681241Y-19596206D01*
X38660320Y-19580689D01*
X38565082Y-19533070D01*
X38560628Y-19532557D01*
X38557193Y-19529675D01*
X38531541Y-19525152D01*
X38388684Y-19525152D01*
X38384470Y-19526685D01*
X38380109Y-19525644D01*
X38355143Y-19533070D01*
X38259905Y-19580689D01*
X38252185Y-19588842D01*
X38241881Y-19593309D01*
X38226364Y-19614230D01*
X38178745Y-19709468D01*
X38178232Y-19713921D01*
X38175350Y-19717357D01*
X38170827Y-19743009D01*
X38170827Y-19790628D01*
X37939874Y-19790628D01*
X37939874Y-19743009D01*
X37938340Y-19738795D01*
X37939382Y-19734434D01*
X37931956Y-19709468D01*
X37884337Y-19614230D01*
X37876183Y-19606510D01*
X37871717Y-19596206D01*
X37850796Y-19580689D01*
X37755558Y-19533070D01*
X37751104Y-19532557D01*
X37747669Y-19529675D01*
X37722017Y-19525152D01*
X37531541Y-19525152D01*
X37527327Y-19526685D01*
X37522966Y-19525644D01*
X37498000Y-19533070D01*
X37402762Y-19580689D01*
X37395042Y-19588842D01*
X37384738Y-19593309D01*
X37369221Y-19614230D01*
X37321602Y-19709468D01*
X37321089Y-19713921D01*
X37318207Y-19717357D01*
X37313684Y-19743009D01*
X37313684Y-20123961D01*
X36947916Y-20123961D01*
X37125981Y-19625377D01*
X37125670Y-19574075D01*
X37092457Y-19534975D01*
X37041880Y-19526372D01*
X36997606Y-19552291D01*
X36984719Y-19574927D01*
X36817255Y-20043826D01*
X36649791Y-19574927D01*
X36617051Y-19535428D01*
X36566583Y-19526214D01*
X36521999Y-19551597D01*
X36504161Y-19599698D01*
X36206564Y-19599698D01*
X36205050Y-19596206D01*
X36184129Y-19580689D01*
X36088891Y-19533070D01*
X36084437Y-19532557D01*
X36081002Y-19529675D01*
X36055350Y-19525152D01*
X35864874Y-19525152D01*
X35860660Y-19526685D01*
X35856299Y-19525644D01*
X35831333Y-19533070D01*
X35736095Y-19580689D01*
X35700823Y-19617943D01*
X35697748Y-19669154D01*
X35728312Y-19710359D01*
X35778210Y-19722279D01*
X35803177Y-19714853D01*
X35882579Y-19675152D01*
X36037645Y-19675152D01*
X36094686Y-19703672D01*
X36123207Y-19760714D01*
X36123207Y-19791894D01*
X36085264Y-19810866D01*
X35864874Y-19810866D01*
X35860660Y-19812399D01*
X35856299Y-19811358D01*
X35831333Y-19818784D01*
X35736095Y-19866403D01*
X35728375Y-19874556D01*
X35718071Y-19879023D01*
X35702554Y-19899944D01*
X35654935Y-19995182D01*
X35654422Y-19999635D01*
X35651540Y-20003071D01*
X35647017Y-20028723D01*
X35647017Y-20123961D01*
X35261698Y-20123961D01*
X35461644Y-19284191D01*
X35455741Y-19233228D01*
X35418462Y-19197983D01*
X35367248Y-19194948D01*
X35326065Y-19225541D01*
X35315724Y-19249448D01*
X35146471Y-19960303D01*
X35032580Y-19533208D01*
X35028652Y-19527585D01*
X35028047Y-19520755D01*
X35014309Y-19507049D01*
X35003203Y-19491148D01*
X34996584Y-19489365D01*
X34991728Y-19484521D01*
X34972394Y-19482852D01*
X34953665Y-19477810D01*
X34947446Y-19480700D01*
X34940614Y-19480111D01*
X34924734Y-19491258D01*
X34907143Y-19499436D01*
X34904237Y-19505647D01*
X34898624Y-19509588D01*
X34887644Y-19533208D01*
X34773752Y-19960303D01*
X34604501Y-19249447D01*
X34576265Y-19206614D01*
X34527103Y-19191950D01*
X34480017Y-19212319D01*
X34457039Y-19258188D01*
X34314182Y-19258188D01*
X34314182Y-19048962D01*
X50273208Y-19048962D01*
X50273208Y-20579914D01*
G37*
X32967200Y-79693332D02*
X33014819Y-79550475D01*
X33014819Y-79550475D02*
X33014819Y-79312380D01*
X33014819Y-79312380D02*
X32967200Y-79217142D01*
X32967200Y-79217142D02*
X32919580Y-79169523D01*
X32919580Y-79169523D02*
X32824342Y-79121904D01*
X32824342Y-79121904D02*
X32729104Y-79121904D01*
X32729104Y-79121904D02*
X32633866Y-79169523D01*
X32633866Y-79169523D02*
X32586247Y-79217142D01*
X32586247Y-79217142D02*
X32538628Y-79312380D01*
X32538628Y-79312380D02*
X32491009Y-79502856D01*
X32491009Y-79502856D02*
X32443390Y-79598094D01*
X32443390Y-79598094D02*
X32395771Y-79645713D01*
X32395771Y-79645713D02*
X32300533Y-79693332D01*
X32300533Y-79693332D02*
X32205295Y-79693332D01*
X32205295Y-79693332D02*
X32110057Y-79645713D01*
X32110057Y-79645713D02*
X32062438Y-79598094D01*
X32062438Y-79598094D02*
X32014819Y-79502856D01*
X32014819Y-79502856D02*
X32014819Y-79264761D01*
X32014819Y-79264761D02*
X32062438Y-79121904D01*
X32014819Y-78788570D02*
X33014819Y-78550475D01*
X33014819Y-78550475D02*
X32300533Y-78359999D01*
X32300533Y-78359999D02*
X33014819Y-78169523D01*
X33014819Y-78169523D02*
X32014819Y-77931428D01*
X33014819Y-77502856D02*
X33014819Y-77312380D01*
X33014819Y-77312380D02*
X32967200Y-77217142D01*
X32967200Y-77217142D02*
X32919580Y-77169523D01*
X32919580Y-77169523D02*
X32776723Y-77074285D01*
X32776723Y-77074285D02*
X32586247Y-77026666D01*
X32586247Y-77026666D02*
X32205295Y-77026666D01*
X32205295Y-77026666D02*
X32110057Y-77074285D01*
X32110057Y-77074285D02*
X32062438Y-77121904D01*
X32062438Y-77121904D02*
X32014819Y-77217142D01*
X32014819Y-77217142D02*
X32014819Y-77407618D01*
X32014819Y-77407618D02*
X32062438Y-77502856D01*
X32062438Y-77502856D02*
X32110057Y-77550475D01*
X32110057Y-77550475D02*
X32205295Y-77598094D01*
X32205295Y-77598094D02*
X32443390Y-77598094D01*
X32443390Y-77598094D02*
X32538628Y-77550475D01*
X32538628Y-77550475D02*
X32586247Y-77502856D01*
X32586247Y-77502856D02*
X32633866Y-77407618D01*
X32633866Y-77407618D02*
X32633866Y-77217142D01*
X32633866Y-77217142D02*
X32586247Y-77121904D01*
X32586247Y-77121904D02*
X32538628Y-77074285D01*
X32538628Y-77074285D02*
X32443390Y-77026666D01*
X36996667Y-73537200D02*
X37139524Y-73584819D01*
X37139524Y-73584819D02*
X37377619Y-73584819D01*
X37377619Y-73584819D02*
X37472857Y-73537200D01*
X37472857Y-73537200D02*
X37520476Y-73489580D01*
X37520476Y-73489580D02*
X37568095Y-73394342D01*
X37568095Y-73394342D02*
X37568095Y-73299104D01*
X37568095Y-73299104D02*
X37520476Y-73203866D01*
X37520476Y-73203866D02*
X37472857Y-73156247D01*
X37472857Y-73156247D02*
X37377619Y-73108628D01*
X37377619Y-73108628D02*
X37187143Y-73061009D01*
X37187143Y-73061009D02*
X37091905Y-73013390D01*
X37091905Y-73013390D02*
X37044286Y-72965771D01*
X37044286Y-72965771D02*
X36996667Y-72870533D01*
X36996667Y-72870533D02*
X36996667Y-72775295D01*
X36996667Y-72775295D02*
X37044286Y-72680057D01*
X37044286Y-72680057D02*
X37091905Y-72632438D01*
X37091905Y-72632438D02*
X37187143Y-72584819D01*
X37187143Y-72584819D02*
X37425238Y-72584819D01*
X37425238Y-72584819D02*
X37568095Y-72632438D01*
X37901429Y-72584819D02*
X38139524Y-73584819D01*
X38139524Y-73584819D02*
X38330000Y-72870533D01*
X38330000Y-72870533D02*
X38520476Y-73584819D01*
X38520476Y-73584819D02*
X38758572Y-72584819D01*
X39282381Y-73013390D02*
X39187143Y-72965771D01*
X39187143Y-72965771D02*
X39139524Y-72918152D01*
X39139524Y-72918152D02*
X39091905Y-72822914D01*
X39091905Y-72822914D02*
X39091905Y-72775295D01*
X39091905Y-72775295D02*
X39139524Y-72680057D01*
X39139524Y-72680057D02*
X39187143Y-72632438D01*
X39187143Y-72632438D02*
X39282381Y-72584819D01*
X39282381Y-72584819D02*
X39472857Y-72584819D01*
X39472857Y-72584819D02*
X39568095Y-72632438D01*
X39568095Y-72632438D02*
X39615714Y-72680057D01*
X39615714Y-72680057D02*
X39663333Y-72775295D01*
X39663333Y-72775295D02*
X39663333Y-72822914D01*
X39663333Y-72822914D02*
X39615714Y-72918152D01*
X39615714Y-72918152D02*
X39568095Y-72965771D01*
X39568095Y-72965771D02*
X39472857Y-73013390D01*
X39472857Y-73013390D02*
X39282381Y-73013390D01*
X39282381Y-73013390D02*
X39187143Y-73061009D01*
X39187143Y-73061009D02*
X39139524Y-73108628D01*
X39139524Y-73108628D02*
X39091905Y-73203866D01*
X39091905Y-73203866D02*
X39091905Y-73394342D01*
X39091905Y-73394342D02*
X39139524Y-73489580D01*
X39139524Y-73489580D02*
X39187143Y-73537200D01*
X39187143Y-73537200D02*
X39282381Y-73584819D01*
X39282381Y-73584819D02*
X39472857Y-73584819D01*
X39472857Y-73584819D02*
X39568095Y-73537200D01*
X39568095Y-73537200D02*
X39615714Y-73489580D01*
X39615714Y-73489580D02*
X39663333Y-73394342D01*
X39663333Y-73394342D02*
X39663333Y-73203866D01*
X39663333Y-73203866D02*
X39615714Y-73108628D01*
X39615714Y-73108628D02*
X39568095Y-73061009D01*
X39568095Y-73061009D02*
X39472857Y-73013390D01*
X36456667Y-84537200D02*
X36599524Y-84584819D01*
X36599524Y-84584819D02*
X36837619Y-84584819D01*
X36837619Y-84584819D02*
X36932857Y-84537200D01*
X36932857Y-84537200D02*
X36980476Y-84489580D01*
X36980476Y-84489580D02*
X37028095Y-84394342D01*
X37028095Y-84394342D02*
X37028095Y-84299104D01*
X37028095Y-84299104D02*
X36980476Y-84203866D01*
X36980476Y-84203866D02*
X36932857Y-84156247D01*
X36932857Y-84156247D02*
X36837619Y-84108628D01*
X36837619Y-84108628D02*
X36647143Y-84061009D01*
X36647143Y-84061009D02*
X36551905Y-84013390D01*
X36551905Y-84013390D02*
X36504286Y-83965771D01*
X36504286Y-83965771D02*
X36456667Y-83870533D01*
X36456667Y-83870533D02*
X36456667Y-83775295D01*
X36456667Y-83775295D02*
X36504286Y-83680057D01*
X36504286Y-83680057D02*
X36551905Y-83632438D01*
X36551905Y-83632438D02*
X36647143Y-83584819D01*
X36647143Y-83584819D02*
X36885238Y-83584819D01*
X36885238Y-83584819D02*
X37028095Y-83632438D01*
X37361429Y-83584819D02*
X37599524Y-84584819D01*
X37599524Y-84584819D02*
X37790000Y-83870533D01*
X37790000Y-83870533D02*
X37980476Y-84584819D01*
X37980476Y-84584819D02*
X38218572Y-83584819D01*
X38504286Y-83584819D02*
X39170952Y-83584819D01*
X39170952Y-83584819D02*
X38742381Y-84584819D01*
X44047200Y-80233332D02*
X44094819Y-80090475D01*
X44094819Y-80090475D02*
X44094819Y-79852380D01*
X44094819Y-79852380D02*
X44047200Y-79757142D01*
X44047200Y-79757142D02*
X43999580Y-79709523D01*
X43999580Y-79709523D02*
X43904342Y-79661904D01*
X43904342Y-79661904D02*
X43809104Y-79661904D01*
X43809104Y-79661904D02*
X43713866Y-79709523D01*
X43713866Y-79709523D02*
X43666247Y-79757142D01*
X43666247Y-79757142D02*
X43618628Y-79852380D01*
X43618628Y-79852380D02*
X43571009Y-80042856D01*
X43571009Y-80042856D02*
X43523390Y-80138094D01*
X43523390Y-80138094D02*
X43475771Y-80185713D01*
X43475771Y-80185713D02*
X43380533Y-80233332D01*
X43380533Y-80233332D02*
X43285295Y-80233332D01*
X43285295Y-80233332D02*
X43190057Y-80185713D01*
X43190057Y-80185713D02*
X43142438Y-80138094D01*
X43142438Y-80138094D02*
X43094819Y-80042856D01*
X43094819Y-80042856D02*
X43094819Y-79804761D01*
X43094819Y-79804761D02*
X43142438Y-79661904D01*
X43094819Y-79328570D02*
X44094819Y-79090475D01*
X44094819Y-79090475D02*
X43380533Y-78899999D01*
X43380533Y-78899999D02*
X44094819Y-78709523D01*
X44094819Y-78709523D02*
X43094819Y-78471428D01*
X43094819Y-77661904D02*
X43094819Y-77852380D01*
X43094819Y-77852380D02*
X43142438Y-77947618D01*
X43142438Y-77947618D02*
X43190057Y-77995237D01*
X43190057Y-77995237D02*
X43332914Y-78090475D01*
X43332914Y-78090475D02*
X43523390Y-78138094D01*
X43523390Y-78138094D02*
X43904342Y-78138094D01*
X43904342Y-78138094D02*
X43999580Y-78090475D01*
X43999580Y-78090475D02*
X44047200Y-78042856D01*
X44047200Y-78042856D02*
X44094819Y-77947618D01*
X44094819Y-77947618D02*
X44094819Y-77757142D01*
X44094819Y-77757142D02*
X44047200Y-77661904D01*
X44047200Y-77661904D02*
X43999580Y-77614285D01*
X43999580Y-77614285D02*
X43904342Y-77566666D01*
X43904342Y-77566666D02*
X43666247Y-77566666D01*
X43666247Y-77566666D02*
X43571009Y-77614285D01*
X43571009Y-77614285D02*
X43523390Y-77661904D01*
X43523390Y-77661904D02*
X43475771Y-77757142D01*
X43475771Y-77757142D02*
X43475771Y-77947618D01*
X43475771Y-77947618D02*
X43523390Y-78042856D01*
X43523390Y-78042856D02*
X43571009Y-78090475D01*
X43571009Y-78090475D02*
X43666247Y-78138094D01*
X80106667Y-73607200D02*
X80249524Y-73654819D01*
X80249524Y-73654819D02*
X80487619Y-73654819D01*
X80487619Y-73654819D02*
X80582857Y-73607200D01*
X80582857Y-73607200D02*
X80630476Y-73559580D01*
X80630476Y-73559580D02*
X80678095Y-73464342D01*
X80678095Y-73464342D02*
X80678095Y-73369104D01*
X80678095Y-73369104D02*
X80630476Y-73273866D01*
X80630476Y-73273866D02*
X80582857Y-73226247D01*
X80582857Y-73226247D02*
X80487619Y-73178628D01*
X80487619Y-73178628D02*
X80297143Y-73131009D01*
X80297143Y-73131009D02*
X80201905Y-73083390D01*
X80201905Y-73083390D02*
X80154286Y-73035771D01*
X80154286Y-73035771D02*
X80106667Y-72940533D01*
X80106667Y-72940533D02*
X80106667Y-72845295D01*
X80106667Y-72845295D02*
X80154286Y-72750057D01*
X80154286Y-72750057D02*
X80201905Y-72702438D01*
X80201905Y-72702438D02*
X80297143Y-72654819D01*
X80297143Y-72654819D02*
X80535238Y-72654819D01*
X80535238Y-72654819D02*
X80678095Y-72702438D01*
X81011429Y-72654819D02*
X81249524Y-73654819D01*
X81249524Y-73654819D02*
X81440000Y-72940533D01*
X81440000Y-72940533D02*
X81630476Y-73654819D01*
X81630476Y-73654819D02*
X81868572Y-72654819D01*
X82725714Y-72654819D02*
X82249524Y-72654819D01*
X82249524Y-72654819D02*
X82201905Y-73131009D01*
X82201905Y-73131009D02*
X82249524Y-73083390D01*
X82249524Y-73083390D02*
X82344762Y-73035771D01*
X82344762Y-73035771D02*
X82582857Y-73035771D01*
X82582857Y-73035771D02*
X82678095Y-73083390D01*
X82678095Y-73083390D02*
X82725714Y-73131009D01*
X82725714Y-73131009D02*
X82773333Y-73226247D01*
X82773333Y-73226247D02*
X82773333Y-73464342D01*
X82773333Y-73464342D02*
X82725714Y-73559580D01*
X82725714Y-73559580D02*
X82678095Y-73607200D01*
X82678095Y-73607200D02*
X82582857Y-73654819D01*
X82582857Y-73654819D02*
X82344762Y-73654819D01*
X82344762Y-73654819D02*
X82249524Y-73607200D01*
X82249524Y-73607200D02*
X82201905Y-73559580D01*
X87267200Y-80343332D02*
X87314819Y-80200475D01*
X87314819Y-80200475D02*
X87314819Y-79962380D01*
X87314819Y-79962380D02*
X87267200Y-79867142D01*
X87267200Y-79867142D02*
X87219580Y-79819523D01*
X87219580Y-79819523D02*
X87124342Y-79771904D01*
X87124342Y-79771904D02*
X87029104Y-79771904D01*
X87029104Y-79771904D02*
X86933866Y-79819523D01*
X86933866Y-79819523D02*
X86886247Y-79867142D01*
X86886247Y-79867142D02*
X86838628Y-79962380D01*
X86838628Y-79962380D02*
X86791009Y-80152856D01*
X86791009Y-80152856D02*
X86743390Y-80248094D01*
X86743390Y-80248094D02*
X86695771Y-80295713D01*
X86695771Y-80295713D02*
X86600533Y-80343332D01*
X86600533Y-80343332D02*
X86505295Y-80343332D01*
X86505295Y-80343332D02*
X86410057Y-80295713D01*
X86410057Y-80295713D02*
X86362438Y-80248094D01*
X86362438Y-80248094D02*
X86314819Y-80152856D01*
X86314819Y-80152856D02*
X86314819Y-79914761D01*
X86314819Y-79914761D02*
X86362438Y-79771904D01*
X86314819Y-79438570D02*
X87314819Y-79200475D01*
X87314819Y-79200475D02*
X86600533Y-79009999D01*
X86600533Y-79009999D02*
X87314819Y-78819523D01*
X87314819Y-78819523D02*
X86314819Y-78581428D01*
X86648152Y-77771904D02*
X87314819Y-77771904D01*
X86267200Y-78009999D02*
X86981485Y-78248094D01*
X86981485Y-78248094D02*
X86981485Y-77629047D01*
X58356667Y-55847200D02*
X58499524Y-55894819D01*
X58499524Y-55894819D02*
X58737619Y-55894819D01*
X58737619Y-55894819D02*
X58832857Y-55847200D01*
X58832857Y-55847200D02*
X58880476Y-55799580D01*
X58880476Y-55799580D02*
X58928095Y-55704342D01*
X58928095Y-55704342D02*
X58928095Y-55609104D01*
X58928095Y-55609104D02*
X58880476Y-55513866D01*
X58880476Y-55513866D02*
X58832857Y-55466247D01*
X58832857Y-55466247D02*
X58737619Y-55418628D01*
X58737619Y-55418628D02*
X58547143Y-55371009D01*
X58547143Y-55371009D02*
X58451905Y-55323390D01*
X58451905Y-55323390D02*
X58404286Y-55275771D01*
X58404286Y-55275771D02*
X58356667Y-55180533D01*
X58356667Y-55180533D02*
X58356667Y-55085295D01*
X58356667Y-55085295D02*
X58404286Y-54990057D01*
X58404286Y-54990057D02*
X58451905Y-54942438D01*
X58451905Y-54942438D02*
X58547143Y-54894819D01*
X58547143Y-54894819D02*
X58785238Y-54894819D01*
X58785238Y-54894819D02*
X58928095Y-54942438D01*
X59261429Y-54894819D02*
X59499524Y-55894819D01*
X59499524Y-55894819D02*
X59690000Y-55180533D01*
X59690000Y-55180533D02*
X59880476Y-55894819D01*
X59880476Y-55894819D02*
X60118572Y-54894819D01*
X60404286Y-54894819D02*
X61023333Y-54894819D01*
X61023333Y-54894819D02*
X60690000Y-55275771D01*
X60690000Y-55275771D02*
X60832857Y-55275771D01*
X60832857Y-55275771D02*
X60928095Y-55323390D01*
X60928095Y-55323390D02*
X60975714Y-55371009D01*
X60975714Y-55371009D02*
X61023333Y-55466247D01*
X61023333Y-55466247D02*
X61023333Y-55704342D01*
X61023333Y-55704342D02*
X60975714Y-55799580D01*
X60975714Y-55799580D02*
X60928095Y-55847200D01*
X60928095Y-55847200D02*
X60832857Y-55894819D01*
X60832857Y-55894819D02*
X60547143Y-55894819D01*
X60547143Y-55894819D02*
X60451905Y-55847200D01*
X60451905Y-55847200D02*
X60404286Y-55799580D01*
X76187200Y-79803332D02*
X76234819Y-79660475D01*
X76234819Y-79660475D02*
X76234819Y-79422380D01*
X76234819Y-79422380D02*
X76187200Y-79327142D01*
X76187200Y-79327142D02*
X76139580Y-79279523D01*
X76139580Y-79279523D02*
X76044342Y-79231904D01*
X76044342Y-79231904D02*
X75949104Y-79231904D01*
X75949104Y-79231904D02*
X75853866Y-79279523D01*
X75853866Y-79279523D02*
X75806247Y-79327142D01*
X75806247Y-79327142D02*
X75758628Y-79422380D01*
X75758628Y-79422380D02*
X75711009Y-79612856D01*
X75711009Y-79612856D02*
X75663390Y-79708094D01*
X75663390Y-79708094D02*
X75615771Y-79755713D01*
X75615771Y-79755713D02*
X75520533Y-79803332D01*
X75520533Y-79803332D02*
X75425295Y-79803332D01*
X75425295Y-79803332D02*
X75330057Y-79755713D01*
X75330057Y-79755713D02*
X75282438Y-79708094D01*
X75282438Y-79708094D02*
X75234819Y-79612856D01*
X75234819Y-79612856D02*
X75234819Y-79374761D01*
X75234819Y-79374761D02*
X75282438Y-79231904D01*
X75234819Y-78898570D02*
X76234819Y-78660475D01*
X76234819Y-78660475D02*
X75520533Y-78469999D01*
X75520533Y-78469999D02*
X76234819Y-78279523D01*
X76234819Y-78279523D02*
X75234819Y-78041428D01*
X75330057Y-77708094D02*
X75282438Y-77660475D01*
X75282438Y-77660475D02*
X75234819Y-77565237D01*
X75234819Y-77565237D02*
X75234819Y-77327142D01*
X75234819Y-77327142D02*
X75282438Y-77231904D01*
X75282438Y-77231904D02*
X75330057Y-77184285D01*
X75330057Y-77184285D02*
X75425295Y-77136666D01*
X75425295Y-77136666D02*
X75520533Y-77136666D01*
X75520533Y-77136666D02*
X75663390Y-77184285D01*
X75663390Y-77184285D02*
X76234819Y-77755713D01*
X76234819Y-77755713D02*
X76234819Y-77136666D01*
X79876667Y-84647200D02*
X80019524Y-84694819D01*
X80019524Y-84694819D02*
X80257619Y-84694819D01*
X80257619Y-84694819D02*
X80352857Y-84647200D01*
X80352857Y-84647200D02*
X80400476Y-84599580D01*
X80400476Y-84599580D02*
X80448095Y-84504342D01*
X80448095Y-84504342D02*
X80448095Y-84409104D01*
X80448095Y-84409104D02*
X80400476Y-84313866D01*
X80400476Y-84313866D02*
X80352857Y-84266247D01*
X80352857Y-84266247D02*
X80257619Y-84218628D01*
X80257619Y-84218628D02*
X80067143Y-84171009D01*
X80067143Y-84171009D02*
X79971905Y-84123390D01*
X79971905Y-84123390D02*
X79924286Y-84075771D01*
X79924286Y-84075771D02*
X79876667Y-83980533D01*
X79876667Y-83980533D02*
X79876667Y-83885295D01*
X79876667Y-83885295D02*
X79924286Y-83790057D01*
X79924286Y-83790057D02*
X79971905Y-83742438D01*
X79971905Y-83742438D02*
X80067143Y-83694819D01*
X80067143Y-83694819D02*
X80305238Y-83694819D01*
X80305238Y-83694819D02*
X80448095Y-83742438D01*
X80781429Y-83694819D02*
X81019524Y-84694819D01*
X81019524Y-84694819D02*
X81210000Y-83980533D01*
X81210000Y-83980533D02*
X81400476Y-84694819D01*
X81400476Y-84694819D02*
X81638572Y-83694819D01*
X82543333Y-84694819D02*
X81971905Y-84694819D01*
X82257619Y-84694819D02*
X82257619Y-83694819D01*
X82257619Y-83694819D02*
X82162381Y-83837676D01*
X82162381Y-83837676D02*
X82067143Y-83932914D01*
X82067143Y-83932914D02*
X81971905Y-83980533D01*
X48714819Y-40108094D02*
X47714819Y-40108094D01*
X47714819Y-40108094D02*
X47714819Y-39869999D01*
X47714819Y-39869999D02*
X47762438Y-39727142D01*
X47762438Y-39727142D02*
X47857676Y-39631904D01*
X47857676Y-39631904D02*
X47952914Y-39584285D01*
X47952914Y-39584285D02*
X48143390Y-39536666D01*
X48143390Y-39536666D02*
X48286247Y-39536666D01*
X48286247Y-39536666D02*
X48476723Y-39584285D01*
X48476723Y-39584285D02*
X48571961Y-39631904D01*
X48571961Y-39631904D02*
X48667200Y-39727142D01*
X48667200Y-39727142D02*
X48714819Y-39869999D01*
X48714819Y-39869999D02*
X48714819Y-40108094D01*
X48714819Y-39060475D02*
X48714819Y-38869999D01*
X48714819Y-38869999D02*
X48667200Y-38774761D01*
X48667200Y-38774761D02*
X48619580Y-38727142D01*
X48619580Y-38727142D02*
X48476723Y-38631904D01*
X48476723Y-38631904D02*
X48286247Y-38584285D01*
X48286247Y-38584285D02*
X47905295Y-38584285D01*
X47905295Y-38584285D02*
X47810057Y-38631904D01*
X47810057Y-38631904D02*
X47762438Y-38679523D01*
X47762438Y-38679523D02*
X47714819Y-38774761D01*
X47714819Y-38774761D02*
X47714819Y-38965237D01*
X47714819Y-38965237D02*
X47762438Y-39060475D01*
X47762438Y-39060475D02*
X47810057Y-39108094D01*
X47810057Y-39108094D02*
X47905295Y-39155713D01*
X47905295Y-39155713D02*
X48143390Y-39155713D01*
X48143390Y-39155713D02*
X48238628Y-39108094D01*
X48238628Y-39108094D02*
X48286247Y-39060475D01*
X48286247Y-39060475D02*
X48333866Y-38965237D01*
X48333866Y-38965237D02*
X48333866Y-38774761D01*
X48333866Y-38774761D02*
X48286247Y-38679523D01*
X48286247Y-38679523D02*
X48238628Y-38631904D01*
X48238628Y-38631904D02*
X48143390Y-38584285D01*
X50614819Y-42171904D02*
X49614819Y-42171904D01*
X50614819Y-41600476D02*
X50043390Y-42029047D01*
X49614819Y-41600476D02*
X50186247Y-42171904D01*
X52524819Y-40108094D02*
X51524819Y-40108094D01*
X51524819Y-40108094D02*
X51524819Y-39869999D01*
X51524819Y-39869999D02*
X51572438Y-39727142D01*
X51572438Y-39727142D02*
X51667676Y-39631904D01*
X51667676Y-39631904D02*
X51762914Y-39584285D01*
X51762914Y-39584285D02*
X51953390Y-39536666D01*
X51953390Y-39536666D02*
X52096247Y-39536666D01*
X52096247Y-39536666D02*
X52286723Y-39584285D01*
X52286723Y-39584285D02*
X52381961Y-39631904D01*
X52381961Y-39631904D02*
X52477200Y-39727142D01*
X52477200Y-39727142D02*
X52524819Y-39869999D01*
X52524819Y-39869999D02*
X52524819Y-40108094D01*
X51953390Y-38965237D02*
X51905771Y-39060475D01*
X51905771Y-39060475D02*
X51858152Y-39108094D01*
X51858152Y-39108094D02*
X51762914Y-39155713D01*
X51762914Y-39155713D02*
X51715295Y-39155713D01*
X51715295Y-39155713D02*
X51620057Y-39108094D01*
X51620057Y-39108094D02*
X51572438Y-39060475D01*
X51572438Y-39060475D02*
X51524819Y-38965237D01*
X51524819Y-38965237D02*
X51524819Y-38774761D01*
X51524819Y-38774761D02*
X51572438Y-38679523D01*
X51572438Y-38679523D02*
X51620057Y-38631904D01*
X51620057Y-38631904D02*
X51715295Y-38584285D01*
X51715295Y-38584285D02*
X51762914Y-38584285D01*
X51762914Y-38584285D02*
X51858152Y-38631904D01*
X51858152Y-38631904D02*
X51905771Y-38679523D01*
X51905771Y-38679523D02*
X51953390Y-38774761D01*
X51953390Y-38774761D02*
X51953390Y-38965237D01*
X51953390Y-38965237D02*
X52001009Y-39060475D01*
X52001009Y-39060475D02*
X52048628Y-39108094D01*
X52048628Y-39108094D02*
X52143866Y-39155713D01*
X52143866Y-39155713D02*
X52334342Y-39155713D01*
X52334342Y-39155713D02*
X52429580Y-39108094D01*
X52429580Y-39108094D02*
X52477200Y-39060475D01*
X52477200Y-39060475D02*
X52524819Y-38965237D01*
X52524819Y-38965237D02*
X52524819Y-38774761D01*
X52524819Y-38774761D02*
X52477200Y-38679523D01*
X52477200Y-38679523D02*
X52429580Y-38631904D01*
X52429580Y-38631904D02*
X52334342Y-38584285D01*
X52334342Y-38584285D02*
X52143866Y-38584285D01*
X52143866Y-38584285D02*
X52048628Y-38631904D01*
X52048628Y-38631904D02*
X52001009Y-38679523D01*
X52001009Y-38679523D02*
X51953390Y-38774761D01*
X54424819Y-42171904D02*
X53424819Y-42171904D01*
X54424819Y-41600476D02*
X53853390Y-42029047D01*
X53424819Y-41600476D02*
X53996247Y-42171904D01*
X56334819Y-40108094D02*
X55334819Y-40108094D01*
X55334819Y-40108094D02*
X55334819Y-39869999D01*
X55334819Y-39869999D02*
X55382438Y-39727142D01*
X55382438Y-39727142D02*
X55477676Y-39631904D01*
X55477676Y-39631904D02*
X55572914Y-39584285D01*
X55572914Y-39584285D02*
X55763390Y-39536666D01*
X55763390Y-39536666D02*
X55906247Y-39536666D01*
X55906247Y-39536666D02*
X56096723Y-39584285D01*
X56096723Y-39584285D02*
X56191961Y-39631904D01*
X56191961Y-39631904D02*
X56287200Y-39727142D01*
X56287200Y-39727142D02*
X56334819Y-39869999D01*
X56334819Y-39869999D02*
X56334819Y-40108094D01*
X55334819Y-39203332D02*
X55334819Y-38536666D01*
X55334819Y-38536666D02*
X56334819Y-38965237D01*
X58234819Y-42171904D02*
X57234819Y-42171904D01*
X58234819Y-41600476D02*
X57663390Y-42029047D01*
X57234819Y-41600476D02*
X57806247Y-42171904D01*
X74114819Y-40108094D02*
X73114819Y-40108094D01*
X73114819Y-40108094D02*
X73114819Y-39869999D01*
X73114819Y-39869999D02*
X73162438Y-39727142D01*
X73162438Y-39727142D02*
X73257676Y-39631904D01*
X73257676Y-39631904D02*
X73352914Y-39584285D01*
X73352914Y-39584285D02*
X73543390Y-39536666D01*
X73543390Y-39536666D02*
X73686247Y-39536666D01*
X73686247Y-39536666D02*
X73876723Y-39584285D01*
X73876723Y-39584285D02*
X73971961Y-39631904D01*
X73971961Y-39631904D02*
X74067200Y-39727142D01*
X74067200Y-39727142D02*
X74114819Y-39869999D01*
X74114819Y-39869999D02*
X74114819Y-40108094D01*
X73114819Y-38679523D02*
X73114819Y-38869999D01*
X73114819Y-38869999D02*
X73162438Y-38965237D01*
X73162438Y-38965237D02*
X73210057Y-39012856D01*
X73210057Y-39012856D02*
X73352914Y-39108094D01*
X73352914Y-39108094D02*
X73543390Y-39155713D01*
X73543390Y-39155713D02*
X73924342Y-39155713D01*
X73924342Y-39155713D02*
X74019580Y-39108094D01*
X74019580Y-39108094D02*
X74067200Y-39060475D01*
X74067200Y-39060475D02*
X74114819Y-38965237D01*
X74114819Y-38965237D02*
X74114819Y-38774761D01*
X74114819Y-38774761D02*
X74067200Y-38679523D01*
X74067200Y-38679523D02*
X74019580Y-38631904D01*
X74019580Y-38631904D02*
X73924342Y-38584285D01*
X73924342Y-38584285D02*
X73686247Y-38584285D01*
X73686247Y-38584285D02*
X73591009Y-38631904D01*
X73591009Y-38631904D02*
X73543390Y-38679523D01*
X73543390Y-38679523D02*
X73495771Y-38774761D01*
X73495771Y-38774761D02*
X73495771Y-38965237D01*
X73495771Y-38965237D02*
X73543390Y-39060475D01*
X73543390Y-39060475D02*
X73591009Y-39108094D01*
X73591009Y-39108094D02*
X73686247Y-39155713D01*
X76014819Y-42171904D02*
X75014819Y-42171904D01*
X76014819Y-41600476D02*
X75443390Y-42029047D01*
X75014819Y-41600476D02*
X75586247Y-42171904D01*
X77924819Y-40108094D02*
X76924819Y-40108094D01*
X76924819Y-40108094D02*
X76924819Y-39869999D01*
X76924819Y-39869999D02*
X76972438Y-39727142D01*
X76972438Y-39727142D02*
X77067676Y-39631904D01*
X77067676Y-39631904D02*
X77162914Y-39584285D01*
X77162914Y-39584285D02*
X77353390Y-39536666D01*
X77353390Y-39536666D02*
X77496247Y-39536666D01*
X77496247Y-39536666D02*
X77686723Y-39584285D01*
X77686723Y-39584285D02*
X77781961Y-39631904D01*
X77781961Y-39631904D02*
X77877200Y-39727142D01*
X77877200Y-39727142D02*
X77924819Y-39869999D01*
X77924819Y-39869999D02*
X77924819Y-40108094D01*
X76924819Y-38631904D02*
X76924819Y-39108094D01*
X76924819Y-39108094D02*
X77401009Y-39155713D01*
X77401009Y-39155713D02*
X77353390Y-39108094D01*
X77353390Y-39108094D02*
X77305771Y-39012856D01*
X77305771Y-39012856D02*
X77305771Y-38774761D01*
X77305771Y-38774761D02*
X77353390Y-38679523D01*
X77353390Y-38679523D02*
X77401009Y-38631904D01*
X77401009Y-38631904D02*
X77496247Y-38584285D01*
X77496247Y-38584285D02*
X77734342Y-38584285D01*
X77734342Y-38584285D02*
X77829580Y-38631904D01*
X77829580Y-38631904D02*
X77877200Y-38679523D01*
X77877200Y-38679523D02*
X77924819Y-38774761D01*
X77924819Y-38774761D02*
X77924819Y-39012856D01*
X77924819Y-39012856D02*
X77877200Y-39108094D01*
X77877200Y-39108094D02*
X77829580Y-39155713D01*
X79824819Y-42171904D02*
X78824819Y-42171904D01*
X79824819Y-41600476D02*
X79253390Y-42029047D01*
X78824819Y-41600476D02*
X79396247Y-42171904D01*
X81734819Y-40108094D02*
X80734819Y-40108094D01*
X80734819Y-40108094D02*
X80734819Y-39869999D01*
X80734819Y-39869999D02*
X80782438Y-39727142D01*
X80782438Y-39727142D02*
X80877676Y-39631904D01*
X80877676Y-39631904D02*
X80972914Y-39584285D01*
X80972914Y-39584285D02*
X81163390Y-39536666D01*
X81163390Y-39536666D02*
X81306247Y-39536666D01*
X81306247Y-39536666D02*
X81496723Y-39584285D01*
X81496723Y-39584285D02*
X81591961Y-39631904D01*
X81591961Y-39631904D02*
X81687200Y-39727142D01*
X81687200Y-39727142D02*
X81734819Y-39869999D01*
X81734819Y-39869999D02*
X81734819Y-40108094D01*
X81068152Y-38679523D02*
X81734819Y-38679523D01*
X80687200Y-38917618D02*
X81401485Y-39155713D01*
X81401485Y-39155713D02*
X81401485Y-38536666D01*
X83634819Y-42171904D02*
X82634819Y-42171904D01*
X83634819Y-41600476D02*
X83063390Y-42029047D01*
X82634819Y-41600476D02*
X83206247Y-42171904D01*
X61414819Y-40108094D02*
X60414819Y-40108094D01*
X60414819Y-40108094D02*
X60414819Y-39869999D01*
X60414819Y-39869999D02*
X60462438Y-39727142D01*
X60462438Y-39727142D02*
X60557676Y-39631904D01*
X60557676Y-39631904D02*
X60652914Y-39584285D01*
X60652914Y-39584285D02*
X60843390Y-39536666D01*
X60843390Y-39536666D02*
X60986247Y-39536666D01*
X60986247Y-39536666D02*
X61176723Y-39584285D01*
X61176723Y-39584285D02*
X61271961Y-39631904D01*
X61271961Y-39631904D02*
X61367200Y-39727142D01*
X61367200Y-39727142D02*
X61414819Y-39869999D01*
X61414819Y-39869999D02*
X61414819Y-40108094D01*
X60414819Y-39203332D02*
X60414819Y-38584285D01*
X60414819Y-38584285D02*
X60795771Y-38917618D01*
X60795771Y-38917618D02*
X60795771Y-38774761D01*
X60795771Y-38774761D02*
X60843390Y-38679523D01*
X60843390Y-38679523D02*
X60891009Y-38631904D01*
X60891009Y-38631904D02*
X60986247Y-38584285D01*
X60986247Y-38584285D02*
X61224342Y-38584285D01*
X61224342Y-38584285D02*
X61319580Y-38631904D01*
X61319580Y-38631904D02*
X61367200Y-38679523D01*
X61367200Y-38679523D02*
X61414819Y-38774761D01*
X61414819Y-38774761D02*
X61414819Y-39060475D01*
X61414819Y-39060475D02*
X61367200Y-39155713D01*
X61367200Y-39155713D02*
X61319580Y-39203332D01*
X63314819Y-42171904D02*
X62314819Y-42171904D01*
X63314819Y-41600476D02*
X62743390Y-42029047D01*
X62314819Y-41600476D02*
X62886247Y-42171904D01*
X65224819Y-40108094D02*
X64224819Y-40108094D01*
X64224819Y-40108094D02*
X64224819Y-39869999D01*
X64224819Y-39869999D02*
X64272438Y-39727142D01*
X64272438Y-39727142D02*
X64367676Y-39631904D01*
X64367676Y-39631904D02*
X64462914Y-39584285D01*
X64462914Y-39584285D02*
X64653390Y-39536666D01*
X64653390Y-39536666D02*
X64796247Y-39536666D01*
X64796247Y-39536666D02*
X64986723Y-39584285D01*
X64986723Y-39584285D02*
X65081961Y-39631904D01*
X65081961Y-39631904D02*
X65177200Y-39727142D01*
X65177200Y-39727142D02*
X65224819Y-39869999D01*
X65224819Y-39869999D02*
X65224819Y-40108094D01*
X64320057Y-39155713D02*
X64272438Y-39108094D01*
X64272438Y-39108094D02*
X64224819Y-39012856D01*
X64224819Y-39012856D02*
X64224819Y-38774761D01*
X64224819Y-38774761D02*
X64272438Y-38679523D01*
X64272438Y-38679523D02*
X64320057Y-38631904D01*
X64320057Y-38631904D02*
X64415295Y-38584285D01*
X64415295Y-38584285D02*
X64510533Y-38584285D01*
X64510533Y-38584285D02*
X64653390Y-38631904D01*
X64653390Y-38631904D02*
X65224819Y-39203332D01*
X65224819Y-39203332D02*
X65224819Y-38584285D01*
X67124819Y-42171904D02*
X66124819Y-42171904D01*
X67124819Y-41600476D02*
X66553390Y-42029047D01*
X66124819Y-41600476D02*
X66696247Y-42171904D01*
X69034819Y-40108094D02*
X68034819Y-40108094D01*
X68034819Y-40108094D02*
X68034819Y-39869999D01*
X68034819Y-39869999D02*
X68082438Y-39727142D01*
X68082438Y-39727142D02*
X68177676Y-39631904D01*
X68177676Y-39631904D02*
X68272914Y-39584285D01*
X68272914Y-39584285D02*
X68463390Y-39536666D01*
X68463390Y-39536666D02*
X68606247Y-39536666D01*
X68606247Y-39536666D02*
X68796723Y-39584285D01*
X68796723Y-39584285D02*
X68891961Y-39631904D01*
X68891961Y-39631904D02*
X68987200Y-39727142D01*
X68987200Y-39727142D02*
X69034819Y-39869999D01*
X69034819Y-39869999D02*
X69034819Y-40108094D01*
X69034819Y-38584285D02*
X69034819Y-39155713D01*
X69034819Y-38869999D02*
X68034819Y-38869999D01*
X68034819Y-38869999D02*
X68177676Y-38965237D01*
X68177676Y-38965237D02*
X68272914Y-39060475D01*
X68272914Y-39060475D02*
X68320533Y-39155713D01*
X70934819Y-42171904D02*
X69934819Y-42171904D01*
X70934819Y-41600476D02*
X70363390Y-42029047D01*
X69934819Y-41600476D02*
X70506247Y-42171904D01*
D13*
%TO.C,R2*%
X90212936Y-41175000D02*
X90667064Y-41175000D01*
X90212936Y-42645000D02*
X90667064Y-42645000D01*
%TO.C,R1*%
X90667064Y-40105000D02*
X90212936Y-40105000D01*
X90667064Y-38635000D02*
X90212936Y-38635000D01*
%TO.C,U1*%
X34290000Y-19050000D02*
X85090000Y-19050000D01*
X85090000Y-19050000D02*
X85090000Y-34290000D01*
X85090000Y-34290000D02*
X34290000Y-34290000D01*
X34290000Y-34290000D02*
X34290000Y-19050000D01*
X34290000Y-36830000D02*
X85090000Y-36830000D01*
X85090000Y-36830000D02*
X85090000Y-16510000D01*
X85090000Y-16510000D02*
X34290000Y-16510000D01*
X34290000Y-16510000D02*
X34290000Y-36830000D01*
%TO.C,SW9*%
X31550000Y-84680000D02*
X28830000Y-84680000D01*
X28830000Y-72380000D02*
X31550000Y-72380000D01*
X23830000Y-72380000D02*
X26970000Y-72380000D01*
X31550000Y-72380000D02*
X31550000Y-84680000D01*
X21970000Y-84680000D02*
X19250000Y-84680000D01*
X26970000Y-84680000D02*
X23830000Y-84680000D01*
X19250000Y-84680000D02*
X19250000Y-72380000D01*
X19250000Y-72380000D02*
X21970000Y-72380000D01*
X29939050Y-78630000D02*
G75*
G03*
X29939050Y-78630000I-4579050J0D01*
G01*
%TO.C,SW8*%
X32010000Y-72120000D02*
X32010000Y-69400000D01*
X44310000Y-69400000D02*
X44310000Y-72120000D01*
X44310000Y-64400000D02*
X44310000Y-67540000D01*
X44310000Y-72120000D02*
X32010000Y-72120000D01*
X32010000Y-62540000D02*
X32010000Y-59820000D01*
X32010000Y-67540000D02*
X32010000Y-64400000D01*
X32010000Y-59820000D02*
X44310000Y-59820000D01*
X44310000Y-59820000D02*
X44310000Y-62540000D01*
X42639050Y-65930000D02*
G75*
G03*
X42639050Y-65930000I-4579050J0D01*
G01*
%TO.C,SW7*%
X44110000Y-85140000D02*
X44110000Y-87860000D01*
X31810000Y-87860000D02*
X31810000Y-85140000D01*
X31810000Y-92860000D02*
X31810000Y-89720000D01*
X31810000Y-85140000D02*
X44110000Y-85140000D01*
X44110000Y-94720000D02*
X44110000Y-97440000D01*
X44110000Y-89720000D02*
X44110000Y-92860000D01*
X44110000Y-97440000D02*
X31810000Y-97440000D01*
X31810000Y-97440000D02*
X31810000Y-94720000D01*
X42639050Y-91330000D02*
G75*
G03*
X42639050Y-91330000I-4579050J0D01*
G01*
%TO.C,SW6*%
X44650000Y-72580000D02*
X47370000Y-72580000D01*
X47370000Y-84880000D02*
X44650000Y-84880000D01*
X52370000Y-84880000D02*
X49230000Y-84880000D01*
X44650000Y-84880000D02*
X44650000Y-72580000D01*
X54230000Y-72580000D02*
X56950000Y-72580000D01*
X49230000Y-72580000D02*
X52370000Y-72580000D01*
X56950000Y-72580000D02*
X56950000Y-84880000D01*
X56950000Y-84880000D02*
X54230000Y-84880000D01*
X55419050Y-78630000D02*
G75*
G03*
X55419050Y-78630000I-4579050J0D01*
G01*
%TO.C,SW5*%
X75120000Y-72190000D02*
X75120000Y-69470000D01*
X87420000Y-69470000D02*
X87420000Y-72190000D01*
X87420000Y-64470000D02*
X87420000Y-67610000D01*
X87420000Y-72190000D02*
X75120000Y-72190000D01*
X75120000Y-62610000D02*
X75120000Y-59890000D01*
X75120000Y-67610000D02*
X75120000Y-64470000D01*
X75120000Y-59890000D02*
X87420000Y-59890000D01*
X87420000Y-59890000D02*
X87420000Y-62610000D01*
X85749050Y-66000000D02*
G75*
G03*
X85749050Y-66000000I-4579050J0D01*
G01*
%TO.C,SW4*%
X87870000Y-72690000D02*
X90590000Y-72690000D01*
X90590000Y-84990000D02*
X87870000Y-84990000D01*
X95590000Y-84990000D02*
X92450000Y-84990000D01*
X87870000Y-84990000D02*
X87870000Y-72690000D01*
X97450000Y-72690000D02*
X100170000Y-72690000D01*
X92450000Y-72690000D02*
X95590000Y-72690000D01*
X100170000Y-72690000D02*
X100170000Y-84990000D01*
X100170000Y-84990000D02*
X97450000Y-84990000D01*
X98639050Y-78740000D02*
G75*
G03*
X98639050Y-78740000I-4579050J0D01*
G01*
%TO.C,SW3*%
X63190000Y-60440000D02*
X63190000Y-58940000D01*
X61940000Y-56440000D02*
X57440000Y-56440000D01*
X56190000Y-58940000D02*
X56190000Y-60440000D01*
X57440000Y-62940000D02*
X61940000Y-62940000D01*
%TO.C,SW2*%
X74770000Y-84790000D02*
X72050000Y-84790000D01*
X72050000Y-72490000D02*
X74770000Y-72490000D01*
X67050000Y-72490000D02*
X70190000Y-72490000D01*
X74770000Y-72490000D02*
X74770000Y-84790000D01*
X65190000Y-84790000D02*
X62470000Y-84790000D01*
X70190000Y-84790000D02*
X67050000Y-84790000D01*
X62470000Y-84790000D02*
X62470000Y-72490000D01*
X62470000Y-72490000D02*
X65190000Y-72490000D01*
X73159050Y-78740000D02*
G75*
G03*
X73159050Y-78740000I-4579050J0D01*
G01*
%TO.C,SW1*%
X87530000Y-85250000D02*
X87530000Y-87970000D01*
X75230000Y-87970000D02*
X75230000Y-85250000D01*
X75230000Y-92970000D02*
X75230000Y-89830000D01*
X75230000Y-85250000D02*
X87530000Y-85250000D01*
X87530000Y-94830000D02*
X87530000Y-97550000D01*
X87530000Y-89830000D02*
X87530000Y-92970000D01*
X87530000Y-97550000D02*
X75230000Y-97550000D01*
X75230000Y-97550000D02*
X75230000Y-94830000D01*
X86059050Y-91440000D02*
G75*
G03*
X86059050Y-91440000I-4579050J0D01*
G01*
%TO.C,D9*%
X49730000Y-49710000D02*
X49730000Y-44270000D01*
X49730000Y-45050000D02*
X46790000Y-45050000D01*
X46790000Y-44270000D02*
X46790000Y-49710000D01*
X48260000Y-50930000D02*
X48260000Y-49710000D01*
X46790000Y-49710000D02*
X49730000Y-49710000D01*
X49730000Y-44270000D02*
X46790000Y-44270000D01*
X48260000Y-43050000D02*
X48260000Y-44270000D01*
X49730000Y-45290000D02*
X46790000Y-45290000D01*
X49730000Y-45170000D02*
X46790000Y-45170000D01*
%TO.C,D8*%
X53540000Y-45170000D02*
X50600000Y-45170000D01*
X53540000Y-45290000D02*
X50600000Y-45290000D01*
X52070000Y-43050000D02*
X52070000Y-44270000D01*
X53540000Y-44270000D02*
X50600000Y-44270000D01*
X50600000Y-49710000D02*
X53540000Y-49710000D01*
X52070000Y-50930000D02*
X52070000Y-49710000D01*
X50600000Y-44270000D02*
X50600000Y-49710000D01*
X53540000Y-45050000D02*
X50600000Y-45050000D01*
X53540000Y-49710000D02*
X53540000Y-44270000D01*
%TO.C,D7*%
X57350000Y-49710000D02*
X57350000Y-44270000D01*
X57350000Y-45050000D02*
X54410000Y-45050000D01*
X54410000Y-44270000D02*
X54410000Y-49710000D01*
X55880000Y-50930000D02*
X55880000Y-49710000D01*
X54410000Y-49710000D02*
X57350000Y-49710000D01*
X57350000Y-44270000D02*
X54410000Y-44270000D01*
X55880000Y-43050000D02*
X55880000Y-44270000D01*
X57350000Y-45290000D02*
X54410000Y-45290000D01*
X57350000Y-45170000D02*
X54410000Y-45170000D01*
%TO.C,D6*%
X75130000Y-49710000D02*
X75130000Y-44270000D01*
X75130000Y-45050000D02*
X72190000Y-45050000D01*
X72190000Y-44270000D02*
X72190000Y-49710000D01*
X73660000Y-50930000D02*
X73660000Y-49710000D01*
X72190000Y-49710000D02*
X75130000Y-49710000D01*
X75130000Y-44270000D02*
X72190000Y-44270000D01*
X73660000Y-43050000D02*
X73660000Y-44270000D01*
X75130000Y-45290000D02*
X72190000Y-45290000D01*
X75130000Y-45170000D02*
X72190000Y-45170000D01*
%TO.C,D5*%
X78940000Y-49710000D02*
X78940000Y-44270000D01*
X78940000Y-45050000D02*
X76000000Y-45050000D01*
X76000000Y-44270000D02*
X76000000Y-49710000D01*
X77470000Y-50930000D02*
X77470000Y-49710000D01*
X76000000Y-49710000D02*
X78940000Y-49710000D01*
X78940000Y-44270000D02*
X76000000Y-44270000D01*
X77470000Y-43050000D02*
X77470000Y-44270000D01*
X78940000Y-45290000D02*
X76000000Y-45290000D01*
X78940000Y-45170000D02*
X76000000Y-45170000D01*
%TO.C,D4*%
X82750000Y-49710000D02*
X82750000Y-44270000D01*
X82750000Y-45050000D02*
X79810000Y-45050000D01*
X79810000Y-44270000D02*
X79810000Y-49710000D01*
X81280000Y-50930000D02*
X81280000Y-49710000D01*
X79810000Y-49710000D02*
X82750000Y-49710000D01*
X82750000Y-44270000D02*
X79810000Y-44270000D01*
X81280000Y-43050000D02*
X81280000Y-44270000D01*
X82750000Y-45290000D02*
X79810000Y-45290000D01*
X82750000Y-45170000D02*
X79810000Y-45170000D01*
%TO.C,D3*%
X62430000Y-49710000D02*
X62430000Y-44270000D01*
X62430000Y-45050000D02*
X59490000Y-45050000D01*
X59490000Y-44270000D02*
X59490000Y-49710000D01*
X60960000Y-50930000D02*
X60960000Y-49710000D01*
X59490000Y-49710000D02*
X62430000Y-49710000D01*
X62430000Y-44270000D02*
X59490000Y-44270000D01*
X60960000Y-43050000D02*
X60960000Y-44270000D01*
X62430000Y-45290000D02*
X59490000Y-45290000D01*
X62430000Y-45170000D02*
X59490000Y-45170000D01*
%TO.C,D2*%
X66240000Y-49710000D02*
X66240000Y-44270000D01*
X66240000Y-45050000D02*
X63300000Y-45050000D01*
X63300000Y-44270000D02*
X63300000Y-49710000D01*
X64770000Y-50930000D02*
X64770000Y-49710000D01*
X63300000Y-49710000D02*
X66240000Y-49710000D01*
X66240000Y-44270000D02*
X63300000Y-44270000D01*
X64770000Y-43050000D02*
X64770000Y-44270000D01*
X66240000Y-45290000D02*
X63300000Y-45290000D01*
X66240000Y-45170000D02*
X63300000Y-45170000D01*
%TO.C,D1*%
X70050000Y-49710000D02*
X70050000Y-44270000D01*
X70050000Y-45050000D02*
X67110000Y-45050000D01*
X67110000Y-44270000D02*
X67110000Y-49710000D01*
X68580000Y-50930000D02*
X68580000Y-49710000D01*
X67110000Y-49710000D02*
X70050000Y-49710000D01*
X70050000Y-44270000D02*
X67110000Y-44270000D01*
X68580000Y-43050000D02*
X68580000Y-44270000D01*
X70050000Y-45290000D02*
X67110000Y-45290000D01*
X70050000Y-45170000D02*
X67110000Y-45170000D01*
%TD*%
M02*
