%TF.GenerationSoftware,KiCad,Pcbnew,7.0.8*%
%TF.CreationDate,2023-10-15T22:57:13-07:00*%
%TF.ProjectId,HandheldInterface,48616e64-6865-46c6-9449-6e7465726661,rev?*%
%TF.SameCoordinates,Original*%
%TF.FileFunction,Soldermask,Top*%
%TF.FilePolarity,Negative*%
%FSLAX46Y46*%
G04 Gerber Fmt 4.6, Leading zero omitted, Abs format (unit mm)*
G04 Created by KiCad (PCBNEW 7.0.8) date 2023-10-15 22:57:13*
%MOMM*%
%LPD*%
G01*
G04 APERTURE LIST*
G04 Aperture macros list*
%AMRoundRect*
0 Rectangle with rounded corners*
0 $1 Rounding radius*
0 $2 $3 $4 $5 $6 $7 $8 $9 X,Y pos of 4 corners*
0 Add a 4 corners polygon primitive as box body*
4,1,4,$2,$3,$4,$5,$6,$7,$8,$9,$2,$3,0*
0 Add four circle primitives for the rounded corners*
1,1,$1+$1,$2,$3*
1,1,$1+$1,$4,$5*
1,1,$1+$1,$6,$7*
1,1,$1+$1,$8,$9*
0 Add four rect primitives between the rounded corners*
20,1,$1+$1,$2,$3,$4,$5,0*
20,1,$1+$1,$4,$5,$6,$7,0*
20,1,$1+$1,$6,$7,$8,$9,0*
20,1,$1+$1,$8,$9,$2,$3,0*%
G04 Aperture macros list end*
%ADD10C,5.600000*%
%ADD11RoundRect,0.250000X-0.350000X-0.450000X0.350000X-0.450000X0.350000X0.450000X-0.350000X0.450000X0*%
%ADD12RoundRect,0.250000X0.350000X0.450000X-0.350000X0.450000X-0.350000X-0.450000X0.350000X-0.450000X0*%
%ADD13R,1.700000X1.700000*%
%ADD14O,1.700000X1.700000*%
%ADD15C,1.524000*%
%ADD16R,1.524000X1.524000*%
%ADD17O,1.850000X3.048000*%
%ADD18O,3.048000X1.850000*%
%ADD19C,2.000000*%
%ADD20R,1.800000X1.800000*%
%ADD21O,1.800000X1.800000*%
G04 APERTURE END LIST*
%TO.C,G\u002A\u002A\u002A*%
G36*
X19972829Y-46410569D02*
G01*
X19627989Y-46410569D01*
X19627989Y-46065728D01*
X19972829Y-46065728D01*
X19972829Y-46410569D01*
G37*
G36*
X19972829Y-47445092D02*
G01*
X19627989Y-47445092D01*
X19627989Y-47100251D01*
X19972829Y-47100251D01*
X19972829Y-47445092D01*
G37*
G36*
X19972829Y-48134774D02*
G01*
X19627989Y-48134774D01*
X19627989Y-47789933D01*
X19972829Y-47789933D01*
X19972829Y-48134774D01*
G37*
G36*
X20317670Y-47789933D02*
G01*
X19972829Y-47789933D01*
X19972829Y-47445092D01*
X20317670Y-47445092D01*
X20317670Y-47789933D01*
G37*
G36*
X21352193Y-42617318D02*
G01*
X20317670Y-42617318D01*
X20317670Y-41582795D01*
X21352193Y-41582795D01*
X21352193Y-42617318D01*
G37*
G36*
X21352193Y-50203819D02*
G01*
X20317670Y-50203819D01*
X20317670Y-49169297D01*
X21352193Y-49169297D01*
X21352193Y-50203819D01*
G37*
G36*
X22041875Y-46755410D02*
G01*
X21007352Y-46755410D01*
X21007352Y-46410569D01*
X22041875Y-46410569D01*
X22041875Y-46755410D01*
G37*
G36*
X22041875Y-48134774D02*
G01*
X21697034Y-48134774D01*
X21697034Y-47789933D01*
X22041875Y-47789933D01*
X22041875Y-48134774D01*
G37*
G36*
X22731557Y-45720887D02*
G01*
X22386716Y-45720887D01*
X22386716Y-45376046D01*
X22731557Y-45376046D01*
X22731557Y-45720887D01*
G37*
G36*
X23076398Y-41237954D02*
G01*
X22731557Y-41237954D01*
X22731557Y-40893114D01*
X23076398Y-40893114D01*
X23076398Y-41237954D01*
G37*
G36*
X23421239Y-50893501D02*
G01*
X23076398Y-50893501D01*
X23076398Y-50548660D01*
X23421239Y-50548660D01*
X23421239Y-50893501D01*
G37*
G36*
X23766080Y-45031205D02*
G01*
X23421239Y-45031205D01*
X23421239Y-44686364D01*
X23766080Y-44686364D01*
X23766080Y-45031205D01*
G37*
G36*
X23766080Y-47100251D02*
G01*
X23421239Y-47100251D01*
X23421239Y-46410569D01*
X23766080Y-46410569D01*
X23766080Y-47100251D01*
G37*
G36*
X23766080Y-47789933D02*
G01*
X23421239Y-47789933D01*
X23421239Y-47445092D01*
X23766080Y-47445092D01*
X23766080Y-47789933D01*
G37*
G36*
X23766080Y-50548660D02*
G01*
X23421239Y-50548660D01*
X23421239Y-50203819D01*
X23766080Y-50203819D01*
X23766080Y-50548660D01*
G37*
G36*
X24110921Y-50893501D02*
G01*
X23766080Y-50893501D01*
X23766080Y-50548660D01*
X24110921Y-50548660D01*
X24110921Y-50893501D01*
G37*
G36*
X24455762Y-50203819D02*
G01*
X24110921Y-50203819D01*
X24110921Y-49858979D01*
X24455762Y-49858979D01*
X24455762Y-50203819D01*
G37*
G36*
X25145444Y-50893501D02*
G01*
X24800603Y-50893501D01*
X24800603Y-50203819D01*
X25145444Y-50203819D01*
X25145444Y-50893501D01*
G37*
G36*
X25490285Y-47445092D02*
G01*
X25145444Y-47445092D01*
X25145444Y-47100251D01*
X25490285Y-47100251D01*
X25490285Y-47445092D01*
G37*
G36*
X26869649Y-41927636D02*
G01*
X26524808Y-41927636D01*
X26524808Y-41582795D01*
X26869649Y-41582795D01*
X26869649Y-41927636D01*
G37*
G36*
X27559331Y-48824456D02*
G01*
X27214490Y-48824456D01*
X27214490Y-48479615D01*
X27559331Y-48479615D01*
X27559331Y-48824456D01*
G37*
G36*
X28938694Y-42617318D02*
G01*
X27904172Y-42617318D01*
X27904172Y-41582795D01*
X28938694Y-41582795D01*
X28938694Y-42617318D01*
G37*
G36*
X28938694Y-43996682D02*
G01*
X28593854Y-43996682D01*
X28593854Y-43651841D01*
X28938694Y-43651841D01*
X28938694Y-43996682D01*
G37*
G36*
X22386716Y-46410569D02*
G01*
X22041875Y-46410569D01*
X22041875Y-46065728D01*
X21007352Y-46065728D01*
X21007352Y-45720887D01*
X22386716Y-45720887D01*
X22386716Y-46410569D01*
G37*
G36*
X29283535Y-50548660D02*
G01*
X29628376Y-50548660D01*
X29628376Y-50893501D01*
X28938694Y-50893501D01*
X28938694Y-50203819D01*
X29283535Y-50203819D01*
X29283535Y-50548660D01*
G37*
G36*
X29628376Y-49169297D02*
G01*
X28938694Y-49169297D01*
X28938694Y-48479615D01*
X28593854Y-48479615D01*
X28593854Y-48134774D01*
X29628376Y-48134774D01*
X29628376Y-49169297D01*
G37*
G36*
X29628376Y-50203819D02*
G01*
X29283535Y-50203819D01*
X29283535Y-49858979D01*
X28593854Y-49858979D01*
X28593854Y-49514138D01*
X29628376Y-49514138D01*
X29628376Y-50203819D01*
G37*
G36*
X21007352Y-47100251D02*
G01*
X22041875Y-47100251D01*
X22041875Y-47445092D01*
X21007352Y-47445092D01*
X21007352Y-47789933D01*
X20662511Y-47789933D01*
X20662511Y-47100251D01*
X20317670Y-47100251D01*
X20317670Y-46755410D01*
X21007352Y-46755410D01*
X21007352Y-47100251D01*
G37*
G36*
X22041875Y-43307000D02*
G01*
X19627989Y-43307000D01*
X19627989Y-42962159D01*
X19972829Y-42962159D01*
X21697034Y-42962159D01*
X21697034Y-41237954D01*
X19972829Y-41237954D01*
X19972829Y-42962159D01*
X19627989Y-42962159D01*
X19627989Y-40893114D01*
X22041875Y-40893114D01*
X22041875Y-43307000D01*
G37*
G36*
X22041875Y-50893501D02*
G01*
X19627989Y-50893501D01*
X19627989Y-50548660D01*
X19972829Y-50548660D01*
X21697034Y-50548660D01*
X21697034Y-48824456D01*
X19972829Y-48824456D01*
X19972829Y-50548660D01*
X19627989Y-50548660D01*
X19627989Y-48479615D01*
X22041875Y-48479615D01*
X22041875Y-50893501D01*
G37*
G36*
X29628376Y-43307000D02*
G01*
X27214490Y-43307000D01*
X27214490Y-42962159D01*
X27559331Y-42962159D01*
X29283535Y-42962159D01*
X29283535Y-41237954D01*
X27559331Y-41237954D01*
X27559331Y-42962159D01*
X27214490Y-42962159D01*
X27214490Y-40893114D01*
X29628376Y-40893114D01*
X29628376Y-43307000D01*
G37*
G36*
X25835126Y-42617318D02*
G01*
X25835126Y-42272477D01*
X25490285Y-42272477D01*
X25490285Y-41927636D01*
X26179967Y-41927636D01*
X26179967Y-42272477D01*
X26524808Y-42272477D01*
X26524808Y-42962159D01*
X26179967Y-42962159D01*
X26179967Y-43307000D01*
X25835126Y-43307000D01*
X25835126Y-44341523D01*
X25490285Y-44341523D01*
X25490285Y-44686364D01*
X25145444Y-44686364D01*
X25145444Y-45031205D01*
X24455762Y-45031205D01*
X24455762Y-45376046D01*
X24110921Y-45376046D01*
X24110921Y-45720887D01*
X24455762Y-45720887D01*
X24455762Y-46065728D01*
X24800603Y-46065728D01*
X24800603Y-46410569D01*
X25145444Y-46410569D01*
X25145444Y-46065728D01*
X25490285Y-46065728D01*
X25490285Y-45720887D01*
X24800603Y-45720887D01*
X24800603Y-45376046D01*
X25490285Y-45376046D01*
X25490285Y-44686364D01*
X26179967Y-44686364D01*
X26179967Y-45031205D01*
X25835126Y-45031205D01*
X25835126Y-45376046D01*
X26524808Y-45376046D01*
X26524808Y-45031205D01*
X27559331Y-45031205D01*
X27559331Y-44686364D01*
X26524808Y-44686364D01*
X26524808Y-44341523D01*
X26869649Y-44341523D01*
X27214490Y-44341523D01*
X27214490Y-43996682D01*
X26869649Y-43996682D01*
X26869649Y-44341523D01*
X26524808Y-44341523D01*
X26524808Y-43996682D01*
X26869649Y-43996682D01*
X26869649Y-43651841D01*
X27559331Y-43651841D01*
X27559331Y-44686364D01*
X27904172Y-44686364D01*
X27904172Y-44341523D01*
X28249013Y-44341523D01*
X28249013Y-43996682D01*
X28593854Y-43996682D01*
X28593854Y-44341523D01*
X29283535Y-44341523D01*
X29283535Y-43996682D01*
X29628376Y-43996682D01*
X29628376Y-44686364D01*
X29283535Y-44686364D01*
X29283535Y-45031205D01*
X29628376Y-45031205D01*
X29628376Y-46065728D01*
X29283535Y-46065728D01*
X29283535Y-46410569D01*
X29628376Y-46410569D01*
X29628376Y-47445092D01*
X29283535Y-47445092D01*
X29283535Y-47789933D01*
X28938694Y-47789933D01*
X28938694Y-47100251D01*
X29283535Y-47100251D01*
X29283535Y-46755410D01*
X28938694Y-46755410D01*
X28938694Y-47100251D01*
X28249013Y-47100251D01*
X28249013Y-47445092D01*
X28593854Y-47445092D01*
X28593854Y-47789933D01*
X28249013Y-47789933D01*
X28249013Y-48479615D01*
X28593854Y-48479615D01*
X28593854Y-49169297D01*
X28249013Y-49169297D01*
X28249013Y-49858979D01*
X28593854Y-49858979D01*
X28593854Y-50203819D01*
X28249013Y-50203819D01*
X28249013Y-50893501D01*
X27559331Y-50893501D01*
X27559331Y-50548660D01*
X27904172Y-50548660D01*
X27904172Y-50203819D01*
X27559331Y-50203819D01*
X27559331Y-49514138D01*
X26869649Y-49514138D01*
X26869649Y-49858979D01*
X26524808Y-49858979D01*
X26524808Y-50203819D01*
X27214490Y-50203819D01*
X27214490Y-50893501D01*
X26179967Y-50893501D01*
X26179967Y-50548660D01*
X25835126Y-50548660D01*
X25835126Y-50893501D01*
X25490285Y-50893501D01*
X25490285Y-49858979D01*
X25835126Y-49858979D01*
X25835126Y-50203819D01*
X26179967Y-50203819D01*
X26179967Y-49858979D01*
X26524808Y-49858979D01*
X26524808Y-49169297D01*
X26869649Y-49169297D01*
X27904172Y-49169297D01*
X27904172Y-48134774D01*
X26869649Y-48134774D01*
X26869649Y-49169297D01*
X26524808Y-49169297D01*
X26524808Y-48824456D01*
X25835126Y-48824456D01*
X25835126Y-49514138D01*
X25490285Y-49514138D01*
X25490285Y-49858979D01*
X25145444Y-49858979D01*
X25145444Y-49169297D01*
X24800603Y-49169297D01*
X24800603Y-49514138D01*
X24455762Y-49514138D01*
X24455762Y-49169297D01*
X23766080Y-49169297D01*
X23766080Y-49858979D01*
X23421239Y-49858979D01*
X23421239Y-50203819D01*
X23076398Y-50203819D01*
X23076398Y-50548660D01*
X22731557Y-50548660D01*
X22731557Y-50893501D01*
X22386716Y-50893501D01*
X22386716Y-50203819D01*
X22731557Y-50203819D01*
X23076398Y-50203819D01*
X23076398Y-49858979D01*
X23421239Y-49858979D01*
X23421239Y-49514138D01*
X23076398Y-49514138D01*
X23076398Y-49858979D01*
X22731557Y-49858979D01*
X22731557Y-50203819D01*
X22386716Y-50203819D01*
X22386716Y-49858979D01*
X22731557Y-49858979D01*
X22731557Y-49514138D01*
X22386716Y-49514138D01*
X22386716Y-49169297D01*
X22731557Y-49169297D01*
X23766080Y-49169297D01*
X23766080Y-48824456D01*
X23421239Y-48824456D01*
X23421239Y-48479615D01*
X22731557Y-48479615D01*
X22731557Y-49169297D01*
X22386716Y-49169297D01*
X22386716Y-48134774D01*
X23076398Y-48134774D01*
X23076398Y-47789933D01*
X23421239Y-47789933D01*
X23421239Y-48134774D01*
X23766080Y-48134774D01*
X23766080Y-47789933D01*
X24110921Y-47789933D01*
X24110921Y-47445092D01*
X24455762Y-47445092D01*
X24455762Y-48479615D01*
X24110921Y-48479615D01*
X24110921Y-48824456D01*
X25490285Y-48824456D01*
X25490285Y-48479615D01*
X25145444Y-48479615D01*
X25145444Y-48134774D01*
X25490285Y-48134774D01*
X25490285Y-47445092D01*
X25835126Y-47445092D01*
X25835126Y-48134774D01*
X26179967Y-48134774D01*
X26179967Y-47445092D01*
X26869649Y-47445092D01*
X27214490Y-47445092D01*
X27559331Y-47445092D01*
X27559331Y-47100251D01*
X28249013Y-47100251D01*
X28249013Y-46065728D01*
X27904172Y-46065728D01*
X27904172Y-45720887D01*
X28249013Y-45720887D01*
X28249013Y-45031205D01*
X28593854Y-45031205D01*
X28593854Y-46755410D01*
X28938694Y-46755410D01*
X28938694Y-45720887D01*
X29283535Y-45720887D01*
X29283535Y-45376046D01*
X28938694Y-45376046D01*
X28938694Y-44686364D01*
X28593854Y-44686364D01*
X28593854Y-44341523D01*
X28249013Y-44341523D01*
X28249013Y-45031205D01*
X27559331Y-45031205D01*
X27559331Y-46410569D01*
X27904172Y-46410569D01*
X27904172Y-46755410D01*
X27559331Y-46755410D01*
X27559331Y-47100251D01*
X27214490Y-47100251D01*
X27214490Y-47445092D01*
X26869649Y-47445092D01*
X26869649Y-46755410D01*
X27214490Y-46755410D01*
X27214490Y-46410569D01*
X26869649Y-46410569D01*
X26869649Y-46755410D01*
X26179967Y-46755410D01*
X26179967Y-47100251D01*
X25490285Y-47100251D01*
X25490285Y-46755410D01*
X25835126Y-46755410D01*
X26179967Y-46755410D01*
X26179967Y-46410569D01*
X26524808Y-46410569D01*
X26524808Y-46065728D01*
X27214490Y-46065728D01*
X27214490Y-45720887D01*
X26179967Y-45720887D01*
X26179967Y-46410569D01*
X25835126Y-46410569D01*
X25835126Y-46755410D01*
X25490285Y-46755410D01*
X24800603Y-46755410D01*
X24800603Y-46410569D01*
X24455762Y-46410569D01*
X24455762Y-46755410D01*
X24110921Y-46755410D01*
X24110921Y-46410569D01*
X23766080Y-46410569D01*
X23766080Y-46065728D01*
X23421239Y-46065728D01*
X23421239Y-46410569D01*
X23076398Y-46410569D01*
X23076398Y-47789933D01*
X22731557Y-47789933D01*
X22731557Y-47445092D01*
X22386716Y-47445092D01*
X22386716Y-47100251D01*
X22731557Y-47100251D01*
X22731557Y-46410569D01*
X23076398Y-46410569D01*
X23076398Y-46065728D01*
X23421239Y-46065728D01*
X23421239Y-45720887D01*
X23421239Y-45376046D01*
X23766080Y-45376046D01*
X23766080Y-45031205D01*
X24110921Y-45031205D01*
X24110921Y-44686364D01*
X24800603Y-44686364D01*
X25145444Y-44686364D01*
X25145444Y-44341523D01*
X24800603Y-44341523D01*
X24800603Y-44686364D01*
X24110921Y-44686364D01*
X24110921Y-43996682D01*
X24455762Y-43996682D01*
X24800603Y-43996682D01*
X24800603Y-43651841D01*
X25145444Y-43651841D01*
X25490285Y-43651841D01*
X25490285Y-43307000D01*
X25835126Y-43307000D01*
X25835126Y-42962159D01*
X25490285Y-42962159D01*
X25490285Y-43307000D01*
X25145444Y-43307000D01*
X25145444Y-43651841D01*
X24800603Y-43651841D01*
X24800603Y-43307000D01*
X25145444Y-43307000D01*
X25145444Y-42962159D01*
X24800603Y-42962159D01*
X24800603Y-43307000D01*
X24455762Y-43307000D01*
X24455762Y-43996682D01*
X24110921Y-43996682D01*
X24110921Y-43651841D01*
X23766080Y-43651841D01*
X23766080Y-44341523D01*
X23076398Y-44341523D01*
X23076398Y-44686364D01*
X22731557Y-44686364D01*
X22731557Y-44341523D01*
X23076398Y-44341523D01*
X23076398Y-43651841D01*
X22731557Y-43651841D01*
X22731557Y-44341523D01*
X22386716Y-44341523D01*
X22386716Y-45376046D01*
X21007352Y-45376046D01*
X21007352Y-45720887D01*
X20662511Y-45720887D01*
X20662511Y-46065728D01*
X20317670Y-46065728D01*
X20317670Y-45720887D01*
X20662511Y-45720887D01*
X20662511Y-45376046D01*
X20317670Y-45376046D01*
X20317670Y-45720887D01*
X19627989Y-45720887D01*
X19627989Y-45031205D01*
X19972829Y-45031205D01*
X20317670Y-45031205D01*
X20662511Y-45031205D01*
X22041875Y-45031205D01*
X22041875Y-44686364D01*
X21697034Y-44686364D01*
X21697034Y-44341523D01*
X22041875Y-44341523D01*
X22041875Y-43996682D01*
X21697034Y-43996682D01*
X21697034Y-44341523D01*
X21352193Y-44341523D01*
X21352193Y-44686364D01*
X20662511Y-44686364D01*
X20662511Y-45031205D01*
X20317670Y-45031205D01*
X20317670Y-44686364D01*
X20662511Y-44686364D01*
X20662511Y-44341523D01*
X21007352Y-44341523D01*
X21352193Y-44341523D01*
X21352193Y-43996682D01*
X21007352Y-43996682D01*
X21007352Y-44341523D01*
X20662511Y-44341523D01*
X20662511Y-43996682D01*
X20317670Y-43996682D01*
X20317670Y-44341523D01*
X19972829Y-44341523D01*
X19972829Y-45031205D01*
X19627989Y-45031205D01*
X19627989Y-43651841D01*
X20662511Y-43651841D01*
X20662511Y-43996682D01*
X21007352Y-43996682D01*
X21007352Y-43651841D01*
X22386716Y-43651841D01*
X22386716Y-43307000D01*
X22731557Y-43307000D01*
X23076398Y-43307000D01*
X23076398Y-42962159D01*
X23421239Y-42962159D01*
X23421239Y-43651841D01*
X23766080Y-43651841D01*
X23766080Y-42962159D01*
X24110921Y-42962159D01*
X24110921Y-43307000D01*
X24455762Y-43307000D01*
X24455762Y-42617318D01*
X24110921Y-42617318D01*
X24110921Y-42272477D01*
X24455762Y-42272477D01*
X24455762Y-41927636D01*
X24800603Y-41927636D01*
X24800603Y-41582795D01*
X24455762Y-41582795D01*
X24455762Y-41237954D01*
X24110921Y-41237954D01*
X24110921Y-41927636D01*
X23766080Y-41927636D01*
X23766080Y-42272477D01*
X23421239Y-42272477D01*
X23421239Y-42617318D01*
X23076398Y-42617318D01*
X23076398Y-42962159D01*
X22731557Y-42962159D01*
X22731557Y-43307000D01*
X22386716Y-43307000D01*
X22386716Y-42962159D01*
X22731557Y-42962159D01*
X22731557Y-42617318D01*
X23076398Y-42617318D01*
X23076398Y-42272477D01*
X22731557Y-42272477D01*
X22731557Y-41927636D01*
X23421239Y-41927636D01*
X23766080Y-41927636D01*
X23766080Y-41582795D01*
X23421239Y-41582795D01*
X23421239Y-41927636D01*
X22731557Y-41927636D01*
X22386716Y-41927636D01*
X22386716Y-41582795D01*
X23076398Y-41582795D01*
X23076398Y-41237954D01*
X23766080Y-41237954D01*
X23766080Y-40893114D01*
X24800603Y-40893114D01*
X24800603Y-41237954D01*
X25835126Y-41237954D01*
X25835126Y-40893114D01*
X26524808Y-40893114D01*
X26524808Y-41582795D01*
X25490285Y-41582795D01*
X25490285Y-41927636D01*
X25145444Y-41927636D01*
X25145444Y-42272477D01*
X24800603Y-42272477D01*
X24800603Y-42617318D01*
X25835126Y-42617318D01*
G37*
G36*
X26869649Y-42962159D02*
G01*
X26869649Y-43651841D01*
X26179967Y-43651841D01*
X26179967Y-43307000D01*
X26524808Y-43307000D01*
X26524808Y-42962159D01*
X26869649Y-42962159D01*
G37*
%TD*%
D10*
%TO.C,REF\u002A\u002A*%
X93980000Y-91440000D03*
%TD*%
%TO.C,REF\u002A\u002A*%
X25400000Y-91440000D03*
%TD*%
%TO.C,REF\u002A\u002A*%
X25400000Y-20320000D03*
%TD*%
%TO.C,REF\u002A\u002A*%
X93980000Y-20320000D03*
%TD*%
D11*
%TO.C,R2*%
X89440000Y-41910000D03*
X91440000Y-41910000D03*
%TD*%
D12*
%TO.C,R1*%
X91440000Y-39370000D03*
X89440000Y-39370000D03*
%TD*%
D13*
%TO.C,U3*%
X86360000Y-39370000D03*
D14*
X86360000Y-41910000D03*
X86360000Y-44450000D03*
X86360000Y-46990000D03*
X86360000Y-49530000D03*
X86360000Y-52070000D03*
X86360000Y-54610000D03*
%TD*%
%TO.C,U2*%
X38100000Y-53340000D03*
X38100000Y-50800000D03*
X38100000Y-48260000D03*
X38100000Y-45720000D03*
X38100000Y-43180000D03*
D13*
X38100000Y-40640000D03*
%TD*%
D15*
%TO.C,U1*%
X35560000Y-17780000D03*
X38100000Y-17780000D03*
D16*
X40640000Y-17780000D03*
D15*
X43180000Y-17780000D03*
X45720000Y-17780000D03*
X48260000Y-17780000D03*
X50800000Y-17780000D03*
D16*
X53340000Y-17780000D03*
D15*
X55880000Y-17780000D03*
X58420000Y-17780000D03*
X60960000Y-17780000D03*
X63500000Y-17780000D03*
D16*
X66040000Y-17780000D03*
D15*
X68580000Y-17780000D03*
X71120000Y-17780000D03*
X73660000Y-17780000D03*
X76200000Y-17780000D03*
D16*
X78740000Y-17780000D03*
D15*
X81280000Y-17780000D03*
X83820000Y-17780000D03*
X83820000Y-35560000D03*
X81280000Y-35560000D03*
D16*
X78740000Y-35560000D03*
D15*
X76200000Y-35560000D03*
X73660000Y-35560000D03*
X71120000Y-35560000D03*
X68580000Y-35560000D03*
D16*
X66040000Y-35560000D03*
D15*
X63500000Y-35560000D03*
X60960000Y-35560000D03*
X58420000Y-35560000D03*
X55880000Y-35560000D03*
D16*
X53340000Y-35560000D03*
D15*
X48260000Y-35560000D03*
X50800000Y-35560000D03*
X45720000Y-35560000D03*
X43180000Y-35560000D03*
D16*
X40640000Y-35560000D03*
D15*
X38100000Y-35560000D03*
X35560000Y-35560000D03*
%TD*%
D17*
%TO.C,SW9*%
X27900000Y-72280000D03*
X27900000Y-84780000D03*
X22900000Y-72280000D03*
X22900000Y-84780000D03*
%TD*%
D18*
%TO.C,SW8*%
X44410000Y-68470000D03*
X31910000Y-68470000D03*
X44410000Y-63470000D03*
X31910000Y-63470000D03*
%TD*%
%TO.C,SW7*%
X31710000Y-88790000D03*
X44210000Y-88790000D03*
X31710000Y-93790000D03*
X44210000Y-93790000D03*
%TD*%
D17*
%TO.C,SW6*%
X48300000Y-84980000D03*
X48300000Y-72480000D03*
X53300000Y-84980000D03*
X53300000Y-72480000D03*
%TD*%
D18*
%TO.C,SW5*%
X87520000Y-68540000D03*
X75020000Y-68540000D03*
X87520000Y-63540000D03*
X75020000Y-63540000D03*
%TD*%
D17*
%TO.C,SW4*%
X91520000Y-85090000D03*
X91520000Y-72590000D03*
X96520000Y-85090000D03*
X96520000Y-72590000D03*
%TD*%
D19*
%TO.C,SW3*%
X62940000Y-57440000D03*
X56440000Y-57440000D03*
X62940000Y-61940000D03*
X56440000Y-61940000D03*
%TD*%
D17*
%TO.C,SW2*%
X71120000Y-72390000D03*
X71120000Y-84890000D03*
X66120000Y-72390000D03*
X66120000Y-84890000D03*
%TD*%
D18*
%TO.C,SW1*%
X75130000Y-88900000D03*
X87630000Y-88900000D03*
X75130000Y-93900000D03*
X87630000Y-93900000D03*
%TD*%
D14*
%TO.C,J1*%
X43180000Y-25400000D03*
X43180000Y-27940000D03*
X45720000Y-25400000D03*
X45720000Y-27940000D03*
X48260000Y-25400000D03*
X48260000Y-27940000D03*
X50800000Y-25400000D03*
X50800000Y-27940000D03*
X53340000Y-25400000D03*
X53340000Y-27940000D03*
X55880000Y-25400000D03*
X55880000Y-27940000D03*
X58420000Y-25400000D03*
X58420000Y-27940000D03*
X60960000Y-25400000D03*
X60960000Y-27940000D03*
X63500000Y-25400000D03*
X63500000Y-27940000D03*
X66040000Y-25400000D03*
X66040000Y-27940000D03*
X68580000Y-25400000D03*
X68580000Y-27940000D03*
X71120000Y-25400000D03*
X71120000Y-27940000D03*
X73660000Y-25400000D03*
D13*
X73660000Y-27940000D03*
%TD*%
D14*
%TO.C,J2*%
X81280000Y-77470000D03*
D13*
X81280000Y-80010000D03*
%TD*%
D20*
%TO.C,D9*%
X48260000Y-41910000D03*
D21*
X48260000Y-52070000D03*
%TD*%
%TO.C,D8*%
X52070000Y-52070000D03*
D20*
X52070000Y-41910000D03*
%TD*%
%TO.C,D7*%
X55880000Y-41910000D03*
D21*
X55880000Y-52070000D03*
%TD*%
D20*
%TO.C,D6*%
X73660000Y-41910000D03*
D21*
X73660000Y-52070000D03*
%TD*%
D20*
%TO.C,D5*%
X77470000Y-41910000D03*
D21*
X77470000Y-52070000D03*
%TD*%
D20*
%TO.C,D4*%
X81280000Y-41910000D03*
D21*
X81280000Y-52070000D03*
%TD*%
D20*
%TO.C,D3*%
X60960000Y-41910000D03*
D21*
X60960000Y-52070000D03*
%TD*%
D20*
%TO.C,D2*%
X64770000Y-41910000D03*
D21*
X64770000Y-52070000D03*
%TD*%
D20*
%TO.C,D1*%
X68580000Y-41910000D03*
D21*
X68580000Y-52070000D03*
%TD*%
M02*
