%TF.GenerationSoftware,KiCad,Pcbnew,6.0.2+dfsg-1*%
%TF.CreationDate,2023-03-22T01:16:50-07:00*%
%TF.ProjectId,PICOnsole,5049434f-6e73-46f6-9c65-2e6b69636164,rev?*%
%TF.SameCoordinates,Original*%
%TF.FileFunction,Soldermask,Top*%
%TF.FilePolarity,Negative*%
%FSLAX46Y46*%
G04 Gerber Fmt 4.6, Leading zero omitted, Abs format (unit mm)*
G04 Created by KiCad (PCBNEW 6.0.2+dfsg-1) date 2023-03-22 01:16:50*
%MOMM*%
%LPD*%
G01*
G04 APERTURE LIST*
G04 Aperture macros list*
%AMRoundRect*
0 Rectangle with rounded corners*
0 $1 Rounding radius*
0 $2 $3 $4 $5 $6 $7 $8 $9 X,Y pos of 4 corners*
0 Add a 4 corners polygon primitive as box body*
4,1,4,$2,$3,$4,$5,$6,$7,$8,$9,$2,$3,0*
0 Add four circle primitives for the rounded corners*
1,1,$1+$1,$2,$3*
1,1,$1+$1,$4,$5*
1,1,$1+$1,$6,$7*
1,1,$1+$1,$8,$9*
0 Add four rect primitives between the rounded corners*
20,1,$1+$1,$2,$3,$4,$5,0*
20,1,$1+$1,$4,$5,$6,$7,0*
20,1,$1+$1,$6,$7,$8,$9,0*
20,1,$1+$1,$8,$9,$2,$3,0*%
G04 Aperture macros list end*
%ADD10C,5.000000*%
%ADD11C,2.000000*%
%ADD12R,1.800000X1.800000*%
%ADD13O,1.800000X1.800000*%
%ADD14O,1.850000X3.048000*%
%ADD15O,3.048000X1.850000*%
%ADD16RoundRect,0.250000X-0.350000X-0.450000X0.350000X-0.450000X0.350000X0.450000X-0.350000X0.450000X0*%
%ADD17R,1.700000X1.700000*%
%ADD18O,1.700000X1.700000*%
%ADD19C,1.524000*%
%ADD20R,1.524000X1.524000*%
G04 APERTURE END LIST*
%TO.C,G\u002A\u002A\u002A*%
G36*
X88096619Y-54153234D02*
G01*
X88096619Y-56567120D01*
X85682733Y-56567120D01*
X85682733Y-56222279D01*
X86027573Y-56222279D01*
X87751778Y-56222279D01*
X87751778Y-54498075D01*
X86027573Y-54498075D01*
X86027573Y-56222279D01*
X85682733Y-56222279D01*
X85682733Y-54153234D01*
X88096619Y-54153234D01*
G37*
G36*
X90165665Y-56567120D02*
G01*
X89820824Y-56567120D01*
X89820824Y-56222279D01*
X90165665Y-56222279D01*
X90165665Y-56567120D01*
G37*
G36*
X89475983Y-56567120D02*
G01*
X89131142Y-56567120D01*
X89131142Y-56222279D01*
X89475983Y-56222279D01*
X89475983Y-56567120D01*
G37*
G36*
X95338279Y-56222279D02*
G01*
X95683120Y-56222279D01*
X95683120Y-56567120D01*
X94993438Y-56567120D01*
X94993438Y-55877438D01*
X95338279Y-55877438D01*
X95338279Y-56222279D01*
G37*
G36*
X89820824Y-56222279D02*
G01*
X89475983Y-56222279D01*
X89475983Y-55877438D01*
X89820824Y-55877438D01*
X89820824Y-56222279D01*
G37*
G36*
X95683120Y-55877438D02*
G01*
X95338279Y-55877438D01*
X95338279Y-55532598D01*
X94648598Y-55532598D01*
X94648598Y-55187757D01*
X95683120Y-55187757D01*
X95683120Y-55877438D01*
G37*
G36*
X95683120Y-54842916D02*
G01*
X94993438Y-54842916D01*
X94993438Y-54153234D01*
X94648598Y-54153234D01*
X94648598Y-53808393D01*
X95683120Y-53808393D01*
X95683120Y-54842916D01*
G37*
G36*
X87062096Y-52773870D02*
G01*
X88096619Y-52773870D01*
X88096619Y-53118711D01*
X87062096Y-53118711D01*
X87062096Y-53463552D01*
X86717255Y-53463552D01*
X86717255Y-52773870D01*
X86372414Y-52773870D01*
X86372414Y-52429029D01*
X87062096Y-52429029D01*
X87062096Y-52773870D01*
G37*
G36*
X88096619Y-52429029D02*
G01*
X87062096Y-52429029D01*
X87062096Y-52084188D01*
X88096619Y-52084188D01*
X88096619Y-52429029D01*
G37*
G36*
X88441460Y-52084188D02*
G01*
X88096619Y-52084188D01*
X88096619Y-51739347D01*
X87062096Y-51739347D01*
X87062096Y-51394506D01*
X88441460Y-51394506D01*
X88441460Y-52084188D01*
G37*
G36*
X88786301Y-51394506D02*
G01*
X88441460Y-51394506D01*
X88441460Y-51049665D01*
X88786301Y-51049665D01*
X88786301Y-51394506D01*
G37*
G36*
X89820824Y-50704824D02*
G01*
X89475983Y-50704824D01*
X89475983Y-50359983D01*
X89820824Y-50359983D01*
X89820824Y-50704824D01*
G37*
G36*
X94993438Y-49670301D02*
G01*
X94648598Y-49670301D01*
X94648598Y-49325460D01*
X94993438Y-49325460D01*
X94993438Y-49670301D01*
G37*
G36*
X92924393Y-47601255D02*
G01*
X92579552Y-47601255D01*
X92579552Y-47256414D01*
X92924393Y-47256414D01*
X92924393Y-47601255D01*
G37*
G36*
X89131142Y-46911573D02*
G01*
X88786301Y-46911573D01*
X88786301Y-46566733D01*
X89131142Y-46566733D01*
X89131142Y-46911573D01*
G37*
G36*
X91889870Y-47946096D02*
G01*
X91545029Y-47946096D01*
X91545029Y-47601255D01*
X92234711Y-47601255D01*
X92234711Y-47946096D01*
X92579552Y-47946096D01*
X92579552Y-48635778D01*
X92234711Y-48635778D01*
X92234711Y-48980619D01*
X91889870Y-48980619D01*
X91889870Y-50015142D01*
X91545029Y-50015142D01*
X91545029Y-50359983D01*
X91200188Y-50359983D01*
X91200188Y-50704824D01*
X90510506Y-50704824D01*
X90510506Y-51049665D01*
X90165665Y-51049665D01*
X90165665Y-51394506D01*
X90510506Y-51394506D01*
X90510506Y-51739347D01*
X90855347Y-51739347D01*
X90855347Y-52084188D01*
X91200188Y-52084188D01*
X91200188Y-51739347D01*
X91545029Y-51739347D01*
X91545029Y-51394506D01*
X90855347Y-51394506D01*
X90855347Y-51049665D01*
X91545029Y-51049665D01*
X91545029Y-50359983D01*
X92234711Y-50359983D01*
X92234711Y-50704824D01*
X91889870Y-50704824D01*
X91889870Y-51049665D01*
X92579552Y-51049665D01*
X92579552Y-50704824D01*
X93614075Y-50704824D01*
X93614075Y-50359983D01*
X92579552Y-50359983D01*
X92579552Y-50015142D01*
X92924393Y-50015142D01*
X93269234Y-50015142D01*
X93269234Y-49670301D01*
X92924393Y-49670301D01*
X92924393Y-50015142D01*
X92579552Y-50015142D01*
X92579552Y-49670301D01*
X92924393Y-49670301D01*
X92924393Y-49325460D01*
X92234711Y-49325460D01*
X92234711Y-48980619D01*
X92579552Y-48980619D01*
X92579552Y-48635778D01*
X92924393Y-48635778D01*
X92924393Y-49325460D01*
X93614075Y-49325460D01*
X93614075Y-50359983D01*
X93958916Y-50359983D01*
X93958916Y-50015142D01*
X94303757Y-50015142D01*
X94303757Y-49670301D01*
X94648598Y-49670301D01*
X94648598Y-50015142D01*
X95338279Y-50015142D01*
X95338279Y-49670301D01*
X95683120Y-49670301D01*
X95683120Y-50359983D01*
X95338279Y-50359983D01*
X95338279Y-50704824D01*
X95683120Y-50704824D01*
X95683120Y-51739347D01*
X95338279Y-51739347D01*
X95338279Y-52084188D01*
X95683120Y-52084188D01*
X95683120Y-53118711D01*
X95338279Y-53118711D01*
X95338279Y-53463552D01*
X94993438Y-53463552D01*
X94993438Y-52773870D01*
X95338279Y-52773870D01*
X95338279Y-52429029D01*
X94993438Y-52429029D01*
X94993438Y-52773870D01*
X94303757Y-52773870D01*
X94303757Y-53118711D01*
X94648598Y-53118711D01*
X94648598Y-53463552D01*
X94303757Y-53463552D01*
X94303757Y-54153234D01*
X94648598Y-54153234D01*
X94648598Y-54842916D01*
X94303757Y-54842916D01*
X94303757Y-55532598D01*
X94648598Y-55532598D01*
X94648598Y-55877438D01*
X94303757Y-55877438D01*
X94303757Y-56567120D01*
X93614075Y-56567120D01*
X93614075Y-56222279D01*
X93958916Y-56222279D01*
X93958916Y-55877438D01*
X93614075Y-55877438D01*
X93614075Y-55187757D01*
X92924393Y-55187757D01*
X92924393Y-55532598D01*
X92579552Y-55532598D01*
X92579552Y-55877438D01*
X93269234Y-55877438D01*
X93269234Y-56567120D01*
X92234711Y-56567120D01*
X92234711Y-56222279D01*
X91889870Y-56222279D01*
X91889870Y-56567120D01*
X91545029Y-56567120D01*
X91545029Y-55532598D01*
X91889870Y-55532598D01*
X91889870Y-55877438D01*
X92234711Y-55877438D01*
X92234711Y-55532598D01*
X92579552Y-55532598D01*
X92579552Y-54842916D01*
X92924393Y-54842916D01*
X93958916Y-54842916D01*
X93958916Y-53808393D01*
X92924393Y-53808393D01*
X92924393Y-54842916D01*
X92579552Y-54842916D01*
X92579552Y-54498075D01*
X91889870Y-54498075D01*
X91889870Y-55187757D01*
X91545029Y-55187757D01*
X91545029Y-55532598D01*
X91200188Y-55532598D01*
X91200188Y-54842916D01*
X90855347Y-54842916D01*
X90855347Y-55187757D01*
X90510506Y-55187757D01*
X90510506Y-54842916D01*
X89820824Y-54842916D01*
X89820824Y-55532598D01*
X89475983Y-55532598D01*
X89475983Y-55877438D01*
X89131142Y-55877438D01*
X89131142Y-56222279D01*
X88786301Y-56222279D01*
X88786301Y-56567120D01*
X88441460Y-56567120D01*
X88441460Y-55877438D01*
X88786301Y-55877438D01*
X89131142Y-55877438D01*
X89131142Y-55532598D01*
X89475983Y-55532598D01*
X89475983Y-55187757D01*
X89131142Y-55187757D01*
X89131142Y-55532598D01*
X88786301Y-55532598D01*
X88786301Y-55877438D01*
X88441460Y-55877438D01*
X88441460Y-55532598D01*
X88786301Y-55532598D01*
X88786301Y-55187757D01*
X88441460Y-55187757D01*
X88441460Y-54842916D01*
X88786301Y-54842916D01*
X89820824Y-54842916D01*
X89820824Y-54498075D01*
X89475983Y-54498075D01*
X89475983Y-54153234D01*
X88786301Y-54153234D01*
X88786301Y-54842916D01*
X88441460Y-54842916D01*
X88441460Y-53808393D01*
X89131142Y-53808393D01*
X89131142Y-53463552D01*
X89475983Y-53463552D01*
X89475983Y-53808393D01*
X89820824Y-53808393D01*
X89820824Y-53463552D01*
X90165665Y-53463552D01*
X90165665Y-53118711D01*
X90510506Y-53118711D01*
X90510506Y-54153234D01*
X90165665Y-54153234D01*
X90165665Y-54498075D01*
X91545029Y-54498075D01*
X91545029Y-54153234D01*
X91200188Y-54153234D01*
X91200188Y-53808393D01*
X91545029Y-53808393D01*
X91545029Y-53118711D01*
X91889870Y-53118711D01*
X91889870Y-53808393D01*
X92234711Y-53808393D01*
X92234711Y-53118711D01*
X92924393Y-53118711D01*
X93269234Y-53118711D01*
X93614075Y-53118711D01*
X93614075Y-52773870D01*
X94303757Y-52773870D01*
X94303757Y-51739347D01*
X93958916Y-51739347D01*
X93958916Y-51394506D01*
X94303757Y-51394506D01*
X94303757Y-50704824D01*
X94648598Y-50704824D01*
X94648598Y-52429029D01*
X94993438Y-52429029D01*
X94993438Y-51394506D01*
X95338279Y-51394506D01*
X95338279Y-51049665D01*
X94993438Y-51049665D01*
X94993438Y-50359983D01*
X94648598Y-50359983D01*
X94648598Y-50015142D01*
X94303757Y-50015142D01*
X94303757Y-50704824D01*
X93614075Y-50704824D01*
X93614075Y-52084188D01*
X93958916Y-52084188D01*
X93958916Y-52429029D01*
X93614075Y-52429029D01*
X93614075Y-52773870D01*
X93269234Y-52773870D01*
X93269234Y-53118711D01*
X92924393Y-53118711D01*
X92924393Y-52429029D01*
X93269234Y-52429029D01*
X93269234Y-52084188D01*
X92924393Y-52084188D01*
X92924393Y-52429029D01*
X92234711Y-52429029D01*
X92234711Y-52773870D01*
X91545029Y-52773870D01*
X91545029Y-52429029D01*
X91889870Y-52429029D01*
X92234711Y-52429029D01*
X92234711Y-52084188D01*
X92579552Y-52084188D01*
X92579552Y-51739347D01*
X93269234Y-51739347D01*
X93269234Y-51394506D01*
X92234711Y-51394506D01*
X92234711Y-52084188D01*
X91889870Y-52084188D01*
X91889870Y-52429029D01*
X91545029Y-52429029D01*
X90855347Y-52429029D01*
X90855347Y-52084188D01*
X90510506Y-52084188D01*
X90510506Y-52429029D01*
X90165665Y-52429029D01*
X90165665Y-52084188D01*
X89820824Y-52084188D01*
X89820824Y-51739347D01*
X89475983Y-51739347D01*
X89475983Y-52084188D01*
X89131142Y-52084188D01*
X89131142Y-53463552D01*
X88786301Y-53463552D01*
X88786301Y-53118711D01*
X88441460Y-53118711D01*
X88441460Y-52773870D01*
X88786301Y-52773870D01*
X88786301Y-52084188D01*
X89131142Y-52084188D01*
X89131142Y-51739347D01*
X89475983Y-51739347D01*
X89475983Y-51049665D01*
X89820824Y-51049665D01*
X89820824Y-50704824D01*
X90165665Y-50704824D01*
X90165665Y-50359983D01*
X90855347Y-50359983D01*
X91200188Y-50359983D01*
X91200188Y-50015142D01*
X90855347Y-50015142D01*
X90855347Y-50359983D01*
X90165665Y-50359983D01*
X90165665Y-49670301D01*
X90510506Y-49670301D01*
X90855347Y-49670301D01*
X90855347Y-49325460D01*
X91200188Y-49325460D01*
X91545029Y-49325460D01*
X91545029Y-48980619D01*
X91889870Y-48980619D01*
X91889870Y-48635778D01*
X91545029Y-48635778D01*
X91545029Y-48980619D01*
X91200188Y-48980619D01*
X91200188Y-49325460D01*
X90855347Y-49325460D01*
X90855347Y-48980619D01*
X91200188Y-48980619D01*
X91200188Y-48635778D01*
X90855347Y-48635778D01*
X90855347Y-48980619D01*
X90510506Y-48980619D01*
X90510506Y-49670301D01*
X90165665Y-49670301D01*
X90165665Y-49325460D01*
X89820824Y-49325460D01*
X89820824Y-50015142D01*
X89131142Y-50015142D01*
X89131142Y-50359983D01*
X88786301Y-50359983D01*
X88786301Y-50015142D01*
X89131142Y-50015142D01*
X89131142Y-49325460D01*
X88786301Y-49325460D01*
X88786301Y-50015142D01*
X88441460Y-50015142D01*
X88441460Y-51049665D01*
X87062096Y-51049665D01*
X87062096Y-51394506D01*
X86717255Y-51394506D01*
X86717255Y-51739347D01*
X86372414Y-51739347D01*
X86372414Y-51394506D01*
X86717255Y-51394506D01*
X86717255Y-51049665D01*
X86372414Y-51049665D01*
X86372414Y-51394506D01*
X85682733Y-51394506D01*
X85682733Y-50704824D01*
X86027573Y-50704824D01*
X88096619Y-50704824D01*
X88096619Y-50359983D01*
X87751778Y-50359983D01*
X87751778Y-50015142D01*
X88096619Y-50015142D01*
X88096619Y-49670301D01*
X87751778Y-49670301D01*
X87751778Y-50015142D01*
X87406937Y-50015142D01*
X87406937Y-50359983D01*
X86717255Y-50359983D01*
X86717255Y-50704824D01*
X86372414Y-50704824D01*
X86372414Y-50359983D01*
X86717255Y-50359983D01*
X86717255Y-50015142D01*
X87062096Y-50015142D01*
X87406937Y-50015142D01*
X87406937Y-49670301D01*
X87062096Y-49670301D01*
X87062096Y-50015142D01*
X86717255Y-50015142D01*
X86717255Y-49670301D01*
X86372414Y-49670301D01*
X86372414Y-50015142D01*
X86027573Y-50015142D01*
X86027573Y-50704824D01*
X85682733Y-50704824D01*
X85682733Y-49325460D01*
X86717255Y-49325460D01*
X86717255Y-49670301D01*
X87062096Y-49670301D01*
X87062096Y-49325460D01*
X88441460Y-49325460D01*
X88441460Y-48980619D01*
X88786301Y-48980619D01*
X89131142Y-48980619D01*
X89131142Y-48635778D01*
X89475983Y-48635778D01*
X89475983Y-49325460D01*
X89820824Y-49325460D01*
X89820824Y-48635778D01*
X90165665Y-48635778D01*
X90165665Y-48980619D01*
X90510506Y-48980619D01*
X90510506Y-48290937D01*
X90165665Y-48290937D01*
X90165665Y-47946096D01*
X90510506Y-47946096D01*
X90510506Y-47601255D01*
X90855347Y-47601255D01*
X90855347Y-47256414D01*
X90510506Y-47256414D01*
X90510506Y-46911573D01*
X90165665Y-46911573D01*
X90165665Y-47601255D01*
X89820824Y-47601255D01*
X89820824Y-47946096D01*
X89475983Y-47946096D01*
X89475983Y-48290937D01*
X89131142Y-48290937D01*
X89131142Y-48635778D01*
X88786301Y-48635778D01*
X88786301Y-48980619D01*
X88441460Y-48980619D01*
X88441460Y-48635778D01*
X88786301Y-48635778D01*
X88786301Y-48290937D01*
X89131142Y-48290937D01*
X89131142Y-47946096D01*
X88786301Y-47946096D01*
X88786301Y-47601255D01*
X89475983Y-47601255D01*
X89820824Y-47601255D01*
X89820824Y-47256414D01*
X89475983Y-47256414D01*
X89475983Y-47601255D01*
X88786301Y-47601255D01*
X88441460Y-47601255D01*
X88441460Y-47256414D01*
X89131142Y-47256414D01*
X89131142Y-46911573D01*
X89820824Y-46911573D01*
X89820824Y-46566733D01*
X90855347Y-46566733D01*
X90855347Y-46911573D01*
X91889870Y-46911573D01*
X91889870Y-46566733D01*
X92579552Y-46566733D01*
X92579552Y-47256414D01*
X91545029Y-47256414D01*
X91545029Y-47601255D01*
X91200188Y-47601255D01*
X91200188Y-47946096D01*
X90855347Y-47946096D01*
X90855347Y-48290937D01*
X91889870Y-48290937D01*
X91889870Y-47946096D01*
G37*
G36*
X91200188Y-56567120D02*
G01*
X90855347Y-56567120D01*
X90855347Y-55877438D01*
X91200188Y-55877438D01*
X91200188Y-56567120D01*
G37*
G36*
X90510506Y-55877438D02*
G01*
X90165665Y-55877438D01*
X90165665Y-55532598D01*
X90510506Y-55532598D01*
X90510506Y-55877438D01*
G37*
G36*
X86027573Y-53808393D02*
G01*
X85682733Y-53808393D01*
X85682733Y-53463552D01*
X86027573Y-53463552D01*
X86027573Y-53808393D01*
G37*
G36*
X86372414Y-53463552D02*
G01*
X86027573Y-53463552D01*
X86027573Y-53118711D01*
X86372414Y-53118711D01*
X86372414Y-53463552D01*
G37*
G36*
X86027573Y-53118711D02*
G01*
X85682733Y-53118711D01*
X85682733Y-52773870D01*
X86027573Y-52773870D01*
X86027573Y-53118711D01*
G37*
G36*
X88096619Y-53808393D02*
G01*
X87751778Y-53808393D01*
X87751778Y-53463552D01*
X88096619Y-53463552D01*
X88096619Y-53808393D01*
G37*
G36*
X86027573Y-52084188D02*
G01*
X85682733Y-52084188D01*
X85682733Y-51739347D01*
X86027573Y-51739347D01*
X86027573Y-52084188D01*
G37*
G36*
X88096619Y-46566733D02*
G01*
X88096619Y-48980619D01*
X85682733Y-48980619D01*
X85682733Y-48635778D01*
X86027573Y-48635778D01*
X87751778Y-48635778D01*
X87751778Y-46911573D01*
X86027573Y-46911573D01*
X86027573Y-48635778D01*
X85682733Y-48635778D01*
X85682733Y-46566733D01*
X88096619Y-46566733D01*
G37*
G36*
X95683120Y-46566733D02*
G01*
X95683120Y-48980619D01*
X93269234Y-48980619D01*
X93269234Y-48635778D01*
X93614075Y-48635778D01*
X95338279Y-48635778D01*
X95338279Y-46911573D01*
X93614075Y-46911573D01*
X93614075Y-48635778D01*
X93269234Y-48635778D01*
X93269234Y-46566733D01*
X95683120Y-46566733D01*
G37*
G36*
X87406937Y-55877438D02*
G01*
X86372414Y-55877438D01*
X86372414Y-54842916D01*
X87406937Y-54842916D01*
X87406937Y-55877438D01*
G37*
G36*
X93614075Y-54498075D02*
G01*
X93269234Y-54498075D01*
X93269234Y-54153234D01*
X93614075Y-54153234D01*
X93614075Y-54498075D01*
G37*
G36*
X89820824Y-53463552D02*
G01*
X89475983Y-53463552D01*
X89475983Y-53118711D01*
X89820824Y-53118711D01*
X89820824Y-53463552D01*
G37*
G36*
X91545029Y-53118711D02*
G01*
X91200188Y-53118711D01*
X91200188Y-52773870D01*
X91545029Y-52773870D01*
X91545029Y-53118711D01*
G37*
G36*
X89820824Y-52773870D02*
G01*
X89475983Y-52773870D01*
X89475983Y-52084188D01*
X89820824Y-52084188D01*
X89820824Y-52773870D01*
G37*
G36*
X87406937Y-48290937D02*
G01*
X86372414Y-48290937D01*
X86372414Y-47256414D01*
X87406937Y-47256414D01*
X87406937Y-48290937D01*
G37*
G36*
X94993438Y-48290937D02*
G01*
X93958916Y-48290937D01*
X93958916Y-47256414D01*
X94993438Y-47256414D01*
X94993438Y-48290937D01*
G37*
%TD*%
D10*
%TO.C,*%
X91440000Y-101600000D03*
%TD*%
D11*
%TO.C,SW3*%
X52590000Y-59975000D03*
X59090000Y-59975000D03*
X59090000Y-64475000D03*
X52590000Y-64475000D03*
%TD*%
D12*
%TO.C,D8*%
X37950000Y-60910000D03*
D13*
X27790000Y-60910000D03*
%TD*%
D12*
%TO.C,D2*%
X40490000Y-29160000D03*
D13*
X30330000Y-29160000D03*
%TD*%
D14*
%TO.C,SW4*%
X87630000Y-77555000D03*
X87630000Y-90055000D03*
X92630000Y-77555000D03*
X92630000Y-90055000D03*
%TD*%
D12*
%TO.C,D3*%
X40490000Y-32970000D03*
D13*
X30330000Y-32970000D03*
%TD*%
D10*
%TO.C,REF\u002A\u002A*%
X88900000Y-17780000D03*
%TD*%
%TO.C,REF\u002A\u002A*%
X17780000Y-101600000D03*
%TD*%
D12*
%TO.C,D1*%
X40490000Y-25350000D03*
D13*
X30330000Y-25350000D03*
%TD*%
D14*
%TO.C,SW9*%
X24050000Y-77570000D03*
X24050000Y-90070000D03*
X19050000Y-77570000D03*
X19050000Y-90070000D03*
%TD*%
D12*
%TO.C,D7*%
X29060000Y-52020000D03*
D13*
X18900000Y-52020000D03*
%TD*%
D12*
%TO.C,D9*%
X29060000Y-48210000D03*
D13*
X18900000Y-48210000D03*
%TD*%
D15*
%TO.C,SW8*%
X27990000Y-73610000D03*
X40490000Y-73610000D03*
X27990000Y-68610000D03*
X40490000Y-68610000D03*
%TD*%
D14*
%TO.C,SW2*%
X67230000Y-90075000D03*
X67230000Y-77575000D03*
X62230000Y-90075000D03*
X62230000Y-77575000D03*
%TD*%
D16*
%TO.C,R4*%
X74100000Y-53290000D03*
X76100000Y-53290000D03*
%TD*%
D10*
%TO.C,REF\u002A\u002A*%
X17780000Y-17780000D03*
%TD*%
D12*
%TO.C,D5*%
X43030000Y-29160000D03*
D13*
X53190000Y-29160000D03*
%TD*%
D17*
%TO.C,U4*%
X94465000Y-20275000D03*
D18*
X94465000Y-22815000D03*
X94465000Y-25355000D03*
X94465000Y-27895000D03*
X94465000Y-30435000D03*
%TD*%
D17*
%TO.C,J1*%
X73510000Y-43130000D03*
D18*
X76050000Y-43130000D03*
X78590000Y-43130000D03*
X81130000Y-43130000D03*
%TD*%
D15*
%TO.C,SW1*%
X71190000Y-94015000D03*
X83690000Y-94015000D03*
X71190000Y-99015000D03*
X83690000Y-99015000D03*
%TD*%
%TO.C,SW7*%
X40510000Y-94010000D03*
X28010000Y-94010000D03*
X28010000Y-99010000D03*
X40510000Y-99010000D03*
%TD*%
D16*
%TO.C,R3*%
X78540000Y-53290000D03*
X80540000Y-53290000D03*
%TD*%
D17*
%TO.C,U3*%
X37950000Y-43130000D03*
D18*
X37950000Y-45670000D03*
X37950000Y-48210000D03*
X37950000Y-50750000D03*
X37950000Y-53290000D03*
X37950000Y-55830000D03*
%TD*%
D14*
%TO.C,SW6*%
X44450000Y-77550000D03*
X44450000Y-90050000D03*
X49450000Y-77550000D03*
X49450000Y-90050000D03*
%TD*%
D15*
%TO.C,SW5*%
X83780000Y-73655000D03*
X71280000Y-73655000D03*
X71280000Y-68655000D03*
X83780000Y-68655000D03*
%TD*%
D12*
%TO.C,D6*%
X43030000Y-32970000D03*
D13*
X53190000Y-32970000D03*
%TD*%
D12*
%TO.C,D4*%
X43030000Y-25350000D03*
D13*
X53190000Y-25350000D03*
%TD*%
D17*
%TO.C,SW10*%
X76050000Y-15195000D03*
D18*
X73510000Y-15195000D03*
X70970000Y-15195000D03*
%TD*%
D17*
%TO.C,U5*%
X81130000Y-48845000D03*
D18*
X78590000Y-48845000D03*
X76050000Y-48845000D03*
X73510000Y-48845000D03*
X70970000Y-48845000D03*
X68430000Y-48845000D03*
X65890000Y-48845000D03*
%TD*%
D19*
%TO.C,U2*%
X78590000Y-38050000D03*
X76050000Y-38050000D03*
D20*
X73510000Y-38050000D03*
D19*
X70970000Y-38050000D03*
X68430000Y-38050000D03*
X63350000Y-38050000D03*
X65890000Y-38050000D03*
D20*
X60810000Y-38050000D03*
D19*
X58270000Y-38050000D03*
X55730000Y-38050000D03*
X53190000Y-38050000D03*
X50650000Y-38050000D03*
D20*
X48110000Y-38050000D03*
D19*
X45570000Y-38050000D03*
X43030000Y-38050000D03*
X40490000Y-38050000D03*
X37950000Y-38050000D03*
D20*
X35410000Y-38050000D03*
D19*
X32870000Y-38050000D03*
X30330000Y-38050000D03*
X30330000Y-20270000D03*
X32870000Y-20270000D03*
D20*
X35410000Y-20270000D03*
D19*
X37950000Y-20270000D03*
X40490000Y-20270000D03*
X43030000Y-20270000D03*
X45570000Y-20270000D03*
D20*
X48110000Y-20270000D03*
D19*
X50650000Y-20270000D03*
X53190000Y-20270000D03*
X55730000Y-20270000D03*
X58270000Y-20270000D03*
D20*
X60810000Y-20270000D03*
D19*
X63350000Y-20270000D03*
X65890000Y-20270000D03*
X68430000Y-20270000D03*
X70970000Y-20270000D03*
D20*
X73510000Y-20270000D03*
D19*
X76050000Y-20270000D03*
X78590000Y-20270000D03*
%TD*%
D17*
%TO.C,J3*%
X60946073Y-98374999D03*
D18*
X58406073Y-98374999D03*
X55866073Y-98374999D03*
X53326073Y-98374999D03*
X50786073Y-98374999D03*
%TD*%
D17*
%TO.C,J4*%
X60946073Y-100915000D03*
D18*
X58406073Y-100915000D03*
X55866073Y-100915000D03*
X53326073Y-100915000D03*
X50786073Y-100915000D03*
%TD*%
D17*
%TO.C,J2*%
X77320000Y-85680000D03*
D18*
X77320000Y-83140000D03*
%TD*%
D19*
%TO.C,U1*%
X78590000Y-38050000D03*
X76050000Y-38050000D03*
D20*
X73510000Y-38050000D03*
D19*
X70970000Y-38050000D03*
X68430000Y-38050000D03*
X63350000Y-38050000D03*
X65890000Y-38050000D03*
D20*
X60810000Y-38050000D03*
D19*
X58270000Y-38050000D03*
X55730000Y-38050000D03*
X53190000Y-38050000D03*
X50650000Y-38050000D03*
D20*
X48110000Y-38050000D03*
D19*
X45570000Y-38050000D03*
X43030000Y-38050000D03*
X40490000Y-38050000D03*
X37950000Y-38050000D03*
D20*
X35410000Y-38050000D03*
D19*
X32870000Y-38050000D03*
X30330000Y-38050000D03*
X30330000Y-20270000D03*
X32870000Y-20270000D03*
D20*
X35410000Y-20270000D03*
D19*
X37950000Y-20270000D03*
X40490000Y-20270000D03*
X43030000Y-20270000D03*
X45570000Y-20270000D03*
D20*
X48110000Y-20270000D03*
D19*
X50650000Y-20270000D03*
X53190000Y-20270000D03*
X55730000Y-20270000D03*
X58270000Y-20270000D03*
D20*
X60810000Y-20270000D03*
D19*
X63350000Y-20270000D03*
X65890000Y-20270000D03*
X68430000Y-20270000D03*
X70970000Y-20270000D03*
D20*
X73510000Y-20270000D03*
D19*
X76050000Y-20270000D03*
X78590000Y-20270000D03*
%TD*%
M02*
