M48
; DRILL file {KiCad 6.0.2+dfsg-1} date Wed 22 Mar 2023 01:16:47 AM PDT
; FORMAT={-:-/ absolute / inch / decimal}
; #@! TF.CreationDate,2023-03-22T01:16:47-07:00
; #@! TF.GenerationSoftware,Kicad,Pcbnew,6.0.2+dfsg-1
; #@! TF.FileFunction,Plated,1,2,PTH
FMAT,2
INCH
; #@! TA.AperFunction,Plated,PTH,ViaDrill
T1C0.0157
; #@! TA.AperFunction,Plated,PTH,ComponentDrill
T2C0.0300
; #@! TA.AperFunction,Plated,PTH,ComponentDrill
T3C0.0354
; #@! TA.AperFunction,Plated,PTH,ComponentDrill
T4C0.0394
; #@! TA.AperFunction,Plated,PTH,ComponentDrill
T5C0.0433
; #@! TA.AperFunction,Plated,PTH,ComponentDrill
T6C0.0512
; #@! TA.AperFunction,Plated,PTH,ComponentDrill
T7C0.0984
%
G90
G05
T1
X2.1441Y-2.198
X2.8191Y-2.448
T2
X1.1941Y-0.798
X1.1941Y-0.798
X1.1941Y-1.498
X1.1941Y-1.498
X1.2941Y-0.798
X1.2941Y-0.798
X1.2941Y-1.498
X1.2941Y-1.498
X1.3941Y-0.798
X1.3941Y-0.798
X1.3941Y-1.498
X1.3941Y-1.498
X1.4941Y-0.798
X1.4941Y-0.798
X1.4941Y-1.498
X1.4941Y-1.498
X1.5941Y-0.798
X1.5941Y-0.798
X1.5941Y-1.498
X1.5941Y-1.498
X1.6941Y-0.798
X1.6941Y-0.798
X1.6941Y-1.498
X1.6941Y-1.498
X1.7941Y-0.798
X1.7941Y-0.798
X1.7941Y-1.498
X1.7941Y-1.498
X1.8941Y-0.798
X1.8941Y-0.798
X1.8941Y-1.498
X1.8941Y-1.498
X1.9941Y-0.798
X1.9941Y-0.798
X1.9941Y-1.498
X1.9941Y-1.498
X2.0941Y-0.798
X2.0941Y-0.798
X2.0941Y-1.498
X2.0941Y-1.498
X2.1941Y-0.798
X2.1941Y-0.798
X2.1941Y-1.498
X2.1941Y-1.498
X2.2941Y-0.798
X2.2941Y-0.798
X2.2941Y-1.498
X2.2941Y-1.498
X2.3941Y-0.798
X2.3941Y-0.798
X2.3941Y-1.498
X2.3941Y-1.498
X2.4941Y-0.798
X2.4941Y-0.798
X2.4941Y-1.498
X2.4941Y-1.498
X2.5941Y-0.798
X2.5941Y-0.798
X2.5941Y-1.498
X2.5941Y-1.498
X2.6941Y-0.798
X2.6941Y-0.798
X2.6941Y-1.498
X2.6941Y-1.498
X2.7941Y-0.798
X2.7941Y-0.798
X2.7941Y-1.498
X2.7941Y-1.498
X2.8941Y-0.798
X2.8941Y-0.798
X2.8941Y-1.498
X2.8941Y-1.498
X2.9941Y-0.798
X2.9941Y-0.798
X2.9941Y-1.498
X2.9941Y-1.498
X3.0941Y-0.798
X3.0941Y-0.798
X3.0941Y-1.498
X3.0941Y-1.498
T3
X0.7441Y-1.898
X0.7441Y-2.048
X1.0941Y-2.398
X1.1441Y-1.898
X1.1441Y-2.048
X1.1941Y-0.998
X1.1941Y-1.148
X1.1941Y-1.298
X1.4941Y-2.398
X1.5941Y-0.998
X1.5941Y-1.148
X1.5941Y-1.298
X1.6941Y-0.998
X1.6941Y-1.148
X1.6941Y-1.298
X2.0941Y-0.998
X2.0941Y-1.148
X2.0941Y-1.298
T4
X1.4941Y-1.698
X1.4941Y-1.798
X1.4941Y-1.898
X1.4941Y-1.998
X1.4941Y-2.098
X1.4941Y-2.198
X1.9995Y-3.873
X1.9995Y-3.973
X2.0995Y-3.873
X2.0995Y-3.973
X2.1995Y-3.873
X2.1995Y-3.973
X2.2995Y-3.873
X2.2995Y-3.973
X2.3995Y-3.873
X2.3995Y-3.973
X2.5941Y-1.923
X2.6941Y-1.923
X2.7941Y-0.5982
X2.7941Y-1.923
X2.8941Y-0.5982
X2.8941Y-1.698
X2.8941Y-1.923
X2.9941Y-0.5982
X2.9941Y-1.698
X2.9941Y-1.923
X3.0441Y-3.2732
X3.0441Y-3.3732
X3.0941Y-1.698
X3.0941Y-1.923
X3.1941Y-1.698
X3.1941Y-1.923
X3.7191Y-0.7982
X3.7191Y-0.8982
X3.7191Y-0.9982
X3.7191Y-1.0982
X3.7191Y-1.1982
T5
X2.0705Y-2.3612
X2.0705Y-2.5384
X2.3264Y-2.3612
X2.3264Y-2.5384
T6
X0.75Y-3.0539
X0.75Y-3.5461
X0.9469Y-3.0539
X0.9469Y-3.5461
X1.102Y-2.7012
X1.102Y-2.898
X1.1028Y-3.7012
X1.1028Y-3.898
X1.5941Y-2.7012
X1.5941Y-2.898
X1.5949Y-3.7012
X1.5949Y-3.898
X1.75Y-3.0531
X1.75Y-3.5453
X1.9469Y-3.0531
X1.9469Y-3.5453
X2.45Y-3.0541
X2.45Y-3.5463
X2.6469Y-3.0541
X2.6469Y-3.5463
X2.8028Y-3.7014
X2.8028Y-3.8982
X2.8063Y-2.703
X2.8063Y-2.8998
X3.2949Y-3.7014
X3.2949Y-3.8982
X3.2984Y-2.703
X3.2984Y-2.8998
X3.45Y-3.0533
X3.45Y-3.5455
X3.6469Y-3.0533
X3.6469Y-3.5455
T7
X0.7Y-0.7
X0.7Y-4.0
X3.5Y-0.7
X3.6Y-4.0
T0
M30
