%TF.GenerationSoftware,KiCad,Pcbnew,7.0.8*%
%TF.CreationDate,2023-10-15T21:25:11-07:00*%
%TF.ProjectId,DevkitHotswapPicoHub,4465766b-6974-4486-9f74-737761705069,rev?*%
%TF.SameCoordinates,Original*%
%TF.FileFunction,Soldermask,Bot*%
%TF.FilePolarity,Negative*%
%FSLAX46Y46*%
G04 Gerber Fmt 4.6, Leading zero omitted, Abs format (unit mm)*
G04 Created by KiCad (PCBNEW 7.0.8) date 2023-10-15 21:25:11*
%MOMM*%
%LPD*%
G01*
G04 APERTURE LIST*
%ADD10R,1.700000X1.700000*%
%ADD11O,1.700000X1.700000*%
%ADD12C,1.524000*%
%ADD13R,1.524000X1.524000*%
%ADD14O,3.048000X1.850000*%
%ADD15R,1.800000X1.800000*%
%ADD16C,1.800000*%
G04 APERTURE END LIST*
D10*
%TO.C,J404*%
X90170000Y-117475000D03*
D11*
X92710000Y-117475000D03*
X95250000Y-117475000D03*
X97790000Y-117475000D03*
%TD*%
%TO.C,J202*%
X31750000Y-99695000D03*
X29210000Y-99695000D03*
D10*
X26670000Y-99695000D03*
%TD*%
D12*
%TO.C,U200*%
X20320000Y-43815000D03*
X20320000Y-46355000D03*
D13*
X20320000Y-48895000D03*
D12*
X20320000Y-51435000D03*
X20320000Y-53975000D03*
X20320000Y-59055000D03*
X20320000Y-56515000D03*
D13*
X20320000Y-61595000D03*
D12*
X20320000Y-64135000D03*
X20320000Y-66675000D03*
X20320000Y-69215000D03*
X20320000Y-71755000D03*
D13*
X20320000Y-74295000D03*
D12*
X20320000Y-76835000D03*
X20320000Y-79375000D03*
X20320000Y-81915000D03*
X20320000Y-84455000D03*
D13*
X20320000Y-86995000D03*
D12*
X20320000Y-89535000D03*
X20320000Y-92075000D03*
X38100000Y-92075000D03*
X38100000Y-89535000D03*
D13*
X38100000Y-86995000D03*
D12*
X38100000Y-84455000D03*
X38100000Y-81915000D03*
X38100000Y-79375000D03*
X38100000Y-76835000D03*
D13*
X38100000Y-74295000D03*
D12*
X38100000Y-71755000D03*
X38100000Y-69215000D03*
X38100000Y-66675000D03*
X38100000Y-64135000D03*
D13*
X38100000Y-61595000D03*
D12*
X38100000Y-59055000D03*
X38100000Y-56515000D03*
X38100000Y-53975000D03*
X38100000Y-51435000D03*
D13*
X38100000Y-48895000D03*
D12*
X38100000Y-46355000D03*
X38100000Y-43815000D03*
%TD*%
D10*
%TO.C,J303*%
X121920000Y-99695000D03*
D11*
X124460000Y-99695000D03*
X127000000Y-99695000D03*
%TD*%
D12*
%TO.C,U300*%
X133350000Y-43815000D03*
X133350000Y-46355000D03*
D13*
X133350000Y-48895000D03*
D12*
X133350000Y-51435000D03*
X133350000Y-53975000D03*
X133350000Y-56515000D03*
X133350000Y-59055000D03*
D13*
X133350000Y-61595000D03*
D12*
X133350000Y-64135000D03*
X133350000Y-66675000D03*
X133350000Y-69215000D03*
X133350000Y-71755000D03*
D13*
X133350000Y-74295000D03*
D12*
X133350000Y-76835000D03*
X133350000Y-79375000D03*
X133350000Y-81915000D03*
X133350000Y-84455000D03*
D13*
X133350000Y-86995000D03*
D12*
X133350000Y-89535000D03*
X133350000Y-92075000D03*
X115570000Y-92075000D03*
X115570000Y-89535000D03*
D13*
X115570000Y-86995000D03*
D12*
X115570000Y-84455000D03*
X115570000Y-81915000D03*
X115570000Y-79375000D03*
X115570000Y-76835000D03*
D13*
X115570000Y-74295000D03*
D12*
X115570000Y-71755000D03*
X115570000Y-69215000D03*
X115570000Y-66675000D03*
X115570000Y-64135000D03*
D13*
X115570000Y-61595000D03*
D12*
X115570000Y-56515000D03*
X115570000Y-59055000D03*
X115570000Y-53975000D03*
X115570000Y-51435000D03*
D13*
X115570000Y-48895000D03*
D12*
X115570000Y-46355000D03*
X115570000Y-43815000D03*
%TD*%
D10*
%TO.C,J405*%
X101600000Y-117475000D03*
D11*
X104140000Y-117475000D03*
X106680000Y-117475000D03*
%TD*%
D10*
%TO.C,J401*%
X54610000Y-117475000D03*
D11*
X57150000Y-117475000D03*
X59690000Y-117475000D03*
%TD*%
D14*
%TO.C,SW406*%
X118220000Y-110530000D03*
X130720000Y-110530000D03*
X118220000Y-115530000D03*
X130720000Y-115530000D03*
%TD*%
%TO.C,SW403*%
X22950000Y-110530000D03*
X35450000Y-110530000D03*
X22950000Y-115530000D03*
X35450000Y-115530000D03*
%TD*%
D10*
%TO.C,J502*%
X61912500Y-19050000D03*
D11*
X61912500Y-16510000D03*
X64452500Y-19050000D03*
X64452500Y-16510000D03*
X66992500Y-19050000D03*
X66992500Y-16510000D03*
X69532500Y-19050000D03*
X69532500Y-16510000D03*
X72072500Y-19050000D03*
X72072500Y-16510000D03*
X74612500Y-19050000D03*
X74612500Y-16510000D03*
X77152500Y-19050000D03*
X77152500Y-16510000D03*
X79692500Y-19050000D03*
X79692500Y-16510000D03*
X82232500Y-19050000D03*
X82232500Y-16510000D03*
X84772500Y-19050000D03*
X84772500Y-16510000D03*
X87312500Y-19050000D03*
X87312500Y-16510000D03*
X89852500Y-19050000D03*
X89852500Y-16510000D03*
X92392500Y-19050000D03*
X92392500Y-16510000D03*
%TD*%
%TO.C,J400*%
X43170000Y-117475000D03*
X45710000Y-117475000D03*
X48250000Y-117475000D03*
D10*
X50790000Y-117475000D03*
%TD*%
D15*
%TO.C,D414*%
X107315000Y-28575000D03*
D16*
X109855000Y-28575000D03*
%TD*%
D15*
%TO.C,D413*%
X98185000Y-28575000D03*
D16*
X100725000Y-28575000D03*
%TD*%
D15*
%TO.C,D412*%
X89535000Y-28575000D03*
D16*
X92075000Y-28575000D03*
%TD*%
%TO.C,D411*%
X83185000Y-28575000D03*
D15*
X80645000Y-28575000D03*
%TD*%
D16*
%TO.C,D410*%
X74295000Y-28575000D03*
D15*
X71755000Y-28575000D03*
%TD*%
%TO.C,D409*%
X62865000Y-28575000D03*
D16*
X65405000Y-28575000D03*
%TD*%
%TO.C,D408*%
X56515000Y-28575000D03*
D15*
X53975000Y-28575000D03*
%TD*%
%TO.C,D407*%
X45085000Y-28575000D03*
D16*
X47625000Y-28575000D03*
%TD*%
M02*
